<?xml version="1.0" encoding="UTF-8" standalone="no"?>
<svg width="15px" height="15px" viewBox="0 0 15 15" version="1.1" xmlns="http://www.w3.org/2000/svg" xmlns:xlink="http://www.w3.org/1999/xlink">
    <!-- Generator: Sketch 44.1 (41455) - http://www.bohemiancoding.com/sketch -->
    <defs></defs>
    <g id="Page-1" stroke="none" stroke-width="1" fill="none" fill-rule="evenodd">
        <g id="call" transform="translate(-1206.000000, -357.000000)" fill="#000000">
            <path d="M1215.31579,362.605263 L1215.31579,358.493917 C1215.31579,357.666343 1214.64422,357 1213.81579,357 C1212.98159,357 1212.31579,357.668849 1212.31579,358.493917 L1212.31579,362.605263 L1208.20444,362.605263 C1207.37687,362.605263 1206.71053,363.276836 1206.71053,364.105263 C1206.71053,364.939466 1207.37938,365.605263 1208.20444,365.605263 L1212.31579,365.605263 L1212.31579,369.71661 C1212.31579,370.544183 1212.98736,371.210526 1213.81579,371.210526 C1214.64999,371.210526 1215.31579,370.541677 1215.31579,369.71661 L1215.31579,365.605263 L1219.42714,365.605263 C1220.25471,365.605263 1220.92105,364.93369 1220.92105,364.105263 C1220.92105,363.27106 1220.2522,362.605263 1219.42714,362.605263 L1215.31579,362.605263 Z" id="Combined-Shape"></path>
        </g>
    </g>
</svg>