<svg xmlns="http://www.w3.org/2000/svg" width="22" height="20" viewBox="0 0 22 20">
    <path fill="#FFF" fill-rule="evenodd" d="M10.5 0C4.71 0 0 3.941 0 9.067c0 2.802 1.462 5.493 3.924 7.248-.094.513-.374 1.226-1.13 2.578l-.634 1.101L3.487 20c2.34 0 3.93-1.164 4.636-1.876.776.159 1.574.238 2.377.238 5.79 0 10.5-4.17 10.5-9.295C21 3.941 16.29 0 10.5 0zm0 17.417c-.72 0-1.931-.196-2.627-.338-.663.597-1.777 1.73-3.114 1.973l-1.152.206.628-1.175c.734-1.53.735-2.18.363-2.504-2.13-1.63-3.647-3.921-3.647-6.436 0-4.6 4.353-8.302 9.55-8.302 5.196 0 9.54 3.626 9.54 8.226-.001 4.598-4.345 8.35-9.54 8.35z"/>
</svg>
