<svg xmlns="http://www.w3.org/2000/svg" width="21" height="22" viewBox="0 0 21 22">
    <path fill="none" fill-rule="nonzero" stroke="#FFF" d="M9.84 1.047s.168-.029.475-.029c.307 0 .475.029.475.029.167.028.307.057.475.086 1.144.2 2.122.773 2.68 1.834.335.659.559 1.26.587 2.177.028.373 0 .516 0 .86.502 0 .53.43.53.917a3.6 3.6 0 0 1-.056.544c-.083.573-.083 1.204-.586 1.547-.056.058-.251.172-.28.402-.027.888-.279 1.719-.81 2.435-.083.115-.167.258-.25.401-.056.086-.056.23-.056.315 0 .459.028.602.056 1.06 0 .545.223.373.502.688.28.316.838.401 1.2.573.727.316 1.313.516 2.067.86.642.287 1.508 1.031 1.927 1.605.642.888.838 1.89.81 3.008-.028.487-.112.545-.447.63 0 0-.056.03-.084.03H1.547c-.056 0-.111 0-.14-.03-.25-.085-.362-.171-.362-.4-.028-.259-.028-.516-.028-.774.084-1.032.419-1.977.782-2.58.167-.257.614-.63 1.06-.945.56-.372 1.425-.745 2.262-1.117.447-.2 1.006-.401 1.425-.63.25-.144.977-.402.977-.688 0-.487.028-.688.028-1.232 0-.144.028-.315-.028-.401-.419-.63-.894-1.433-.977-2.15-.028-.257-.056-.486-.084-.744 0-.115-.056-.144-.168-.23a1.582 1.582 0 0 1-.53-.86c-.084-.429-.14-.658-.196-1.117-.056-.515.028-.888.53-1.174 0-.316 0-.43.029-.745.028-.488.056-.803.14-1.175.362-1.519 1.312-2.464 2.792-2.837.279-.086.53-.115.782-.143z"/>
</svg>
