<svg xmlns="http://www.w3.org/2000/svg" width="20" height="19" viewBox="0 0 20 19">
    <path fill="#FFF" fill-rule="nonzero" d="M4.968 9.5c0 1.384-1.109 2.507-2.476 2.507S.016 10.884.016 9.5c0-1.384 1.109-2.507 2.476-2.507S4.968 8.116 4.968 9.5zm7.524 0c0 1.384-1.108 2.507-2.476 2.507-1.367 0-2.475-1.123-2.475-2.507 0-1.384 1.108-2.507 2.475-2.507 1.368 0 2.476 1.123 2.476 2.507zm7.492 0c0 1.384-1.109 2.507-2.476 2.507s-2.476-1.123-2.476-2.507c0-1.384 1.109-2.507 2.476-2.507s2.476 1.123 2.476 2.507zM4.986 16.493C4.986 17.878 3.878 19 2.511 19 1.143 19 .035 17.878.035 16.493c0-1.384 1.108-2.506 2.476-2.506 1.367 0 2.475 1.122 2.475 2.506zm7.525 0c0 1.385-1.109 2.507-2.476 2.507s-2.476-1.122-2.476-2.507c0-1.384 1.109-2.506 2.476-2.506s2.476 1.122 2.476 2.506zm7.489 0C20 17.878 18.892 19 17.524 19c-1.367 0-2.475-1.122-2.475-2.507 0-1.384 1.108-2.506 2.475-2.506 1.368 0 2.476 1.122 2.476 2.506zM4.951 2.507c0 1.384-1.108 2.506-2.475 2.506C1.108 5.013 0 3.891 0 2.507 0 1.122 1.108 0 2.476 0 3.843 0 4.95 1.122 4.95 2.507zm7.525 0c0 1.384-1.109 2.506-2.476 2.506S7.524 3.891 7.524 2.507C7.524 1.122 8.633 0 10 0s2.476 1.122 2.476 2.507zm7.49 0c0 1.384-1.11 2.506-2.477 2.506-1.367 0-2.475-1.122-2.475-2.506C15.014 1.122 16.122 0 17.489 0c1.368 0 2.476 1.122 2.476 2.507z"/>
</svg>
