<?xml version="1.0" encoding="UTF-8" standalone="no"?>
<svg width="22px" height="16px" viewBox="0 0 22 16" version="1.1" xmlns="http://www.w3.org/2000/svg" xmlns:xlink="http://www.w3.org/1999/xlink">
    <!-- Generator: Sketch 44.1 (41455) - http://www.bohemiancoding.com/sketch -->
    <defs></defs>
    <g id="Page-1" stroke="none" stroke-width="1" fill="none" fill-rule="evenodd">
        <g id="Recent-Activities4-Expand" transform="translate(-1177.000000, -424.000000)" fill-rule="nonzero" fill="#000000">
            <g id="Fax" transform="translate(978.000000, 370.000000)">
                <g id="Page-1-Copy-8" transform="translate(20.000000, 54.000000)">
                    <g id="Group-7" transform="translate(179.000000, 0.617727)">
                        <path d="M4.14509091,0.745818182 C4.14509091,0.469675807 4.36894853,0.245818182 4.64509091,0.245818182 L17.4069091,0.245818182 C17.6830515,0.245818182 17.9069091,0.469675807 17.9069091,0.745818182 L17.9069091,10.0685455 C17.9069091,10.2011341 17.8542462,10.328294 17.7605024,10.4220589 L13.7386843,14.4447862 C13.6449128,14.5385788 13.5177187,14.5912727 13.3850909,14.5912727 L4.64509091,14.5912727 C4.36894853,14.5912727 4.14509091,14.3674151 4.14509091,14.0912727 L4.14509091,0.745818182 Z M5.14509091,1.24581818 L5.14509091,13.5912727 L13.177951,13.5912727 L16.9069091,9.86147177 L16.9069091,1.24581818 L5.14509091,1.24581818 Z M16.1998134,10.5682727 L13.8849091,10.5682727 L13.8849091,12.8837003 L16.1998134,10.5682727 Z M12.8849091,14.091 L12.8849091,10.0682727 C12.8849091,9.79213035 13.1087667,9.56827273 13.3849091,9.56827273 L17.4067273,9.56827273 C17.8521525,9.56827273 18.0752482,10.1067874 17.7603206,10.4217862 L13.7385024,14.4445134 C13.4235363,14.7595507 12.8849091,14.5364797 12.8849091,14.091 Z M1.45445455,1.24581818 C1.17831217,1.24581818 0.954454545,1.02196056 0.954454545,0.745818182 C0.954454545,0.469675807 1.17831217,0.245818182 1.45445455,0.245818182 L20.5980909,0.245818182 C20.8742333,0.245818182 21.0980909,0.469675807 21.0980909,0.745818182 C21.0980909,1.02196056 20.8742333,1.24581818 20.5980909,1.24581818 L1.45445455,1.24581818 Z M7.54554545,5.11481818 L14.5064545,5.11481818 C14.7825969,5.11481818 15.0064545,4.89096056 15.0064545,4.61481818 C15.0064545,4.33867581 14.7825969,4.11481818 14.5064545,4.11481818 L7.54554545,4.11481818 C7.26940308,4.11481818 7.04554545,4.33867581 7.04554545,4.61481818 C7.04554545,4.89096056 7.26940308,5.11481818 7.54554545,5.11481818 Z M7.54554545,7.91845455 L14.5064545,7.91845455 C14.7825969,7.91845455 15.0064545,7.69459692 15.0064545,7.41845455 C15.0064545,7.14231217 14.7825969,6.91845455 14.5064545,6.91845455 L7.54554545,6.91845455 C7.26940308,6.91845455 7.04554545,7.14231217 7.04554545,7.41845455 C7.04554545,7.69459692 7.26940308,7.91845455 7.54554545,7.91845455 Z" id="Combined-Shape"></path>
                    </g>
                </g>
            </g>
        </g>
    </g>
</svg>