<svg xmlns="http://www.w3.org/2000/svg" width="14" height="14" viewBox="0 0 14 14">
    <g fill="#666" fill-rule="evenodd">
        <path d="M6.997 13.994c-3.852 0-6.99-3.139-6.99-6.991C.006 3.15 3.144.012 6.996.012c3.853 0 6.992 3.139 6.992 6.99 0 3.853-3.14 6.992-6.992 6.992zm0-13.412a6.43 6.43 0 0 0-6.42 6.42 6.43 6.43 0 0 0 6.42 6.421 6.43 6.43 0 0 0 6.421-6.42 6.43 6.43 0 0 0-6.42-6.42z"/>
        <path d="M6.997 5.005c.314 0 .543.257.543.542V10.4a.542.542 0 1 1-1.085 0V5.576c0-.314.228-.57.542-.57zM6.997 3.036a.542.542 0 1 1 0 1.085.542.542 0 0 1 0-1.085z"/>
    </g>
</svg>
