<?xml version="1.0" encoding="UTF-8"?>
<svg width="20px" height="19px" viewBox="0 0 20 19" version="1.1" xmlns="http://www.w3.org/2000/svg" xmlns:xlink="http://www.w3.org/1999/xlink">
    <g id="Message-List" stroke="none" stroke-width="1" fill="none" fill-rule="evenodd" transform="translate(-261.000000, -247.000000)">
        <g id="Group-2" transform="translate(261.000000, 247.000000)" fill="#0684BD">
            <path d="M9.5,8.5 L9.5,5.5 C9.5,5.22385763 9.72385763,5 10,5 C10.2761424,5 10.5,5.22385763 10.5,5.5 L10.5,8.5 L13.5,8.5 C13.7761424,8.5 14,8.72385763 14,9 C14,9.27614237 13.7761424,9.5 13.5,9.5 L10.5,9.5 L10.5,12.5 C10.5,12.7761424 10.2761424,13 10,13 C9.72385763,13 9.5,12.7761424 9.5,12.5 L9.5,9.5 L6.5,9.5 C6.22385763,9.5 6,9.27614237 6,9 C6,8.72385763 6.22385763,8.5 6.5,8.5 L9.5,8.5 Z M0.5,8.7066593 C0.5,4.09169933 4.70765812,0.5 9.94193339,0.5 C15.1763607,0.5 19.3844214,4.09206382 19.3836036,8.707158 C19.3836036,13.3542275 15.1355276,17.107918 9.94193339,17.107918 C9.31241812,17.107918 8.68751478,17.0533158 8.07753803,16.9447557 C7.07716444,17.8592001 5.6562565,18.4999997 3.96768018,18.4999952 L1.97687327,18.4912735 L2.40639725,17.7455045 L2.94286189,16.814124 C3.39407919,16.0094382 3.64988572,15.4663894 3.77516579,15.0703104 C1.7147754,13.484958 0.5,11.1445815 0.5,8.7066593 Z M3.70247032,17.4988274 L3.96987065,17.5 C5.47893629,17.5 6.73195169,16.889413 7.56329263,16.052784 L7.75364517,15.8612207 L8.01821771,15.9153684 C8.64359212,16.0433584 9.28961967,16.107918 9.94193339,16.107918 C14.608894,16.107918 18.3836036,12.7725041 18.3836036,8.7070694 C18.3843167,4.68249934 14.6560561,1.5 9.94193339,1.5 C5.22792712,1.5 1.5,4.68219612 1.5,8.7066593 C1.5,10.9199233 2.66114908,13.0588558 4.63133319,14.4600326 L4.89045492,14.6443176 L4.8334486,14.9571359 C4.73378615,15.5040268 4.43854348,16.1913773 3.81225335,17.3082145 L3.70247032,17.4988274 Z" id="Combined-Shape"></path>
        </g>
    </g>
</svg>
