<svg width="19px" height="19px" viewBox="0 0 19 19" version="1.1" xmlns="http://www.w3.org/2000/svg" xmlns:xlink="http://www.w3.org/1999/xlink">
    <g id="Page-1" stroke="none" stroke-width="1" fill="none" fill-rule="evenodd">
        <g id="Recent-Activities2-Expand" transform="translate(-997.000000, -462.000000)" fill-rule="nonzero" fill="#303030">
            <g id="Fax" transform="translate(978.000000, 370.000000)">
                <g id="Group-15" transform="translate(19.000000, 91.545455)">
                    <g id="Group-3" transform="translate(0.000000, -0.000000)">
                        <path d="M17.5,9.95443834 C17.5,5.53621993 13.9183255,1.95454545 9.50010711,1.95454545 C5.08184395,1.95454545 1.5,5.53626469 1.5,9.95443834 C1.5,14.3726567 5.0818887,17.9545455 9.50010711,17.9545455 C13.9182808,17.9545455 17.5,14.3727015 17.5,9.95443834 Z M18.5,9.95443834 C18.5,14.9249785 14.4705733,18.9545455 9.50010711,18.9545455 C4.52960395,18.9545455 0.5,14.9249415 0.5,9.95443834 C0.5,4.98397215 4.52956699,0.954545455 9.50010711,0.954545455 C14.4706103,0.954545455 18.5,4.98393518 18.5,9.95443834 Z M7.5,13.4324771 L7.5,6.4747001 C7.5,6.03333116 8.01512342,5.79256931 8.35373383,6.07567623 L12.514663,9.55456473 C12.7633276,9.76246938 12.7633276,10.1447078 12.514663,10.3526125 L8.35373383,13.831501 C8.01512342,14.1146079 7.5,13.873846 7.5,13.4324771 Z" id="Combined-Shape"></path>
                    </g>
                </g>
            </g>
        </g>
    </g>
</svg>