<?xml version="1.0" encoding="UTF-8" standalone="no"?>
<svg width="26px" height="12px" viewBox="0 0 26 12" version="1.1" xmlns="http://www.w3.org/2000/svg" xmlns:xlink="http://www.w3.org/1999/xlink">
    <defs></defs>
    <g id="Symbols" stroke="none" stroke-width="1" fill="none" fill-rule="evenodd">
        <g id="Recent" transform="translate(-77.000000, -55.000000)" fill="#000000">
            <g id="voice-mail" transform="translate(77.000000, 55.000000)">
                <g id="Page-1">
                    <path d="M19.5479,10.8047 C16.8849,10.8047 14.7179,8.6387 14.7179,5.9747 C14.7179,3.3127 16.8849,1.1457 19.5479,1.1457 C22.2109,1.1457 24.3779,3.3127 24.3779,5.9747 C24.3779,8.6387 22.2109,10.8047 19.5479,10.8047 M1.1459,5.9747 C1.1459,3.3127 3.3129,1.1457 5.9759,1.1457 C8.6389,1.1457 10.8059,3.3127 10.8059,5.9747 C10.8059,8.6387 8.6389,10.8047 5.9759,10.8047 C3.3129,10.8047 1.1459,8.6387 1.1459,5.9747 M19.5479,-0.0003 C16.2479,-0.0003 13.5719,2.6747 13.5719,5.9747 C13.5719,7.9587 14.5399,9.7177 16.0289,10.8047 L13.7499,10.8047 L9.4839,10.8047 C10.9769,9.7187 11.9509,7.9627 11.9509,5.9747 C11.9509,2.6747 9.2759,-0.0003 5.9759,-0.0003 C2.6759,-0.0003 -0.0001,2.6747 -0.0001,5.9747 C-0.0001,9.2667 2.6609,11.9337 5.9479,11.9487 L5.9479,11.9507 L5.9759,11.9507 L13.7499,11.9507 L19.5369,11.9507 L19.5479,11.9507 C22.8479,11.9507 25.5239,9.2757 25.5239,5.9747 C25.5239,2.6747 22.8479,-0.0003 19.5479,-0.0003" id="Fill-1"></path>
                </g>
            </g>
        </g>
    </g>
</svg>
