<svg
  xmlns="http://www.w3.org/2000/svg"
  width="17"
  height="19"
  viewBox="0 0 17 21 "
  strokeWidth="0.01"
>
  <path
    fillRule="nonzero"
    d="M4.308 0a.6.6 0 0 1 .097 1.193l-.097.008H1.2v17.955h14.226v-6.817a.6.6 0 0 1 1.192-.098l.008.098v7.417a.6.6 0 0 1-.503.592l-.097.008H.6a.6.6 0 0 1-.592-.503L0 19.756V.6A.6.6 0 0 1 .502.008L.6.001h3.708zm8.332 14.984a.6.6 0 0 1 .097 1.192l-.097.008H3.987a.6.6 0 0 1-.098-1.192l.098-.008h8.653zm0-3.703a.6.6 0 0 1 .097 1.192l-.097.008H7.138a.6.6 0 0 1-.097-1.193l.097-.007h5.502zM8.308 0h7.738a.6.6 0 0 1 .485.246l.048.079a.597.597 0 0 1 .067.276v7.738a.6.6 0 0 1-1.2 0V2.137L9.524 8.209a.6.6 0 0 1-.928-.754l.069-.084L14.684 1.2H8.308a.6.6 0 0 1-.592-.503L7.708.6a.6.6 0 0 1 .503-.592L8.308 0h7.738z"
  />
</svg>
