<?xml version="1.0" encoding="UTF-8"?>
<svg width="168px" height="39px" viewBox="0 0 168 39" version="1.1" xmlns="http://www.w3.org/2000/svg" xmlns:xlink="http://www.w3.org/1999/xlink">
    <!-- Generator: Sketch 55.2 (78181) - https://sketchapp.com -->
    <title>engage-voice-logo copy</title>
    <desc>Created with Sketch.</desc>
    <g id="Demo-1" stroke="none" stroke-width="1" fill="none" fill-rule="evenodd">
        <g id="Login---Step-1---Legacy-Copy" transform="translate(-66.000000, -36.000000)">
            <g id="engage-voice-logo-copy" transform="translate(150.500000, 56.000000) rotate(-360.000000) translate(-150.500000, -56.000000) translate(66.000000, 36.000000)">
                <g id="Group" transform="translate(0.000000, -0.000000)">
                    <g id="Group-4" transform="translate(0.021783, 0.021096)">
                        <path d="M7.96545794,13.17008 L6.78511311,20.162727 L0.304078629,20.162727 L3.73649242,0.0965505633 L13.0706304,0.0965505633 C14.5116648,0.0965505633 15.7354579,0.184785857 16.7347683,0.361256446 C17.7340786,0.537727034 18.5451131,0.809785857 19.1751131,1.17007998 C19.8051131,1.53037409 20.26132,1.9789035 20.5437338,2.52302115 C20.833389,3.05978586 20.9709752,3.69949174 20.9709752,4.44949174 C20.9709752,4.83919762 20.9202855,5.29507998 20.833389,5.8171388 C20.6306304,6.97155056 20.1889062,7.99360939 19.5009752,8.89802115 C18.8130441,9.79507998 17.8716648,10.4053741 16.6623545,10.7215506 C17.0678717,10.8686094 17.4299407,11.0230212 17.7485614,11.1847859 C18.0671821,11.3391976 18.3423545,11.54508 18.5740786,11.7803741 C18.7985614,12.0230212 18.9795959,12.3171388 19.1099407,12.67008 C19.2402855,13.0230212 19.3054579,13.4789035 19.3054579,14.0303741 C19.3054579,14.6112564 19.2402855,15.2730212 19.1099407,16.037727 C18.9795959,16.7436094 18.8782166,17.3318447 18.8058028,17.79508 C18.733389,18.2583153 18.6971821,18.6186094 18.6971821,18.8833153 C18.6971821,19.3244917 18.8637338,19.5524329 19.1895959,19.5524329 L19.1099407,20.162727 L12.549251,20.162727 C12.5130441,19.9789035 12.49132,19.7656682 12.49132,19.5230212 C12.49132,19.2068447 12.5130441,18.8024329 12.5564924,18.3097859 C12.5999407,17.8244917 12.6795959,17.2656682 12.7882166,16.6553741 C12.8968373,16.037727 12.9547683,15.5230212 12.9547683,15.0965506 C12.9547683,14.3906682 12.7375269,13.8980212 12.3102855,13.6039035 C11.8830441,13.3171388 11.0864924,13.1774329 9.93511311,13.1774329 L7.96545794,13.1774329 L7.96545794,13.17008 Z M8.73304415,8.77302115 L11.2820097,8.77302115 C12.2885614,8.77302115 13.0706304,8.63331527 13.6426993,8.3539035 C14.2147683,8.07449174 14.5478717,7.58184468 14.6564924,6.87596233 C14.6782166,6.78037409 14.6854579,6.64802115 14.6854579,6.45684468 C14.6854579,5.88331527 14.4754579,5.46419762 14.0554579,5.1921388 C13.6354579,4.92007998 13.0851131,4.78772703 12.4044235,4.78772703 L9.38476828,4.78772703 L8.73304415,8.77302115 Z" id="Shape" fill="#0A84BD"></path>
                        <path d="M30.0661476,5.5671388 L35.2799407,5.5671388 L34.8961476,7.8539035 C35.6999407,6.96419762 36.5182166,6.29507998 37.3364924,5.83184468 C38.1620097,5.37596233 39.1251131,5.14802115 40.2185614,5.14802115 C41.8261476,5.14802115 43.0064924,5.53037409 43.7595959,6.29507998 C44.5126993,7.05243292 44.8820097,8.16272703 44.8820097,9.61125645 C44.8820097,10.1847859 44.8240786,10.787727 44.7154579,11.42008 L43.2309752,20.17008 L37.5175269,20.17008 L38.8354579,12.4494917 C38.893389,12.1112564 38.9223545,11.79508 38.9223545,11.4715506 C38.9223545,10.9715506 38.8064924,10.5524329 38.5747683,10.2141976 C38.3430441,9.87596233 37.9230441,9.71419762 37.3002855,9.71419762 C36.4240786,9.71419762 35.7795959,9.9789035 35.38132,10.5083153 C34.9758028,11.037727 34.7006304,11.7803741 34.5558028,12.7215506 L33.2958028,20.162727 L27.5895959,20.162727 L30.0661476,5.5671388 Z" id="Path" fill="#0A84BD"></path>
                        <path d="M50.2116648,20.6480212 L50.2116648,20.7289035 C50.2116648,20.9347859 50.29132,21.1186094 50.4578717,21.287727 C50.6606304,21.5303741 51.0516648,21.6480212 51.6382166,21.6480212 C52.4637338,21.6480212 53.079251,21.4347859 53.5064924,21.0083153 C53.9264924,20.5818447 54.2306304,19.8465506 54.4116648,18.8024329 L54.6289062,17.6039035 C54.1509752,18.0303741 53.5644235,18.4053741 52.8620097,18.7215506 C52.1595959,19.037727 51.283389,19.1994917 50.2406304,19.1994917 C49.3789062,19.1994917 48.6258028,19.0597859 47.9740786,18.7803741 C47.3295959,18.5009623 46.779251,18.1186094 46.3447683,17.6406682 C45.9030441,17.1553741 45.5771821,16.5818447 45.3526993,15.912727 C45.1354579,15.2436094 45.0268373,14.5303741 45.0268373,13.7656682 C45.0268373,13.5230212 45.04132,13.2803741 45.0702855,13.04508 C45.099251,12.8024329 45.1282166,12.5524329 45.1644235,12.29508 C45.309251,11.4053741 45.5699407,10.5156682 45.9464924,9.61860939 C46.3158028,8.7289035 46.8226993,7.93478586 47.4526993,7.23625645 C48.0826993,6.53772703 48.8430441,5.97155056 49.7337338,5.53772703 C50.6244235,5.1039035 51.6599407,4.88331527 52.8475269,4.88331527 C53.7309752,4.88331527 54.5130441,5.09655056 55.1937338,5.51566821 C55.8816648,5.9421388 56.4247683,6.50096233 56.8302855,7.20684468 L57.1271821,5.29507998 L62.1526993,5.29507998 L60.1468373,17.0597859 C59.9585614,18.1553741 59.7268373,19.1774329 59.4444235,20.1259623 C59.1620097,21.0744917 58.7058028,21.8980212 58.0830441,22.6039035 C57.4602855,23.3097859 56.6130441,23.8612564 55.5340786,24.2656682 C54.4551131,24.662727 53.0285614,24.8612564 51.2471821,24.8612564 C50.0016648,24.8612564 48.9516648,24.7509623 48.0899407,24.5303741 C47.2282166,24.3024329 46.5330441,24.0083153 46.0044235,23.6406682 C45.4685614,23.2656682 45.0847683,22.8391976 44.8385614,22.3539035 C44.5923545,21.8759623 44.469251,21.3686094 44.469251,20.8465506 L44.469251,20.6553741 L50.2116648,20.6553741 L50.2116648,20.6480212 Z M53.6151131,9.00096233 C53.1951131,9.00096233 52.8258028,9.08184468 52.5144235,9.25096233 C52.2030441,9.42007998 51.9423545,9.65537409 51.7178717,9.94949174 C51.5006304,10.2436094 51.3195959,10.6039035 51.1820097,11.0083153 C51.0444235,11.42008 50.9358028,11.8612564 50.863389,12.3244917 C50.8416648,12.4568447 50.8271821,12.5818447 50.8199407,12.6921388 C50.8054579,12.8024329 50.8054579,12.92008 50.8054579,13.0303741 C50.8054579,13.6112564 50.9502855,14.1112564 51.2326993,14.5303741 C51.5151131,14.9568447 51.9785614,15.17008 52.6230441,15.1921388 L52.7606304,15.1921388 C53.1661476,15.1921388 53.5209752,15.1039035 53.8468373,14.9347859 C54.1654579,14.7730212 54.4406304,14.54508 54.6723545,14.2656682 C54.8968373,13.9862564 55.0923545,13.662727 55.2371821,13.29508 C55.3820097,12.9274329 55.4978717,12.5524329 55.5702855,12.162727 C55.6209752,11.8612564 55.6499407,11.5524329 55.6499407,11.2362564 C55.6499407,10.6186094 55.4978717,10.0965506 55.2082166,9.65537409 C54.9185614,9.21419762 54.4044235,8.99360939 53.6730441,8.99360939 L53.6151131,8.99360939 L53.6151131,9.00096233 Z" id="Shape" fill="#0A84BD"></path>
                        <path d="M75.5347683,8.02302115 C75.5347683,7.95684468 75.5420097,7.89066821 75.549251,7.83919762 C75.5564924,7.78772703 75.5637338,7.7289035 75.5637338,7.65537409 C75.5637338,6.77302115 75.3175269,6.09655056 74.8251131,5.62596233 C74.3326993,5.14802115 73.6375269,4.91272703 72.7395959,4.91272703 C71.6461476,4.91272703 70.719251,5.36860939 69.9589062,6.29507998 C69.1985614,7.22155056 68.6626993,8.6039035 68.35132,10.4421388 C68.2861476,10.79508 68.2282166,11.1333153 68.199251,11.4568447 C68.1630441,11.7803741 68.1485614,12.0965506 68.1485614,12.3906682 C68.1485614,12.8465506 68.1920097,13.2730212 68.2861476,13.6553741 C68.3802855,14.037727 68.5468373,14.3833153 68.7785614,14.67008 C69.0102855,14.9568447 69.3216648,15.1847859 69.6982166,15.3539035 C70.0820097,15.5230212 70.5599407,15.6039035 71.1537338,15.6039035 C72.1385614,15.6039035 72.9278717,15.29508 73.5289062,14.6847859 C74.1226993,14.0744917 74.5644235,13.3097859 74.8395959,12.3906682 L80.7340786,12.3906682 C80.3864924,13.6186094 79.8868373,14.7215506 79.2423545,15.6847859 C78.5978717,16.6480212 77.8230441,17.4715506 76.9323545,18.1480212 C76.0416648,18.8244917 75.0495959,19.3391976 73.9489062,19.6994917 C72.8482166,20.0597859 71.6823545,20.2362564 70.4585614,20.2362564 C69.1116648,20.2362564 67.9168373,20.0597859 66.8740786,19.7068447 C65.8385614,19.3539035 64.9551131,18.8465506 64.2382166,18.1774329 C63.52132,17.5083153 62.9709752,16.6994917 62.6016648,15.7362564 C62.2251131,14.7803741 62.0440786,13.6921388 62.0440786,12.4789035 C62.0440786,12.1333153 62.0585614,11.7656682 62.0947683,11.3833153 C62.1309752,11.0083153 62.1816648,10.6186094 62.2468373,10.2141976 C62.5075269,8.68478586 62.9782166,7.30978586 63.673389,6.07449174 C64.3685614,4.84655056 65.2085614,3.80243292 66.193389,2.9421388 C67.1782166,2.08184468 68.2789062,1.42007998 69.5026993,0.94949174 C70.7264924,0.486256446 71.9864924,0.250962328 73.2826993,0.250962328 C75.9982166,0.250962328 78.0330441,0.853903504 79.3726993,2.0671388 C80.7123545,3.28037409 81.3858028,4.99360939 81.3858028,7.20684468 L81.3858028,7.6039035 C81.3858028,7.7289035 81.37132,7.86125645 81.3568373,8.00096233 L75.5347683,8.00096233 L75.5347683,8.02302115 Z" id="Path" fill="#F6881F"></path>
                        <path d="M87.3237338,13.8391976 C87.309251,13.9274329 87.2947683,14.0230212 87.2875269,14.1186094 C87.2730441,14.2141976 87.2730441,14.3024329 87.2730441,14.3980212 C87.2730441,15.1039035 87.4975269,15.662727 87.9609752,16.0818447 C88.4171821,16.5009623 88.989251,16.7068447 89.6626993,16.7068447 C90.1189062,16.7068447 90.5606304,16.6039035 90.9806304,16.3906682 C91.4006304,16.1774329 91.7482166,15.8612564 92.023389,15.4274329 L97.4906304,15.4274329 C97.0851131,16.3391976 96.5637338,17.0965506 95.9120097,17.7141976 C95.2602855,18.3244917 94.543389,18.8244917 93.7540786,19.2068447 C92.9647683,19.5818447 92.139251,19.8539035 91.2702855,20.0156682 C90.40132,20.17008 89.5468373,20.2509623 88.7068373,20.2509623 C87.6785614,20.2509623 86.7371821,20.1186094 85.8826993,19.8612564 C85.0209752,19.6039035 84.2823545,19.2141976 83.6595959,18.6921388 C83.0368373,18.1774329 82.5516648,17.537727 82.2040786,16.7803741 C81.8564924,16.0303741 81.6826993,15.162727 81.6826993,14.1774329 C81.6826993,13.9347859 81.6971821,13.6847859 81.7261476,13.4347859 C81.7478717,13.1847859 81.7840786,12.9347859 81.8202855,12.67008 C82.0230441,11.4789035 82.4140786,10.3980212 83.0006304,9.42743292 C83.5871821,8.44949174 84.3040786,7.62596233 85.15132,6.94949174 C86.0058028,6.27302115 86.9544235,5.74360939 88.0044235,5.37596233 C89.0616648,5.00096233 90.1623545,4.8171388 91.3137338,4.8171388 C92.4651131,4.8171388 93.4861476,4.98625645 94.3768373,5.3171388 C95.2602855,5.64802115 96.013389,6.11860939 96.6144235,6.71419762 C97.2154579,7.30978586 97.6789062,8.03772703 97.9830441,8.89066821 C98.2944235,9.74360939 98.4464924,10.6847859 98.4464924,11.7068447 C98.4464924,12.3391976 98.3740786,13.0524329 98.229251,13.8539035 L87.3237338,13.8539035 L87.3237338,13.8391976 Z M93.0082166,10.8833153 C93.0226993,10.787727 93.0371821,10.6553741 93.0371821,10.4641976 C93.0371821,9.86860939 92.8344235,9.36860939 92.4361476,8.95684468 C92.0306304,8.54507998 91.5309752,8.34655056 90.9226993,8.34655056 C90.0609752,8.34655056 89.3658028,8.57449174 88.8371821,9.03037409 C88.3085614,9.48625645 87.9682166,10.1039035 87.823389,10.8833153 L93.0082166,10.8833153 L93.0082166,10.8833153 Z" id="Shape" fill="#F6881F"></path>
                        <path d="M100.293044,5.64802115 L105.506837,5.64802115 L105.123044,7.93478586 C105.926837,7.04507998 106.745113,6.37596233 107.57063,5.91272703 C108.396148,5.45684468 109.35201,5.2289035 110.452699,5.2289035 C112.067527,5.2289035 113.24063,5.61125645 113.993734,6.37596233 C114.746837,7.13331527 115.123389,8.24360939 115.123389,9.6921388 C115.123389,10.2656682 115.065458,10.8686094 114.956837,11.5009623 L113.479596,20.2509623 L107.766148,20.2509623 L109.084079,12.5303741 C109.134768,12.1921388 109.163734,11.8759623 109.163734,11.5524329 C109.163734,11.0524329 109.047872,10.6333153 108.816148,10.3024329 C108.584423,9.96419762 108.164423,9.80243292 107.541665,9.80243292 C106.665458,9.80243292 106.020975,10.0671388 105.615458,10.5965506 C105.217182,11.1259623 104.94201,11.8686094 104.789941,12.8097859 L103.529941,20.2509623 L97.8164924,20.2509623 L100.293044,5.64802115 Z" id="Path" fill="#F6881F"></path>
                        <path d="M124.030286,20.1406682 C123.385803,20.1774329 122.799251,20.2068447 122.256148,20.2215506 C121.720286,20.2436094 121.22063,20.2436094 120.764423,20.2436094 C119.902699,20.2436094 119.178561,20.1994917 118.599251,20.1186094 C118.012699,20.037727 117.549251,19.8833153 117.194423,19.67008 C116.846837,19.4568447 116.60063,19.17008 116.455803,18.8171388 C116.310975,18.4715506 116.238561,18.0230212 116.238561,17.4789035 C116.238561,17.1480212 116.260286,16.7656682 116.303734,16.3465506 C116.347182,15.9274329 116.412354,15.4641976 116.506492,14.9641976 L117.549251,8.86125645 L115.514423,8.86125645 L116.064768,5.51566821 L118.179251,5.51566821 L118.975803,0.971550563 L124.602354,0.971550563 L123.805803,5.51566821 L126.550286,5.51566821 L125.999941,8.86125645 L123.255458,8.86125645 L122.350286,14.1774329 C122.314079,14.3465506 122.285113,14.4936094 122.263389,14.6333153 C122.241665,14.7730212 122.234423,14.8980212 122.234423,15.0156682 C122.234423,15.3686094 122.343044,15.6186094 122.567527,15.7730212 C122.79201,15.92008 123.197527,15.9936094 123.805803,15.9936094 L124.710975,15.9936094 L124.030286,20.1406682 Z" id="Path" fill="#F6881F"></path>
                        <path d="M127.723389,5.64802115 L132.915458,5.64802115 L132.423044,8.6039035 L132.480975,8.6039035 C133.632354,6.3539035 135.297872,5.2289035 137.477527,5.2289035 C137.607872,5.2289035 137.730975,5.23625645 137.846837,5.25831527 C137.962699,5.28037409 138.093044,5.29507998 138.216148,5.3171388 L137.195113,11.1186094 C137.014079,11.0818447 136.825803,11.04508 136.637527,11.0083153 C136.44201,10.9715506 136.246492,10.9568447 136.043734,10.9568447 C134.87063,10.9568447 133.943734,11.2730212 133.255803,11.9053741 C132.567872,12.537727 132.089941,13.6480212 131.814768,15.2215506 L130.960286,20.2656682 L125.246837,20.2656682 L127.723389,5.64802115 Z" id="Path" fill="#F6881F"></path>
                        <path d="M145.855803,20.2803741 L145.819596,18.2730212 C144.885458,19.0524329 143.965803,19.5744917 143.06063,19.8465506 C142.155458,20.1112564 141.163389,20.2509623 140.084423,20.2509623 C139.483389,20.2509623 138.904079,20.1847859 138.353734,20.04508 C137.803389,19.9053741 137.325458,19.6847859 136.927182,19.3833153 C136.521665,19.0891976 136.203044,18.7215506 135.964079,18.2803741 C135.732354,17.8465506 135.609251,17.3171388 135.609251,16.7068447 C135.609251,16.4494917 135.638217,16.162727 135.696148,15.8465506 C135.877182,14.7509623 136.275458,13.8906682 136.890975,13.2656682 C137.506492,12.6406682 138.216148,12.1774329 139.034423,11.8612564 C139.845458,11.54508 140.707182,11.3244917 141.612354,11.2068447 C142.517527,11.0891976 143.357527,10.9789035 144.139596,10.8759623 C144.914423,10.7730212 145.58063,10.6333153 146.116492,10.4568447 C146.652354,10.2803741 146.963734,9.95684468 147.036148,9.49360939 C147.036148,9.45684468 147.043389,9.42743292 147.05063,9.39802115 C147.057872,9.36860939 147.065113,9.33919762 147.065113,9.30243292 C147.065113,9.07449174 146.999941,8.89802115 146.869596,8.77302115 C146.739251,8.64802115 146.587182,8.54507998 146.413389,8.4789035 C146.239596,8.41272703 146.058561,8.36860939 145.855803,8.33919762 C145.653044,8.30978586 145.486492,8.29507998 145.363389,8.29507998 C145.16063,8.29507998 144.95063,8.30978586 144.718906,8.33919762 C144.487182,8.36860939 144.269941,8.43478586 144.074423,8.53772703 C143.871665,8.64066821 143.69063,8.78037409 143.509596,8.97155056 C143.335803,9.15537409 143.212699,9.40537409 143.140286,9.7289035 L137.65132,9.7289035 C137.781665,8.9421388 138.035113,8.25831527 138.418906,7.64802115 C138.802699,7.04507998 139.345803,6.53037409 140.048217,6.11860939 C140.757872,5.69949174 141.619596,5.37596233 142.64063,5.15537409 C143.668906,4.92743292 144.892699,4.82449174 146.319251,4.82449174 C147.622699,4.82449174 148.687182,4.91272703 149.512699,5.08919762 C150.345458,5.26566821 151.004423,5.52302115 151.475113,5.8539035 C151.953044,6.18478586 152.278906,6.58919762 152.467182,7.05243292 C152.648217,7.51566821 152.742354,8.03772703 152.742354,8.61860939 C152.742354,8.97155056 152.72063,9.33184468 152.669941,9.69949174 C152.626492,10.0744917 152.56132,10.4641976 152.488906,10.8686094 L151.337527,17.6994917 C151.286837,18.0156682 151.257872,18.2730212 151.257872,18.4789035 C151.257872,18.6847859 151.294079,18.8686094 151.366492,19.0230212 C151.438906,19.1774329 151.576492,19.3612564 151.779251,19.5671388 L151.757527,20.29508 L145.855803,20.29508 L145.855803,20.2803741 Z M143.219941,16.9641976 C143.712354,16.9641976 144.146837,16.8759623 144.523389,16.6921388 C144.899941,16.5083153 145.21132,16.2509623 145.464768,15.92008 C145.725458,15.5965506 145.920975,15.2141976 146.073044,14.7803741 C146.217872,14.3465506 146.319251,13.8759623 146.377182,13.3759623 C145.863044,13.5965506 145.348906,13.7583153 144.827527,13.8686094 C144.306148,13.9715506 143.820975,14.0818447 143.37201,14.1994917 C142.923044,14.3171388 142.539251,14.4936094 142.22063,14.7141976 C141.894768,14.9347859 141.699251,15.2803741 141.626837,15.7436094 L141.626837,15.912727 C141.626837,16.2289035 141.757182,16.4862564 142.025113,16.6774329 C142.285803,16.8686094 142.684079,16.9641976 143.219941,16.9641976 L143.219941,16.9641976 Z" id="Shape" fill="#F6881F"></path>
                        <polygon id="Path" fill="#F6881F" points="152.742354 20.2509623 156.167527 0.184785857 161.880975 0.184785857 158.455803 20.2509623"></polygon>
                        <polygon id="Path" fill="#0A84BD" points="20.1744235 20.17008 23.3895959 8.3171388 27.5244235 8.3171388 25.8589062 20.17008"></polygon>
                        <path d="M29.6099407,3.02302115 C29.6099407,3.02302115 29.6099407,3.02302115 29.5954579,3.00096233 C29.5809752,2.9789035 29.5520097,2.93478586 29.5158028,2.87596233 C29.4361476,2.76566821 29.2985614,2.6039035 29.1030441,2.42007998 C28.7047683,2.0671388 28.0530441,1.65537409 27.0030441,1.45684468 C26.4889062,1.36125645 26.0399407,1.36125645 25.6561476,1.39802115 C24.7364924,1.49360939 24.1716648,1.87596233 23.9761476,2.03037409 C23.9109752,2.08184468 23.8964924,2.08919762 23.8964924,2.08919762 C23.6358028,2.36125645 23.2085614,2.3539035 22.9406304,2.08919762 C22.6799407,1.82449174 22.6799407,1.39066821 22.9406304,1.11860939 C23.0058028,1.05243292 23.8675269,0.206844681 25.51132,0.0303740927 C26.0182166,-0.0210964955 26.5975269,-0.0137435544 27.2347683,0.103903504 C29.8489062,0.57449174 30.76132,2.28037409 30.8047683,2.39066821 C30.97132,2.7289035 30.8409752,3.14066821 30.5078717,3.30978586 C30.4354579,3.34655056 30.3558028,3.36860939 30.2761476,3.37596233 C30.0082166,3.42743292 29.7330441,3.28772703 29.6099407,3.02302115" id="Path" fill="#F6881F"></path>
                        <path d="M27.9299407,4.58184468 C27.9299407,4.58184468 27.9299407,4.58184468 27.8864924,4.51566821 C27.8430441,4.45684468 27.7706304,4.36860939 27.6620097,4.27302115 C27.4447683,4.08184468 27.0899407,3.8539035 26.4889062,3.73625645 C26.1920097,3.68478586 25.9458028,3.67743292 25.7358028,3.69949174 C25.2216648,3.75096233 24.9175269,3.96419762 24.8161476,4.04507998 C24.7871821,4.0671388 24.7871821,4.07449174 24.7871821,4.07449174 C24.5699407,4.29507998 24.2151131,4.29507998 23.9906304,4.07449174 C23.773389,3.8539035 23.773389,3.49360939 23.9906304,3.26566821 C24.04132,3.20684468 24.5916648,2.67743292 25.6199407,2.5671388 C25.93132,2.53772703 26.293389,2.54507998 26.6844235,2.61125645 L26.6844235,2.61125645 C28.3064924,2.90537409 28.8930441,3.97155056 28.929251,4.05978586 C29.0668373,4.33919762 28.9582166,4.68478586 28.6758028,4.82449174 C28.6106304,4.8539035 28.5454579,4.87596233 28.4802855,4.88331527 C28.2630441,4.92007998 28.0385614,4.80243292 27.9299407,4.58184468" id="Path" fill="#F6881F"></path>
                        <path d="M27.4520097,5.98625645 C27.4447683,6.6921388 26.7930441,7.25096233 25.989251,7.25096233 C25.1782166,7.24360939 24.5337338,6.67007998 24.5337338,5.97155056 C24.5337338,5.26566821 25.1926993,4.69949174 26.0037338,4.70684468 C26.8002855,4.70684468 27.4520097,5.28772703 27.4520097,5.98625645" id="Path" fill="#F6881F"></path>
                        <path d="M164.936837,0.214197622 C163.503044,0.214197622 162.344423,1.39802115 162.344423,2.84655056 C162.344423,4.30243292 163.510286,5.48625645 164.936837,5.48625645 C166.37063,5.48625645 167.529251,4.30243292 167.529251,2.84655056 C167.529251,1.39066821 166.37063,0.214197622 164.936837,0.214197622 L164.936837,0.214197622 Z M164.936837,5.00831527 C163.763734,5.00831527 162.807872,4.03772703 162.807872,2.84655056 C162.807872,1.65537409 163.763734,0.684785857 164.936837,0.684785857 C166.109941,0.684785857 167.065803,1.65537409 167.065803,2.84655056 C167.065803,4.03772703 166.109941,5.00831527 164.936837,5.00831527 L164.936837,5.00831527 Z M166.138906,3.71419762 C166.117182,3.6039035 166.109941,3.47155056 166.109941,3.32449174 C166.109941,3.20684468 166.095458,3.11125645 166.066492,3.03037409 C166.037527,2.94949174 166.00132,2.88331527 165.95063,2.83184468 C165.928906,2.80978586 165.907182,2.78772703 165.885458,2.77302115 C165.907182,2.75831527 165.928906,2.73625645 165.943389,2.71419762 C166.00132,2.65537409 166.05201,2.58184468 166.088217,2.48625645 C166.131665,2.39066821 166.146148,2.27302115 166.146148,2.13331527 C166.146148,1.88331527 166.066492,1.67743292 165.899941,1.53772703 C165.74063,1.39802115 165.508906,1.32449174 165.197527,1.32449174 L164.002699,1.32449174 C163.937527,1.32449174 163.886837,1.37596233 163.886837,1.4421388 L163.886837,3.99360939 C163.886837,4.05978586 163.937527,4.11125645 164.002699,4.11125645 L164.444423,4.11125645 C164.509596,4.11125645 164.560286,4.05978586 164.560286,3.99360939 L164.560286,3.05978586 L165.088906,3.05978586 C165.175803,3.05978586 165.240975,3.07449174 165.291665,3.08919762 C165.335113,3.1039035 165.364079,3.13331527 165.393044,3.17007998 C165.42201,3.21419762 165.443734,3.26566821 165.450975,3.33184468 C165.465458,3.41272703 165.472699,3.50831527 165.472699,3.61125645 C165.472699,3.67743292 165.472699,3.74360939 165.479941,3.8171388 C165.487182,3.90537409 165.516148,3.9789035 165.552354,4.05243292 C165.574079,4.08919762 165.610286,4.11125645 165.653734,4.11125645 L166.124423,4.11125645 C166.167872,4.11125645 166.21132,4.08184468 166.233044,4.03772703 C166.254768,3.99360939 166.240286,3.9421388 166.21132,3.91272703 C166.189596,3.89802115 166.16063,3.84655056 166.138906,3.71419762 L166.138906,3.71419762 Z M164.553044,1.92743292 L165.154079,1.92743292 C165.204768,1.92743292 165.248217,1.92743292 165.298906,1.9421388 C165.335113,1.94949174 165.364079,1.96419762 165.393044,1.9789035 C165.414768,1.99360939 165.436492,2.02302115 165.450975,2.05243292 C165.465458,2.08919762 165.472699,2.14066821 165.472699,2.19949174 C165.472699,2.30243292 165.450975,2.37596233 165.400286,2.42007998 C165.349596,2.46419762 165.269941,2.49360939 165.16132,2.49360939 L164.560286,2.49360939 L164.560286,1.92743292 L164.553044,1.92743292 Z" id="Shape" fill="#F6881F" fill-rule="nonzero"></path>
                        <polygon id="Path" fill="#0A84BD" fill-rule="nonzero" points="48 27.6689035 55.5443312 27.6689035 55.5443312 29.6789035 50.2727389 29.6789035 50.2727389 32.0714035 55.435414 32.0714035 55.435414 34.0814035 50.2727389 34.0814035 50.2727389 36.6389035 55.5443312 36.6389035 55.5443312 38.6714035 48 38.6714035 48 27.6689035"></polygon>
                        <polygon id="Path" fill="#0A84BD" fill-rule="nonzero" points="59.5815287 31.2839035 59.5815287 38.6789035 57.316051 38.6789035 57.316051 27.6689035 59.646879 27.6689035 64.5844586 34.7939035 64.5844586 27.6689035 66.8571975 27.6689035 66.8571975 38.6789035 64.6715924 38.6789035"></polygon>
                        <path d="M74.1183439,27.4814035 C76.3257325,27.4814035 77.7126115,28.5839035 78.5258599,29.8889035 L76.6379618,30.9464035 C76.1442038,30.1739035 75.2292994,29.5589035 74.1110828,29.5589035 C72.1796178,29.5589035 70.7709554,31.0964035 70.7709554,33.1739035 C70.7709554,35.2514035 72.1796178,36.7889035 74.1110828,36.7889035 C75.0840764,36.7889035 75.9481529,36.3764035 76.4128662,35.9489035 L76.4128662,34.6139035 L73.5664968,34.6139035 L73.5664968,32.6039035 L78.6492994,32.6039035 L78.6492994,36.8114035 C77.5601274,38.0639035 76.0425478,38.8889035 74.1110828,38.8889035 C70.996051,38.8889035 68.4401274,36.6464035 68.4401274,33.1814035 C68.4473885,29.6939035 71.0033121,27.4814035 74.1183439,27.4814035 Z" id="Path" fill="#0A84BD" fill-rule="nonzero"></path>
                        <path d="M87.1448408,36.7739035 L82.3815287,36.7739035 L81.7135032,38.6714035 L79.2229299,38.6714035 L83.3472611,27.6614035 L86.1936306,27.6614035 L90.3034395,38.6714035 L87.8273885,38.6714035 L87.1448408,36.7739035 Z M82.9842038,34.7489035 L86.513121,34.7489035 L84.7559236,29.7014035 L82.9842038,34.7489035 Z" id="Shape" fill="#0A84BD" fill-rule="nonzero"></path>
                        <path d="M95.8945223,27.4814035 C98.1019108,27.4814035 99.4887898,28.5839035 100.302038,29.8889035 L98.4141401,30.9464035 C97.9203822,30.1739035 97.0054777,29.5589035 95.8872611,29.5589035 C93.9557962,29.5589035 92.5471338,31.0964035 92.5471338,33.1739035 C92.5471338,35.2514035 93.9557962,36.7889035 95.8872611,36.7889035 C96.8602548,36.7889035 97.7243312,36.3764035 98.1890446,35.9489035 L98.1890446,34.6139035 L95.3426752,34.6139035 L95.3426752,32.6039035 L100.425478,32.6039035 L100.425478,36.8114035 C99.3363057,38.0639035 97.8187261,38.8889035 95.8872611,38.8889035 C92.7722293,38.8889035 90.2163057,36.6464035 90.2163057,33.1814035 C90.2235669,29.6939035 92.7794904,27.4814035 95.8945223,27.4814035 Z" id="Path" fill="#0A84BD" fill-rule="nonzero"></path>
                        <polygon id="Path" fill="#0A84BD" fill-rule="nonzero" points="102.233503 27.6689035 109.777834 27.6689035 109.777834 29.6789035 104.506242 29.6789035 104.506242 32.0714035 109.668917 32.0714035 109.668917 34.0814035 104.506242 34.0814035 104.506242 36.6389035 109.777834 36.6389035 109.777834 38.6714035 102.233503 38.6714035 102.233503 27.6689035"></polygon>
                        <polygon id="Path" fill="#0A84BD" fill-rule="nonzero" points="114.504841 27.6689035 117.089809 27.6689035 120.045096 36.1364035 122.98586 27.6689035 125.570828 27.6689035 121.46828 38.6789035 118.621911 38.6789035"></polygon>
                        <path d="M131.292611,27.4814035 C134.516561,27.4814035 136.869172,29.8589035 136.869172,33.1739035 C136.869172,36.4889035 134.523822,38.8664035 131.292611,38.8664035 C128.083185,38.8664035 125.730573,36.4889035 125.730573,33.1739035 C125.730573,29.8589035 128.083185,27.4814035 131.292611,27.4814035 Z M131.292611,29.5664035 C129.324841,29.5664035 128.068662,31.1189035 128.068662,33.1814035 C128.068662,35.2289035 129.332102,36.7964035 131.292611,36.7964035 C133.253121,36.7964035 134.538344,35.2289035 134.538344,33.1814035 C134.538344,31.1189035 133.260382,29.5664035 131.292611,29.5664035 Z" id="Shape" fill="#0A84BD" fill-rule="nonzero"></path>
                        <polygon id="Path" fill="#0A84BD" fill-rule="nonzero" points="138.466624 27.6689035 140.732102 27.6689035 140.732102 38.6789035 138.466624 38.6789035"></polygon>
                        <path d="M142.329554,33.1814035 C142.329554,29.7989035 144.805605,27.4889035 147.920637,27.4889035 C150.34586,27.4889035 151.703694,28.8089035 152.458854,30.1814035 L150.512866,31.1714035 C150.062675,30.2789035 149.104204,29.5739035 147.927898,29.5739035 C146.076306,29.5739035 144.667643,31.1114035 144.667643,33.1889035 C144.667643,35.2664035 146.076306,36.8039035 147.927898,36.8039035 C149.111465,36.8039035 150.069936,36.1139035 150.512866,35.2064035 L152.458854,36.1814035 C151.689172,37.5539035 150.353121,38.8889035 147.920637,38.8889035 C144.805605,38.8739035 142.329554,36.5639035 142.329554,33.1814035 Z" id="Path" fill="#0A84BD" fill-rule="nonzero"></path>
                        <polygon id="Path" fill="#0A84BD" fill-rule="nonzero" points="153.816688 27.6689035 161.361019 27.6689035 161.361019 29.6789035 156.089427 29.6789035 156.089427 32.0714035 161.252102 32.0714035 161.252102 34.0814035 156.089427 34.0814035 156.089427 36.6389035 161.361019 36.6389035 161.361019 38.6714035 153.816688 38.6714035"></polygon>
                    </g>
                </g>
                <g id="Group" transform="translate(48.000000, 27.000000)"></g>
            </g>
        </g>
    </g>
</svg>