<?xml version="1.0" encoding="UTF-8"?>
<svg width="168px" height="39px" viewBox="0 0 168 39" version="1.1" xmlns="http://www.w3.org/2000/svg" xmlns:xlink="http://www.w3.org/1999/xlink">
    <title>Group 4</title>
    <g id="login/-sign-in" stroke="none" stroke-width="1" fill="none" fill-rule="evenodd">
        <g id="sign-in" transform="translate(-64.000000, -56.000000)">
            <g id="Group-4" transform="translate(64.000000, 56.000000)">
                <g id="Group" transform="translate(105.000000, 32.640000) rotate(-360.000000) translate(-105.000000, -32.640000) translate(48.000000, 26.640000)" fill="#0087C2" fill-rule="nonzero">
                    <polygon id="Path" points="0.0217834395 0.69 7.56611465 0.69 7.56611465 2.7 2.29452229 2.7 2.29452229 5.0925 7.45719745 5.0925 7.45719745 7.1025 2.29452229 7.1025 2.29452229 9.66 7.56611465 9.66 7.56611465 11.6925 0.0217834395 11.6925 0.0217834395 0.69"></polygon>
                    <polygon id="Path" points="11.6033121 4.305 11.6033121 11.7 9.33783439 11.7 9.33783439 0.69 11.6686624 0.69 16.606242 7.815 16.606242 0.69 18.8789809 0.69 18.8789809 11.7 16.6933758 11.7"></polygon>
                    <path d="M26.1401274,0.5025 C28.3475159,0.5025 29.7343949,1.605 30.5476433,2.91 L28.6597452,3.9675 C28.1659873,3.195 27.2510828,2.58 26.1328662,2.58 C24.2014013,2.58 22.7927389,4.1175 22.7927389,6.195 C22.7927389,8.2725 24.2014013,9.81 26.1328662,9.81 C27.1058599,9.81 27.9699363,9.3975 28.4346497,8.97 L28.4346497,7.635 L25.5882803,7.635 L25.5882803,5.625 L30.6710828,5.625 L30.6710828,9.8325 C29.5819108,11.085 28.0643312,11.91 26.1328662,11.91 C23.0178344,11.91 20.4619108,9.6675 20.4619108,6.2025 C20.469172,2.715 23.0250955,0.5025 26.1401274,0.5025 Z" id="Path"></path>
                    <path d="M39.1666242,9.795 L34.4033121,9.795 L33.7352866,11.6925 L31.2447134,11.6925 L35.3690446,0.6825 L38.215414,0.6825 L42.3252229,11.6925 L39.849172,11.6925 L39.1666242,9.795 Z M35.0059873,7.77 L38.5349045,7.77 L36.777707,2.7225 L35.0059873,7.77 Z" id="Shape"></path>
                    <path d="M47.9163057,0.5025 C50.1236943,0.5025 51.5105732,1.605 52.3238217,2.91 L50.4359236,3.9675 C49.9421656,3.195 49.0272611,2.58 47.9090446,2.58 C45.9775796,2.58 44.5689172,4.1175 44.5689172,6.195 C44.5689172,8.2725 45.9775796,9.81 47.9090446,9.81 C48.8820382,9.81 49.7461146,9.3975 50.210828,8.97 L50.210828,7.635 L47.3644586,7.635 L47.3644586,5.625 L52.4472611,5.625 L52.4472611,9.8325 C51.3580892,11.085 49.8405096,11.91 47.9090446,11.91 C44.7940127,11.91 42.2380892,9.6675 42.2380892,6.2025 C42.2453503,2.715 44.8012739,0.5025 47.9163057,0.5025 Z" id="Path"></path>
                    <polygon id="Path" points="54.2552866 0.69 61.7996178 0.69 61.7996178 2.7 56.5280255 2.7 56.5280255 5.0925 61.6907006 5.0925 61.6907006 7.1025 56.5280255 7.1025 56.5280255 9.66 61.7996178 9.66 61.7996178 11.6925 54.2552866 11.6925 54.2552866 0.69"></polygon>
                    <polygon id="Path" points="66.5266242 0.69 69.1115924 0.69 72.066879 9.1575 75.0076433 0.69 77.5926115 0.69 73.4900637 11.7 70.6436943 11.7"></polygon>
                    <path d="M83.3143949,0.5025 C86.5383439,0.5025 88.8909554,2.88 88.8909554,6.195 C88.8909554,9.51 86.5456051,11.8875 83.3143949,11.8875 C80.1049682,11.8875 77.7523567,9.51 77.7523567,6.195 C77.7523567,2.88 80.1049682,0.5025 83.3143949,0.5025 Z M83.3143949,2.5875 C81.3466242,2.5875 80.0904459,4.14 80.0904459,6.2025 C80.0904459,8.25 81.3538854,9.8175 83.3143949,9.8175 C85.2749045,9.8175 86.5601274,8.25 86.5601274,6.2025 C86.5601274,4.14 85.2821656,2.5875 83.3143949,2.5875 Z" id="Shape"></path>
                    <polygon id="Path" points="90.4884076 0.69 92.7538854 0.69 92.7538854 11.7 90.4884076 11.7"></polygon>
                    <path d="M94.3513376,6.2025 C94.3513376,2.82 96.8273885,0.51 99.9424204,0.51 C102.367643,0.51 103.725478,1.83 104.480637,3.2025 L102.53465,4.1925 C102.084459,3.3 101.125987,2.595 99.9496815,2.595 C98.0980892,2.595 96.6894268,4.1325 96.6894268,6.21 C96.6894268,8.2875 98.0980892,9.825 99.9496815,9.825 C101.133248,9.825 102.09172,9.135 102.53465,8.2275 L104.480637,9.2025 C103.710955,10.575 102.374904,11.91 99.9424204,11.91 C96.8273885,11.895 94.3513376,9.585 94.3513376,6.2025 Z" id="Path"></path>
                    <polygon id="Path" points="105.838471 0.69 113.382803 0.69 113.382803 2.7 108.11121 2.7 108.11121 5.0925 113.273885 5.0925 113.273885 7.1025 108.11121 7.1025 108.11121 9.66 113.382803 9.66 113.382803 11.6925 105.838471 11.6925"></polygon>
                </g>
                <g id="rc_logo-copy" transform="translate(0.000000, 0.000000)">
                    <path d="M7.89824,12.98752 L6.71552,19.8912 L0.21952,19.8912 L3.6624,0.08736 L13.01664,0.08736 C14.2455345,0.071331922 15.4736128,0.158248996 16.688,0.3472 C17.5430545,0.475093975 18.3706257,0.745398559 19.13632,1.14688 C19.7150934,1.45167026 20.1923155,1.91877185 20.50944,2.49088 C20.8090376,3.07745069 20.9568992,3.72973624 20.93952,4.38816 C20.9320675,4.83932649 20.8856009,5.28900271 20.80064,5.73216 C20.6093179,6.8411408 20.1477146,7.88590299 19.45664,8.77408 C18.7402143,9.67805864 17.736566,10.3102781 16.61184,10.56608 C16.9812465,10.6971276 17.3438368,10.8466493 17.69824,11.01408 C18.0065303,11.1598582 18.2864146,11.3593422 18.5248,11.6032 C18.7650638,11.8593881 18.948964,12.1630905 19.06464,12.49472 C19.206139,12.928198 19.2713199,13.3829481 19.25728,13.83872 C19.2484579,14.5022518 19.1840188,15.1638759 19.06464,15.81664 C18.9362133,16.51552 18.8354133,17.0941867 18.76224,17.55264 C18.6984873,17.9069911 18.6617947,18.2656801 18.65248,18.6256 C18.65248,19.0736 18.81824,19.28416 19.14528,19.28416 L19.06464,19.88896 L12.49248,19.88896 C12.4523943,19.6808503 12.4336306,19.469196 12.43648,19.25728 C12.43648,18.94368 12.46112,18.5472 12.50592,18.05664 C12.55072,17.56608 12.62912,17.02848 12.72992,16.42368 C12.8303632,15.9165992 12.885832,15.4016392 12.89568,14.8848 C12.89568,14.18816 12.67168,13.69984 12.24832,13.41088 C11.82496,13.12192 11.032,12.98752 9.88064,12.98752 L7.89824,12.98752 Z M8.6688,8.64192 L11.22464,8.64192 C12.23264,8.64192 13.0203733,8.50453333 13.58784,8.22976 C14.1578863,7.95684152 14.5448421,7.40695699 14.60928,6.77824 C14.6315133,6.64204196 14.6405153,6.50401208 14.63616,6.36608 C14.6698619,5.86530531 14.427653,5.38604088 14.00448,5.11616 C13.5011563,4.82536216 12.9254123,4.68395137 12.34464,4.70848 L9.32736,4.70848 L8.6688,8.64192 Z" id="Shape" fill="#0E85BD"></path>
                    <path d="M30.04064,5.4768 L35.2688,5.4768 L34.88128,7.73248 C35.5832092,6.93826461 36.410215,6.26409981 37.3296,5.73664 C38.2209407,5.27314635 39.2148083,5.04201436 40.2192,5.06464 C41.8305067,5.06464 43.0132267,5.43797333 43.76736,6.18464 C44.5214933,6.93130667 44.8948267,8.02218667 44.8874698,9.45728 C44.8845484,10.0582072 44.8298384,10.6577686 44.72384,11.24928 L43.25664,19.8912 L37.52896,19.8912 L38.85056,12.2752 C38.904619,11.9569577 38.9323396,11.6347992 38.93344,11.312 C38.9489158,10.8741046 38.8284098,10.442161 38.58848,10.07552 C38.36,9.744 37.9336533,9.57898667 37.30944,9.58048 C36.43136,9.58048 35.78624,9.84256 35.38528,10.36448 C34.98432,10.8864 34.71328,11.61664 34.56096,12.55072 L33.29536,19.89568 L27.57664,19.89568 L30.04064,5.4768 Z" id="Path" fill="#0E85BD"></path>
                    <path d="M50.23424,20.36384 L50.23424,20.44224 C50.2380775,20.6522381 50.3279661,20.8514506 50.48288,20.99328 C50.68448,21.23072 51.07872,21.3472 51.6656,21.3472 C52.48992,21.3472 53.11264,21.13888 53.536,20.71776 C53.95936,20.29664 54.25952,19.57312 54.4432,18.54272 L54.6672,17.36 C54.1350085,17.8184332 53.5350493,18.1917076 52.88864,18.46656 C52.0545173,18.8023522 51.1598893,18.9617531 50.26112,18.93472 C49.4846831,18.9492505 48.7131808,18.8083542 47.992,18.52032 C46.7370753,18.0160769 45.7738558,16.9764244 45.36672,15.68672 C45.143168,15.0028089 45.0319656,14.2871798 45.03744,13.56768 C45.0380118,13.3288773 45.0522216,13.0903022 45.08,12.85312 C45.10464,12.61344 45.136,12.36704 45.17632,12.11168 C45.3299891,11.2017334 45.5924577,10.3135519 45.95808,9.46624 C46.3224507,8.60079486 46.8340167,7.80502559 47.47008,7.11424 C48.1175698,6.41462345 48.8921786,5.84449914 49.75264,5.43424 C50.7303243,4.98522799 51.7973773,4.76461688 52.87296,4.78912 C53.7019344,4.77942101 54.5169385,5.00296501 55.22496,5.43424 C55.9033357,5.84354527 56.4673388,6.41756486 56.86464,7.10304 L57.16704,5.21024 L62.20032,5.21024 L60.18432,16.82016 C60.0125304,17.8415207 59.778386,18.851409 59.4832,19.84416 C59.2135304,20.7504322 58.7478056,21.5862896 58.11904,22.29248 C57.4196952,23.0392351 56.5461948,23.6010459 55.57664,23.92768 C54.4939733,24.3189333 53.06336,24.5153067 51.2848,24.5168 C50.2209902,24.5372169 49.1587115,24.4266256 48.12192,24.18752 C47.379497,24.0186536 46.6722446,23.7215015 46.032,23.30944 C45.5429237,22.9905776 45.141048,22.5548274 44.86272,22.0416 C44.621249,21.5837272 44.4944243,21.0741228 44.49312,20.55648 L44.49312,20.36608 L50.23424,20.36384 Z M53.64352,8.86592 C53.2619476,8.85618216 52.8839578,8.94163403 52.54368,9.11456 C52.2292899,9.28341414 51.9561923,9.51979272 51.744,9.80672 C51.5099549,10.1248632 51.3291467,10.4789145 51.20864,10.85504 C51.0666978,11.278213 50.9617703,11.7129124 50.89504,12.15424 C50.87488,12.28416 50.86144,12.40736 50.85472,12.51488 C50.8438354,12.6250464 50.8386019,12.7356981 50.83904,12.8464 C50.8264013,13.3718249 50.9749233,13.8885251 51.26464,14.32704 C51.54912,14.74592 52.01056,14.96096 52.65568,14.97888 L52.79232,14.97888 C53.1703829,14.9842768 53.5440584,14.8973934 53.88096,14.72576 C54.1979484,14.5650307 54.478525,14.3408744 54.70528,14.0672 C54.9400983,13.7795411 55.1296897,13.4577644 55.26752,13.11296 C55.4151509,12.7516342 55.5262121,12.3764274 55.59904,11.99296 C55.6533436,11.6913304 55.6810766,11.3855177 55.68192,11.07904 C55.6975279,10.5227215 55.5410761,9.97514018 55.23392,9.51104 C54.9352533,9.07797333 54.42304,8.86144 53.69728,8.86144 L53.64352,8.86592 Z" id="Shape" fill="#0E85BD"></path>
                    <path d="M75.6112,7.89824 C75.6121081,7.83672115 75.6173478,7.77534264 75.62688,7.71456 C75.6377465,7.65470039 75.642996,7.59395637 75.64256,7.53312 C75.64256,6.66549333 75.3946667,5.99797333 74.89888,5.53056 C74.4030933,5.06314667 73.7057067,4.82944 72.80672,4.82944 C71.7167994,4.82567173 70.6873746,5.33003192 70.0224,6.1936 C69.2608,7.10453333 68.7224533,8.46944 68.40736,10.28832 C68.34016,10.63776 68.28864,10.97152 68.2528,11.29184 C68.2179614,11.5982257 68.2007597,11.9063604 68.20128,12.21472 C68.1974753,12.6348011 68.2448644,13.0537811 68.3424,13.4624 C68.4309811,13.8294684 68.6000751,14.1722472 68.83744,14.46592 C69.0855884,14.7619078 69.4024425,14.9926269 69.76032,15.13792 C70.2238218,15.3183043 70.7192742,15.4021501 71.21632,15.38432 C72.1013285,15.4242034 72.9633351,15.0957813 73.59744,14.47712 C74.2134827,13.8408548 74.664179,13.0632883 74.91008,12.21248 L80.81248,12.21248 C80.4935144,13.3733642 79.9897936,14.475348 79.32064,15.47616 C78.0508845,17.3596751 76.1802973,18.7572856 74.01408,19.44096 C71.7040782,20.1463185 69.2366989,20.1502164 66.92448,19.45216 C65.9474988,19.1419754 65.0473866,18.6281709 64.28352,17.94464 C63.5604451,17.2788956 63.0001885,16.4557552 62.64608,15.53888 C62.2588199,14.5122551 62.0695628,13.4215566 62.08832,12.32448 C62.08832,11.97952 62.104,11.61888 62.13984,11.24704 C62.17568,10.8752 62.2272,10.48992 62.29664,10.08896 C62.5315353,8.65391109 63.0159752,7.27109665 63.728,6.0032 C64.3851715,4.83443757 65.2392096,3.78791888 66.25248,2.90976 C67.2330638,2.06796402 68.3546072,1.40595768 69.56544,0.95424 C70.7755506,0.498742095 72.0580414,0.265768907 73.35104,0.266557992 C76.0733867,0.266557992 78.10656,0.863893333 79.45056,2.05856 C80.79456,3.25322667 81.46656,4.94368 81.46656,7.12992 L81.46656,7.51968 C81.465155,7.64994101 81.4569304,7.78003911 81.44192,7.90944 L75.6112,7.89824 Z" id="Path" fill="#F6891F"></path>
                    <path d="M87.42272,13.64832 C87.4048,13.73792 87.39136,13.82976 87.3824,13.9216 C87.3721836,14.0130703 87.3676949,14.1050897 87.36896,14.19712 C87.3399623,14.8264348 87.5918856,15.4361385 88.05664,15.86144 C88.5256116,16.2767067 89.1351382,16.4977703 89.76128,16.47968 C90.2202575,16.4797808 90.6728787,16.3723792 91.08288,16.16608 C91.5105384,15.9500424 91.871369,15.6217331 92.12672,15.21632 L97.60128,15.21632 C97.2304911,16.066521 96.6927086,16.8335848 96.01984,17.472 C95.3772254,18.0682342 94.64853,18.5643511 93.85824,18.94368 C93.0676007,19.3183583 92.2307563,19.5865101 91.3696,19.74112 C90.520582,19.890504 89.6601398,19.9654554 88.79808,19.96512 C87.839705,19.9747877 86.8850685,19.8442327 85.96448,19.5776 C85.1521767,19.3480618 84.3947688,18.9564042 83.73792,18.42624 C83.1150215,17.9163426 82.6163472,17.2713598 82.27968,16.54016 C81.9170552,15.7330509 81.738033,14.8555359 81.75552,13.97088 C81.7565547,13.7261333 81.7707619,13.4816196 81.79808,13.2384 C81.82272,12.992 81.85632,12.74336 81.89216,12.48352 C82.0793535,11.3503534 82.4807515,10.2632337 83.07488,9.28032 C83.6412674,8.34144851 84.3719454,7.51213273 85.232,6.832 C86.0929772,6.15921224 87.0595889,5.63389629 88.09248,5.27744 C89.1620182,4.91051241 90.2859403,4.72723132 91.41664,4.73536 C92.4608633,4.71669998 93.5000518,4.8843355 94.48544,5.2304 C95.3199983,5.52731581 96.0830665,5.99583968 96.72544,6.60576 C97.3390436,7.20842455 97.808452,7.94201873 98.09856,8.75168 C98.4188445,9.6422619 98.5773903,10.5829162 98.56672,11.52928 C98.5558308,12.2409196 98.4808612,12.9501319 98.34272,13.64832 L87.42272,13.64832 Z M93.1168,10.73632 C93.1379928,10.6000054 93.1469884,10.4620725 93.14368,10.32416 C93.1573918,9.7641383 92.9374684,9.22366241 92.53664,8.83232 C92.1366545,8.43089137 91.5888766,8.21210432 91.0224,8.22752 C90.2675487,8.19240464 89.5254025,8.43103686 88.93248,8.89952 C88.3877111,9.37038964 88.0267499,10.0185332 87.91328,10.7296 L93.1168,10.73632 Z" id="Shape" fill="#F6891F"></path>
                    <path d="M100.4192,5.55968 L105.64288,5.55968 L105.2576,7.81536 C105.960705,7.02147472 106.788388,6.34737427 107.70816,5.81952 C108.597893,5.35603 109.590317,5.1248754 110.59328,5.14752 C112.207573,5.14752 113.39104,5.52085333 114.14368,6.26752 C114.89632,7.01418667 115.269653,8.10506667 115.263751,9.54016 C115.260264,10.1412604 115.204048,10.7408988 115.09568,11.33216 L113.61504,19.9696 L107.89856,19.9696 L109.22016,12.3536 C109.273189,12.0352605 109.300158,11.7131254 109.3008,11.3904 C109.317168,10.952399 109.196587,10.5201896 108.95584,10.15392 C108.72736,9.8224 108.30176,9.65738667 107.67904,9.65888 C106.79872,9.65888 106.1536,9.92096 105.7504,10.44288 C105.3472,10.9648 105.0784,11.69504 104.92608,12.62912 L103.66048,19.97408 L97.94176,19.97408 L100.4192,5.55968 Z" id="Path" fill="#F6891F"></path>
                    <path d="M124.20128,19.86432 C123.55616,19.89792 122.9648,19.92704 122.42272,19.9472 C121.88064,19.96736 121.38336,19.97184 120.92416,19.97184 C120.198693,19.9796408 119.473525,19.9384807 118.7536,19.84864 C118.260195,19.7947156 117.782617,19.642378 117.34912,19.40064 C117.01793,19.2078311 116.757875,18.9132066 116.60768,18.56064 C116.446416,18.1407963 116.370272,17.6930697 116.38368,17.24352 C116.386607,16.8692074 116.409787,16.4953274 116.45312,16.12352 C116.50016,15.71136 116.56512,15.2544 116.6592,14.7616 L117.70528,8.74048 L115.66688,8.74048 L116.21792,5.43648 L118.33472,5.43648 L119.1344,0.95648 L124.77248,0.95648 L123.97504,5.43648 L126.72576,5.43648 L126.17472,8.74048 L123.42624,8.74048 L122.53024,13.9888 C122.49216,14.1568 122.46752,14.3024 122.44736,14.4368 C122.42926,14.5606975 122.419531,14.685674 122.41824,14.81088 C122.392028,15.1008004 122.517386,15.3837027 122.74976,15.55904 C122.97376,15.70464 123.38368,15.78304 123.98848,15.78304 L124.89568,15.78304 L124.20128,19.86432 Z" id="Path" fill="#F6891F"></path>
                    <path d="M127.90848,5.55968 L133.10976,5.55968 L132.61248,8.47168 L132.67072,8.47168 C133.823573,6.25258667 135.491627,5.14304 137.67488,5.14304 C137.799388,5.14324282 137.923698,5.15297794 138.04672,5.17216 L138.41856,5.22816 L137.39936,10.94912 L136.83712,10.83712 C136.641211,10.8018365 136.44258,10.7838473 136.24352,10.78336 C135.06976,10.78336 134.139413,11.0954667 133.45248,11.71968 C132.7648,12.3424 132.2832,13.43776 132.00768,14.99232 L131.15424,19.97184 L125.43328,19.97184 L127.90848,5.55968 Z" id="Path" fill="#F6891F"></path>
                    <path d="M146.07264,19.99424 L146.04128,18.01184 C145.233186,18.7104283 144.292206,19.2384439 143.27488,19.56416 C142.304247,19.8378232 141.299632,19.9720736 140.2912,19.96288 C139.707919,19.9649991 139.126523,19.8965553 138.55968,19.75904 C138.045479,19.6378436 137.559977,19.4171606 137.13056,19.10944 C136.730611,18.8241832 136.400527,18.4519772 136.16512,18.0208 C135.916403,17.5412332 135.793836,17.0062544 135.80896,16.46624 C135.810976,16.1812277 135.839472,15.8970193 135.89408,15.61728 C136.07552,14.53312 136.47424,13.6864 137.088,13.0704 C137.6968,12.4611602 138.428318,11.9884986 139.23392,11.68384 C140.066556,11.3696691 140.93352,11.155372 141.81664,11.04544 L144.34784,10.71616 C145.018961,10.6387032 145.68171,10.5007555 146.328,10.304 C146.86784,10.12704 147.1792,9.81344 147.24864,9.35424 C147.249366,9.32229394 147.254646,9.29061486 147.26432,9.26016 C147.273447,9.22887502 147.277975,9.19642855 147.27776,9.16384 C147.289174,8.96994178 147.219381,8.78003939 147.08512,8.63968 C146.957783,8.51290992 146.805122,8.41444392 146.63712,8.35072 C146.454433,8.28448898 146.265203,8.23793232 146.07264,8.21184 C145.908706,8.18741512 145.743326,8.17394526 145.5776,8.17152 C145.361939,8.17179402 145.146497,8.18525916 144.93248,8.21184 C144.707262,8.23989738 144.488399,8.30578359 144.28512,8.40672 C144.074742,8.51538175 143.884569,8.65933721 143.72288,8.83232 C143.53491,9.04267109 143.406539,9.2994133 143.35104,9.576 L137.84512,9.576 C137.957092,8.84606659 138.21949,8.14735632 138.61568,7.52416 C139.033513,6.89794405 139.593917,6.37976177 140.25088,6.01216 C141.061496,5.56050086 141.938473,5.2399507 142.84928,5.0624 C144.063369,4.82381456 145.299166,4.71344874 146.53632,4.73312 C147.609841,4.70984238 148.682979,4.79464284 149.73952,4.98624 C150.439638,5.10523906 151.109005,5.36262929 151.70848,5.74336 C152.149236,6.02887122 152.494144,6.44010833 152.69856,6.92384 C152.888476,7.41594181 152.982748,7.93976207 152.97632,8.4672 C152.974333,8.82449194 152.950395,9.18132425 152.90464,9.53568 C152.8576,9.90304 152.79712,10.28832 152.72544,10.69376 L151.5696,17.43168 C151.523111,17.6853476 151.496152,17.942208 151.48896,18.2 C151.484592,18.3851793 151.522113,18.5689531 151.59872,18.7376 C151.706455,18.9377002 151.845611,19.1192092 152.01088,19.2752 L151.99072,19.992 L146.07264,19.99424 Z M143.42944,16.72384 C143.877428,16.7328735 144.321633,16.6402033 144.72864,16.4528 C145.097455,16.2749777 145.420773,16.0152505 145.67392,15.69344 C145.940258,15.3585126 146.145724,14.9794245 146.28096,14.57344 C146.432568,14.1238148 146.533984,13.6588015 146.58336,13.18688 C146.083369,13.4016741 145.562374,13.5638282 145.0288,13.67072 C144.50688,13.77152 144.01856,13.88128 143.57056,14 C143.158702,14.1011649 142.767588,14.2732245 142.41472,14.50848 C142.086877,14.7460936 141.875212,15.1116214 141.83232,15.51424 L141.83232,15.67776 C141.828344,15.9813923 141.978424,16.2663756 142.23104,16.43488 C142.591193,16.6522088 143.009924,16.7523912 143.42944,16.7216" id="Shape" fill="#F6891F"></path>
                    <polygon id="Path" fill="#F6891F" points="152.97408 19.97184 156.41024 0.168 162.13568 0.168 158.69952 19.97184"></polygon>
                    <polygon id="Path" fill="#0E85BD" points="20.13536 19.8912 23.35872 8.19392 27.50272 8.19392 25.83168 19.8912"></polygon>
                    <path d="M29.59264,2.97024 C29.59264,2.97024 29.59264,2.97024 29.5792,2.95008 C29.5547822,2.90745342 29.5278548,2.86631435 29.49856,2.82688 C29.3755869,2.66420576 29.2367733,2.51413704 29.08416,2.37888 C28.482087,1.87652845 27.7538362,1.54881562 26.97856,1.43136 C26.535535,1.34877869 26.083068,1.32917178 25.63456,1.37312 C25.0259645,1.42114838 24.4427286,1.63753511 23.95008,1.99808 C23.9216234,2.01503416 23.8953022,2.03533907 23.87168,2.05856 C23.7008213,2.22901856 23.4520028,2.29537673 23.218952,2.23263804 C22.9859012,2.16989935 22.8040241,1.98759529 22.741832,1.75439804 C22.6796399,1.52120079 22.7465813,1.27253856 22.91744,1.10208 C22.98464,1.03712 23.84704,0.20608 25.49344,0.03136 C26.0703605,-0.0264886227 26.6525661,-0.00235575097 27.22272,0.10304 C29.83904,0.56896 30.7552,2.25344 30.80672,2.3632 C30.8877403,2.52557088 30.8996505,2.71380648 30.839742,2.88509438 C30.7798334,3.05638229 30.6531988,3.1961613 30.48864,3.27264 C30.4179044,3.30650611 30.3423364,3.32917649 30.26464,3.33984 C29.985427,3.36910649 29.7174446,3.22171618 29.59264,2.97024" id="Path" fill="#F6891F"></path>
                    <path d="M27.90592,4.50912 C27.90592,4.50912 27.90592,4.50912 27.8656,4.4464 C27.7986486,4.36031465 27.7236426,4.2808083 27.6416,4.20896 C27.3058744,3.92900744 26.89998,3.74620003 26.46784,3.68032 C26.2191067,3.63314818 25.9649006,3.62183337 25.71296,3.64672 C25.3801465,3.67274895 25.0608907,3.78975778 24.79008,3.98496 C24.76096,4.00736 24.7632,4.0096 24.7632,4.0096 C24.6231489,4.16325781 24.4099698,4.22749169 24.2083412,4.1767868 C24.0067127,4.12608191 23.8492781,3.96864729 23.7985732,3.76701877 C23.7478683,3.56539025 23.8121022,3.35221115 23.96576,3.21216 C24.4192465,2.81002348 24.9920796,2.56767099 25.59648,2.52224 C25.9537462,2.48777306 26.3140618,2.50284903 26.6672,2.56704 L26.6672,2.56704 C28.2912,2.856 28.87808,3.91104 28.9072,3.9984 C28.9774425,4.13182572 28.9911476,4.28787434 28.9452376,4.43150127 C28.8993275,4.57512821 28.7976503,4.69429508 28.66304,4.76224 C28.6024623,4.79408494 28.5362775,4.81386432 28.46816,4.82048 C28.2352338,4.84471736 28.011532,4.72261713 27.90592,4.5136" id="Path" fill="#F6891F"></path>
                    <path d="M27.426583,5.88224 C27.426583,6.57664 26.75456,7.1344 25.95936,7.12992 C25.16416,7.12544 24.49888,6.56096 24.5011144,5.87104 C24.50336,5.18112 25.15968,4.61888 25.97056,4.62111333 C26.78144,4.62336 27.43104,5.21024 27.426583,5.88224" id="Path" fill="#F6891F"></path>
                    <path d="M165.19328,0.19488 C163.757867,0.19858909 162.596893,1.36457257 162.59936,2.79998843 C162.601835,4.23540428 163.766817,5.39738353 165.202234,5.39615134 C166.637652,5.39491719 167.80064,4.23093798 167.80064,2.79552 C167.799405,1.35973809 166.635782,0.196115082 165.2,0.19488 M165.2,4.928 C164.022264,4.928 163.06752,3.97325618 163.06752,2.79552 C163.06752,1.61778382 164.022264,0.66304 165.2,0.66304 C166.377736,0.66304 167.33248,1.61778382 167.33248,2.79552 C167.331245,3.9727444 166.377224,4.92676536 165.2,4.928 M166.39392,3.64224 C166.371774,3.51578774 166.361277,3.38757037 166.36256,3.2592 C166.365361,3.1609547 166.350178,3.06302501 166.31776,2.97024 C166.292093,2.89759691 166.252531,2.83064501 166.20128,2.77312 C166.181185,2.74987269 166.158656,2.72884596 166.13408,2.7104 C166.154993,2.69335891 166.174472,2.67462931 166.19232,2.6544 C166.254397,2.58901473 166.304445,2.51318458 166.34016,2.4304 C166.385229,2.3211435 166.406607,2.20356846 166.40288,2.08544 C166.413617,1.86152372 166.322162,1.64483244 166.15424,1.49632 C165.953214,1.34477721 165.70428,1.2708128 165.45312,1.288 L164.25248,1.288 C164.18815,1.288 164.136,1.34014987 164.136,1.40448 L164.136,3.9312 C164.136,3.96209242 164.148272,3.99171956 164.170116,4.0135638 C164.19196,4.03540804 164.221588,4.04768 164.25248,4.04768 L164.70048,4.04768 C164.731372,4.04768 164.761,4.03540804 164.782844,4.0135638 C164.804688,3.99171956 164.81696,3.96209242 164.81696,3.9312 L164.81696,3.01056 L165.33664,3.01056 C165.405924,3.00860848 165.474987,3.01923362 165.54048,3.04192 C165.580975,3.05771943 165.615999,3.08495988 165.64128,3.12032 C165.672081,3.17007432 165.691935,3.22581702 165.69952,3.28384 C165.71402,3.37569724 165.720763,3.46861174 165.71968,3.5616 C165.716336,3.62801128 165.716336,3.69454872 165.71968,3.76096 C165.727058,3.84025704 165.752333,3.91684638 165.7936,3.98496 C165.814844,4.01911888 165.851941,4.04019651 165.89216,4.04096 L166.3648,4.04096 C166.411823,4.04096 166.454234,4.01268592 166.47232,3.96928 C166.491032,3.92679904 166.482178,3.87721909 166.44992,3.84384 C166.407901,3.78435148 166.382395,3.7147908 166.376,3.64224 M164.79232,1.8816 L165.3904,1.8816 C165.439176,1.8807823 165.487922,1.88453198 165.536,1.8928 C165.569492,1.89814445 165.601521,1.91034575 165.63008,1.92864 C165.65453,1.94739073 165.673803,1.97205927 165.68608,2.00032 C165.704639,2.04652501 165.713042,2.09618131 165.71072,2.14592 C165.721158,2.2271241 165.69582,2.30885906 165.64128,2.36992 C165.571686,2.4215516 165.485743,2.44622053 165.39936,2.43936 L164.79456,2.43936 L164.79232,1.8816 Z" id="Shape" fill="#F6891F" fill-rule="nonzero"></path>
                </g>
            </g>
        </g>
    </g>
</svg>