<?xml version="1.0" encoding="UTF-8"?>
<svg width="24px" height="24px" viewBox="0 0 24 24" version="1.1" xmlns="http://www.w3.org/2000/svg" xmlns:xlink="http://www.w3.org/1999/xlink">
    <title>pvc/on/disable</title>
    <g id="Symbol" stroke="none" stroke-width="1" fill="none" fill-rule="evenodd">
        <g id="button-status" transform="translate(-355.000000, -399.000000)">
            <g id="pvc/on/disable" transform="translate(355.000000, 399.000000)">
                <g id="Group-40">
                    <g>
                        <g>
                            <rect id="Rectangle-Copy-14" stroke="#2559E4" fill="#2559E4" opacity="0.4" x="0.5" y="0.5" width="23" height="23" rx="11.5"></rect>
                            <g id="support-copy-7" transform="translate(6.000000, 5.000000)" fill="#FFFFFF" fill-rule="nonzero">
                                <path d="M2.5111478,9.62 L1.47955648,9.62 C0.663698771,9.62 0,8.96837506 0,8.16735923 L0,5.87264077 C0,5.07162491 0.663698771,4.42 1.47955648,4.42 L2.5111478,4.42 C2.88198265,4.42 3.18367347,4.71620251 3.18367347,5.08029126 L3.18367347,8.95970874 C3.18367347,9.32379746 2.88198265,9.62 2.5111478,9.62 Z" id="Path"></path>
                                <path d="M6.36734694,0 C3.81306428,0 1.7201581,1.96052524 1.59183673,4.41759267 L2.41883237,4.41759267 C2.54618647,2.40410571 4.26831487,0.8038457 6.36745443,0.8038457 C8.46713132,0.8038457 10.1899045,2.40536172 10.315969,4.42 C10.3439117,4.41853467 10.3719618,4.41759267 10.4002269,4.41759267 L11.1428571,4.41759267 C11.0145358,1.96052524 8.92162963,0 6.36734694,0 Z" id="Path"></path>
                                <path d="M11.5204435,9.62 L10.4888522,9.62 C10.1180173,9.62 9.81632653,9.32379746 9.81632653,8.95970874 L9.81632653,5.08029126 C9.81632653,4.71620251 10.1180173,4.42 10.4888522,4.42 L11.5204435,4.42 C12.3361962,4.42 13,5.07162491 13,5.87264077 L13,8.16735923 C13,8.96837506 12.3361962,9.62 11.5204435,9.62 L11.5204435,9.62 Z" id="Path"></path>
                                <path d="M8.85710361,12.22 L7.56598582,12.22 C7.34365054,12.22 7.16326531,12.0456921 7.16326531,11.8306211 C7.16326531,11.6155501 7.34365054,11.4412422 7.56598582,11.4412422 L8.85710361,11.4412422 C9.67334679,11.4412422 10.3374161,10.7991725 10.3374161,10.0099704 L10.3374161,9.48937892 C10.3374161,9.27430791 10.5176965,9.1 10.7401366,9.1 C10.9625768,9.1 11.1428571,9.27430791 11.1428571,9.48937892 L11.1428571,10.0099704 C11.1428571,11.2286048 10.117493,12.22 8.85710361,12.22 L8.85710361,12.22 Z" id="Path"></path>
                                <path d="M6.5,13 C5.69539236,13 5.04081633,12.4750975 5.04081633,11.83 C5.04081633,11.1849025 5.69539236,10.66 6.5,10.66 C7.30460764,10.66 7.95918367,11.1849025 7.95918367,11.83 C7.95918367,12.4750975 7.30460764,13 6.5,13 Z" id="Path"></path>
                            </g>
                        </g>
                    </g>
                </g>
            </g>
        </g>
    </g>
</svg>
