<?xml version="1.0" encoding="UTF-8"?>
<svg width="20px" height="20px" viewBox="0 0 20 20" version="1.1" xmlns="http://www.w3.org/2000/svg" xmlns:xlink="http://www.w3.org/1999/xlink">
    <title>05C95D32-9359-40E7-AD18-1E3CDC58C854@1x</title>
    <g id="Symbols" stroke="none" stroke-width="1" fill="none" fill-rule="evenodd">
        <g id="icon/record/on/enable" transform="translate(-10.000000, -10.000000)" fill="#16181d" fill-rule="nonzero">
            <path d="M20,10 C25.5228475,10 30,14.4771525 30,20 C30,25.5228475 25.5228475,30 20,30 C14.4771525,30 10,25.5228475 10,20 C10,14.4771525 14.4771525,10 20,10 Z M20,12.5 C15.8578644,12.5 12.5,15.8578644 12.5,20 C12.5,24.1421356 15.8578644,27.5 20,27.5 C24.1421356,27.5 27.5,24.1421356 27.5,20 C27.5,15.8578644 24.1421356,12.5 20,12.5 Z M20,15 C22.7614237,15 25,17.2385763 25,20 C25,22.7614237 22.7614237,25 20,25 C17.2385763,25 15,22.7614237 15,20 C15,17.2385763 17.2385763,15 20,15 Z" id="icon_record"></path>
        </g>
    </g>
</svg>
