<svg width="160" height="160" viewBox="0 0 160 160" fill="none" xmlns="http://www.w3.org/2000/svg">
<g clip-path="url(#clip0_1431_64715)">
<path d="M132.894 56.8689L45.55 67.5934C44.4537 67.728 43.6741 68.7259 43.8087 69.8223L50.8771 127.39C51.0117 128.486 52.0096 129.266 53.1059 129.131L140.45 118.407C141.546 118.272 142.326 117.274 142.191 116.178L135.123 58.6103C134.988 57.5139 133.99 56.7343 132.894 56.8689Z" fill="#E3EBF4"/>
<path d="M137.463 35.0437L50.1189 24.3192C49.0225 24.1846 48.0247 24.9642 47.8901 26.0605L37.4093 111.419C37.2747 112.516 38.0543 113.514 39.1506 113.648L126.495 124.373C127.591 124.507 128.589 123.728 128.724 122.631L139.204 37.2725C139.339 36.1762 138.559 35.1783 137.463 35.0437Z" fill="#7E9FFB"/>
<path d="M116.55 49.0868L62.953 42.5059C62.4048 42.4386 61.9059 42.8284 61.8386 43.3766L61.473 46.3542C61.4057 46.9024 61.7955 47.4013 62.3436 47.4686L115.941 54.0496C116.489 54.1169 116.988 53.7271 117.056 53.1789L117.421 50.2013C117.488 49.6531 117.099 49.1542 116.55 49.0868Z" fill="#C1D8FD"/>
<path d="M101.216 96.315L67.4691 92.1714C66.9209 92.1041 66.422 92.4939 66.3547 93.0421L65.9891 96.0197C65.9218 96.5679 66.3116 97.0669 66.8598 97.1342L100.606 101.278C101.154 101.345 101.653 100.955 101.721 100.407L102.086 97.4294C102.154 96.8812 101.764 96.3823 101.216 96.315Z" fill="#C1D8FD"/>
<path d="M81.1433 71.2172C92.1901 82.2641 92.1901 100.175 81.1432 111.221C71.1597 121.205 55.5703 122.166 44.5076 114.104L24.4263 134.185C23.6452 134.966 22.3789 134.966 21.5978 134.185L18.1756 130.763C17.3945 129.982 17.3945 128.715 18.1756 127.934L38.2564 107.853C30.1944 96.7906 31.1553 81.2009 41.139 71.2172C52.1859 60.1703 70.0964 60.1704 81.1433 71.2172ZM74.8926 77.4679C67.2979 69.8732 54.9844 69.8732 47.3896 77.4679C39.7949 85.0626 39.7949 97.3761 47.3896 104.971C54.9844 112.566 67.2979 112.566 74.8926 104.971C82.4873 97.3761 82.4873 85.0626 74.8926 77.4679Z" fill="#6148F1"/>
<path fill-rule="evenodd" clip-rule="evenodd" d="M57.8441 87.2165L80.5614 90.0054C80.5873 90.416 80.6004 90.8301 80.6004 91.2473C80.6004 95.1058 79.4767 98.7019 77.5386 101.726L56.3817 99.1271C55.8335 99.0598 55.4437 98.5608 55.511 98.0127L56.7297 88.0872C56.797 87.539 57.2959 87.1492 57.8441 87.2165Z" fill="#C1D8FD"/>
<path d="M12.9284 29.5331C15.5794 29.5331 17.7284 27.3841 17.7284 24.7331C17.7284 22.0821 15.5794 19.9331 12.9284 19.9331C10.2775 19.9331 8.12842 22.0821 8.12842 24.7331C8.12842 27.3841 10.2775 29.5331 12.9284 29.5331Z" fill="#E3EBF4"/>
<path d="M27.42 12.2399C28.7455 12.2399 29.82 11.1654 29.82 9.83994C29.82 8.51446 28.7455 7.43994 27.42 7.43994C26.0945 7.43994 25.02 8.51446 25.02 9.83994C25.02 11.1654 26.0945 12.2399 27.42 12.2399Z" fill="#6148F1"/>
<path d="M152.42 125.706C153.746 125.706 154.82 124.631 154.82 123.306C154.82 121.981 153.746 120.906 152.42 120.906C151.095 120.906 150.02 121.981 150.02 123.306C150.02 124.631 151.095 125.706 152.42 125.706Z" fill="#E3EBF4"/>
<path d="M131.354 156.306C133.122 156.306 134.554 154.873 134.554 153.106C134.554 151.339 133.122 149.906 131.354 149.906C129.587 149.906 128.154 151.339 128.154 153.106C128.154 154.873 129.587 156.306 131.354 156.306Z" fill="#7E9FFB"/>
<path d="M151.734 143.282C153.501 143.282 154.934 141.849 154.934 140.082C154.934 138.315 153.501 136.882 151.734 136.882C149.967 136.882 148.534 138.315 148.534 140.082C148.534 141.849 149.967 143.282 151.734 143.282Z" fill="#C1D8FD"/>
</g>
<defs>
<clipPath id="clip0_1431_64715">
<rect width="160" height="160" fill="white"/>
</clipPath>
</defs>
</svg>
