<svg viewBox="0 0 20 20" xmlns="http://www.w3.org/2000/svg">
<g clip-path="url(#clip0_225_1799)">
<path d="M1.12505 19.2882V8.16512C1.12005 6.60324 1.50505 5.27199 2.26192 4.14637C3.01192 3.02824 4.07067 2.15012 5.41005 1.53949C6.7163 0.939492 8.2538 0.635742 9.9788 0.635742C11.7138 0.635742 13.2575 0.939492 14.57 1.53887C15.9138 2.15012 16.9788 3.02574 17.73 4.14699C18.4869 5.27324 18.8713 6.60324 18.8713 8.10074C18.8713 9.59824 18.4875 10.9289 17.73 12.0545C16.98 13.1714 15.9182 14.0495 14.57 14.6614C13.2538 15.2614 11.7069 15.5651 9.9788 15.5651C9.96817 15.5651 9.95567 15.5651 9.94317 15.5651C8.97692 15.5651 8.03817 15.4457 7.1413 15.2214L7.22067 15.2382C7.0838 15.2001 6.9263 15.1782 6.7638 15.1782C6.34255 15.1782 5.95567 15.3257 5.65255 15.572L5.65567 15.5695L1.12505 19.2882ZM9.9788 2.13637C8.47067 2.13637 7.1438 2.39449 6.0338 2.90324C4.95005 3.39824 4.10067 4.09824 3.5088 4.98199C2.91067 5.87012 2.62067 6.89012 2.62067 8.10012L2.62442 16.1164L4.70317 14.4095C5.25942 13.9532 5.97817 13.677 6.76192 13.677C7.05317 13.677 7.33567 13.7151 7.60442 13.787L7.58192 13.782C8.36692 13.9732 9.17192 14.0682 9.9788 14.0651C11.4919 14.0651 12.8288 13.807 13.9488 13.297C15.0538 12.7951 15.8838 12.1139 16.4838 11.2189C17.0807 10.3307 17.3707 9.31074 17.3707 8.10074C17.3707 6.89074 17.0807 5.87074 16.4838 4.98449V4.98324C15.8819 4.08512 15.0519 3.40512 13.9488 2.90449C12.8319 2.39449 11.4957 2.13637 9.9788 2.13637Z"/>
<path d="M14.1353 5.66113L9.56543 11.8926L6 8.32715L7.06055 7.2666L9.38965 9.5957L12.9253 4.77441L14.1353 5.66113Z"/>
</g>
<defs>
<clipPath id="clip0_225_1799">
<rect width="20" height="20"/>
</clipPath>
</defs>
</svg>
