<?xml version="1.0" encoding="utf-8"?><!DOCTYPE svg PUBLIC "-//W3C//DTD SVG 1.1//EN" "http://www.w3.org/Graphics/SVG/1.1/DTD/svg11.dtd"><svg version="1.1" id="Layer_1" xmlns="http://www.w3.org/2000/svg" xmlns:xlink="http://www.w3.org/1999/xlink" x="0px" y="0px" width="253px" height="34px" viewBox="0 0 253 34" enable-background="new 0 0 253 34" xml:space="preserve"><g><defs><rect id="SVGID_1_" y="0.731" width="253" height="32.537"/></defs><clipPath id="SVGID_2_"><use xlink:href="#SVGID_1_" overflow="visible"/></clipPath><path clip-path="url(#SVGID_2_)" fill-rule="evenodd" clip-rule="evenodd" fill="#0072B3" d="M17.864 19.236c.641-.797 1.053-1.704 1.238-2.722.088-.459.131-.863.131-1.208 0-.656-.133-1.223-.398-1.698-.264-.478-.688-.875-1.276-1.194-.587-.319-1.345-.559-2.273-.715-.927-.154-2.065-.232-3.409-.232H3.193L0 29.197h6.027l1.099-6.182h1.839c1.072 0 1.809.129 2.21.381.398.258.6.695.6 1.319 0 .378-.052.835-.154 1.379-.101.541-.175 1.032-.216 1.465-.043.438-.065.792-.065 1.073 0 .213.018.4.052.564h6.104l.076-.539c-.305 0-.458-.199-.458-.592 0-.23.033-.551.102-.963.069-.407.163-.927.281-1.553.12-.672.18-1.26.18-1.771 0-.491-.06-.893-.18-1.205-.118-.313-.284-.575-.496-.79-.213-.213-.469-.389-.769-.529-.296-.139-.634-.274-1.007-.407C16.346 20.569 17.227 20.032 17.864 19.236M13.358 17.45c-.101.625-.417 1.059-.946 1.305-.529.247-1.259.37-2.196.37H7.841l.612-3.521h2.809c.631 0 1.143.118 1.534.355.392.24.586.613.586 1.12C13.382 17.247 13.375 17.368 13.358 17.45M41.485 19.864c0-1.28-.349-2.26-1.048-2.932-.697-.672-1.796-1.009-3.293-1.009-1.022 0-1.915.201-2.683.603-.765.405-1.524.998-2.272 1.785l.358-2.019h-4.854l-2.299 12.904h5.312l1.176-6.575c.133-.838.391-1.49.765-1.959.373-.468.972-.702 1.788-.702.578 0 .975.147 1.187.446.213.293.322.663.322 1.108 0 .279-.029.565-.078.86l-1.227 6.821h5.313l1.38-7.732C41.434 20.905 41.485 20.373 41.485 19.864M52.893 15.979l-.281 1.687c-.375-.618-.882-1.119-1.522-1.494-.636-.372-1.364-.561-2.184-.561-1.107 0-2.071.192-2.897.577-.827.388-1.533.887-2.12 1.503-.587.616-1.058 1.319-1.405 2.106-.35.789-.591 1.575-.728 2.365-.036.229-.064.451-.088.665-.025.213-.039.427-.039.638 0 .677.102 1.307.305 1.897.205.592.513 1.102.92 1.528.409.427.916.763 1.519 1.009.604.244 1.309.369 2.108.369.971 0 1.784-.14 2.439-.419.657-.279 1.204-.61 1.647-.985l-.204 1.058c-.172.924-.453 1.571-.843 1.948-.394.377-.972.565-1.737.565-.546 0-.913-.106-1.099-.32-.152-.148-.23-.312-.23-.492V29.55h-5.338v.17c0 .462.116.905.346 1.33.229.431.59.807 1.084 1.136.494.327 1.142.589 1.941.787.802.197 1.78.296 2.938.296 1.651 0 2.98-.178 3.986-.528 1.004-.355 1.794-.843 2.374-1.468.579-.624 1-1.354 1.265-2.192.262-.837.479-1.741.652-2.707l1.864-10.395H52.893zM51.437 22.051c-.067.347-.172.681-.307 1.001-.137.323-.312.606-.524.855-.213.246-.468.445-.766.591-.299.148-.633.226-1.008.226h-.127c-.598-.017-1.027-.21-1.292-.582-.263-.373-.394-.812-.394-1.326 0-.097.003-.196.012-.297.009-.096.022-.204.04-.321.065-.41.166-.798.292-1.161.127-.363.293-.677.498-.939.205-.264.453-.472.742-.62s.63-.223 1.021-.223h.052c.681 0 1.157.195 1.429.583.272.386.412.853.412 1.396C51.514 21.514 51.486 21.787 51.437 22.051M18.49 29.197h5.288l1.553-10.474h-3.849L18.49 29.197z"/><path clip-path="url(#SVGID_2_)" fill="#FF8900" d="M67.516 11.319c-1.207 0-2.378.204-3.514.614-1.134.413-2.161.999-3.078 1.761-.918.761-1.698 1.683-2.344 2.77-.645 1.09-1.086 2.309-1.328 3.657-.066.357-.114.702-.144 1.035-.034.334-.048.658-.048.966 0 1.075.171 2.03.518 2.878.345.845.853 1.563 1.521 2.153.668.589 1.484 1.039 2.451 1.351.967.312 2.077.465 3.333.465 1.144 0 2.226-.157 3.249-.476 1.022-.318 1.947-.776 2.777-1.374.829-.596 1.547-1.323 2.148-2.176.605-.855 1.066-1.826 1.39-2.913h-5.481c-.257.811-.664 1.483-1.219 2.026-.557.544-1.293.814-2.211.814-.546 0-.998-.071-1.353-.222-.353-.146-.64-.349-.855-.605-.218-.256-.373-.556-.459-.896-.089-.341-.132-.713-.132-1.118 0-.265.014-.54.047-.828.032-.284.08-.584.144-.897.289-1.626.79-2.849 1.499-3.666.706-.815 1.568-1.222 2.584-1.222.836 0 1.484.21 1.942.629.459.418.69 1.016.69 1.794 0 .061-.005.117-.014.159-.008.05-.013.104-.013.166h5.41c.016-.125.024-.24.024-.351v-.349c0-1.954-.625-3.47-1.87-4.541C71.933 11.854 70.045 11.319 67.516 11.319M83.981 25.56c-.39.188-.801.281-1.226.281-.629 0-1.157-.182-1.584-.553-.425-.368-.637-.864-.637-1.489 0-.083.003-.166.012-.248.008-.081.021-.163.037-.244h10.141c.135-.707.204-1.339.204-1.897 0-.902-.145-1.733-.435-2.486-.288-.756-.715-1.396-1.276-1.923-.561-.525-1.258-.936-2.082-1.23-.827-.296-1.777-.442-2.85-.442-1.072 0-2.097.162-3.077.49-.979.33-1.864.793-2.656 1.394-.792.599-1.46 1.33-2.003 2.191-.546.86-.911 1.819-1.099 2.868-.035.231-.066.454-.089.676-.025.222-.039.441-.039.655 0 .87.162 1.636.486 2.301.322.667.773 1.23 1.354 1.688.577.46 1.268.807 2.068 1.034.8.231 1.677.345 2.63.345.785 0 1.578-.067 2.388-.207.808-.14 1.579-.379 2.311-.713.733-.34 1.399-.778 2.007-1.318.604-.545 1.092-1.217 1.467-2.021H84.95C84.695 25.09 84.373 25.37 83.981 25.56M81.989 19.056c.495-.4 1.141-.602 1.94-.602.563 0 1.032.182 1.407.541.372.361.561.805.561 1.331 0 .163-.009.285-.025.369h-4.827C81.18 20.005 81.496 19.461 81.989 19.056M102.098 15.695c-1.02 0-1.914.201-2.68.603-.766.405-1.524.998-2.274 1.786l.358-2.02H92.65l-2.299 12.904h5.312l1.174-6.575c.137-.837.393-1.49.765-1.959.376-.468.975-.7 1.791-.7.577 0 .973.147 1.186.444.213.294.32.664.32 1.108 0 .278-.025.565-.077.86l-1.227 6.821h5.314l1.377-7.732c.102-.56.155-1.092.155-1.601 0-1.28-.349-2.26-1.048-2.932C104.695 16.031 103.598 15.695 102.098 15.695M113.377 25.03c-.203-.134-.307-.356-.307-.67 0-.098.008-.209.026-.334.017-.123.042-.254.078-.402l.84-4.699h2.554l.513-2.958h-2.553l.74-4.016h-5.234l-.742 4.016h-1.967l-.511 2.958h1.891l-.972 5.39c-.086.442-.148.852-.191 1.22-.042.371-.065.704-.065.999 0 .475.069.872.204 1.181.138.311.366.564.69.751.325.189.758.322 1.305.396.543.071 1.216.108 2.017.108.425 0 .89-.005 1.391-.022.502-.016 1.052-.043 1.649-.075l.636-3.646h-.841C113.966 25.226 113.583 25.162 113.377 25.03M126.465 20.793c.178.032.353.066.523.1l.947-5.123c-.121-.015-.237-.034-.346-.05-.113-.016-.227-.024-.346-.024-2.029 0-3.576.993-4.648 2.98h-.053l.462-2.611h-4.83l-2.298 12.904h5.313l.791-4.457c.256-1.394.703-2.371 1.341-2.931.641-.558 1.502-.837 2.592-.837C126.102 20.744 126.287 20.763 126.465 20.793M141.194 17.296c-.17-.41-.478-.764-.92-1.058-.443-.296-1.052-.522-1.829-.677-.77-.156-1.765-.234-2.973-.234-1.326 0-2.471.096-3.423.295-.954.195-1.757.479-2.414.85-.652.366-1.161.821-1.519 1.354-.359.533-.596 1.144-.716 1.836h5.107c.07-.28.185-.501.346-.667.163-.162.335-.29.523-.382.188-.09.388-.147.601-.173.213-.023.412-.037.6-.037.118 0 .272.014.46.037.189.025.361.065.522.122.161.059.303.146.423.262.117.114.179.269.179.468 0 .031-.005.061-.012.085-.01.025-.014.054-.014.086-.067.409-.355.692-.857.851-.497.157-1.114.276-1.839.368-.722.091-1.506.188-2.347.295-.844.108-1.647.3-2.401.582-.757.278-1.423.691-1.994 1.24-.569.553-.94 1.31-1.109 2.28-.053.278-.077.534-.077.762 0 .543.11 1.009.331 1.393.222.389.518.712.895.973.376.266.819.458 1.33.581.508.121 1.046.182 1.606.182 1.006 0 1.931-.12 2.771-.356.846-.237 1.702-.703 2.568-1.39l.031 1.775h5.492l.02-.644c-.187-.181-.315-.342-.385-.481-.067-.139-.101-.298-.101-.481 0-.179.026-.408.075-.687l1.074-6.034c.067-.362.122-.708.166-1.037.043-.325.063-.647.063-.956C141.449 18.167 141.364 17.706 141.194 17.296M135.243 24.13c-.139.386-.321.723-.562 1.009-.236.291-.531.516-.879.68-.35.165-.757.243-1.214.243-.495 0-.866-.082-1.111-.256-.25-.172-.371-.396-.371-.678V24.98c.067-.413.249-.715.549-.91.297-.198.657-.349 1.073-.457.416-.106.868-.206 1.354-.295.484-.092.966-.236 1.442-.433C135.473 23.33 135.38 23.744 135.243 24.13M141.449 28.969h5.315l3.19-17.73h-5.313L141.449 28.969zM27.983 13.274c-.04-.098-.892-1.605-3.323-2.022-.597-.104-1.133-.113-1.604-.064-1.529.154-2.331.901-2.391.96-.246.234-.246.618 0 .854.244.237.642.238.885.002 0 0 .009-.011.07-.054.186-.14.709-.473 1.566-.559.356-.036.77-.031 1.251.053.978.172 1.583.538 1.954.85.184.158.31.3.386.399.037.049.062.089.075.109.012.018.011.018.012.018.12.233.375.354.625.33.075-.008.147-.028.217-.061C28.017 13.937 28.142 13.572 27.983 13.274zM24.15 13.463 24.15 13.463c-.365-.062-.7-.069-.992-.04-.957.098-1.463.565-1.514.615-.205.198-.205.518 0 .713.205.199.537.197.741 0 0 0-.001-.001.026-.022.096-.07.379-.254.856-.303.196-.019.427-.017.7.03.554.1.89.304 1.088.473.104.086.168.164.209.215.038.051.033.057.038.055.099.192.311.296.521.274.062-.005.123-.023.182-.052.258-.124.362-.429.233-.676C26.205 14.663 25.658 13.723 24.15 13.463M23.503 15.304c-.751-.001-1.362.499-1.363 1.122-.003.616.601 1.124 1.354 1.127.75.003 1.358-.496 1.364-1.117C24.861 15.817 24.254 15.309 23.503 15.304M156.954 13.198c-.158-.35-.373-.651-.642-.907-.272-.255-.587-.456-.947-.603-.361-.145-.746-.218-1.155-.218-.408 0-.793.073-1.158.218-.362.146-.681.348-.954.603-.273.256-.489.558-.647.907-.16.347-.239.722-.239 1.127 0 .415.079.796.239 1.146.158.351.374.654.647.913.273.258.592.458.954.601.365.145.75.217 1.158.217.409 0 .794-.072 1.155-.217.36-.143.675-.343.947-.601.269-.259.483-.562.642-.913.16-.351.239-.731.239-1.146C157.193 13.92 157.114 13.545 156.954 13.198M156.465 15.303c-.125.298-.296.559-.518.778-.218.221-.478.393-.774.518-.296.126-.618.189-.963.189-.35 0-.675-.063-.974-.189-.3-.125-.561-.297-.78-.518-.222-.22-.394-.48-.516-.778-.127-.3-.189-.626-.189-.978 0-.344.062-.663.189-.96.122-.297.294-.553.516-.771.22-.218.48-.389.78-.515.299-.125.624-.188.974-.188.345 0 .667.062.963.188.297.126.557.297.774.515.222.218.393.474.518.771.126.297.188.616.188.96C156.653 14.677 156.591 15.003 156.465 15.303M155.348 14.283c.175-.142.263-.363.263-.665 0-.321-.1-.562-.299-.721-.199-.158-.505-.238-.918-.238h-1.346v3.354h.542V14.57h.572l.947 1.442h.581l-.995-1.482C154.956 14.506 155.173 14.424 155.348 14.283M154.154 14.148h-.564v-1.066h.715c.092 0 .183.006.277.02.091.012.173.036.245.072.07.035.131.087.176.153.042.066.067.155.067.268 0 .133-.026.238-.078.312-.048.074-.115.129-.201.165-.086.035-.183.058-.29.065C154.392 14.144 154.275 14.148 154.154 14.148"/><path clip-path="url(#SVGID_2_)" fill="#585858" d="M169.83 20.96c-.046.805-.165 1.561-.361 2.264s-.454 1.347-.777 1.931-.7 1.104-1.137 1.562-.919.846-1.444 1.161-1.089.558-1.689.722c-.602.163-1.229.245-1.882.245H158l2.437-13.691h4.538c.794 0 1.504.139 2.131.412.626.274 1.15.663 1.569 1.167.421.502.729 1.111.93 1.827C169.806 19.276 169.881 20.076 169.83 20.96M168.848 20.979c.045-.78-.016-1.483-.18-2.108-.165-.626-.42-1.154-.768-1.586-.349-.433-.78-.765-1.297-.997-.518-.231-1.107-.349-1.768-.349h-3.585l-2.168 12.125h3.585c.839 0 1.621-.16 2.344-.479.724-.32 1.36-.782 1.91-1.39.551-.605.993-1.348 1.328-2.224C168.585 23.092 168.785 22.096 168.848 20.979"/><polygon clip-path="url(#SVGID_2_)" fill="#585858" points="179.642,15.948 173.148,15.948 172.155,21.521 177.561,21.521 
		177.412,22.295 172.016,22.295 170.992,28.052 177.514,28.052 177.364,28.844 169.899,28.844 172.335,15.154 179.792,15.154 	"/><path clip-path="url(#SVGID_2_)" fill="#585858" d="M179.569 15.153h.754c.089 0 .156.025.202.073.044.049.074.108.089.18l2.155 11.427c.024.137.047.28.071.436.021.153.039.315.048.483.066-.168.135-.33.204-.483.069-.155.142-.299.221-.436l6.205-11.427c.036-.072.089-.131.161-.18.067-.047.147-.073.236-.073h.743l-7.547 13.691h-.849L179.569 15.153z"/><polygon clip-path="url(#SVGID_2_)" fill="#585858" points="198.499,15.948 192.008,15.948 191.014,21.521 196.419,21.521 
		196.271,22.295 190.874,22.295 189.851,28.052 196.372,28.052 196.223,28.844 188.758,28.844 191.193,15.154 198.65,15.154 	"/><polygon clip-path="url(#SVGID_2_)" fill="#585858" points="198.775,28.023 204.648,28.023 204.497,28.845 197.69,28.845 
		200.127,15.153 201.069,15.153 	"/><path clip-path="url(#SVGID_2_)" fill="#585858" d="M216.902 20.948c-.067 1.209-.304 2.305-.707 3.292-.401.986-.932 1.832-1.588 2.534-.657.704-1.415 1.249-2.275 1.636-.861.388-1.782.581-2.761.581-.789 0-1.491-.144-2.11-.431s-1.138-.692-1.557-1.215c-.419-.523-.729-1.148-.928-1.877-.2-.729-.276-1.535-.228-2.419.07-1.199.308-2.296.713-3.285.405-.99.937-1.839 1.588-2.545.654-.706 1.411-1.252 2.269-1.639.856-.386 1.772-.58 2.745-.58.796 0 1.503.143 2.125.43.623.287 1.143.693 1.562 1.213.419.523.727 1.151.926 1.882C216.879 19.258 216.951 20.066 216.902 20.948M215.921 20.97c.043-.794-.016-1.508-.18-2.144s-.421-1.177-.77-1.625c-.352-.448-.784-.792-1.301-1.036-.517-.241-1.104-.363-1.757-.363-.827 0-1.604.168-2.327.504-.725.335-1.362.815-1.919 1.441-.552.625-1.002 1.384-1.343 2.273-.342.89-.546 1.892-.61 3-.045.793.017 1.508.184 2.144.168.637.427 1.176.774 1.619.352.447.783.789 1.297 1.032.514.241 1.098.362 1.753.362.841 0 1.621-.165 2.345-.498.725-.332 1.361-.812 1.913-1.437.55-.627.995-1.383 1.335-2.269C215.654 23.086 215.855 22.086 215.921 20.97"/><path clip-path="url(#SVGID_2_)" fill="#585858" d="M219.142 23.32l-.98 5.524h-.943l2.425-13.691h3.242c1.322 0 2.297.301 2.924.906.627.603.909 1.45.848 2.539-.04.697-.192 1.335-.463 1.912-.267.577-.629 1.074-1.084 1.49-.458.416-.995.74-1.618.973-.623.231-1.31.348-2.061.348H219.142zM220.459 15.918l-1.178 6.629h2.288c.598 0 1.143-.098 1.634-.291.488-.193.916-.461 1.275-.803s.645-.749.854-1.219c.213-.472.334-.984.366-1.54.049-.877-.171-1.559-.662-2.045-.49-.487-1.253-.731-2.29-.731H220.459z"/><polygon clip-path="url(#SVGID_2_)" fill="#585858" points="235.703,15.948 229.209,15.948 228.215,21.521 233.621,21.521 
		233.473,22.295 228.077,22.295 227.054,28.052 233.574,28.052 233.426,28.844 225.96,28.844 228.396,15.154 235.853,15.154 	"/><path clip-path="url(#SVGID_2_)" fill="#585858" d="M237.2 22.644l-1.105 6.201h-.943l2.426-13.691h3.203c1.303 0 2.265.264 2.878.79.616.525.896 1.289.839 2.289-.034.594-.158 1.136-.378 1.63-.22.493-.515.926-.886 1.297-.369.37-.809.673-1.313.904-.506.232-1.06.387-1.663.464.13.097.233.224.314.379l3.179 5.939h-.81c-.191 0-.33-.08-.415-.242l-2.936-5.573c-.079-.142-.17-.242-.271-.3-.104-.058-.271-.086-.508-.086H237.2zM238.403 15.918l-1.077 6.01h2.127c.604 0 1.15-.084 1.641-.254.488-.166.91-.405 1.265-.714.355-.311.634-.685.837-1.122.203-.439.318-.926.35-1.461.047-.826-.176-1.442-.667-1.849-.491-.407-1.234-.61-2.225-.61H238.403z"/><path clip-path="url(#SVGID_2_)" fill="#585858" d="M252.71 16.808c-.074.11-.162.164-.258.164-.075 0-.163-.06-.265-.183-.102-.124-.241-.256-.42-.402-.182-.144-.415-.278-.703-.4-.289-.125-.656-.185-1.101-.185-.483 0-.918.08-1.304.237-.388.158-.722.375-1 .647-.281.276-.501.596-.661.958-.159.366-.252.754-.276 1.167-.021.393.038.723.183.992.143.268.339.497.586.688.246.188.53.354.849.493.321.139.649.273.988.405.34.133.668.277.985.436.317.157.601.35.844.575.245.228.438.501.578.823.141.323.197.719.172 1.19-.035.618-.176 1.207-.416 1.766-.241.558-.569 1.045-.983 1.462-.414.416-.908.746-1.48.991-.574.245-1.208.367-1.9.367-.812 0-1.49-.159-2.034-.479-.54-.318-.985-.756-1.335-1.311l.339-.416c.094-.09.186-.135.274-.135.058 0 .12.039.188.115.069.078.152.173.25.286.1.112.217.235.353.367.136.133.3.255.498.368.195.111.427.208.695.285.265.078.576.115.931.115.534 0 1.023-.091 1.466-.274.441-.185.825-.437 1.149-.761.323-.323.578-.7.767-1.136.186-.435.293-.905.322-1.409.021-.399-.039-.731-.182-1.001-.145-.268-.339-.494-.586-.682-.247-.187-.531-.346-.852-.475s-.648-.258-.983-.388c-.337-.129-.665-.27-.986-.424-.322-.155-.604-.348-.848-.576-.245-.229-.437-.511-.573-.843-.138-.331-.19-.74-.164-1.224.029-.522.151-1.026.361-1.51.213-.484.503-.911.869-1.281.368-.373.809-.667 1.323-.887.515-.218 1.094-.327 1.734-.327.649 0 1.211.121 1.687.362.476.242.879.596 1.209 1.06L252.71 16.808z"/><path clip-path="url(#SVGID_2_)" fill="#FF8900" d="M247.129 4.432c-.042-.121-.082-.251-.122-.392-.039.141-.078.272-.114.393-.04.123-.077.229-.113.32l-.743 1.989h1.946l-.743-1.997C247.207 4.656 247.168 4.552 247.129 4.432M233.143 6.603c-.091-.073-.208-.129-.347-.168-.141-.038-.312-.058-.511-.058h-1.149v1.759h1.152c.211 0 .389-.025.529-.075.144-.05.257-.116.344-.199.086-.083.146-.18.185-.291.04-.11.058-.228.058-.352 0-.13-.021-.248-.062-.352C233.298 6.766 233.232 6.675 233.143 6.603M251.001 1h-23.002C226.896 1 226 1.896 226 3v6c0 1.104.896 2 1.999 2h23.002c1.103 0 1.999-.896 1.999-2V3C253 1.896 252.104 1 251.001 1M234.379 7.95c-.098.216-.242.402-.429.559-.189.157-.422.279-.699.367-.276.088-.59.134-.944.134h-2.308V3.006h2.106c.4 0 .743.037 1.026.111.283.076.515.182.696.32.183.137.314.305.401.503.083.196.126.417.126.664 0 .141-.022.275-.064.404-.042.129-.106.25-.196.362-.089.112-.2.214-.338.305-.137.091-.299.168-.488.232.839.186 1.259.631 1.259 1.336C234.527 7.498 234.479 7.733 234.379 7.95M239.32 3.894h-2.709v1.665h2.132v.859h-2.132v1.699h2.709v.893h-3.854V3.006h3.854V3.894zM242.799 9.009h-1.138V3.923h-1.847V3.006h4.82v.917h-1.836V9.009zM249.11 9.009c-.098 0-.179-.025-.242-.073-.063-.049-.109-.109-.139-.181l-.454-1.226h-2.532l-.456 1.226c-.022.064-.065.121-.133.174-.064.052-.146.08-.242.08h-.884l2.4-6.003h1.162l2.399 6.003H249.11zM232.923 5.396c.199-.137.299-.358.299-.66 0-.312-.09-.535-.27-.669-.18-.132-.462-.199-.847-.199h-.97v1.736h.908C232.429 5.604 232.722 5.536 232.923 5.396"/></g></svg>