<?xml version="1.0" encoding="UTF-8" standalone="no"?>
<svg width="11px" height="11px" viewBox="0 0 11 11" version="1.1" xmlns="http://www.w3.org/2000/svg" xmlns:xlink="http://www.w3.org/1999/xlink">
    <!-- Generator: Sketch 44.1 (41455) - http://www.bohemiancoding.com/sketch -->
    <defs></defs>
    <g id="Page-1" stroke="none" stroke-width="1" fill="none" fill-rule="evenodd">
        <g id="multi-call-2-copy" transform="translate(-1204.000000, -476.000000)" fill="#303030">
            <g id="Group-25" transform="translate(978.000000, 125.000000)">
                <g id="Group-9" transform="translate(219.000000, 344.000000)">
                    <g id="2-incoming-calls" transform="translate(7.800000, 7.800000)">
                        <path d="M5.67894737,4.27631579 L5.67894737,0.646458676 C5.67894737,0.284244497 5.38793246,0 5.02894737,0 C4.6674595,0 4.37894737,0.289429408 4.37894737,0.646458676 L4.37894737,4.27631579 L0.749090255,4.27631579 C0.386876076,4.27631579 0.102631579,4.5673307 0.102631579,4.92631579 C0.102631579,5.28780365 0.392060987,5.57631579 0.749090255,5.57631579 L4.37894737,5.57631579 L4.37894737,9.2061729 C4.37894737,9.56838708 4.66996228,9.85263158 5.02894737,9.85263158 C5.39043523,9.85263158 5.67894737,9.56320217 5.67894737,9.2061729 L5.67894737,5.57631579 L9.30880448,5.57631579 C9.67101866,5.57631579 9.95526316,5.28530088 9.95526316,4.92631579 C9.95526316,4.56482792 9.66583375,4.27631579 9.30880448,4.27631579 L5.67894737,4.27631579 Z" id="Combined-Shape"></path>
                    </g>
                </g>
            </g>
        </g>
    </g>
</svg>