<?xml version="1.0" encoding="UTF-8" standalone="no"?>
<svg width="9px" height="10px" viewBox="0 0 9 10" version="1.1" xmlns="http://www.w3.org/2000/svg" xmlns:xlink="http://www.w3.org/1999/xlink">
    <!-- Generator: Sketch 44.1 (41455) - http://www.bohemiancoding.com/sketch -->
    <defs></defs>
    <g id="Page-1" stroke="none" stroke-width="1" fill="none" fill-rule="evenodd">
        <g id="multi-call-2" transform="translate(-1244.000000, -247.000000)" fill="#000000">
            <g id="Group-25" transform="translate(980.000000, 108.000000)">
                <g id="Group-5" transform="translate(255.000000, 131.000000)">
                    <path d="M15.875456,17.8516248 L15.875456,17.8516248 C14.5195092,17.8516248 12.7539512,16.6657185 11.1578843,14.6892081 C8.84146629,11.8091487 8.57310404,9.40909759 9.49119764,8.59026446 C9.73131784,8.37849411 10.3669137,8.05377892 10.6635276,8.01143064 C10.9883933,7.95496305 11.3132493,8.11025616 11.4827499,8.42085204 C11.8076156,9.08439206 12.2031009,9.73382242 12.612712,10.3691238 C12.7963288,10.6514811 12.7539609,11.0044349 12.5138407,11.2444342 C12.3725918,11.3856177 12.2031009,11.4703239 12.0477358,11.5550301 C11.9206128,11.6114977 11.8217414,11.6820942 11.7228701,11.7668004 C11.7228701,11.7668004 11.6804926,11.8091584 11.6804926,11.8938646 C11.6663667,12.0773963 11.6946184,12.5856432 12.4997148,13.602137 C13.3754309,14.6750985 13.8980392,14.7456854 14.0392784,14.7456854 C14.0957722,14.7456854 14.1381498,14.731566 14.1381498,14.731566 C14.2370211,14.6468598 14.3217665,14.5480343 14.406512,14.4492088 C14.533635,14.3080253 14.6466322,14.1668515 14.8161231,14.0539067 C15.0986113,13.870375 15.4799707,13.9127233 15.6918392,14.1386129 C16.2285734,14.6750985 16.8076754,15.1833357 17.3585258,15.6633537 C17.6268881,15.8892433 17.7257594,16.2421875 17.5845202,16.538664 C17.4856488,16.806902 17.0336698,17.3575068 16.7652979,17.5692772 C16.5393035,17.7669282 16.2285637,17.8516344 15.875456,17.8516344 L15.875456,17.8516248 Z" id="Shape"></path>
                </g>
            </g>
        </g>
    </g>
</svg>