<?xml version="1.0" encoding="UTF-8"?>
<svg width="21px" height="22px" viewBox="0 0 21 22" version="1.1" xmlns="http://www.w3.org/2000/svg" xmlns:xlink="http://www.w3.org/1999/xlink">
    <title>Shape</title>
    <desc>Created with Sketch.</desc>
    <defs></defs>
    <g id="navigation-icon" stroke="none" stroke-width="1" fill="none" fill-rule="evenodd" transform="translate(-192.000000, -615.000000)">
        <path d="M211.454574,635.5 C211.384595,635.506873 211.362207,635.509072 211.348494,635.512384 L211.381875,635.5 L211.454574,635.5 Z M211.33085,635.518399 C211.32425,635.520705 211.32425,635.520705 211.321921,635.521635 C211.321456,635.521764 211.321456,635.521764 211.316153,635.524382 L211.348494,635.512384 C211.342043,635.513942 211.337512,635.515746 211.33085,635.518399 Z M211.497542,635.328222 C211.526033,634.212989 211.307465,633.360464 210.768461,632.631821 C210.374044,632.104334 209.550854,631.427303 208.994172,631.184492 C208.649408,631.030803 208.3799,630.921309 207.855879,630.716998 C207.364764,630.525544 207.167885,630.447057 206.873689,630.321937 C206.807341,630.291218 206.72605,630.261123 206.586555,630.214513 C206.494763,630.18406 206.494763,630.18406 206.395883,630.150818 C205.965489,630.004205 205.703411,629.872056 205.484834,629.630932 C205.444249,629.586152 205.451537,629.590924 205.30411,629.508583 C204.982698,629.329069 204.841159,629.065978 204.842128,628.638597 C204.832791,628.488848 204.802549,628.104699 204.803135,628.112924 C204.789929,627.927453 204.784024,627.76661 204.784024,627.547304 C204.784024,627.455661 204.78582,627.401575 204.794997,627.327911 C204.811882,627.192372 204.848439,627.070134 204.912073,626.975416 C204.955417,626.902952 204.955417,626.902952 205.000335,626.828969 C205.074447,626.707818 205.135361,626.615048 205.199746,626.529007 C205.66088,625.920413 205.900626,625.199021 205.930567,624.333594 C205.959743,624.099485 206.067054,623.913586 206.223139,623.758561 C206.28136,623.700735 206.375989,623.623564 206.434481,623.578653 C206.632053,623.44653 206.705607,623.243892 206.777815,622.673703 C206.798993,622.505809 206.806821,622.446516 206.821959,622.349221 C206.845462,622.231354 206.869481,622.00671 206.869481,621.902582 C206.869481,621.482936 206.870642,621.485673 206.826676,621.485673 L206.326676,621.485673 L206.326676,620.985673 C206.326676,620.881641 206.328633,620.802455 206.333365,620.674321 C206.335267,620.623289 206.335267,620.623289 206.336885,620.575683 C206.341632,620.427194 206.340021,620.31922 206.326919,620.141663 C206.303733,619.398525 206.151128,618.886541 205.786601,618.185633 C205.32204,617.323583 204.501984,616.796169 203.401834,616.607789 C203.327237,616.595317 203.270946,616.585277 203.15173,616.563526 C203.03521,616.542274 202.984397,616.533211 202.916222,616.521812 C202.907555,616.520363 202.878588,616.516654 202.830218,616.512436 C202.741823,616.504727 202.635784,616.5 202.512983,616.5 C202.390182,616.5 202.284143,616.504727 202.195748,616.512436 C202.147378,616.516654 202.118411,616.520363 202.109744,616.521812 C201.725945,616.565341 201.572231,616.590355 201.346907,616.657502 C200.002932,616.988146 199.180933,617.800304 198.857965,619.120757 C198.787523,619.426923 198.758069,619.682954 198.725816,620.228551 C198.712435,620.376185 198.705834,620.47476 198.702585,620.572498 C198.699782,620.656847 198.69929,620.722961 198.69929,620.928406 L198.69929,621.222164 L198.442688,621.365164 C198.164148,621.520389 198.109818,621.65414 198.152666,622.041361 C198.179071,622.253228 198.205799,622.418912 198.243092,622.611023 C198.260046,622.69836 198.330825,623.042645 198.33896,623.089467 C198.410738,623.353444 198.51582,623.5291 198.699891,623.680718 C198.75756,623.722455 198.805672,623.758652 198.847398,623.79702 C198.993133,623.931025 199.070669,624.102774 199.067633,624.254473 C199.079371,624.360503 199.08875,624.441649 199.110106,624.623722 C199.131601,624.806966 199.141264,624.890571 199.152812,624.99506 C199.213357,625.501121 199.52652,626.123283 200.072584,626.926603 C200.194881,627.110535 200.202026,627.217899 200.187817,627.517243 C200.185361,627.570052 200.184807,627.585424 200.184807,627.604611 C200.184807,627.840543 200.18081,627.994108 200.170115,628.262073 C200.159515,628.528704 200.156219,628.656525 200.156219,628.836648 C200.156219,629.273838 199.885741,629.483715 199.333442,629.754836 C199.268421,629.786755 198.942876,629.937093 198.892189,629.965256 C198.666955,630.085737 198.425449,630.192385 198.042073,630.348062 C197.871429,630.41704 197.772785,630.456865 197.707077,630.483668 C197.584182,630.533799 197.487722,630.574236 197.398728,630.613284 C197.291176,630.659987 197.291176,630.659987 197.183735,630.706556 C196.969131,630.799574 196.874626,630.840649 196.757369,630.892042 C195.975835,631.234586 195.50171,631.467324 195.169305,631.683812 C194.707716,632.002106 194.327882,632.326642 194.225359,632.480377 C193.857543,633.076325 193.571271,633.959256 193.5,634.796557 C193.5,635.165039 193.504416,635.324617 193.528548,635.570179 C193.528548,635.531498 193.462194,635.464948 193.558436,635.497117 L211.381875,635.5 C211.570089,635.448384 211.483823,635.557658 211.497542,635.328222 Z M193.542765,635.5 L193.567061,635.5 C193.560278,635.50005 193.551913,635.5 193.542765,635.5 Z M202.108865,615.516217 C202.225812,615.506018 202.360821,615.5 202.512983,615.5 C202.665145,615.5 202.800153,615.506018 202.9171,615.516217 C202.991935,615.522744 203.046894,615.52978 203.08111,615.5355 C203.155664,615.547965 203.211938,615.558003 203.331109,615.579746 C203.447667,615.601004 203.498493,615.610069 203.568668,615.621806 C204.957439,615.859602 206.046532,616.560046 206.670334,617.717698 C207.103109,618.549696 207.298153,619.204058 207.325212,620.087837 C207.339226,620.270566 207.341927,620.408601 207.337291,620.576889 C207.74962,620.759684 207.869481,621.213328 207.869481,621.902582 C207.869481,622.075289 207.838512,622.364938 207.80681,622.520931 C207.797332,622.584324 207.790184,622.638468 207.775158,622.757623 C207.662914,623.644087 207.51141,624.061473 207.066447,624.347365 C207.036235,624.377658 206.939153,624.456829 206.927832,624.468073 C206.893657,625.431778 206.587309,626.353576 205.998617,627.130503 C205.958331,627.184347 205.912639,627.253935 205.85338,627.350805 C205.818571,627.408138 205.813604,627.416318 205.786206,627.462101 C205.784577,627.480484 205.784024,627.504347 205.784024,627.547304 C205.784024,627.742515 205.78906,627.879696 205.80061,628.041903 C205.799504,628.026378 205.830243,628.416846 205.841159,628.60748 C206.044359,628.776931 206.088006,628.80735 206.225766,628.959352 C206.295745,629.036549 206.440795,629.109689 206.718337,629.204233 C206.808661,629.234597 206.808661,629.234597 206.903466,629.266057 C207.076101,629.323741 207.184643,629.363924 207.279075,629.407934 C207.54651,629.521415 207.737027,629.597366 208.198538,629.777279 C208.756979,629.995009 209.038294,630.1093 209.397638,630.269506 C210.115771,630.582715 211.074532,631.371246 211.570867,632.035047 C212.256981,632.962545 212.530999,634.031357 212.496522,635.370244 C212.458077,636.026248 212.257069,636.296095 211.705168,636.445059 C211.673806,636.457777 211.673806,636.457777 211.648192,636.46671 C211.589233,636.486702 211.589233,636.486702 211.454574,636.5 L193.542765,636.5 C193.350012,636.5 193.253473,636.492069 193.142134,636.409525 C192.744514,636.25303 192.528774,636.007988 192.531584,635.625198 C192.5051,635.385973 192.5,635.201717 192.501716,634.755168 C192.587612,633.721064 192.923089,632.686375 193.383466,631.940995 C193.586928,631.634886 194.039614,631.248105 194.612416,630.853327 C195.016076,630.590187 195.52532,630.34021 196.355938,629.976153 C196.474861,629.92403 196.570827,629.882319 196.786049,629.789034 C196.893337,629.742532 196.893337,629.742532 196.998508,629.696867 C197.095167,629.654452 197.199079,629.610891 197.329376,629.557741 C197.397117,629.530108 197.497932,629.489407 197.665839,629.421538 C198.018388,629.278378 198.23494,629.182749 198.412949,629.087614 C198.495254,629.041746 198.858295,628.874092 198.892778,628.857164 C199.009343,628.799943 199.097503,628.750315 199.156818,628.708394 C199.158175,628.571631 199.16193,628.44807 199.168962,628.271041 C199.18112,627.966378 199.184807,627.824747 199.184807,627.604611 C199.184807,627.564113 199.186038,627.529946 199.188939,627.469889 C198.611675,626.555225 198.245008,625.82528 198.159388,625.109472 C198.14765,625.003443 198.138272,624.922296 198.116915,624.740223 C198.103507,624.625916 198.094702,624.55038 198.086313,624.469944 C197.710368,624.161744 197.497428,623.805791 197.366131,623.318435 C197.351143,623.243267 197.279647,622.895497 197.261417,622.801585 C197.219944,622.587941 197.189631,622.400039 197.159545,622.158248 C197.08684,621.501941 197.235757,621.017248 197.700326,620.658698 C197.700906,620.615689 197.701793,620.579731 197.703137,620.539279 C197.707083,620.420556 197.714917,620.303577 197.728715,620.154143 C197.762781,619.573303 197.797846,619.268497 197.885008,618.889871 C198.298668,617.198371 199.404803,616.105479 201.083329,615.693203 C201.356354,615.611012 201.55413,615.578487 201.960741,615.53298 C201.995119,615.527788 202.044681,615.521815 202.108865,615.516217 Z M199.242717,627.484541 C199.241004,627.48202 199.239292,627.479501 199.237582,627.476983 C199.239106,627.479142 199.240879,627.481778 199.242717,627.484541 Z M199.169135,628.699493 C199.172883,628.696721 199.176498,628.693984 199.179979,628.691282 C199.18009,628.691196 199.179481,628.692109 199.178393,628.694229 L199.169135,628.699493 Z M205.810682,628.657232 C205.80233,628.648853 205.794741,628.637209 205.791728,628.635526 C205.799162,628.639678 205.806412,628.643731 205.813487,628.647691 L205.810682,628.657232 Z" id="Shape" fill-rule="nonzero"></path>
    </g>
</svg>
