<svg xmlns="http://www.w3.org/2000/svg" width="19" height="20" viewBox="0 0 19 20">
    <path fill="#FFF" fill-rule="nonzero" d="M9.027.029S9.2 0 9.513 0s.486.029.486.029c.171.028.314.057.485.086 1.172.2 2.171.773 2.743 1.833.343.66.571 1.261.6 2.178.028.373 0 .516 0 .86.514 0 .542.43.542.917 0 .143-.028.4-.057.544-.085.573-.085 1.203-.6 1.547-.057.058-.257.172-.285.401-.029.889-.286 1.72-.829 2.436-.085.115-.171.258-.257.401-.057.086-.057.23-.057.315 0 .459.029.602.057 1.06 0 .545.229.373.514.688.286.315.857.401 1.229.573.743.315 1.342.516 2.114.86.657.286 1.542 1.031 1.97 1.604.658.889.858 1.892.83 3.009-.03.487-.115.544-.458.63 0 0-.057.029-.085.029H.543c-.057 0-.115 0-.143-.029-.257-.086-.371-.172-.371-.4C0 19.311 0 19.053 0 18.796c.086-1.032.428-1.978.8-2.58.171-.257.628-.63 1.085-.945.572-.372 1.457-.745 2.314-1.117.458-.2 1.029-.401 1.457-.63.257-.144 1-.402 1-.688 0-.487.029-.688.029-1.232 0-.144.028-.316-.029-.402-.428-.63-.914-1.432-1-2.149-.028-.257-.057-.487-.085-.745 0-.114-.057-.143-.172-.229a1.577 1.577 0 0 1-.543-.86c-.085-.43-.142-.658-.2-1.117-.057-.516.03-.888.543-1.175 0-.315 0-.43.029-.745.028-.487.057-.802.143-1.174C5.742 1.49 6.713.544 8.227.172c.286-.086.543-.115.8-.143z"/>
</svg>
