<?xml version="1.0" encoding="UTF-8"?>
<svg width="20" height="20" viewBox="0 0 19 20" version="1.1" xmlns="http://www.w3.org/2000/svg" xmlns:xlink="http://www.w3.org/1999/xlink">
    <g id="WebRTC" stroke="none" stroke-width="1" fill="none" fill-rule="evenodd">
        <g id="ContactHover" fill="#FFF" fill-rule="nonzero">
            <path d="M6.60673379,8.56474305 C6.62866449,8.75230454 6.63827554,8.83600081 6.64888339,8.93390938 C6.69718776,9.33663307 6.98221818,9.90266588 7.48953841,10.6495385 C7.62355373,10.851737 7.67366167,11.0490706 7.68800263,11.2623896 C7.69429397,11.355972 7.69311393,11.4148362 7.68738269,11.539469 C7.68521934,11.5886612 7.685,11.5949857 7.685,11.604 C7.685,11.8478792 7.68078488,12.0074964 7.66968191,12.2818164 C7.6591842,12.5421784 7.656,12.6639017 7.656,12.836 C7.656,13.3023142 7.43043609,13.6186151 7.09903155,13.8755769 C6.94295716,13.9965926 6.77052832,14.0960623 6.55388481,14.2025127 C6.47644547,14.2405635 6.16830621,14.3832251 6.127764,14.4057249 C5.88163071,14.5374177 5.62561538,14.6504766 5.22561742,14.8128322 C5.05465668,14.8819058 4.95517273,14.9220377 4.89318039,14.9472842 C4.77409249,14.9957831 4.68178477,15.0343646 4.59717809,15.0713081 C4.49085333,15.1174229 4.49085333,15.1174229 4.38493056,15.1632938 C3.86387545,15.3889556 3.62581702,15.493947 3.3573433,15.6189942 C2.95071708,15.8083887 2.64697529,15.9683263 2.45252243,16.0943579 C2.04248383,16.3769885 1.69823599,16.6712288 1.65068649,16.7416734 C1.32501151,17.2687065 1.06343875,18.0763296 1,18.796 C1,18.8730289 1.00020125,18.9402336 1.00071573,19 L17.9989484,19 C17.979627,18.1459939 17.7827476,17.4923825 17.366827,16.9304329 C17.023008,16.4701331 16.2684515,15.8493088 15.7909835,15.6414208 C15.4544453,15.4914608 15.1894585,15.3837206 14.6735267,15.1823531 C14.1766843,14.9884674 13.9783001,14.9093459 13.664323,14.7756735 C13.619056,14.7547436 13.5511882,14.7296349 13.4278112,14.6884188 C13.3380102,14.6586335 13.3380102,14.6586335 13.2355287,14.6241881 C12.7288029,14.4516413 12.4084658,14.2903812 12.1144976,13.9670507 C12.1286404,13.9806626 12.1473453,13.9936667 12.0606434,13.9452632 C11.5742491,13.6737211 11.341,13.2405773 11.3428635,12.6680214 C11.3321172,12.499278 11.3051782,12.1575228 11.3046019,12.1494692 C11.2904114,11.9511715 11.284,11.7785834 11.284,11.547 C11.284,11.4346748 11.2863648,11.3646423 11.2991925,11.2630871 C11.3249711,11.0590007 11.3819633,10.8688868 11.4840363,10.7166232 C11.630506,10.4730749 11.6970385,10.3675538 11.8012164,10.2267353 C12.1975508,9.70412857 12.4040251,9.08299465 12.4343923,8.27363312 C12.4784141,7.91359721 12.6412458,7.63139204 12.8709888,7.40337108 C12.9521125,7.3228555 13.0408055,7.25029698 12.9987714,7.29306847 L13.1565548,7.16244686 C13.1928157,7.13822599 13.2273315,7.04317876 13.2817418,6.61092314 C13.3032424,6.43939009 13.3112887,6.37802749 13.331682,6.24957485 C13.3439677,6.18857038 13.3578969,6.0726636 13.3647418,5.986 L12.827,5.986 L12.827,4.986 C12.827,4.87476232 12.829043,4.79042217 12.8338765,4.65686942 C12.8357348,4.60598245 12.8357348,4.60598245 12.8372404,4.56081049 C12.8413887,4.42850716 12.8400615,4.33747846 12.8274997,4.15760906 C12.8065584,3.49543174 12.6753433,3.05503687 12.3469558,2.42289178 C11.9594873,1.70485582 11.2743417,1.26432655 10.3167968,1.10092245 C10.2414597,1.08814598 10.180558,1.07716567 10.0613742,1.05526858 C9.95987622,1.03668217 9.9024837,1.02651332 9.83367663,1.01523941 C9.71149541,1.00411823 9.62025536,1 9.513,1 C9.40574464,1 9.31450459,1.00411823 9.24029823,1.01064929 C9.21670854,1.01272547 9.18171196,1.01688148 9.1353085,1.02311733 C8.8165441,1.05784653 8.67963328,1.0801253 8.46560964,1.14311557 C7.30194245,1.42903643 6.62214229,2.10084313 6.34530284,3.23324205 C6.28199621,3.50708002 6.25503789,3.74045759 6.22378891,4.2736758 C6.21104974,4.41204954 6.20499113,4.50118767 6.20205693,4.58820177 C6.19947537,4.66475841 6.199,4.72770432 6.199,4.927 L6.199,5.51340313 L5.68724071,5.79970901 C5.6008929,5.84801665 5.62695661,5.78401578 5.64811072,5.97663525 C5.67718755,6.19985698 5.70095269,6.3440758 5.73404678,6.51453726 C5.74922014,6.59269243 5.81796903,6.92871791 5.82855054,6.98630824 C5.8582068,7.11025854 5.92806683,7.22090241 5.99788521,7.27816512 C6.05105884,7.31575809 6.12276901,7.369557 6.1866276,7.42831602 C6.41620805,7.6395628 6.55101391,7.91734689 6.56894629,8.23478524 C6.57878168,8.3244175 6.58837798,8.40775252 6.60673379,8.56474305 Z M13.827,4.126 L13.827,4.986 C14.341,4.986 14.369,5.416 14.369,5.903 C14.369,6.046 14.341,6.303 14.312,6.447 C14.227,7.02 14.227,7.65 13.712,7.994 C13.655,8.052 13.455,8.166 13.427,8.395 C13.398,9.284 13.141,10.115 12.598,10.831 C12.513,10.946 12.427,11.089 12.341,11.232 C12.284,11.318 12.284,11.462 12.284,11.547 C12.284,12.006 12.313,12.149 12.341,12.607 C12.341,13.152 12.57,12.98 12.855,13.295 C13.141,13.61 13.712,13.696 14.084,13.868 C14.827,14.183 15.426,14.384 16.198,14.728 C16.855,15.014 17.74,15.759 18.168,16.332 C18.826,17.221 19.026,18.224 18.998,19.341 C18.968,19.828 18.883,19.885 18.54,19.971 C18.54,19.971 18.483,20 18.455,20 L0.543,20 C0.486,20 0.428,20 0.4,19.971 C0.143,19.885 0.029,19.799 0.029,19.571 C0,19.311 0,19.053 0,18.796 C0.086,17.764 0.428,16.818 0.8,16.216 C0.971,15.959 1.428,15.586 1.885,15.271 C2.457,14.899 3.342,14.526 4.199,14.154 C4.657,13.954 5.228,13.753 5.656,13.524 C5.913,13.38 6.656,13.122 6.656,12.836 C6.656,12.349 6.685,12.148 6.685,11.604 C6.685,11.46 6.713,11.288 6.656,11.202 C6.228,10.572 5.742,9.77 5.656,9.053 C5.628,8.796 5.599,8.566 5.571,8.308 C5.571,8.194 5.514,8.165 5.399,8.079 C5.1279882,7.86016987 4.9370536,7.55776885 4.856,7.219 C4.771,6.789 4.714,6.561 4.656,6.102 C4.599,5.586 4.686,5.214 5.199,4.927 C5.199,4.612 5.199,4.497 5.228,4.182 C5.256,3.695 5.285,3.38 5.371,3.008 C5.742,1.49 6.713,0.544 8.227,0.172 C8.513,0.086 8.77,0.057 9.027,0.029 C9.027,0.029 9.2,0 9.513,0 C9.826,0 9.999,0.029 9.999,0.029 C10.17,0.057 10.313,0.086 10.484,0.115 C11.656,0.315 12.655,0.888 13.227,1.948 C13.57,2.608 13.798,3.209 13.827,4.126 Z" id="Shape"></path>
        </g>
    </g>
</svg>
