<svg xmlns="http://www.w3.org/2000/svg" viewBox="0 0 31 30">
    <g fill="none" fill-rule="evenodd">
        <path fill="#0083BF" d="M25.831 25.414a5.14 5.14 0 0 0 .473-.514l.043-.043c.129-.171.3-.343.43-.514 0-.043.043-.043.043-.086l.386-.514c.043-.043.043-.086.086-.086.13-.171.215-.343.344-.514.043-.043.043-.086.086-.129.086-.171.215-.342.301-.514.043-.043.043-.086.086-.128l.258-.515c.043-.043.043-.128.086-.171.086-.172.172-.343.215-.514.043-.086.043-.13.086-.215.086-.171.129-.343.215-.471.042-.086.042-.129.085-.215.043-.17.13-.3.172-.471.043-.086.043-.171.086-.257.043-.172.086-.3.13-.472.042-.085.042-.17.085-.257.043-.171.086-.3.13-.471 0-.086.042-.171.042-.257.043-.172.043-.3.086-.472 0-.085.043-.171.043-.3.043-.171.043-.343.086-.471 0-.086.043-.171.043-.3 0-.172.043-.343.043-.557v-1.029c0-2.828-.817-5.528-2.192-7.757a11.802 11.802 0 0 0-.817-1.2 25.41 25.41 0 0 0-.902-1.114c-.301-.343-.645-.686-1.032-1.029-.172-.171-.343-.3-.558-.471a14.107 14.107 0 0 0-3.052-1.929c-.43-.214-.903-.386-1.332-.557-.43-.171-.946-.3-1.419-.429C17.622.171 16.332 0 15.043 0 6.748 0 0 6.729 0 15v1.072c0 .17.043.342.043.514 0 .086.043.214.043.3 0 .171.043.3.043.471 0 .086.043.215.043.3.043.172.043.3.086.472.043.085.043.214.086.3.043.128.086.3.129.428.043.086.043.214.086.3.043.129.086.3.129.429.043.085.043.171.086.3.043.128.086.3.172.428l.128.257c.043.13.13.3.172.429l.13.257c.085.129.128.3.214.429l.13.257c.085.128.171.3.214.428.043.086.086.129.129.215.086.128.172.3.258.428.043.086.086.129.129.215.086.128.215.3.3.428.044.043.087.129.13.172.128.128.214.3.343.428l.13.129c.128.171.257.3.386.471.043.043.086.086.086.129.13.171.301.3.43.471l.086.086.516.514C7.564 28.5 11.132 30 15.043 30c4.212 0 8.037-1.757 10.788-4.586 0 .043 0 0 0 0zm-20.545.429c.043 0 .086-.043.13-.043 1.117-.557 4.168-1.671 6.146-2.228.129 0 .129 0 .129-.686 0-.814-.13-1.243-.258-1.672-.13-.557-.43-1.371-.56-2.228-.257-.257-.687-.986-.988-2.229-.258-1.114-.129-1.543 0-1.928V14.7c0-.257-.129-1.543-.258-2.657-.128-.686 0-2.229.989-3.472.559-.814 1.805-1.8 3.911-1.928h1.247c2.106.128 3.352 1.114 3.91 1.928.99 1.243 1.118 2.786.99 3.472-.13.986-.13 2.357-.13 2.657v.129c.13.428.258.814 0 1.928-.343 1.243-.773 1.929-1.074 2.229 0 .814-.258 1.671-.559 2.228-.129.557-.43 1.115-.43 1.672 0 .686 0 .686.13.686 1.933.557 4.942 1.628 6.231 2.228-2.535 2.314-6.017 3.772-9.799 3.772-3.74 0-7.178-1.415-9.757-3.729z" opacity=".3"/>
    </g>
</svg>
