<svg width="14px" height="17px" viewBox="0 0 14 17" version="1.1" xmlns="http://www.w3.org/2000/svg" xmlns:xlink="http://www.w3.org/1999/xlink">
    <g id="WebRTC" stroke="none" stroke-width="1" fill="none" fill-rule="evenodd">
        <g transform="translate(-250.000000, -330.000000)" fill-rule="nonzero" fill="#137CB0">
            <g id="Page-1" transform="translate(250.000000, 329.000000)">
                <path d="M5.3348,14.0527 L5.3348,6.3057 C5.3348,6.02955763 5.11094237,5.8057 4.8348,5.8057 C4.55865763,5.8057 4.3348,6.02955763 4.3348,6.3057 L4.3348,14.0527 C4.3348,14.3288424 4.55865763,14.5527 4.8348,14.5527 C5.11094237,14.5527 5.3348,14.3288424 5.3348,14.0527 Z M9.4579,14.0527 L9.4579,6.3057 C9.4579,6.02955763 9.23404237,5.8057 8.9579,5.8057 C8.68175763,5.8057 8.4579,6.02955763 8.4579,6.3057 L8.4579,14.0527 C8.4579,14.3288424 8.68175763,14.5527 8.9579,14.5527 C9.23404237,14.5527 9.4579,14.3288424 9.4579,14.0527 Z M7.3964,14.0527 L7.3964,6.3057 C7.3964,6.02955763 7.17254237,5.8057 6.8964,5.8057 C6.62025763,5.8057 6.3964,6.02955763 6.3964,6.3057 L6.3964,14.0527 C6.3964,14.3288424 6.62025763,14.5527 6.8964,14.5527 C7.17254237,14.5527 7.3964,14.3288424 7.3964,14.0527 Z M2.48905419,4.3118 L3.22297727,15.7688362 C3.23358185,15.9392814 3.3751902,16.0718 3.547,16.0718 L10.246,16.0718 C10.4175617,16.0718 10.5590247,15.9393055 10.5700227,15.7688362 L11.3039458,4.3118 L2.48905419,4.3118 Z M1.45702273,3.84376385 C1.43856566,3.55563648 1.66728207,3.3118 1.956,3.3118 L11.837,3.3118 C12.1257179,3.3118 12.3544343,3.55563648 12.3359773,3.84376385 L11.5679627,15.8329911 C11.5229875,16.5301065 10.944627,17.0718 10.246,17.0718 L3.547,17.0718 C2.84809638,17.0718 2.26864711,16.5297051 2.22499674,15.832358 L1.45702273,3.84376385 Z M9.3632,1.9995 L4.4302,1.9995 L4.4302,3.3115 L9.3632,3.3115 L9.3632,1.9995 Z M3.4302,3.3115 L3.4302,1.9005 C3.4302,1.40270516 3.83270998,0.9995 4.3302,0.9995 L9.4632,0.9995 C9.96069002,0.9995 10.3632,1.40270516 10.3632,1.9005 L10.3632,3.3115 L13.2929,3.3115 C13.5690424,3.3115 13.7929,3.53535763 13.7929,3.8115 C13.7929,4.08764237 13.5690424,4.3115 13.2929,4.3115 L0.4999,4.3115 C0.223757625,4.3115 -0.0001,4.08764237 -0.0001,3.8115 C-0.0001,3.53535763 0.223757625,3.3115 0.4999,3.3115 L3.4302,3.3115 Z"></path>
            </g>
        </g>
    </g>
</svg>
