<?xml version="1.0" encoding="UTF-8"?>
<svg width="20px" height="19px" viewBox="0 0 20 19" version="1.1" xmlns="http://www.w3.org/2000/svg" xmlns:xlink="http://www.w3.org/1999/xlink">
    <!-- Generator: Sketch 48.2 (47327) - http://www.bohemiancoding.com/sketch -->
    <desc>Created with Sketch.</desc>
    <defs></defs>
    <g id="navigation-icon" stroke="none" stroke-width="1" fill="none" fill-rule="evenodd" transform="translate(-21.000000, -92.000000)">
        <path d="M25.9678835,101.5 C25.9678835,102.884439 24.8594829,104.006738 23.492188,104.006738 C22.124893,104.006738 21.0164924,102.884439 21.0164924,101.5 C21.0164924,100.115561 22.124893,98.9932617 23.492188,98.9932617 C24.8594829,98.9932617 25.9678835,100.115561 25.9678835,101.5 Z M33.492188,101.5 C33.492188,102.884439 32.3837874,104.006738 31.0164924,104.006738 C29.6491975,104.006738 28.5407969,102.884439 28.5407969,101.5 C28.5407969,100.115561 29.6491975,98.9932617 31.0164924,98.9932617 C32.3837874,98.9932617 33.492188,100.115561 33.492188,101.5 Z M40.9835076,101.5 C40.9835076,102.884439 39.875107,104.006738 38.507812,104.006738 C37.1405171,104.006738 36.0321165,102.884439 36.0321165,101.5 C36.0321165,100.115561 37.1405171,98.9932617 38.507812,98.9932617 C39.875107,98.9932617 40.9835076,100.115561 40.9835076,101.5 Z M25.9862084,108.493262 C25.9862084,109.877701 24.8778078,111 23.5105129,111 C22.1432179,111 21.0348173,109.877701 21.0348173,108.493262 C21.0348173,107.108822 22.1432179,105.986523 23.5105129,105.986523 C24.8778078,105.986523 25.9862084,107.108822 25.9862084,108.493262 Z M33.5105129,108.493262 C33.5105129,109.877701 32.4021123,111 31.0348173,111 C29.6675224,111 28.5591218,109.877701 28.5591218,108.493262 C28.5591218,107.108822 29.6675224,105.986523 31.0348173,105.986523 C32.4021123,105.986523 33.5105129,107.108822 33.5105129,108.493262 Z M41,108.493262 C41,109.877701 39.8915994,111 38.5243045,111 C37.1570095,111 36.0486089,109.877701 36.0486089,108.493262 C36.0486089,107.108822 37.1570095,105.986523 38.5243045,105.986523 C39.8915994,105.986523 41,107.108822 41,108.493262 Z M25.9513911,94.5067383 C25.9513911,95.8911777 24.8429905,97.0134766 23.4756955,97.0134766 C22.1084006,97.0134766 21,95.8911777 21,94.5067383 C21,93.1222988 22.1084006,92 23.4756955,92 C24.8429905,92 25.9513911,93.1222988 25.9513911,94.5067383 Z M33.4756955,94.5067383 C33.4756955,95.8911777 32.3672949,97.0134766 31,97.0134766 C29.6327051,97.0134766 28.5243045,95.8911777 28.5243045,94.5067383 C28.5243045,93.1222988 29.6327051,92 31,92 C32.3672949,92 33.4756955,93.1222988 33.4756955,94.5067383 Z M40.9651827,94.5067383 C40.9651827,95.8911777 39.8567821,97.0134766 38.4894871,97.0134766 C37.1221922,97.0134766 36.0137916,95.8911777 36.0137916,94.5067383 C36.0137916,93.1222988 37.1221922,92 38.4894871,92 C39.8567821,92 40.9651827,93.1222988 40.9651827,94.5067383 Z" id="Combined-Shape" fill="#FFFFFF" fill-rule="nonzero"></path>
    </g>
</svg>