<?xml version="1.0" encoding="UTF-8" standalone="no"?>
<svg width="18px" height="19px" viewBox="0 0 18 19" version="1.1" xmlns="http://www.w3.org/2000/svg" xmlns:xlink="http://www.w3.org/1999/xlink">
    <!-- Generator: Sketch 44.1 (41455) - http://www.bohemiancoding.com/sketch -->
    <defs></defs>
    <g id="Page-1" stroke="none" stroke-width="1" fill="none" fill-rule="evenodd">
        <g id="Group-14" fill-rule="nonzero" fill="#000000">
            <g id="Dialpad" transform="translate(0.144000, 0.017989)">
                <path d="M4.8636,2.43035336 C4.8636,3.7726064 3.774852,4.86070672 2.4318,4.86070672 C1.088748,4.86070672 0,3.7726064 0,2.43035336 C0,1.08810032 1.088748,0 2.4318,0 C3.774852,0 4.8636,1.08810032 4.8636,2.43035336 Z" id="Shape"></path>
                <path d="M11.2698,2.43035336 C11.2698,3.7726064 10.181052,4.86070672 8.838,4.86070672 C7.494948,4.86070672 6.4062,3.7726064 6.4062,2.43035336 C6.4062,1.08810032 7.494948,0 8.838,0 C10.181052,0 11.2698,1.08810032 11.2698,2.43035336 Z" id="Shape"></path>
                <path d="M17.6418,2.43035336 C17.6418,3.7726064 16.553052,4.86070672 15.21,4.86070672 C13.866948,4.86070672 12.7782,3.7726064 12.7782,2.43035336 C12.7782,1.08810032 13.866948,0 15.21,0 C16.553052,0 17.6418,1.08810032 17.6418,2.43035336 Z" id="Shape"></path>
                <path d="M4.8798,9.21051755 C4.8798,10.5527706 3.791052,11.6408709 2.448,11.6408709 C1.104948,11.6408709 0.0162,10.5527706 0.0162,9.21051755 C0.0162,7.86826451 1.104948,6.78016419 2.448,6.78016419 C3.791052,6.78016419 4.8798,7.86826451 4.8798,9.21051755 Z" id="Shape"></path>
                <path d="M11.286,9.21051755 C11.286,10.5527706 10.197252,11.6408709 8.8542,11.6408709 C7.511148,11.6408709 6.4224,10.5527706 6.4224,9.21051755 C6.4224,7.86826451 7.511148,6.78016419 8.8542,6.78016419 C10.197252,6.78016419 11.286,7.86826451 11.286,9.21051755 Z" id="Shape"></path>
                <path d="M17.6598,9.21051755 C17.6598,10.5527706 16.571052,11.6408709 15.228,11.6408709 C13.884948,11.6408709 12.7962,10.5527706 12.7962,9.21051755 C12.7962,7.86826451 13.884948,6.78016419 15.228,6.78016419 C16.571052,6.78016419 17.6598,7.86826451 17.6598,9.21051755 Z" id="Shape"></path>
                <path d="M4.8978,15.9906817 C4.8978,17.3329348 3.809052,18.4210351 2.466,18.4210351 C1.122948,18.4210351 0.0342,17.3329348 0.0342,15.9906817 C0.0342,14.6484287 1.122948,13.5603284 2.466,13.5603284 C3.809052,13.5603284 4.8978,14.6484287 4.8978,15.9906817 Z" id="Shape"></path>
                <path d="M11.304,15.9906817 C11.304,17.3329348 10.215252,18.4210351 8.8722,18.4210351 C7.529148,18.4210351 6.4404,17.3329348 6.4404,15.9906817 C6.4404,14.6484287 7.529148,13.5603284 8.8722,13.5603284 C10.215252,13.5603284 11.304,14.6484287 11.304,15.9906817 Z" id="Shape"></path>
                <path d="M17.676,15.9906817 C17.676,17.3329348 16.587252,18.4210351 15.2442,18.4210351 C13.901148,18.4210351 12.8124,17.3329348 12.8124,15.9906817 C12.8124,14.6484287 13.901148,13.5603284 15.2442,13.5603284 C16.587252,13.5603284 17.676,14.6484287 17.676,15.9906817 Z" id="Shape"></path>
            </g>
        </g>
    </g>
</svg>