<svg xmlns="http://www.w3.org/2000/svg" width="20" height="19" viewBox="0 0 20 19">
    <path fill="none" fill-rule="nonzero" stroke="#FFF" d="M4.468 9.5c0-1.11-.886-2.007-1.976-2.007-1.09 0-1.976.897-1.976 2.007s.886 2.007 1.976 2.007c1.09 0 1.976-.897 1.976-2.007zm7.524 0c0-1.11-.886-2.007-1.976-2.007-1.09 0-1.975.897-1.975 2.007s.886 2.007 1.975 2.007c1.09 0 1.976-.897 1.976-2.007zm7.492 0c0-1.11-.886-2.007-1.976-2.007-1.09 0-1.976.897-1.976 2.007s.886 2.007 1.976 2.007c1.09 0 1.976-.897 1.976-2.007zM4.486 16.493c0-1.11-.886-2.006-1.975-2.006-1.09 0-1.976.897-1.976 2.006 0 1.11.886 2.007 1.976 2.007 1.09 0 1.975-.897 1.975-2.007zm7.525 0c0-1.11-.886-2.006-1.976-2.006-1.09 0-1.976.897-1.976 2.006 0 1.11.886 2.007 1.976 2.007 1.09 0 1.976-.897 1.976-2.007zm7.489 0c0-1.11-.886-2.006-1.976-2.006-1.09 0-1.975.897-1.975 2.006 0 1.11.886 2.007 1.975 2.007 1.09 0 1.976-.897 1.976-2.007zM4.451 2.507C4.451 1.397 3.565.5 2.476.5 1.386.5.5 1.397.5 2.507s.886 2.006 1.976 2.006c1.09 0 1.975-.897 1.975-2.006zm7.525 0C11.976 1.397 11.09.5 10 .5c-1.09 0-1.976.897-1.976 2.007S8.91 4.513 10 4.513c1.09 0 1.976-.897 1.976-2.006zm7.49 0c0-1.11-.887-2.007-1.977-2.007s-1.975.897-1.975 2.007.886 2.006 1.975 2.006c1.09 0 1.976-.897 1.976-2.006z"/>
</svg>
