<?xml version="1.0" encoding="UTF-8"?>
<svg width="20px" height="19px" viewBox="0 0 20 19" version="1.1" xmlns="http://www.w3.org/2000/svg" xmlns:xlink="http://www.w3.org/1999/xlink">
    <!-- Generator: Sketch 48.2 (47327) - http://www.bohemiancoding.com/sketch -->
    <desc>Created with Sketch.</desc>
    <defs></defs>
    <g id="navigation-icon" stroke="none" stroke-width="1" fill="none" fill-rule="evenodd" transform="translate(-21.000000, -156.000000)">
        <path d="M24.9678835,165.5 C24.9678835,164.665075 24.3043896,163.993262 23.492188,163.993262 C22.6799863,163.993262 22.0164924,164.665075 22.0164924,165.5 C22.0164924,166.334925 22.6799863,167.006738 23.492188,167.006738 C24.3043896,167.006738 24.9678835,166.334925 24.9678835,165.5 Z M25.9678835,165.5 C25.9678835,166.884439 24.8594829,168.006738 23.492188,168.006738 C22.124893,168.006738 21.0164924,166.884439 21.0164924,165.5 C21.0164924,164.115561 22.124893,162.993262 23.492188,162.993262 C24.8594829,162.993262 25.9678835,164.115561 25.9678835,165.5 Z M32.492188,165.5 C32.492188,164.665075 31.8286941,163.993262 31.0164924,163.993262 C30.2042908,163.993262 29.5407969,164.665075 29.5407969,165.5 C29.5407969,166.334925 30.2042908,167.006738 31.0164924,167.006738 C31.8286941,167.006738 32.492188,166.334925 32.492188,165.5 Z M33.492188,165.5 C33.492188,166.884439 32.3837874,168.006738 31.0164924,168.006738 C29.6491975,168.006738 28.5407969,166.884439 28.5407969,165.5 C28.5407969,164.115561 29.6491975,162.993262 31.0164924,162.993262 C32.3837874,162.993262 33.492188,164.115561 33.492188,165.5 Z M39.9835076,165.5 C39.9835076,164.665075 39.3200137,163.993262 38.507812,163.993262 C37.6956104,163.993262 37.0321165,164.665075 37.0321165,165.5 C37.0321165,166.334925 37.6956104,167.006738 38.507812,167.006738 C39.3200137,167.006738 39.9835076,166.334925 39.9835076,165.5 Z M40.9835076,165.5 C40.9835076,166.884439 39.875107,168.006738 38.507812,168.006738 C37.1405171,168.006738 36.0321165,166.884439 36.0321165,165.5 C36.0321165,164.115561 37.1405171,162.993262 38.507812,162.993262 C39.875107,162.993262 40.9835076,164.115561 40.9835076,165.5 Z M24.9862084,172.493262 C24.9862084,171.658337 24.3227145,170.986523 23.5105129,170.986523 C22.6983112,170.986523 22.0348173,171.658337 22.0348173,172.493262 C22.0348173,173.328187 22.6983112,174 23.5105129,174 C24.3227145,174 24.9862084,173.328187 24.9862084,172.493262 Z M25.9862084,172.493262 C25.9862084,173.877701 24.8778078,175 23.5105129,175 C22.1432179,175 21.0348173,173.877701 21.0348173,172.493262 C21.0348173,171.108822 22.1432179,169.986523 23.5105129,169.986523 C24.8778078,169.986523 25.9862084,171.108822 25.9862084,172.493262 Z M32.5105129,172.493262 C32.5105129,171.658337 31.847019,170.986523 31.0348173,170.986523 C30.2226157,170.986523 29.5591218,171.658337 29.5591218,172.493262 C29.5591218,173.328187 30.2226157,174 31.0348173,174 C31.847019,174 32.5105129,173.328187 32.5105129,172.493262 Z M33.5105129,172.493262 C33.5105129,173.877701 32.4021123,175 31.0348173,175 C29.6675224,175 28.5591218,173.877701 28.5591218,172.493262 C28.5591218,171.108822 29.6675224,169.986523 31.0348173,169.986523 C32.4021123,169.986523 33.5105129,171.108822 33.5105129,172.493262 Z M40,172.493262 C40,171.658337 39.3365061,170.986523 38.5243045,170.986523 C37.7121028,170.986523 37.0486089,171.658337 37.0486089,172.493262 C37.0486089,173.328187 37.7121028,174 38.5243045,174 C39.3365061,174 40,173.328187 40,172.493262 Z M41,172.493262 C41,173.877701 39.8915994,175 38.5243045,175 C37.1570095,175 36.0486089,173.877701 36.0486089,172.493262 C36.0486089,171.108822 37.1570095,169.986523 38.5243045,169.986523 C39.8915994,169.986523 41,171.108822 41,172.493262 Z M24.9513911,158.506738 C24.9513911,157.671813 24.2878972,157 23.4756955,157 C22.6634939,157 22,157.671813 22,158.506738 C22,159.341663 22.6634939,160.013477 23.4756955,160.013477 C24.2878972,160.013477 24.9513911,159.341663 24.9513911,158.506738 Z M25.9513911,158.506738 C25.9513911,159.891178 24.8429905,161.013477 23.4756955,161.013477 C22.1084006,161.013477 21,159.891178 21,158.506738 C21,157.122299 22.1084006,156 23.4756955,156 C24.8429905,156 25.9513911,157.122299 25.9513911,158.506738 Z M32.4756955,158.506738 C32.4756955,157.671813 31.8122016,157 31,157 C30.1877984,157 29.5243045,157.671813 29.5243045,158.506738 C29.5243045,159.341663 30.1877984,160.013477 31,160.013477 C31.8122016,160.013477 32.4756955,159.341663 32.4756955,158.506738 Z M33.4756955,158.506738 C33.4756955,159.891178 32.3672949,161.013477 31,161.013477 C29.6327051,161.013477 28.5243045,159.891178 28.5243045,158.506738 C28.5243045,157.122299 29.6327051,156 31,156 C32.3672949,156 33.4756955,157.122299 33.4756955,158.506738 Z M39.9651827,158.506738 C39.9651827,157.671813 39.3016888,157 38.4894871,157 C37.6772855,157 37.0137916,157.671813 37.0137916,158.506738 C37.0137916,159.341663 37.6772855,160.013477 38.4894871,160.013477 C39.3016888,160.013477 39.9651827,159.341663 39.9651827,158.506738 Z M40.9651827,158.506738 C40.9651827,159.891178 39.8567821,161.013477 38.4894871,161.013477 C37.1221922,161.013477 36.0137916,159.891178 36.0137916,158.506738 C36.0137916,157.122299 37.1221922,156 38.4894871,156 C39.8567821,156 40.9651827,157.122299 40.9651827,158.506738 Z" id="Combined-Shape" fill="#FFFFFF" fill-rule="nonzero"></path>
    </g>
</svg>