<?xml version="1.0" encoding="UTF-8" standalone="no"?>
<svg width="12px" height="5px" viewBox="0 0 12 5" version="1.1" xmlns="http://www.w3.org/2000/svg" xmlns:xlink="http://www.w3.org/1999/xlink">
    <!-- Generator: Sketch 44.1 (41455) - http://www.bohemiancoding.com/sketch -->
    <defs></defs>
    <g id="Page-1" stroke="none" stroke-width="1" fill="none" fill-rule="evenodd">
        <g id="multi-call-2-copy" transform="translate(-1204.000000, -388.000000)" fill="#000000">
            <g id="Group-25" transform="translate(978.000000, 125.000000)">
                <g id="Group-2-Copy-2" transform="translate(219.000000, 253.000000)">
                    <path d="M15.595028,17.8660994 L15.595028,17.8660994 C14.2390812,17.8660994 12.4735233,16.6801932 10.8774563,14.7036828 C8.56103835,11.8236234 8.29267609,9.42357226 9.21076969,8.60473912 C9.4508899,8.39296877 10.0864857,8.06825359 10.3830997,8.02590531 C10.7079654,7.96943772 11.0328214,8.12473083 11.202322,8.4353267 C11.5271877,9.09886673 11.9226729,9.74829709 12.3322841,10.3835985 C12.5159009,10.6659557 12.473533,11.0189095 12.2334128,11.2589089 C12.0921639,11.4000923 11.9226729,11.4847985 11.7673079,11.5695047 C11.6401848,11.6259723 11.5413135,11.6965689 11.4424422,11.7812751 C11.4424422,11.7812751 11.4000646,11.823633 11.4000646,11.9083392 C11.3859388,12.091871 11.4141905,12.6001179 12.2192869,13.6166117 C13.0950029,14.6895731 13.6176113,14.76016 13.7588505,14.76016 C13.8153442,14.76016 13.8577218,14.7460407 13.8577218,14.7460407 C13.9565931,14.6613345 14.0413386,14.562509 14.1260841,14.4636835 C14.2532071,14.3225 14.3662043,14.1813262 14.5356952,14.0683814 C14.8181833,13.8848496 15.1995427,13.9271979 15.4114112,14.1530876 C15.9481454,14.6895731 16.5272475,15.1978104 17.0780979,15.6778283 C17.3464601,15.903718 17.4453314,16.2566621 17.3040922,16.5531387 C17.2052209,16.8213766 16.7532418,17.3719815 16.4848699,17.5837518 C16.2588756,17.7814029 15.9481358,17.8661091 15.595028,17.8661091 L15.595028,17.8660994 Z" id="Shape-Copy-3" transform="translate(13.043950, 12.940292) rotate(128.000000) translate(-13.043950, -12.940292) "></path>
                </g>
            </g>
        </g>
    </g>
</svg>