<svg xmlns="http://www.w3.org/2000/svg" width="21" height="17" viewBox="0 0 21 17">
    <path fill="#666" fill-rule="nonzero" d="M15.055 12.04a.5.5 0 1 0 0-1H11.17a.5.5 0 0 0-.5.5v4.101a.5.5 0 1 0 1 0V12.04h3.386zm-4.101 3.101H3.386V1.001h11.169v2.923a.5.5 0 1 0 1 0V.5a.5.5 0 0 0-.5-.5H2.885a.5.5 0 0 0-.5.5v15.141a.5.5 0 0 0 .5.5h8.284a.5.5 0 0 0 .363-.156l3.886-4.102a.5.5 0 0 0 .137-.344V8.857a.5.5 0 1 0-1 0v2.483l-3.601 3.801zM.5 1h16.94a.5.5 0 1 0 0-1H.5a.5.5 0 1 0 0 1zm18.487 4.888c-.067.01-2.57.016-5.927.01a3029.526 3029.526 0 0 1-6.014-.017.5.5 0 1 0-.003 1 2486.336 2486.336 0 0 0 6.015.016c3.96.008 5.932.004 6.094-.023a.5.5 0 1 0-.165-.986zm-1.301 2.221a.5.5 0 0 0 .707.707l2.063-2.063a.5.5 0 0 0 0-.707l-2.063-2.062a.5.5 0 0 0-.707.708l1.71 1.708-1.71 1.71z"/>
</svg>
