<?xml version="1.0" encoding="UTF-8" standalone="no"?>
<svg width="20px" height="20px" viewBox="0 0 20 20" version="1.1" xmlns="http://www.w3.org/2000/svg" xmlns:xlink="http://www.w3.org/1999/xlink">
    <!-- Generator: Sketch 44.1 (41455) - http://www.bohemiancoding.com/sketch -->
    <defs></defs>
    <g id="Page-1" stroke="none" stroke-width="1" fill="none" fill-rule="evenodd">
        <g id="call" transform="translate(-1118.000000, -429.000000)" fill-rule="nonzero" fill="#000000">
            <g id="Group-4" transform="translate(1118.000000, 429.000000)">
                <path d="M13.6749132,12.9188397 L13.6749132,12.9188397 C13.7132635,12.9500306 13.7305211,12.9890193 13.7573663,13.0494518 C13.8206443,13.189811 13.8724172,13.4568835 13.6384804,13.8331242 C13.2645649,14.4218533 12.1102209,15.1879808 11.235834,14.9482004 L11.1783085,14.9267567 C9.99903676,14.5407687 8.70471408,13.0221597 7.70952376,10.8524397 L7.31451565,9.9927393 C6.30015018,7.78403062 6.00677037,5.78975968 6.51299435,4.65323968 C6.90608494,3.78964043 8.3499738,3.39585477 9.10930977,3.5927476 C9.41611218,3.6902193 9.57526593,3.88126383 9.63087387,4.0001793 C9.65771908,4.05866232 9.67689423,4.09960043 9.68456429,4.16783062 C9.87823331,4.90081779 10.0527272,6.2732193 9.92233616,6.77032496 L9.91083107,6.84830232 L9.86097568,6.89703817 C9.66922417,7.15826232 9.39693703,7.23818911 9.20135049,7.2830261 C8.96741365,7.34735742 8.92906335,7.36490232 8.88687802,7.48186836 C8.88687802,7.48186836 8.86003281,7.78598006 9.4698026,9.16812874 L9.74400726,9.76465553 C10.3844573,11.109765 10.6318167,11.2832646 10.6318167,11.2832646 C10.7468676,11.3261521 10.7852179,11.3086072 10.9923096,11.1857929 C11.1591334,11.0824729 11.3969053,10.9206699 11.7248003,10.9596586 L11.8015009,10.9713552 L11.8590264,10.9927989 C12.3269001,11.2306299 13.2377197,12.2774759 13.6749132,12.9188397 Z M19.4869014,14.4316004 C19.6403026,14.5154261 19.63455,14.7435099 19.4734788,14.8195378 L16.2712286,16.320602 C16.1408376,16.3810344 15.9893539,16.2952593 15.9720962,16.1510012 L15.5502429,12.6810087 C15.5291503,12.5075091 15.7093967,12.3827453 15.8608804,12.4646216 L16.9845442,13.0747944 C16.9922143,13.0553001 16.9960493,13.0358057 17.0037193,13.0182608 C18.2385991,10.2773567 18.1542284,7.58128949 16.7506074,5.36283364 C15.4140993,3.24769779 12.9251648,1.90843666 10.4937557,1.82266156 C10.1006651,1.80901553 9.78044004,1.49905553 9.75551235,1.09942156 C9.72866714,0.647152883 10.0872425,0.272861562 10.5340235,0.272861562 C13.5752024,0.272861562 16.4265473,1.98251515 18.0353425,4.52457704 C19.7323433,7.20504874 19.8531468,10.4235642 18.3977528,13.6557257 C18.3747426,13.706411 18.3459799,13.7531974 18.3152997,13.796085 L19.4869014,14.4316004 Z M8.85236275,17.381094 C9.26079346,17.3927906 9.55992581,17.7514865 9.53499811,18.1959574 C9.5081529,18.6852653 9.10355722,19.0887982 8.65294118,19.0751521 C5.0825281,18.9718321 2.36924426,17.0555386 0.969458256,14.074854 C-0.357462179,11.2559725 -0.39197745,8.08619289 1.37788897,4.99244119 L0.401873793,4.27115062 C0.259977677,4.16588119 0.298327978,3.94169628 0.46515179,3.891011 L3.83997833,2.8519627 C3.9761219,2.80907515 4.11418299,2.91434458 4.11226547,3.06055213 L4.06049256,6.55783666 C4.05857505,6.73328572 3.86298851,6.83270685 3.72492742,6.72938685 L2.63194383,5.92037175 C1.50252745,8.32012496 1.31269346,10.9245687 2.38266687,13.1995582 C3.54276349,15.6655921 5.82460644,17.2933695 8.85236275,17.381094 Z" id="Combined-Shape"></path>
            </g>
        </g>
    </g>
</svg>