<?xml version="1.0" encoding="UTF-8"?>
<svg width="22px" height="22px" viewBox="0 0 22 22" version="1.1" xmlns="http://www.w3.org/2000/svg" xmlns:xlink="http://www.w3.org/1999/xlink">
    <title>forward icon</title>
    <g id="forward-icon" stroke="none" stroke-width="1" fill="none" fill-rule="evenodd">
        <rect fill="#FFFFFF" opacity="0" x="0" y="0" width="22" height="22"></rect>
        <path d="M6.06925024,0.275089819 C6.59752481,0.522996796 7.00674891,0.911993382 7.29777697,1.44319087 C7.58277657,2.01043866 7.9090261,2.59857874 8.27671545,3.2075222 C8.64525923,3.81788811 9.08329658,4.4899085 9.59752053,5.23327382 C9.91992513,5.72077531 10.0482319,6.25108376 9.97593771,6.80472934 C9.90483022,7.34886227 9.66169765,7.8347635 9.21492614,8.28461442 C9.08728391,8.39316541 8.95532208,8.49424851 8.81894569,8.58786373 C8.697237,8.67138842 8.56247454,8.75335731 8.41451589,8.8342149 C8.36244318,8.87524379 8.30600338,8.91111629 8.24434208,8.94107672 L8.11133594,9.00570945 L7.97263075,9.08215089 L7.93779188,9.09892461 C7.89635207,9.11617186 7.85899453,9.13373027 7.82567179,9.15137758 C7.83806101,9.21301427 7.8591825,9.28751705 7.89055372,9.37738233 L7.96712728,9.5783359 C8.06358284,9.8362445 8.21975351,10.1367823 8.43620889,10.4771932 C8.6580282,10.8260054 8.94179362,11.207712 9.28494186,11.6183121 C9.65680842,12.0573168 10.0023301,12.4187978 10.3197505,12.7021327 C10.6272975,12.9767107 10.9060313,13.1821219 11.1515848,13.3185885 C11.2460941,13.3710859 11.3276921,13.4125149 11.3942901,13.4426531 L11.5641791,13.2566673 L11.6267483,13.1950518 L11.6929606,13.1119327 L11.89116,12.9073014 L12.1033673,12.7006762 L12.1412036,12.6658157 C12.2747794,12.5440626 12.4233076,12.427777 12.6219624,12.2941997 C13.1343351,11.991795 13.7057583,11.8643076 14.3118809,11.9178719 C14.937323,11.9731253 15.4675913,12.2213434 15.8428281,12.6224753 C16.3097261,13.0630359 16.7939027,13.5036853 17.2954051,13.9444681 L17.6528655,14.2553232 L18.3901769,14.8815667 L19.2694213,15.6122059 C19.7257339,15.9875114 20.0294835,16.4478974 20.1708915,16.9806951 C20.2985285,17.4614844 20.2760672,17.9278384 20.1133092,18.3383285 L20.0457177,18.4895627 C19.8953856,18.8630456 19.6054968,19.3027171 19.1752917,19.8236463 C18.804511,20.2726137 18.4652759,20.6247224 18.1667449,20.8700855 L18.0413218,20.9686769 C17.6988856,21.2516562 17.3036171,21.4646687 16.8603108,21.605536 C16.4270203,21.7432473 15.9514355,21.8109916 15.4359774,21.8109916 C14.6001558,21.8109916 13.7283532,21.6474095 12.8221362,21.3243792 C11.937802,21.0091724 11.038278,20.5576767 10.1224248,19.9712258 C9.32765738,19.4623209 8.53587005,18.8564209 7.75151483,18.1583801 L7.4158306,17.8535926 C6.50572114,17.0379489 5.61170343,16.1136652 4.73002747,15.07683 C3.56752913,13.6848703 2.61555264,12.3105135 1.87590179,10.9553154 C1.13235855,9.60696277 0.60792892,8.34293502 0.304179353,7.16176518 C-0.00502906696,5.95934744 -0.0795542771,4.87317082 0.0854454875,3.91128108 C0.244037034,2.89360449 0.684780076,2.068537 1.41199423,1.45794882 C1.74939881,1.176792 2.22265763,0.891101096 2.8360903,0.592963729 C3.46191219,0.288780934 3.97964879,0.101950555 4.40800261,0.0353174978 C4.98042268,-0.0544304289 5.5414029,0.0273606485 6.06925024,0.275089819 Z M18.4669824,0.22815327 L21.7718467,3.53301758 C22.0760511,3.83722194 22.0760511,4.33043465 21.7718467,4.63463901 L18.4669824,7.93950332 C18.1627781,8.24370768 17.6695653,8.24370768 17.365361,7.93950332 C17.0611566,7.63529896 17.0611566,7.14208624 17.365361,6.83788188 L20.1194146,4.08382829 L17.365361,1.3297747 C17.0611566,1.02557035 17.0611566,0.532357629 17.365361,0.22815327 C17.6695653,-0.0760510899 18.1627781,-0.0760510899 18.4669824,0.22815327 Z M14.5721625,0.22815327 L17.8770268,3.53301758 C18.1812312,3.83722194 18.1812312,4.33043465 17.8770268,4.63463901 L14.5721625,7.93950332 C14.2679581,8.24370768 13.7747454,8.24370768 13.4705411,7.93950332 C13.1663367,7.63529896 13.1663367,7.14208624 13.4705411,6.83788188 L16.2245946,4.08382829 L13.4705411,1.3297747 C13.1663367,1.02557035 13.1663367,0.532357629 13.4705411,0.22815327 C13.7747454,-0.0760510899 14.2679581,-0.0760510899 14.5721625,0.22815327 Z" id="Shape-Copy" fill="#FFFFFF" fill-rule="nonzero"></path>
    </g>
</svg>
