<?xml version="1.0" encoding="UTF-8"?>
<svg width="21" height="21" viewBox="0 0 136 136" version="1.1" xmlns="http://www.w3.org/2000/svg" xmlns:xlink="http://www.w3.org/1999/xlink">
    <defs></defs>
    <g id="SmallSize_Black" stroke="none" stroke-width="1" fill="none" fill-rule="evenodd">
        <g id="Group-4">
            <path d="M48.3742273,-1.61652314e-14 L87.6257727,-5.15105068e-15 C104.446545,-8.24097649e-15 110.546164,1.75139168 116.695587,5.04013913 C122.84501,8.32888658 127.671113,13.1549898 130.959861,19.3044129 C134.248608,25.453836 136,31.5534546 136,48.3742273 L136,133.836681 C136,134.588914 135.921677,134.861692 135.774602,135.136697 C135.627528,135.411702 135.411702,135.627528 135.136697,135.774602 C134.861692,135.921677 134.588914,136 133.836681,136 L48.3742273,136 C31.5534546,136 25.453836,134.248608 19.3044129,130.959861 C13.1549898,127.671113 8.32888658,122.84501 5.04013913,116.695587 C1.75139168,110.546164 -1.07086216e-14,104.446545 -2.02384958e-14,87.6257727 L-5.80250957e-15,48.3742273 C-7.86246011e-15,31.5534546 1.75139168,25.453836 5.04013913,19.3044129 C8.32888658,13.1549898 13.1549898,8.32888658 19.3044129,5.04013913 C25.453836,1.75139168 31.5534546,-1.30753056e-14 48.3742273,-1.61652314e-14 Z M38.2942708,25.4270833 C31.1879194,25.4270833 25.4270833,31.1879194 25.4270833,38.2942708 L25.4270833,86.4514869 C25.4270833,93.2481039 28.2004206,104.777138 35.9075601,110.414063 L56.8802083,110.414063 C47.6543742,99.6839773 46.4554155,89.1238455 46.4554155,83.0186847 L46.4554155,46.3777263 L89.5754779,46.3777263 L89.5754779,66.8043578 L70.2816793,66.8043578 L70.2816793,83.6132925 C70.2816793,85.180784 71.5523822,86.4514869 73.1198737,86.4514869 L74.0177867,86.4514869 L87.8567708,110.414063 L108.825521,110.414063 C102.627612,99.3034418 98.0764491,91.0042134 95.1720317,85.5163772 C101.649824,83.6113413 110.535367,77.7193201 110.535367,68.3113751 L110.535367,38.2942708 C110.535367,31.1879194 104.774531,25.4270833 97.6681793,25.4270833 L38.2942708,25.4270833 Z" id="Combined-Shape" fill="#000000"></path>
            <g transform="translate(25.000000, 25.000000)"></g>
        </g>
    </g>
</svg>
