<?xml version="1.0" encoding="UTF-8" standalone="no"?>
<svg width="16px" height="16px" viewBox="0 0 16 16" version="1.1" xmlns="http://www.w3.org/2000/svg" xmlns:xlink="http://www.w3.org/1999/xlink">
    <!-- Generator: Sketch 44.1 (41455) - http://www.bohemiancoding.com/sketch -->
    <defs></defs>
    <g id="Page-1" stroke="none" stroke-width="1" fill="none" fill-rule="evenodd">
        <g id="Group-14" transform="translate(-26.000000, -1.000000)" fill-rule="nonzero" fill="#000000">
            <g id="HideDialpad" transform="translate(26.500000, 1.536585)">
                <path d="M5.292,2.80483046 C5.292,1.89637121 4.5555,1.16030934 3.6465,1.16030934 C3.444,1.16030934 3.2505,1.19628792 3.0705,1.26374777 L5.1615,3.44345033 C5.247,3.24706722 5.292,3.03119572 5.292,2.80483046 Z" id="Shape"></path>
                <path d="M9.627,2.80483046 C9.627,3.71307983 8.89029,4.44935158 7.9815,4.44935158 C7.07271,4.44935158 6.336,3.71307983 6.336,2.80483046 C6.336,1.89658108 7.07271,1.16030934 7.9815,1.16030934 C8.89029,1.16030934 9.627,1.89658108 9.627,2.80483046 Z" id="Shape"></path>
                <path d="M13.9365,2.80483046 C13.9365,3.71307983 13.19979,4.44935158 12.291,4.44935158 C11.38221,4.44935158 10.6455,3.71307983 10.6455,2.80483046 C10.6455,1.89658108 11.38221,1.16030934 12.291,1.16030934 C13.19979,1.16030934 13.9365,1.89658108 13.9365,2.80483046 Z" id="Shape"></path>
                <path d="M5.304,7.39060083 C5.304,8.29885021 4.56729,9.03512195 3.6585,9.03512195 C2.74971,9.03512195 2.013,8.29885021 2.013,7.39060083 C2.013,6.48235146 2.74971,5.74607971 3.6585,5.74607971 C4.56729,5.74607971 5.304,6.48235146 5.304,7.39060083 L5.304,7.39060083 Z" id="Shape"></path>
                <path d="M7.992,5.74607971 C7.8045,5.74607971 7.626,5.77756098 7.458,5.83452707 L9.525,7.98874479 C9.597,7.80285544 9.6375,7.60197501 9.6375,7.39060083 C9.636,6.48214158 8.8995,5.74607971 7.992,5.74607971 Z" id="Shape"></path>
                <path d="M13.9485,7.39060083 C13.9485,8.29885021 13.21179,9.03512195 12.303,9.03512195 C11.39421,9.03512195 10.6575,8.29885021 10.6575,7.39060083 C10.6575,6.48235146 11.39421,5.74607971 12.303,5.74607971 C13.21179,5.74607971 13.9485,6.48235146 13.9485,7.39060083 L13.9485,7.39060083 Z" id="Shape"></path>
                <path d="M5.316,11.9763712 C5.316,12.8846206 4.57929,13.6208923 3.6705,13.6208923 C2.76171,13.6208923 2.025,12.8846206 2.025,11.9763712 C2.025,11.0681218 2.76171,10.3318501 3.6705,10.3318501 C4.57929,10.3318501 5.316,11.0681218 5.316,11.9763712 Z" id="Shape"></path>
                <path d="M9.6495,11.9763712 C9.6495,12.8846206 8.91279,13.6208923 8.004,13.6208923 C7.09521,13.6208923 6.3585,12.8846206 6.3585,11.9763712 C6.3585,11.0681218 7.09521,10.3318501 8.004,10.3318501 C8.91279,10.3318501 9.6495,11.0681218 9.6495,11.9763712 Z" id="Shape"></path>
                <path d="M12.3135,10.3333492 C12.1485,10.3333492 11.9895,10.3573349 11.838,10.4023081 L13.8675,12.5175491 C13.926,12.3481499 13.959,12.1667579 13.959,11.9778703 C13.959,11.0694111 13.2225,10.3333492 12.3135,10.3333492 Z" id="Shape"></path>
                <path d="M14.841,14.4633908 L0.912,0.169399167 C0.714,-0.0329803688 0.387,-0.0374776919 0.183,0.160404521 L0.1695,0.17389649 C-0.033,0.371778703 -0.0375,0.698584176 0.1605,0.90246282 L2.0025,2.7928376 C2.0025,2.79733492 2.0025,2.80033314 2.0025,2.80483046 C2.0025,3.70279595 2.7225,4.43136228 3.6165,4.44785247 L6.3525,7.25568114 C6.3495,7.30065437 6.3465,7.3456276 6.3465,7.39060083 C6.3465,8.29906008 7.083,9.03512195 7.992,9.03512195 C8.0235,9.03512195 8.0535,9.03362284 8.0835,9.03212374 L10.6905,11.7080309 C10.6755,11.7949792 10.668,11.8849256 10.668,11.9778703 C10.668,12.8863296 11.4045,13.6223914 12.3135,13.6223914 C12.39,13.6223914 12.4665,13.616395 12.54,13.6074004 L14.0895,15.1964545 C14.2875,15.398834 14.6145,15.4033314 14.8185,15.2054491 L14.832,15.1919572 C15.0345,14.994075 15.039,14.6657704 14.841,14.4633908 Z" id="Shape"></path>
            </g>
        </g>
    </g>
</svg>