<svg xmlns="http://www.w3.org/2000/svg" width="22" height="14" viewBox="0 0 22 13">
    <path fill="#303030" fill-rule="nonzero" d="M13.494.813c.463 0 .84.365.84.814v9.746a.828.828 0 0 1-.84.814H1.682a.828.828 0 0 1-.839-.814V1.627c0-.45.376-.815.84-.815h11.811zm0-.813H1.682C.752 0 0 .728 0 1.627v9.746C0 12.273.753 13 1.682 13h11.812c.93 0 1.683-.728 1.683-1.627V1.627c0-.9-.754-1.627-1.683-1.627zm7.82 11.272c-.117 0-.275-.038-.363-.123L15.998 8V5.007l4.97-3.192a.635.635 0 0 1 .347-.11c.378 0 .685.296.685.66v8.216a.674.674 0 0 1-.685.69zM16.9 7.555l4.246 2.742V2.71L16.9 5.43v2.126z"/>
</svg>
