<svg xmlns="http://www.w3.org/2000/svg" width="22" height="16" viewBox="0 0 22 16">
    <path fill="#FFF" fill-rule="nonzero" d="M21.52 14.8a.4.4 0 0 1-.254-.085L17.8 12.543v-2.065l3.477-2.202a.468.468 0 0 1 .723.379v5.668a.468.468 0 0 1-.48.477zm-3.09-2.564v-1.467l2.972-1.876v5.235l-2.972-1.892zM16.07 7c.624 0 1.13.503 1.13 1.126v6.748c0 .622-.506 1.126-1.13 1.126H8.13C7.507 16 7 15.497 7 14.874V8.126C7 7.504 7.506 7 8.13 7h7.94zM0 1c0-.552.44-1 1.002-1h19.996A.999.999 0 0 1 22 1c0 .552-.44 1-1.002 1H1.002A.999.999 0 0 1 0 1zm0 14c0-.552.444-1 1-1h3c.552 0 1 .444 1 1 0 .552-.444 1-1 1H1c-.552 0-1-.444-1-1zm0-7c0-.552.444-1 1-1h3c.552 0 1 .444 1 1 0 .552-.444 1-1 1H1c-.552 0-1-.444-1-1z"/>
</svg>
