<?xml version="1.0" encoding="UTF-8" standalone="no"?>
<svg width="17px" height="16px" viewBox="0 0 17 16" version="1.1" xmlns="http://www.w3.org/2000/svg" xmlns:xlink="http://www.w3.org/1999/xlink">
    <!-- Generator: Sketch 44.1 (41455) - http://www.bohemiancoding.com/sketch -->
    <defs></defs>
    <g id="Page-1" stroke="none" stroke-width="1" fill="none" fill-rule="evenodd">
        <g id="multi-call-2-copy" transform="translate(-1006.000000, -303.000000)" fill-rule="nonzero" fill="#303030">
            <g id="Group-3" transform="translate(1007.000000, 303.000000)">
                <path d="M2.23342864,12.8305025 C0.513275998,11.4865427 -0.5,9.51664912 -0.5,7.46401544 C-0.5,3.54557815 3.06787984,0.5 7.50011038,0.5 C11.9324713,0.5 15.5006944,3.54588882 15.5,7.46443372 C15.5,11.4090958 11.8987326,14.5912525 7.50011038,14.5912525 C6.98081098,14.5912525 6.46517163,14.547341 5.96125661,14.4600099 C5.10999824,15.2254529 3.9108521,15.7588708 2.48880971,15.7588664 L0.680239144,15.7509431 L1.10976312,15.0051741 L1.55926869,14.2247779 C1.91575835,13.5890262 2.12492354,13.1512009 2.23342864,12.8305025 Z M2.40583578,14.7584977 L2.49100018,14.7588712 C3.73333567,14.7588712 4.76465149,14.2563171 5.44782008,13.568803 L5.63817262,13.3772396 L5.90274516,13.4313874 C6.42192717,13.5376439 6.95837176,13.5912525 7.50011038,13.5912525 C11.3720989,13.5912525 14.5,10.8273724 14.5,7.46434513 C14.5005897,4.13632433 11.4121667,1.5 7.50011038,1.5 C3.58814885,1.5 0.5,4.13607495 0.5,7.46401544 C0.5,9.29365373 1.46079859,11.063524 3.09253211,12.2239979 L3.35165385,12.4082829 L3.29464752,12.7211012 C3.20908622,13.190613 2.95843042,13.7741614 2.42866015,14.7188684 L2.40583578,14.7584977 Z" id="Shape"></path>
            </g>
        </g>
    </g>
</svg>