<?xml version="1.0" encoding="UTF-8"?>
<svg width="13px" height="18px" viewBox="0 0 13 18" version="1.1" xmlns="http://www.w3.org/2000/svg" xmlns:xlink="http://www.w3.org/1999/xlink">
    <!-- Generator: Sketch 59.1 (86144) - https://sketch.com -->
    <title>Shape</title>
    <desc>Created with Sketch.</desc>
    <g id="Vxd" stroke="none" stroke-width="1" fill="none" fill-rule="evenodd">
        <g id="Salesforce-my-calls-today-2-Copy-2" transform="translate(-20.000000, -164.000000)" fill="#757575">
            <g id="icomoon-(6)-copy-3" transform="translate(20.000000, 164.000000)">
                <path d="M3.81481525,17.9940762 L3.6946126,17.9940762 C1.81185101,17.8713984 -0.151028457,14.6406445 0.00919008574,8.91525586 C0.129392735,3.18984961 2.25252519,0.0409042969 4.13526956,0 L4.13526956,0 C4.65602717,0 5.6975424,0.286277344 6.09814903,0.490728516 C6.57885631,0.776988281 6.77921128,1.34952539 6.65895697,1.88117578 C6.41862055,2.98536328 6.21833446,4.1304375 6.0580987,5.2755293 C5.97798081,5.84806641 5.53730664,6.25703906 4.97651591,6.2979082 C4.69609472,6.3388125 4.3756232,6.25702148 4.09521922,6.21611719 C3.89491591,6.17519531 3.73468015,6.13429102 3.53439406,6.13429102 C3.41420863,6.17519531 2.81333313,6.74773242 2.73321525,8.95610742 C2.6931477,11.1644648 3.25395565,11.7779063 3.41422585,11.818793 C3.57444439,11.818793 3.77478214,11.7779063 3.97503379,11.7370195 C4.25545499,11.6960977 4.57592651,11.6552285 4.85636492,11.6960977 C5.41717287,11.7779063 5.81777949,12.1868262 5.8578126,12.7593984 C5.93793048,13.9453594 6.09816624,15.090416 6.29843512,16.1946035 C6.37857022,16.7671582 6.13823379,17.298791 5.65750929,17.5850859 C5.33703777,17.7895371 4.33557287,17.994041 3.81479803,17.994041 L3.81481525,17.9940762 L3.81481525,17.9940762 Z M4.17533711,0.817927734 C2.89343379,0.858814453 0.970587437,3.43524023 0.850436443,8.91525586 C0.73028545,14.3952715 2.53291194,17.0943926 3.81479803,17.1761836 L3.85486558,17.1761836 C4.29550532,17.1761836 5.13673446,16.9716973 5.37712254,16.849002 C5.53732386,16.7672285 5.61747618,16.5627246 5.57737419,16.3582734 C5.37712254,15.2131816 5.21685234,14.0681074 5.13675168,12.8412422 C5.13675168,12.6367559 5.01658346,12.5140605 4.81628015,12.5140605 C4.61599406,12.4731738 4.41565631,12.5140605 4.17533711,12.5549648 C3.97503379,12.5958691 3.73468015,12.6367559 3.49432651,12.6367559 C3.33409075,12.6367559 3.09371989,12.5958691 2.8132987,12.3095918 C2.45275962,11.9006191 1.97208677,11.0009355 2.01213711,8.91525586 C2.13230532,5.43912891 3.37414108,5.27554687 3.6144775,5.27554687 L3.65454505,5.27554687 C3.8948987,5.27554687 4.13526956,5.31645117 4.33559009,5.39824219 C4.57592651,5.43912891 4.77619538,5.48005078 4.97655035,5.48005078 C5.17687088,5.48005078 5.29703909,5.35735547 5.29703909,5.15286914 C5.45724042,3.96689062 5.65757817,2.78091211 5.89789737,1.67672461 C5.93796492,1.47225586 5.85784704,1.26776953 5.69764571,1.18599609 C5.45724042,1.06330078 4.53587618,0.817945312 4.17533711,0.817927734 L4.17533711,0.817927734 L4.17533711,0.817927734 Z M9.50316757,5.84806641 L9.50316757,5.84806641 C9.34294903,6.01163086 9.34294903,6.25703906 9.50316757,6.42060352 L11.6263172,8.58805664 L4.85629605,8.58805664 C4.61595962,8.58805664 4.45568942,8.75162109 4.45568942,8.9970293 L4.45568942,8.9970293 C4.45568942,9.24240234 4.6159424,9.40600195 4.85629605,9.40600195 L11.6263,9.40600195 L9.50316757,11.5734551 C9.34294903,11.7370195 9.34294903,11.9824102 9.50316757,12.145957 L9.50316757,12.145957 C9.66342055,12.3095566 9.90377419,12.3095566 10.06401,12.145957 L12.8681358,9.28328906 C13.0283543,9.11968945 13.0283543,8.87429883 12.8681358,8.7107168 L10.06401,5.84806641 C9.90375697,5.68448438 9.66340333,5.68448438 9.50316757,5.84806641 L9.50316757,5.84806641 Z" id="Shape"></path>
            </g>
        </g>
    </g>
</svg>