<?xml version="1.0" encoding="UTF-8" standalone="no"?>
<svg width="17px" height="17px" viewBox="0 0 17 17" version="1.1" xmlns="http://www.w3.org/2000/svg" xmlns:xlink="http://www.w3.org/1999/xlink">
    <!-- Generator: Sketch 44.1 (41455) - http://www.bohemiancoding.com/sketch -->
    <defs></defs>
    <g id="Page-1" stroke="none" stroke-width="1" fill="none" fill-rule="evenodd">
        <g id="call" transform="translate(-1035.000000, -356.000000)" fill-rule="nonzero" fill="#000000">
            <path d="M1044.28027,361.84043 L1042.0125,361.84043 L1042.0125,364.544824 L1044.28027,364.544824 C1045.12197,364.544824 1045.75117,364.018555 1045.75117,363.193457 C1045.75117,362.351758 1045.12031,361.84043 1044.28027,361.84043 L1044.28027,361.84043 Z M1050.38135,356 L1036.61865,356 C1035.72881,356 1035,356.728809 1035,357.618652 L1035,371.381348 C1035,372.271191 1035.72881,373 1036.61865,373 L1050.38135,373 C1051.27119,373 1052,372.271191 1052,371.381348 L1052,357.618652 C1052,356.728809 1051.27119,356 1050.38135,356 Z M1044.56582,366.420801 L1042.0125,366.420801 L1042.0125,369.035547 L1039.88086,369.035547 L1039.88086,359.964453 L1044.56582,359.964453 C1046.74395,359.964453 1047.9293,361.435352 1047.9293,363.193457 C1047.9293,364.934961 1046.72734,366.420801 1044.56582,366.420801 Z" id="Combined-Shape"></path>
        </g>
    </g>
</svg>