<svg xmlns="http://www.w3.org/2000/svg" width="22" height="14" viewBox="0 0 22 14">
    <path fill-rule="nonzero" d="M13.565 6.62a2.541 2.541 0 1 0-5.082 0 2.541 2.541 0 0 0 5.082 0zm1 0a3.54 3.54 0 1 1-7.08.002 3.54 3.54 0 0 1 7.08-.001zm5.67-.618a20.614 20.614 0 0 0-2.174-2.054C15.79 2.101 13.403 1 11.025 1 8.647 1 6.26 2.1 3.989 3.948A20.62 20.62 0 0 0 1.27 6.621a20.62 20.62 0 0 0 2.718 2.673c2.27 1.846 4.658 2.948 7.036 2.948 2.378 0 4.765-1.102 7.036-2.948a20.614 20.614 0 0 0 2.717-2.673 18.039 18.039 0 0 0-.543-.619zm1.36 1.2a21.605 21.605 0 0 1-2.903 2.867c-2.433 1.979-5.02 3.173-7.667 3.173-2.647 0-5.234-1.194-7.667-3.173A21.61 21.61 0 0 1 .454 7.203a9.489 9.489 0 0 1-.224-.28L0 6.622l.23-.303a18.753 18.753 0 0 1 .847-.992 21.61 21.61 0 0 1 2.28-2.154C5.792 1.194 8.379 0 11.026 0c2.646 0 5.234 1.194 7.667 3.173a21.605 21.605 0 0 1 2.903 2.866c.108.131.184.226.224.28l.23.302-.23.303c-.04.053-.116.148-.224.279z"/>
</svg>
