<?xml version="1.0" encoding="UTF-8"?>
<svg width="16px" height="16px" viewBox="0 0 16 16" version="1.1" xmlns="http://www.w3.org/2000/svg" xmlns:xlink="http://www.w3.org/1999/xlink">
    <title>CB129ABA-A5CD-437C-85FC-55B8B9DCCA98@1.00x</title>
    <g id="Symbols" stroke="none" stroke-width="1" fill="none" fill-rule="evenodd">
        <g id="icon/300/dropdowm/transfer/off">
            <path d="M8.36576744,9.56538272 C8.37302326,9.31854563 8.344,9.07654848 8.2412093,8.84786117 C8.11302326,8.56230453 7.88930233,8.36265688 7.6135814,8.22834846 C7.33302326,8.09162007 7.04037209,7.97909139 6.75497674,7.8508329 C6.51553488,7.74314417 6.27972093,7.62698554 6.04148837,7.51566685 C6.0027907,7.49751706 5.98948837,7.47089738 5.99069767,7.42854787 C5.99311628,7.30270935 5.98948837,7.17687084 5.99311628,7.0522423 C5.99311628,7.02925257 6.004,6.99658296 6.02093023,6.98327311 C6.50827907,6.59486769 6.71265116,6.08062374 6.69693023,5.47442087 C6.68362791,4.95170703 6.51432558,4.48465252 6.13944186,4.10713697 C5.63274419,3.59652298 4.83944186,3.57474323 4.29888372,4.05268761 C3.98204651,4.33340431 3.80065116,4.6903501 3.716,5.0981153 C3.61925581,5.57121974 3.6652093,6.02738437 3.89618605,6.4581393 C4.00260465,6.65657696 4.14530233,6.82718495 4.32427907,6.96633331 C4.35934884,6.99416299 4.37144186,7.02199266 4.37144186,7.06434216 C4.36902326,7.18413075 4.36781395,7.30270935 4.37144186,7.42249794 C4.37265116,7.46968739 4.36055814,7.49872705 4.31702326,7.51929681 C4.05702326,7.64271535 3.80065116,7.77339381 3.53823256,7.88955245 C3.2455814,8.02023091 2.94204651,8.12912963 2.66874419,8.29973762 C2.38093023,8.47881551 2.16567442,8.71597272 2.07134884,9.04508885 C2.04353488,9.14309769 2.03265116,9.24594648 2.01330233,9.34758529 C2.00967442,9.36694506 2.00483721,9.38751482 2,9.40687459 L2,9.7033211 C2.04111628,9.73599071 2.07739535,9.78439014 2.12334884,9.79649 C2.27934884,9.83762952 2.43655814,9.87755905 2.59618605,9.89691882 C3.54911628,10.0106575 4.50688372,10.0118675 5.46465116,9.99613765 C6.02334884,9.98645777 6.58204651,9.96225805 7.13953488,9.93079842 C7.48902326,9.91143865 7.84093023,9.88602895 8.18195349,9.79890997 C8.39116279,9.74688059 8.36093023,9.75535049 8.36576744,9.56538272 L8.36576744,9.56538272 Z M14.2562791,11.6489782 C14.128093,11.3634216 13.9043721,11.1637739 13.6286512,11.0294655 C13.348093,10.8927371 13.0554419,10.7802084 12.7700465,10.6519499 C12.5306047,10.5442612 12.2947907,10.4281026 12.0565581,10.3167839 C12.0178605,10.2986341 12.0045581,10.2720144 12.0057674,10.2296649 C12.008186,10.1038264 12.0045581,9.97919785 12.008186,9.85335933 C12.008186,9.8303696 12.0190698,9.79769999 12.036,9.78439014 C12.5233488,9.39598472 12.7277209,8.88174077 12.712,8.2755379 C12.6986977,7.75282406 12.5293953,7.28576955 12.1545116,6.908254 C11.647814,6.39764001 10.8545116,6.37586026 10.3139535,6.85380464 C9.99711628,7.13452133 9.81572093,7.49146713 9.73106977,7.89923233 C9.63432558,8.37233676 9.68027907,8.8285014 9.91125581,9.25925633 C10.0176744,9.45769399 10.1603721,9.62830198 10.3393488,9.76745034 C10.3744186,9.79528002 10.3865116,9.82310969 10.3865116,9.86545919 C10.384093,9.98524778 10.384093,10.1038264 10.3865116,10.223615 C10.3877209,10.2708044 10.3756279,10.2998441 10.332093,10.3204138 C10.072093,10.4438324 9.81572093,10.5745108 9.55330233,10.6906695 C9.26065116,10.8213479 8.95711628,10.9302467 8.68381395,11.1008546 C8.396,11.2799325 8.18074419,11.5170897 8.0864186,11.8462059 C8.05860465,11.9442147 8.04772093,12.0470635 8.02837209,12.1487023 C8.02474419,12.1680621 8.01990698,12.1886318 8.01506977,12.2079916 L8.01506977,12.5044381 C8.05618605,12.5371077 8.09246512,12.5855072 8.1384186,12.597607 C8.2944186,12.6387465 8.45162791,12.6786761 8.61125581,12.6980358 C9.56418605,12.8117745 10.5219535,12.8129845 11.4797209,12.7972547 C12.0384186,12.7875748 12.5971163,12.7633751 13.1546047,12.7319155 C13.504093,12.7125557 13.856,12.687146 14.1970233,12.600027 C14.4074419,12.5467876 14.3772093,12.5540475 14.3820465,12.3652898 C14.388093,12.1196627 14.3590698,11.8776655 14.2562791,11.6489782 L14.2562791,11.6489782 Z M7.11897674,3.86513982 C7.58334884,3.72115151 8.27023256,3.62435265 9.06111628,3.98734838 C9.12037209,4.01517805 9.1772093,4.04663768 9.23404651,4.08172727 L8.36818605,4.614121 L10.5461395,5.87250619 C10.6803721,5.96446511 10.8653953,5.88460605 10.8895814,5.72246796 L10.9935814,3 L9.87618605,3.68606192 C9.73469767,3.56385336 9.57869767,3.4585846 9.40334884,3.37872554 C8.40930233,2.92498088 7.48176744,3.05565934 6.92427907,3.22989729 C6.73562791,3.2891866 6.64009302,3.49609416 6.71748837,3.67880201 C6.7852093,3.83368019 6.95693023,3.91474923 7.11897674,3.86513982 L7.11897674,3.86513982 Z" id="Transfer" fill="#9CA1A7" fill-rule="nonzero"></path>
            <rect id="Rectangle-Copy-4" fill="#D8D8D8" opacity="0" x="0" y="0" width="16" height="16"></rect>
        </g>
    </g>
</svg>