<svg width="326" height="322" viewBox="0 0 326 322" fill="none" xmlns="http://www.w3.org/2000/svg">
  <path d="M160 321.255C248.366 321.255 320 249.621 320 161.255C320 72.8894 248.366 1.255 160 1.255C71.6347 1.255 0.000244141 72.8894 0.000244141 161.255C0.000244141 249.621 71.6347 321.255 160 321.255Z" fill="#F5F8FA"/>
  <path fill-rule="evenodd" clip-rule="evenodd" d="M3.23319 129.606C76.9032 116.006 136.183 140.162 176.9 165.531V224.087L11.6302 223.987C6.49719 207.567 3.38319 195.469 2.29019 187.695C-2.30081 164.785 1.61419 135.346 3.23319 129.606Z" fill="#C1D8FD"/>
  <path d="M122.5 159.255C137.136 159.255 149 147.391 149 132.755C149 118.119 137.136 106.255 122.5 106.255C107.865 106.255 96.0002 118.119 96.0002 132.755C96.0002 147.391 107.865 159.255 122.5 159.255Z" fill="#E4EEFF"/>
  <path d="M123.437 120.937L123.687 190.622M129.755 134.42L123.89 143.202M117.167 143.407L122.833 150.103M117.167 126.407L122.833 133.103" stroke="#A5C4FE" stroke-width="1.269" stroke-linejoin="round"/>
  <path fill-rule="evenodd" clip-rule="evenodd" d="M9.12219 212.71C31.2512 199.8 61.0842 191.66 98.6212 188.295C164.671 182.373 183.458 144.147 204.689 144.147V249.147H27.3522C17.4192 230.645 11.3422 218.5 9.12219 212.71Z" fill="#E4EEFF"/>
  <path fill-rule="evenodd" clip-rule="evenodd" d="M205.257 8.50598L204.162 249.354L293.118 248.963C309.778 214.908 318.527 189.158 319.362 171.713C321.702 122.878 303.704 83.483 283.132 60.028C258.54 31.991 232.582 14.817 205.257 8.50598Z" fill="#DCE7F1"/>
  <g filter="url(#filter0_d_413_6350)">
  <path d="M183.249 115.677C209.416 118.89 233.233 100.282 236.445 74.1154C239.658 47.9486 221.051 24.1317 194.884 20.9188C168.717 17.7059 144.9 36.3138 141.687 62.4806C138.474 88.6474 157.082 112.464 183.249 115.677Z" fill="black"/>
  </g>
  <path d="M183.249 115.677C209.416 118.89 233.233 100.282 236.445 74.1154C239.658 47.9486 221.051 24.1317 194.884 20.9188C168.717 17.7059 144.9 36.3138 141.687 62.4806C138.474 88.6474 157.082 112.464 183.249 115.677Z" fill="white"/>
  <mask id="mask0_413_6350" style="mask-type:luminance" maskUnits="userSpaceOnUse" x="141" y="20" width="96" height="97">
  <path d="M234.952 81.4555C242.219 56.1135 227.566 29.6789 202.224 22.4121C176.882 15.1454 150.447 29.7984 143.18 55.1404C135.914 80.4825 150.567 106.917 175.909 114.184C201.251 121.451 227.685 106.798 234.952 81.4555Z" fill="white"/>
  </mask>
  <g mask="url(#mask0_413_6350)">
  <path d="M193.278 67.6157C194.517 66.7477 194.818 65.0392 193.95 63.7996C193.082 62.56 191.374 62.2587 190.134 63.1267C188.895 63.9947 188.594 65.7032 189.461 66.9428C190.329 68.1824 192.038 68.4836 193.278 67.6157Z" fill="#46BE59" fill-opacity="0.5"/>
  <path d="M201.132 62.1162C202.371 61.2482 202.672 59.5397 201.804 58.3001C200.936 57.0605 199.228 56.7593 197.988 57.6273C196.749 58.4952 196.448 60.2037 197.315 61.4433C198.183 62.6829 199.892 62.9842 201.132 62.1162Z" fill="#46BE59" fill-opacity="0.5"/>
  <path d="M208.986 56.6162C210.226 55.7482 210.527 54.0397 209.659 52.8001C208.791 51.5605 207.083 51.2593 205.843 52.1273C204.604 52.9952 204.302 54.7037 205.17 55.9433C206.038 57.1829 207.747 57.4842 208.986 56.6162Z" fill="#46BE59" fill-opacity="0.5"/>
  </g>
  <mask id="mask1_413_6350" style="mask-type:luminance" maskUnits="userSpaceOnUse" x="141" y="20" width="96" height="97">
  <path d="M234.952 81.4555C242.219 56.1135 227.566 29.6789 202.224 22.4121C176.882 15.1454 150.447 29.7984 143.18 55.1404C135.914 80.4825 150.567 106.917 175.909 114.184C201.251 121.451 227.685 106.798 234.952 81.4555Z" fill="white"/>
  </mask>
  <g mask="url(#mask1_413_6350)">
  <path d="M179.529 82.1288C179.914 82.3621 180.232 82.5239 180.48 82.6128C180.729 82.7028 180.951 82.7488 181.146 82.7516C181.26 82.6407 181.38 82.515 181.507 82.3757C181.635 82.2354 181.797 82.0532 181.996 81.8304L182.124 81.7047C182.182 81.6494 182.238 81.5793 182.295 81.4946C182.635 81.1323 182.917 80.8462 183.144 80.6365C183.37 80.4278 183.625 80.2273 183.907 80.0334C184.673 79.569 185.572 79.3747 186.462 79.4813C187.379 79.5831 188.123 79.9649 188.697 80.6276C189.626 81.5807 190.59 82.5333 191.589 83.4878C192.878 84.7089 194.186 85.91 195.512 87.0906C196.224 87.7276 196.684 88.4879 196.892 89.3713C197.098 90.2554 197.014 91.0772 196.639 91.8372C196.378 92.4852 195.842 93.3062 195.031 94.2994C194.221 95.2935 193.507 96.0259 192.886 96.497C192.316 96.9728 191.657 97.3306 190.947 97.5496C190.219 97.7777 189.41 97.8849 188.52 97.869C187.018 97.8429 185.438 97.5031 183.78 96.8498C182.121 96.1964 180.427 95.2651 178.694 94.0569C176.962 92.8487 175.235 91.3776 173.512 89.6445C171.761 87.9389 170.042 86.0072 168.355 83.8484C166.123 80.9428 164.309 78.0871 162.91 75.2809C161.512 72.5028 160.541 69.917 159.999 67.5229C159.457 65.1297 159.354 62.9988 159.693 61.1309C160.004 59.2632 160.781 57.8008 162.024 56.7434C162.617 56.2424 163.489 55.7112 164.639 55.1496C165.79 54.5879 166.714 54.2568 167.411 54.155C168.276 54.0286 169.108 54.1705 169.909 54.5821C170.708 54.9934 171.323 55.6285 171.753 56.4872C172.351 57.7855 172.997 59.0608 173.69 60.3103C174.512 61.7847 175.377 63.234 176.286 64.6561C176.774 65.4596 176.953 66.3079 176.826 67.1995C176.699 68.0911 176.31 68.872 175.658 69.5423C175.435 69.7349 175.202 69.9156 174.96 70.0838C174.695 70.265 174.421 70.4308 174.137 70.5802C174.088 70.6305 174.031 70.6724 173.968 70.7045L173.799 70.7871C173.772 70.7866 173.716 70.8143 173.632 70.8692C173.564 70.9149 173.493 70.9565 173.42 70.9937C173.238 71.0684 173.062 71.1578 172.894 71.2611C172.725 71.3684 172.562 71.4866 172.408 71.6147C172.377 71.8773 172.386 72.1431 172.436 72.4029C172.507 72.7756 172.613 73.1408 172.751 73.4941C172.962 74.1217 173.298 74.8306 173.757 75.6188C174.286 76.5098 174.87 77.3664 175.507 78.1835C176.269 79.1614 176.985 79.9764 177.656 80.6264C178.326 81.2763 178.951 81.7779 179.529 82.1278L179.529 82.1288Z" fill="#46BE59"/>
  </g>
  <path fill-rule="evenodd" clip-rule="evenodd" d="M261.937 157.572C259.992 160.7 258.107 164.435 256.281 168.778C254.455 173.122 249.265 192.663 240.711 227.404C207.099 234.066 187.601 237.858 182.218 238.781C182.403 239.304 185.094 241.949 190.293 246.716L250.816 246.6L261.937 157.572Z" fill="#705FBE"/>
  <path fill-rule="evenodd" clip-rule="evenodd" d="M204.353 196.991L223.226 245.786C223.349 246.102 223.392 246.444 223.353 246.781C223.314 247.117 223.194 247.44 223.002 247.72C222.81 248 222.553 248.228 222.253 248.387C221.953 248.545 221.619 248.628 221.28 248.628L131.512 248.683C130.676 248.683 129.86 248.433 129.168 247.964C128.476 247.495 127.941 246.829 127.631 246.053L108.141 197.183C108.015 196.866 107.968 196.523 108.005 196.184C108.041 195.845 108.161 195.52 108.352 195.237C108.543 194.955 108.801 194.724 109.103 194.564C109.404 194.404 109.74 194.321 110.081 194.321H200.458C201.301 194.321 202.124 194.576 202.819 195.053C203.515 195.529 204.049 196.205 204.353 196.991Z" fill="#939393"/>
  <path fill-rule="evenodd" clip-rule="evenodd" d="M273.144 146.743C263.825 151.139 258.466 160.683 257.064 175.379C255.664 190.074 253.581 215.16 250.816 250.639H315.206C326.142 216.85 328.255 190.487 321.543 171.547C311.475 143.137 295.978 143.137 290.895 142.493C287.506 142.064 281.589 143.481 273.144 146.743Z" fill="#7969C6"/>
  <path fill-rule="evenodd" clip-rule="evenodd" d="M299.28 176.491C299.28 184.877 297.436 235.614 294.514 235.614C293.238 235.614 277.113 236.482 246.138 238.218L243.821 250.63C273.336 257.713 294.34 261.255 306.837 261.255C325.581 261.255 329.947 198.887 322.663 174.953C315.378 151.018 299.28 168.106 299.28 176.491Z" fill="#7969C6"/>
  <path d="M294.696 195.718C295.039 205.705 295.039 213.196 294.696 218.192C294.353 223.188 293.381 229.864 291.779 238.218H246.02" stroke="#685AAA" stroke-width="1.96"/>
  <path fill-rule="evenodd" clip-rule="evenodd" d="M275.78 137.059C275.78 136.089 270.25 142.312 265.024 139.818C258.404 136.657 256.488 121.189 255.476 117.262C252.834 107.007 252.904 102.744 255.476 99.352C261.193 91.813 286.978 86.13 291.892 97.053C296.808 107.975 294.582 115.009 291.221 132.063V145.659C291.221 146.994 285.344 151.248 281.135 151.248C277.329 151.248 275.78 148.675 275.78 147.512V137.059Z" fill="#FFBC98"/>
  <path fill-rule="evenodd" clip-rule="evenodd" d="M284.832 126.369C284.229 124.099 283.9 119.951 284.832 117.646C286.054 114.623 286.054 112.578 284.198 110.438C281.919 107.81 279.764 109.363 277.731 115.098C257.879 112.746 248.593 107.916 249.876 100.608C251.673 90.363 283.2 83.402 290.828 87.254C301.131 92.457 297.708 111.61 290.85 133.107C287.24 130.128 285.234 127.882 284.832 126.369Z" fill="#06154A"/>
  <path d="M282.027 117.478C278.763 131.223 272.927 137.828 264.52 137.296" stroke="#17191B" stroke-width="1.176"/>
  <path d="M282.32 118.063C283.131 118.063 283.788 117.407 283.788 116.598C283.788 115.789 283.131 115.133 282.32 115.133C281.509 115.133 280.852 115.789 280.852 116.598C280.852 117.407 281.509 118.063 282.32 118.063Z" fill="#17191B"/>
  <path d="M262.723 138.594C264.659 138.798 266.31 138.18 266.412 137.214C266.513 136.249 265.026 135.301 263.091 135.098C261.155 134.894 259.504 135.512 259.402 136.478C259.301 137.443 260.788 138.391 262.723 138.594Z" fill="#17191B"/>
  <path d="M248.222 244.589H241.579C237.817 244.589 234.131 245.654 230.949 247.662L226.926 250.201C226.873 250.234 226.832 250.284 226.809 250.343C226.786 250.402 226.784 250.466 226.801 250.527C226.818 250.588 226.855 250.641 226.906 250.679C226.956 250.717 227.017 250.737 227.08 250.737L247.095 250.76L248.222 244.589Z" fill="#FFBC98"/>
  <path fill-rule="evenodd" clip-rule="evenodd" d="M81.9272 108.469C84.1702 120.952 83.7882 129.912 80.7832 135.347C78.5932 139.306 73.3342 144.654 66.3972 143.614C65.7522 143.518 67.0002 162.964 66.4102 162.854C63.8932 162.384 50.4752 160.363 50.4712 154.245C50.4692 150.471 51.4802 138.103 50.4572 132.85C49.1222 125.993 53.3922 116.366 63.2662 103.967L81.9272 108.469Z" fill="#F3C4AA"/>
  <path fill-rule="evenodd" clip-rule="evenodd" d="M81.9272 108.469C84.1702 120.952 83.7882 129.912 80.7832 135.347C78.5932 139.306 73.3342 144.654 66.3972 143.614C65.7522 143.518 67.0002 162.964 66.4102 162.854C63.8932 162.384 50.4752 160.363 50.4712 154.245C50.4692 150.471 51.4802 138.103 50.4572 132.85C49.1222 125.993 53.3922 116.366 63.2662 103.967L81.9272 108.469Z" fill="#B38A73"/>
  <path fill-rule="evenodd" clip-rule="evenodd" d="M81.9362 108.745C76.7722 118.95 69.0712 124.511 58.8322 125.428C57.7752 125.522 57.6172 120.878 54.5022 122.501C51.3852 124.126 52.8882 127.858 53.1252 129.546C53.3612 131.234 51.2662 137.451 50.3932 138.284C50.3932 138.284 49.0372 134.032 44.0032 127.482C34.6892 115.365 43.3202 108.139 45.4562 102.248C51.0852 86.726 63.2452 88.892 81.9362 108.745Z" fill="#6A2C3D"/>
  <path fill-rule="evenodd" clip-rule="evenodd" d="M75.4022 112.032C87.4842 106.291 93.1432 102.342 92.3802 100.186C91.6162 98.03 84.8742 100.599 72.1542 107.892L75.4022 112.032Z" fill="#6779B3"/>
  <path fill-rule="evenodd" clip-rule="evenodd" d="M44.2942 127.84C40.9052 123.785 27.6232 105.372 49.6292 94.24C64.3012 86.82 75.1052 91.652 82.0422 108.736C75.0822 113.348 69.3422 116.878 64.8222 119.326C58.0432 122.998 50.5542 126.706 44.2942 127.84Z" fill="#6779B3"/>
  <path fill-rule="evenodd" clip-rule="evenodd" d="M42.5472 125.573C44.5072 125.183 46.1442 124.598 47.9552 124.103C49.7652 123.607 52.5052 121.887 52.9732 124.013C53.4412 126.139 48.2882 127.066 44.2202 127.881C44.2202 127.881 43.6472 127.148 43.3682 126.763C43.0882 126.378 42.8342 126.056 42.5472 125.573Z" fill="#244BB1"/>
  <path fill-rule="evenodd" clip-rule="evenodd" d="M43.4362 126.666C33.6552 129.728 26.7742 135.053 22.7942 142.642C18.8142 150.232 17.2442 159.802 18.0842 171.356L33.8342 157.481L43.4362 132.688V126.666Z" fill="#6A2C3D"/>
  <path fill-rule="evenodd" clip-rule="evenodd" d="M66.2422 153.788C82.0322 168.579 90.7742 183.568 92.4662 198.754C94.3177 215.439 96.0837 232.134 97.7642 248.838L21.7902 249.538C13.1092 260.208 7.5572 262.542 5.1342 256.538C1.5002 247.533 7.4452 192.161 11.0542 179.926C18.5102 154.639 37.9002 152.241 44.0422 151.575C48.1362 151.132 55.5362 151.87 66.2422 153.788Z" fill="#FFAE00"/>
  <path d="M82.6162 209.12V248.963" stroke="#D59304" stroke-width="1.973"/>
  <path fill-rule="evenodd" clip-rule="evenodd" d="M47.7831 155.985L61.7471 162.846C52.4441 226.491 37.6211 259.566 17.2791 262.073C-13.2339 265.833 22.9621 210.143 26.3191 201.901C28.5591 196.406 35.7131 181.101 47.7831 155.985Z" fill="#FFAE00"/>
  <path d="M47.9861 156.863L16.3741 223.648" stroke="#D59304" stroke-width="1.973"/>
  <path fill-rule="evenodd" clip-rule="evenodd" d="M38.7523 126.112L50.9343 115.552C51.1496 115.366 51.43 115.272 51.7141 115.292C51.9982 115.312 52.2629 115.443 52.4503 115.658L71.5133 137.525C71.6063 137.632 71.6774 137.756 71.7224 137.89C71.7675 138.024 71.7856 138.166 71.7757 138.307C71.7659 138.449 71.7283 138.587 71.665 138.713C71.6018 138.84 71.5142 138.953 71.4073 139.046L59.2253 149.606C59.0098 149.793 58.7292 149.886 58.4449 149.866C58.1605 149.847 57.8956 149.715 57.7083 149.5L38.6453 127.633C38.5524 127.526 38.4815 127.402 38.4367 127.268C38.3918 127.134 38.3738 126.992 38.3838 126.851C38.3937 126.71 38.4314 126.572 38.4946 126.445C38.5578 126.319 38.6454 126.206 38.7523 126.113V126.112Z" fill="#323232"/>
  <path fill-rule="evenodd" clip-rule="evenodd" d="M46.9442 156.783C45.2372 149.663 44.6182 144.595 45.0882 141.577C45.5472 138.627 48.7382 132.907 54.6622 124.419C54.7062 124.356 54.7657 124.305 54.8349 124.271C54.9042 124.238 54.9809 124.223 55.0578 124.227C55.1346 124.232 55.209 124.256 55.2739 124.297C55.3387 124.339 55.3919 124.396 55.4282 124.464C58.9052 130.95 59.7702 135.724 58.0212 138.786C56.2152 141.948 56.5252 149.402 58.9512 161.15L46.9442 156.783Z" fill="#B38A73"/>
  <defs>
  <filter id="filter0_d_413_6350" x="130.326" y="11.5581" width="117.48" height="117.48" filterUnits="userSpaceOnUse" color-interpolation-filters="sRGB">
  <feFlood flood-opacity="0" result="BackgroundImageFix"/>
  <feColorMatrix in="SourceAlpha" type="matrix" values="0 0 0 0 0 0 0 0 0 0 0 0 0 0 0 0 0 0 127 0" result="hardAlpha"/>
  <feOffset dy="2"/>
  <feGaussianBlur stdDeviation="5.5"/>
  <feColorMatrix type="matrix" values="0 0 0 0 0.807688 0 0 0 0 0.807688 0 0 0 0 0.807688 0 0 0 0.399639 0"/>
  <feBlend mode="normal" in2="BackgroundImageFix" result="effect1_dropShadow_413_6350"/>
  <feBlend mode="normal" in="SourceGraphic" in2="effect1_dropShadow_413_6350" result="shape"/>
  </filter>
  </defs>
  </svg>
