<svg xmlns="http://www.w3.org/2000/svg" width="160" height="160" viewBox="0 0 160 160">
  <g fill="none" fill-rule="evenodd">
    <path d="M0 0H160V160H0z"/>
    <path fill="#B1B1B1" d="M16 16H144V144H16z" opacity="0"/>
    <path fill="#779EFF" fill-rule="nonzero" d="M113.148096,96.3105814 C109.317162,92.5285515 104.534594,92.5285515 100.728061,96.3105814 C97.8243595,99.1898042 94.9206579,102.069027 92.065758,104.99705 C91.2849306,105.802256 90.6261076,105.973058 89.6744743,105.436254 C87.7956085,104.411445 85.7947385,103.581839 83.9890753,102.45943 C75.5707807,97.1645882 68.518934,90.3569344 62.2723154,82.6952738 C59.1734069,78.8888438 56.4161104,74.8140116 54.488443,70.2267753 C54.0980293,69.299568 54.1712319,68.6895632 54.9276583,67.9331572 C57.83136,65.127135 60.661859,62.2479123 63.5167589,59.3686895 C67.4940981,55.3670579 67.4940981,50.6822209 63.4923581,46.6561891 C61.2230786,44.3625709 58.9537992,42.1177532 56.6845198,39.8241351 C54.3420378,37.4817166 52.0239567,35.1148979 49.6570739,32.7968796 C45.8261398,29.0636501 41.0435725,29.0636501 37.2370393,32.8212797 C34.3089368,35.7005025 31.5028386,38.6529258 28.5259344,41.4833482 C25.7686379,44.0941688 24.3777893,47.2905941 24.084979,51.0238236 C23.6213628,57.0994716 25.1098149,62.8335169 27.2082883,68.421161 C31.5028386,79.9868524 38.0422674,90.2593336 45.972545,99.677808 C56.6845198,112.414709 69.4705673,122.491988 84.4282907,129.763246 C91.1629264,133.032872 98.1415706,135.546091 105.730236,135.960895 C110.952019,136.253697 115.490578,134.936087 119.126305,130.861254 C121.615192,128.079632 124.42129,125.542012 127.056582,122.882391 C130.960719,118.92956 130.98512,114.147122 127.105384,110.243091 C122.469222,105.582655 117.808659,100.946618 113.148096,96.3105814 Z"/>
    <g fill-rule="nonzero" transform="translate(88 24)">
      <path fill="#4494E0" d="M24,0 C37.254834,0 48,10.745166 48,24 C48,37.254834 37.254834,48 24,48 C21.1715532,48 18.4573847,47.5107165 15.9375168,46.6121718 L3.6464462,48.1632404 C2.55057311,48.3015731 1.55005162,47.5253333 1.4117189,46.4294602 C1.39656993,46.3094498 1.39233972,46.1883126 1.3990803,46.0675378 L2.08347048,33.7954964 C0.744562855,30.8043783 0,27.4891401 0,24 C0,10.745166 10.745166,0 24,0 Z"/>
      <path fill="#E3EBF4" d="M12,21 C13.6568542,21 15,22.3431458 15,24 C15,25.6568542 13.6568542,27 12,27 C10.3431458,27 9,25.6568542 9,24 C9,22.3431458 10.3431458,21 12,21 Z M24,21 C25.6568542,21 27,22.3431458 27,24 C27,25.6568542 25.6568542,27 24,27 C22.3431458,27 21,25.6568542 21,24 C21,22.3431458 22.3431458,21 24,21 Z M36,21 C37.6568542,21 39,22.3431458 39,24 C39,25.6568542 37.6568542,27 36,27 C34.3431458,27 33,25.6568542 33,24 C33,22.3431458 34.3431458,21 36,21 Z"/>
    </g>
    <circle cx="11.039" cy="11.178" r="4.8" fill="#DCE8F1"/>
    <circle cx="128.078" cy="148.207" r="2.4" fill="#4494E0" fill-rule="nonzero" transform="rotate(-15 128.078 148.207)"/>
    <circle cx="146.134" cy="121.815" r="1.733" fill="#DCE8F1" transform="rotate(-15 146.134 121.815)"/>
    <circle cx="18.642" cy="26.64" r="2.4" fill="#4494E0" fill-rule="nonzero"/>
    <circle cx="144.548" cy="142.185" r="3.2" fill="#779EFF" fill-rule="nonzero" transform="rotate(-15 144.548 142.185)"/>
  </g>
</svg>
