<svg xmlns="http://www.w3.org/2000/svg" width="160" height="160" viewBox="0 0 160 160"><g fill="none" fill-rule="evenodd"><rect width="160" height="160"/><rect width="128" height="128" x="16" y="16" fill="#B1B1B1" opacity="0"/><path fill="#E3EBF4" fill-rule="nonzero" d="M128.352373,35.6424279 L17.1558856,43.4180438 L17.7373466,51.7333236 L27.4670392,51.0529573 L33.2816493,134.205756 L93.0497612,130.026362 C110.674404,128.793927 124.019025,113.494113 122.789817,95.9156332 L119.204141,44.6380742 L128.933834,43.9577078 L128.352373,35.6424279 Z"/><circle cx="131.727" cy="148.972" r="4.773" fill="#E3EBF4"/><circle cx="152.327" cy="137.487" r="2.387" fill="#7E9FFB"/><circle cx="10.711" cy="27.383" r="2.387" fill="#6646FA"/><circle cx="37.46" cy="8.552" r="3.182" fill="#C1D8FD"/><circle cx="3.182" cy="3.182" r="3.182" fill="#7E9FFB" transform="translate(9.77 8.199)"/><g transform="translate(17.747 30)"><path fill="#7E9FFB" fill-rule="nonzero" d="M117.95369,8.15428301 L6.48567208,8.15428301 L6.48567208,16.4898679 L16.2391236,16.4898679 L16.2391236,99.845717 L76.1531832,99.845717 C93.820864,99.845717 108.200238,85.5140463 108.200238,67.8926415 L108.200238,16.4898679 L117.95369,16.4898679 L117.95369,8.15428301 Z" transform="rotate(9 62.22 54)"/><path fill="#C1D8FD" d="M71.9091569,56.8212887 L71.9091569,65.1568736 L40.5587769,65.1568736 L40.5587769,56.8212887 L71.9091569,56.8212887 Z M82.3592835,35.9823264 L82.3592835,44.3179113 L40.5587769,44.3179113 L40.5587769,35.9823264 L82.3592835,35.9823264 Z" transform="rotate(9 61.459 50.57)"/></g></g></svg>