<svg xmlns="http://www.w3.org/2000/svg" width="160" height="160" viewBox="0 0 160 160">
  <g fill="none" fill-rule="evenodd">
    <path d="M0 0H160V160H0z"/>
    <path fill="#B1B1B1" d="M16 16H144V144H16z" opacity="0"/>
    <rect width="112" height="76" x="24" y="40" fill="#E3EBF4" rx="2" transform="rotate(-7 80 78)"/>
    <g transform="rotate(7 -283.522 259.698)">
      <path fill="#7E9FFB" d="M110,0 C111.104569,-2.02906125e-16 112,0.8954305 112,2 L112,74 C112,75.1045695 111.104569,76 110,76 L65.6,76 L57.2803688,82.933026 C56.5386769,83.5511026 55.4613231,83.5511026 54.7196312,82.933026 L46.4,76 L2,76 C0.8954305,76 1.3527075e-16,75.1045695 0,74 L0,2 C-1.3527075e-16,0.8954305 0.8954305,2.02906125e-16 2,0 L110,0 Z"/>
      <path fill="#6646FA" d="M31,58 L31.0007105,57.97547 C20.4192653,57.4547951 12,48.71061 12,38 C12,26.954305 20.954305,18 32,18 C43.045695,18 52,26.954305 52,38 C52,43.4511877 49.8191386,48.393008 46.2823188,52.0005578 L65.7176812,52.0005578 C62.1808614,48.393008 60,43.4511877 60,38 C60,26.954305 68.954305,18 80,18 C91.045695,18 100,26.954305 100,38 C100,49.045695 91.045695,58 80,58 C79.664915,58 79.3317546,57.9917595 79.0007105,57.97547 L79,58 L31,58 Z M80,24 C72.2680135,24 66,30.2680135 66,38 C66,45.7319865 72.2680135,52 80,52 C87.7319865,52 94,45.7319865 94,38 C94,30.2680135 87.7319865,24 80,24 Z M32,24 C24.2680135,24 18,30.2680135 18,38 C18,45.7319865 24.2680135,52 32,52 C39.7319865,52 46,45.7319865 46,38 C46,30.2680135 39.7319865,24 32,24 Z"/>
    </g>
    <circle cx="131.727" cy="148.972" r="4.773" fill="#E3EBF4"/>
    <circle cx="152.327" cy="137.487" r="2.387" fill="#6646FA"/>
    <circle cx="10.711" cy="27.383" r="2.387" fill="#6646FA"/>
    <circle cx="37.46" cy="8.552" r="3.182" fill="#C1D8FD"/>
    <circle cx="3.182" cy="3.182" r="3.182" fill="#7E9FFB" transform="translate(9.77 8.199)"/>
  </g>
</svg>
