<?xml version="1.0" encoding="UTF-8"?>
<svg viewBox="0 0 32 32" version="1.1" xmlns="http://www.w3.org/2000/svg" xmlns:xlink="http://www.w3.org/1999/xlink">
<title>lock_border</title>
<path d="M16 2c3.314 0 6 2.686 6 6l-0.001 6h2.001c1.054 0 1.918 0.816 1.994 1.851l0.006 0.149v12c0 1.054-0.816 1.918-1.851 1.994l-0.149 0.006h-16c-1.054 0-1.918-0.816-1.995-1.851l-0.005-0.149v-12c0-1.054 0.816-1.918 1.851-1.995l0.149-0.005h1.999l0.001-6c0-3.314 2.686-6 6-6zM23 16h-14c-0.513 0-0.935 0.386-0.993 0.883l-0.007 0.117v10c0 0.513 0.386 0.936 0.883 0.993l0.117 0.007h14c0.513 0 0.936-0.386 0.993-0.883l0.007-0.117v-10c0-0.513-0.386-0.936-0.883-0.993l-0.117-0.007zM16 19c0.552 0 1 0.448 1 1v4c0 0.552-0.448 1-1 1s-1-0.448-1-1v-4c0-0.552 0.448-1 1-1zM16 4c-2.142 0-3.891 1.684-3.995 3.8l-0.005 0.2-0.001 6h8l0.001-6c0-2.142-1.684-3.891-3.8-3.995l-0.2-0.005z"></path>
</svg>
