<svg width="280" height="198" viewBox="0 0 280 198" fill="none" xmlns="http://www.w3.org/2000/svg">
  <path d="M224.809 16.1453H178.462V53.7933H224.809V16.1453Z" fill="white" />
  <path
    d="M224.806 54.1912H178.463C178.36 54.1912 178.261 54.1503 178.188 54.0774C178.115 54.0044 178.074 53.9055 178.074 53.8024V16.1637C178.074 16.0606 178.115 15.9617 178.188 15.8888C178.261 15.8159 178.36 15.7749 178.463 15.7749H224.806C224.909 15.7749 225.008 15.8159 225.081 15.8888C225.154 15.9617 225.195 16.0606 225.195 16.1637V53.8024C225.195 53.9055 225.154 54.0044 225.081 54.0774C225.008 54.1503 224.909 54.1912 224.806 54.1912ZM178.852 53.4136H224.417V16.5339H178.852V53.4136Z"
    fill="#323439" />
  <path d="M191.165 44.9773H182.321V53.8177H191.165V44.9773Z" fill="#FF7A00" />
  <path d="M206.058 39.0801H197.214V53.8183H206.058V39.0801Z" fill="#FF7A00" />
  <path d="M220.947 29.4026H212.103V53.818H220.947V29.4026Z" fill="#FF7A00" />
  <path
    d="M191.165 54.2067H182.321C182.218 54.2067 182.119 54.1657 182.046 54.0928C181.973 54.0199 181.932 53.921 181.932 53.8179V44.9775C181.932 44.8743 181.973 44.7754 182.046 44.7025C182.119 44.6296 182.218 44.5886 182.321 44.5886H191.165C191.268 44.5886 191.367 44.6296 191.44 44.7025C191.513 44.7754 191.554 44.8743 191.554 44.9775V53.8179C191.554 53.921 191.513 54.0199 191.44 54.0928C191.367 54.1657 191.268 54.2067 191.165 54.2067ZM182.71 53.429H190.776V45.3663H182.71V53.429Z"
    fill="#323439" />
  <path
    d="M206.055 54.2068H197.214C197.111 54.2068 197.012 54.1658 196.939 54.0929C196.866 54.0199 196.825 53.9211 196.825 53.8179V39.0797C196.825 38.9766 196.866 38.8777 196.939 38.8048C197.012 38.7319 197.111 38.6909 197.214 38.6909H206.055C206.158 38.6909 206.257 38.7319 206.33 38.8048C206.403 38.8777 206.444 38.9766 206.444 39.0797V53.8179C206.444 53.9211 206.403 54.0199 206.33 54.0929C206.257 54.1658 206.158 54.2068 206.055 54.2068ZM197.603 53.4291H205.659V39.4686H197.603V53.4291Z"
    fill="#323439" />
  <path
    d="M220.947 54.2067H212.104C212.001 54.2067 211.902 54.1657 211.829 54.0928C211.756 54.0199 211.715 53.921 211.715 53.8179V29.4025C211.715 29.2994 211.756 29.2005 211.829 29.1276C211.902 29.0546 212.001 29.0137 212.104 29.0137H220.947C221.051 29.0137 221.149 29.0546 221.222 29.1276C221.295 29.2005 221.336 29.2994 221.336 29.4025V53.8179C221.336 53.921 221.295 54.0199 221.222 54.0928C221.149 54.1657 221.051 54.2067 220.947 54.2067ZM212.505 53.429H220.571V29.7882H212.505V53.429Z"
    fill="#323439" />
  <path
    d="M180.19 43.5095C180.11 43.5095 180.032 43.4849 179.967 43.439C179.901 43.3931 179.851 43.3282 179.824 43.253C179.797 43.1779 179.794 43.0963 179.815 43.0192C179.835 42.9421 179.88 42.8732 179.941 42.8221L184.773 38.7596C184.82 38.7195 184.875 38.6912 184.935 38.6771C184.994 38.6631 185.056 38.6636 185.116 38.6787C185.175 38.6932 185.23 38.7212 185.276 38.7606C185.323 38.8001 185.359 38.8497 185.383 38.9058L186.858 42.3928L198.219 29.1508C198.262 29.099 198.317 29.0595 198.38 29.0365C198.443 29.0135 198.511 29.0078 198.577 29.0202C198.646 29.0289 198.71 29.0557 198.765 29.0978C198.82 29.1399 198.862 29.1958 198.888 29.2597L201.776 36.6226L218.349 17.8717C218.417 17.7941 218.513 17.7468 218.616 17.7401C218.719 17.7334 218.821 17.7678 218.898 17.8359C218.976 17.904 219.023 18 219.03 18.103C219.037 18.206 219.002 18.3074 218.934 18.3849L201.925 37.6118C201.882 37.6625 201.826 37.701 201.763 37.7235C201.7 37.746 201.632 37.7517 201.566 37.7401C201.5 37.7285 201.438 37.7 201.387 37.6573C201.335 37.6146 201.296 37.5592 201.272 37.4967L198.387 30.1462L187.039 43.3727C186.996 43.4238 186.941 43.4631 186.879 43.4867C186.817 43.5103 186.75 43.5174 186.684 43.5074C186.618 43.4974 186.556 43.4706 186.504 43.4295C186.451 43.3885 186.411 43.3346 186.385 43.2731L184.87 39.6928L180.442 43.4255C180.37 43.4811 180.281 43.5107 180.19 43.5095Z"
    fill="#323439" />
  <path
    d="M217.332 23.6419C217.301 23.6466 217.269 23.6466 217.238 23.6419C217.189 23.6295 217.142 23.6075 217.101 23.577C217.059 23.5465 217.025 23.5082 216.998 23.4643C216.972 23.4204 216.955 23.3717 216.947 23.321C216.94 23.2703 216.943 23.2187 216.955 23.1691L218.088 18.6898L213.277 19.9745C213.18 19.9949 213.078 19.9774 212.994 19.9255C212.909 19.8736 212.847 19.7912 212.821 19.6952C212.795 19.5993 212.807 19.4971 212.854 19.4096C212.902 19.3221 212.98 19.256 213.075 19.2248L218.527 17.7472C218.592 17.7289 218.662 17.7282 218.728 17.7451C218.794 17.762 218.854 17.796 218.903 17.8437C218.951 17.8919 218.985 17.9515 219.003 18.0169C219.021 18.0823 219.022 18.1512 219.006 18.217L217.711 23.3433C217.69 23.428 217.641 23.5033 217.572 23.5573C217.504 23.6114 217.419 23.6411 217.332 23.6419Z"
    fill="#323439" />
  <path
    d="M192.042 20.1588H182.321C182.218 20.1588 182.119 20.1178 182.046 20.0448C181.973 19.9718 181.932 19.8728 181.932 19.7696C181.932 19.6664 181.973 19.5674 182.046 19.4944C182.119 19.4214 182.218 19.3804 182.321 19.3804H192.042C192.146 19.3804 192.245 19.4214 192.317 19.4944C192.39 19.5674 192.431 19.6664 192.431 19.7696C192.431 19.8728 192.39 19.9718 192.317 20.0448C192.245 20.1178 192.146 20.1588 192.042 20.1588Z"
    fill="#323439" />
  <path
    d="M188.42 23.829H182.321C182.218 23.829 182.119 23.788 182.046 23.715C181.973 23.642 181.932 23.543 181.932 23.4398C181.932 23.3365 181.973 23.2375 182.046 23.1645C182.119 23.0915 182.218 23.0505 182.321 23.0505H188.42C188.524 23.0505 188.622 23.0915 188.695 23.1645C188.768 23.2375 188.809 23.3365 188.809 23.4398C188.809 23.543 188.768 23.642 188.695 23.715C188.622 23.788 188.524 23.829 188.42 23.829Z"
    fill="#323439" />
  <path
    d="M171.405 135.202C170.932 137.214 169.494 140.328 167.319 143.619C165.399 146.537 163.38 149.087 161.79 150.63C160.545 151.825 159.58 152.413 159.104 152.099C158.628 151.784 158.718 150.724 159.204 149.196C159.885 147.059 161.382 144.036 163.364 141.018C165.524 137.74 167.668 135.108 169.23 133.805C170.132 133.046 170.842 132.735 171.243 132.999C171.644 133.264 171.682 134.048 171.405 135.202Z"
    fill="#323439" />
  <path
    d="M159.397 152.571C159.217 152.574 159.04 152.523 158.89 152.425C157.219 151.324 160.377 144.838 163.038 140.8C164.467 138.568 166.093 136.467 167.895 134.523C169.566 132.8 170.733 132.193 171.458 132.657C173.014 133.677 170.736 139.136 167.646 143.821C166.16 146.132 164.48 148.313 162.624 150.341C161.199 151.834 160.134 152.571 159.397 152.571ZM163.688 141.226C159.92 146.944 158.709 151.367 159.332 151.775C159.475 151.871 160.265 151.706 162.073 149.803C163.897 147.814 165.548 145.675 167.008 143.407C170.643 137.895 171.676 133.742 171.054 133.319C170.867 133.198 170.089 133.403 168.477 135.064C166.702 136.973 165.099 139.035 163.688 141.226Z"
    fill="#323439" />
  <path
    d="M103.594 157.72C103.485 160.386 103.504 163.782 103.186 166.09C102.972 167.646 102.598 168.725 101.923 168.725C101.612 168.725 101.12 167.72 100.678 166.016C99.9236 162.775 99.6468 159.442 99.8569 156.121C99.9658 154.127 100.361 149.461 100.974 146.724C101.245 145.517 101.559 144.686 101.908 144.621C102.53 144.506 102.966 145.28 103.239 146.587C103.803 149.147 103.768 153.757 103.594 157.72Z"
    fill="#323439" />
  <path
    d="M101.935 169.114C101.841 169.109 101.749 169.085 101.664 169.044C101.58 169.002 101.504 168.943 101.444 168.871C100.566 167.938 99.1223 162.74 99.4895 156.099C99.558 154.817 99.7789 151.949 100.149 149.321C100.753 145.022 101.332 144.344 101.864 144.238C102.022 144.208 102.184 144.216 102.339 144.26C102.493 144.304 102.635 144.384 102.754 144.493C103.18 144.86 104.478 145.989 103.998 157.735C103.964 158.503 103.946 159.334 103.924 160.18C103.781 165.739 103.594 169.114 101.935 169.114ZM102.026 145C101.344 145.482 100.535 151.259 100.264 156.142C99.8971 162.83 101.385 167.748 101.998 168.33C102.931 168.121 103.068 163.154 103.143 160.161C103.164 159.309 103.186 158.475 103.217 157.701C103.641 147.436 102.676 145.454 102.243 145.078C102.217 145.05 102.185 145.029 102.15 145.015C102.114 145.002 102.076 144.997 102.038 145H102.026Z"
    fill="#323439" />
  <path
    d="M161.133 80.1121C161.133 80.1121 187.894 81.3065 193.903 85.7112C203.422 92.6728 224.087 164.824 208.936 175.329C195.63 184.552 178.631 168.731 178.631 168.731V181.83H99.2811L100.233 168.731H62.7803C59.7588 168.731 52.0728 161.353 63.8819 141.13C77.8848 117.178 109.429 91.0024 113.458 88.8001C117.488 86.5977 139.342 83.4311 139.342 83.4311L142.323 93.3323L161.133 80.1121Z"
    fill="white" />
  <path
    d="M99.2811 182.213H99.2531C99.2024 182.209 99.1529 182.196 99.1074 182.173C99.0619 182.15 99.0214 182.119 98.9881 182.08C98.9549 182.042 98.9296 181.997 98.9136 181.949C98.8977 181.901 98.8914 181.85 98.8952 181.799L99.8288 169.117H62.799C61.6103 169.117 59.8615 168.153 58.623 166.006C56.8275 162.896 55.0819 155.468 63.5645 140.941C77.4553 117.141 108.884 90.8503 113.272 88.4552C117.317 86.2466 138.393 83.1826 139.289 83.052C139.381 83.0385 139.475 83.0588 139.553 83.1091C139.632 83.1594 139.689 83.2363 139.715 83.3257L142.541 92.7105L160.9 79.7951C160.971 79.746 161.056 79.7209 161.143 79.7236C162.238 79.7734 188.084 80.9678 194.127 85.3912C197.665 87.9792 202.84 99.4108 207.29 114.522C212.069 130.722 214.839 147.112 214.699 158.364C214.587 167.356 212.72 173.17 209.154 175.64C203.593 179.497 196.495 179.563 188.616 175.833C185.17 174.161 181.946 172.066 179.02 169.596V181.836C179.02 181.94 178.979 182.038 178.906 182.111C178.833 182.184 178.734 182.225 178.631 182.225C178.527 182.225 178.429 182.184 178.356 182.111C178.283 182.038 178.242 181.94 178.242 181.836V168.725C178.241 168.649 178.263 168.575 178.305 168.512C178.346 168.448 178.405 168.398 178.475 168.368C178.544 168.337 178.621 168.328 178.695 168.341C178.77 168.353 178.84 168.387 178.895 168.439C179.063 168.594 195.823 183.942 208.715 175.002C212.06 172.682 213.815 167.08 213.924 158.354C214.064 147.175 211.307 130.872 206.546 114.74C202.19 100.014 197.027 88.4738 193.673 86.0195C188.037 81.8979 163.29 80.607 161.248 80.5075L142.547 93.6561C142.496 93.6918 142.438 93.715 142.377 93.7238C142.316 93.7326 142.254 93.7267 142.195 93.7066C142.137 93.6866 142.084 93.6529 142.041 93.6084C141.999 93.5639 141.967 93.5099 141.949 93.4508L139.068 83.8701C136.311 84.2776 117.286 87.1425 113.645 89.1364C109.282 91.5191 78.0465 117.648 64.2179 141.32C55.6233 156.037 57.9011 163.207 59.2796 165.608C60.3563 167.475 61.8468 168.336 62.7803 168.336H100.233C100.287 168.337 100.339 168.348 100.388 168.369C100.437 168.391 100.48 168.422 100.517 168.461C100.553 168.5 100.581 168.546 100.598 168.596C100.616 168.647 100.623 168.7 100.619 168.753L99.6701 181.852C99.6623 181.95 99.618 182.041 99.5459 182.108C99.4739 182.175 99.3794 182.212 99.2811 182.213Z"
    fill="#323439" />
  <path
    d="M132.222 182.212C132.171 182.213 132.121 182.203 132.073 182.184C132.026 182.165 131.983 182.136 131.947 182.101C131.911 182.065 131.882 182.022 131.863 181.975C131.843 181.928 131.833 181.878 131.833 181.827C131.428 148.817 134.204 126.489 136.6 113.57C139.205 99.5442 141.949 93.2421 141.974 93.1799C142.017 93.0885 142.095 93.0177 142.189 92.9822C142.284 92.9468 142.389 92.9496 142.481 92.99C142.574 93.0305 142.647 93.1054 142.686 93.1989C142.724 93.2924 142.724 93.3971 142.687 93.4909C142.578 93.7367 131.839 118.824 132.611 181.814C132.611 181.917 132.571 182.017 132.499 182.09C132.426 182.164 132.328 182.207 132.225 182.209L132.222 182.212Z"
    fill="#323439" />
  <path d="M159.761 75.3252L165.017 80.3427L155.342 105.315L142.323 93.3389L159.761 75.3252Z" fill="white" />
  <path d="M138.598 80.8091L139.342 83.4376L142.323 93.3387L125.908 103.962L134.117 84.2432L138.598 80.8091Z"
    fill="white" />
  <path
    d="M155.342 105.704C155.245 105.703 155.152 105.667 155.081 105.601L142.058 93.6251C142.02 93.5897 141.989 93.5469 141.968 93.4993C141.946 93.4518 141.935 93.4004 141.934 93.3482C141.932 93.2966 141.94 93.2452 141.959 93.197C141.978 93.1489 142.006 93.1051 142.042 93.0683L159.468 75.0546C159.542 74.9822 159.641 74.9417 159.744 74.9417C159.847 74.9417 159.946 74.9822 160.019 75.0546L165.272 80.0721C165.328 80.1252 165.367 80.1938 165.384 80.269C165.401 80.3443 165.396 80.4229 165.368 80.4951L155.706 105.455C155.683 105.513 155.646 105.566 155.598 105.607C155.551 105.648 155.494 105.677 155.432 105.691C155.403 105.7 155.373 105.704 155.342 105.704ZM142.895 93.3234L155.202 104.643L164.575 80.4422L159.773 75.8727L142.895 93.3234Z"
    fill="#323439" />
  <path
    d="M125.908 104.35C125.817 104.349 125.729 104.318 125.659 104.26C125.595 104.206 125.551 104.134 125.531 104.054C125.511 103.973 125.518 103.888 125.55 103.812L133.756 84.0935C133.783 84.0297 133.825 83.9739 133.88 83.9317L138.361 80.51C138.411 80.4716 138.47 80.4461 138.533 80.4358C138.595 80.4255 138.659 80.4307 138.719 80.4509C138.779 80.4709 138.833 80.5051 138.877 80.5506C138.921 80.5961 138.953 80.6516 138.971 80.7122L139.718 83.3407L142.693 93.2356C142.718 93.316 142.716 93.4024 142.687 93.4816C142.659 93.5608 142.605 93.6285 142.534 93.6742L126.12 104.297C126.055 104.334 125.982 104.353 125.908 104.35ZM134.434 84.4885L126.748 102.953L141.868 93.1703L138.974 83.5491L138.383 81.465L134.434 84.4885Z"
    fill="#323439" />
  <path
    d="M101.936 169.114C101.874 169.111 101.813 169.094 101.759 169.064C101.705 169.034 101.659 168.991 101.624 168.939C101.525 168.787 99.1816 165.135 99.499 156.105C99.748 149.147 100.744 146.151 101.288 144.991L73.5315 144.148C73.4284 144.144 73.3307 144.1 73.2601 144.025C73.1895 143.95 73.1517 143.85 73.155 143.746C73.1583 143.643 73.2024 143.546 73.2777 143.475C73.353 143.405 73.4532 143.367 73.5564 143.37L101.96 144.232C102.034 144.235 102.105 144.258 102.166 144.3C102.227 144.341 102.275 144.398 102.306 144.465C102.335 144.533 102.344 144.607 102.333 144.68C102.321 144.752 102.289 144.82 102.24 144.876C102.24 144.891 100.604 146.975 100.277 156.133C99.9658 164.874 102.25 168.476 102.275 168.51C102.313 168.569 102.334 168.637 102.336 168.707C102.339 168.777 102.323 168.847 102.289 168.908C102.256 168.97 102.207 169.021 102.147 169.058C102.087 169.094 102.018 169.113 101.948 169.114H101.936Z"
    fill="#323439" />
  <path
    d="M201.636 151.632L171.06 132.89C171.06 132.89 171.408 137.463 167.739 142.984C162.546 150.811 159.104 152.267 159.104 152.267C159.104 152.267 175.681 166.442 178.63 168.731L201.636 151.632Z"
    fill="white" />
  <path
    d="M178.631 169.114C178.544 169.113 178.459 169.084 178.391 169.03C175.469 166.762 159.017 152.699 158.849 152.543C158.8 152.5 158.762 152.444 158.739 152.382C158.716 152.321 158.709 152.254 158.719 152.189C158.727 152.121 158.753 152.057 158.794 152.002C158.835 151.948 158.889 151.905 158.952 151.878C158.983 151.878 162.375 150.322 167.416 142.739C170.957 137.407 170.674 132.931 170.671 132.887C170.666 132.816 170.681 132.744 170.714 132.681C170.747 132.617 170.796 132.564 170.857 132.526C170.918 132.488 170.988 132.468 171.06 132.468C171.131 132.468 171.201 132.488 171.262 132.526L201.838 151.277C201.926 151.331 201.989 151.418 202.013 151.518C202.037 151.619 202.02 151.724 201.966 151.812C201.912 151.9 201.825 151.963 201.724 151.987C201.624 152.011 201.518 151.994 201.43 151.94L171.452 133.556C171.402 135.083 170.951 138.822 168.066 143.168C163.962 149.355 160.956 151.616 159.786 152.332C162.409 154.575 176.225 166.367 178.87 168.417C178.935 168.467 178.982 168.535 179.005 168.613C179.029 168.691 179.027 168.774 179.001 168.851C178.974 168.928 178.924 168.995 178.858 169.042C178.791 169.089 178.712 169.114 178.631 169.114Z"
    fill="#323439" />
  <path
    d="M179.331 138.343C179.231 138.344 179.135 138.305 179.062 138.236C178.99 138.167 178.947 138.073 178.942 137.973L178.142 119.645C178.138 119.542 178.175 119.442 178.245 119.366C178.315 119.29 178.412 119.245 178.516 119.241C178.619 119.237 178.719 119.274 178.795 119.344C178.871 119.414 178.916 119.511 178.92 119.614L179.72 137.939C179.722 137.99 179.714 138.041 179.696 138.089C179.679 138.137 179.652 138.181 179.617 138.219C179.582 138.256 179.541 138.287 179.494 138.308C179.448 138.329 179.397 138.341 179.346 138.343H179.331Z"
    fill="#323439" />
  <path
    d="M165.073 157.738C164.993 157.739 164.914 157.715 164.848 157.669C164.781 157.623 164.731 157.558 164.704 157.482C164.677 157.406 164.674 157.324 164.696 157.247C164.718 157.169 164.764 157.101 164.827 157.051C164.877 157.01 169.806 152.96 173.179 147.887C175.409 144.58 176.737 140.749 177.031 136.772C177.031 136.669 177.072 136.57 177.145 136.497C177.218 136.425 177.317 136.384 177.42 136.384C177.524 136.384 177.623 136.425 177.695 136.497C177.768 136.57 177.809 136.669 177.809 136.772C177.809 137.003 177.688 142.521 173.839 148.303C170.394 153.48 165.381 157.598 165.328 157.635C165.259 157.7 165.168 157.737 165.073 157.738Z"
    fill="#323439" />
  <path
    d="M93.6367 169.114C93.5517 169.114 93.4692 169.085 93.4018 169.034C93.3344 168.982 93.2857 168.91 93.2633 168.828C92.2405 164.669 91.7758 160.393 91.8817 156.111C92.0528 148.885 93.9977 144.422 94.0817 144.235C94.125 144.144 94.2021 144.073 94.2968 144.037C94.3915 144.002 94.4962 144.005 94.5889 144.045C94.6815 144.086 94.7548 144.161 94.7931 144.254C94.8314 144.348 94.8319 144.452 94.7943 144.546C94.7725 144.59 92.8245 149.063 92.6596 156.124C92.5557 160.328 93.0109 164.528 94.0132 168.613C94.0401 168.712 94.0267 168.818 93.9761 168.908C93.9254 168.998 93.8415 169.064 93.7425 169.092C93.7084 169.104 93.6728 169.112 93.6367 169.114Z"
    fill="#323439" />
  <path
    d="M97.4021 148.636C97.0855 148.637 96.7758 148.543 96.5123 148.368C96.2488 148.193 96.0433 147.943 95.9219 147.651C95.8005 147.358 95.7685 147.037 95.8301 146.726C95.8918 146.416 96.0442 146.131 96.268 145.907C96.4919 145.683 96.7772 145.531 97.0877 145.469C97.3983 145.407 97.7201 145.439 98.0125 145.561C98.3049 145.682 98.5547 145.888 98.7302 146.151C98.9057 146.414 98.9991 146.724 98.9984 147.04C98.9976 147.463 98.8292 147.869 98.53 148.168C98.2308 148.467 97.8252 148.635 97.4021 148.636ZM97.4021 146.219C97.2395 146.219 97.0804 146.266 96.9449 146.356C96.8094 146.446 96.7036 146.574 96.6409 146.724C96.5783 146.874 96.5616 147.039 96.5929 147.199C96.6242 147.358 96.7022 147.505 96.817 147.62C96.9318 147.735 97.0781 147.814 97.2376 147.846C97.397 147.878 97.5624 147.862 97.7127 147.799C97.8629 147.737 97.9914 147.632 98.0818 147.497C98.1722 147.362 98.2205 147.203 98.2205 147.04C98.2205 146.823 98.1344 146.615 97.981 146.461C97.8276 146.307 97.6194 146.22 97.4021 146.219Z"
    fill="#323439" />
  <path
    d="M100.992 144.782H100.952C100.85 144.771 100.756 144.721 100.69 144.641C100.625 144.561 100.594 144.459 100.604 144.356L102.103 128.959C102.104 128.905 102.116 128.852 102.138 128.803C102.161 128.754 102.193 128.71 102.233 128.675C102.273 128.639 102.32 128.612 102.371 128.595C102.422 128.578 102.476 128.572 102.53 128.577C102.583 128.582 102.635 128.599 102.682 128.625C102.729 128.651 102.77 128.687 102.802 128.73C102.835 128.772 102.858 128.822 102.871 128.874C102.883 128.926 102.885 128.98 102.875 129.033L101.378 144.431C101.369 144.527 101.324 144.616 101.253 144.681C101.182 144.746 101.089 144.782 100.992 144.782Z"
    fill="#323439" />
  <path d="M52.9197 40.5731L87.0338 37.251L74.4281 44.1815L87.7775 58.2509L52.9197 40.5731Z" fill="#0684BC" />
  <path
    d="M87.7769 58.6397C87.7164 58.64 87.6567 58.6262 87.6026 58.5993L52.7511 40.9184C52.6759 40.8808 52.615 40.8198 52.5774 40.7447C52.5399 40.6695 52.5276 40.5843 52.5426 40.5016C52.5599 40.4199 52.6026 40.3458 52.6647 40.2899C52.7267 40.234 52.8049 40.1992 52.888 40.1905L87.0021 36.8684C87.091 36.8608 87.1799 36.8838 87.2541 36.9335C87.3282 36.9833 87.3831 37.0569 87.4097 37.1421C87.4371 37.2273 87.4337 37.3194 87.4001 37.4024C87.3666 37.4854 87.305 37.554 87.2261 37.5963L75.0623 44.2841L88.0663 57.9896C88.1187 58.0448 88.1537 58.1142 88.167 58.1891C88.1803 58.264 88.1713 58.3412 88.1412 58.4111C88.111 58.481 88.061 58.5404 87.9974 58.5822C87.9337 58.6239 87.8592 58.6461 87.7831 58.6459L87.7769 58.6397ZM54.2883 40.8313L85.9472 56.8884L74.1443 44.4459C74.1007 44.4026 74.0679 44.3497 74.0487 44.2913C74.0295 44.233 74.0244 44.1709 74.0338 44.1102C74.0432 44.0495 74.0669 43.9919 74.1029 43.9421C74.1388 43.8923 74.1861 43.8518 74.2408 43.8238L85.1879 37.8047L54.2883 40.8313Z"
    fill="#323439" />
  <path
    d="M74.4273 44.5701H74.362L52.8722 40.9555C52.7723 40.9359 52.684 40.8781 52.6259 40.7945C52.5679 40.7109 52.5446 40.608 52.5611 40.5076C52.5793 40.407 52.6367 40.3177 52.7207 40.2593C52.8047 40.201 52.9085 40.1784 53.0092 40.1965L74.5176 43.8018C74.618 43.8133 74.71 43.8635 74.774 43.9417C74.8381 44.0199 74.8692 44.12 74.8607 44.2207C74.8522 44.3214 74.8048 44.4149 74.7285 44.4813C74.6523 44.5476 74.5532 44.5817 74.4522 44.5763L74.4273 44.5701Z"
    fill="#323439" />
  <path
    d="M124.726 137.404H124.711C124.659 137.402 124.609 137.39 124.563 137.368C124.516 137.347 124.475 137.317 124.44 137.279C124.405 137.241 124.378 137.197 124.361 137.149C124.343 137.102 124.335 137.051 124.337 136.999C125.632 100.605 118.568 74.1646 103.348 58.4466C90.0924 44.7598 75.2276 44.6136 75.0315 44.6136C74.9284 44.6136 74.8295 44.5726 74.7565 44.4997C74.6836 44.4268 74.6426 44.3279 74.6426 44.2248C74.6426 44.1216 74.6836 44.0227 74.7565 43.9498C74.8295 43.8769 74.9284 43.8359 75.0315 43.8359C75.1809 43.8359 90.3818 43.9448 103.893 57.8867C110.723 64.9385 116.004 74.3202 119.582 85.7735C123.964 99.7931 125.825 117.026 125.115 137.027C125.111 137.128 125.068 137.223 124.996 137.294C124.924 137.364 124.827 137.403 124.726 137.404Z"
    fill="#323439" />
  <path
    d="M118.374 128.224C118.374 128.224 115.191 123.708 111.737 124.694C108.808 127.495 104.899 129.039 100.846 128.996C92.7087 128.996 86.1086 123.086 86.1086 115.832C86.1086 108.578 92.7087 102.667 100.846 102.667C108.983 102.667 115.577 108.562 115.577 115.832C115.574 115.832 118.297 122.118 118.374 128.224Z"
    fill="white" />
  <path
    d="M100.84 129.384C92.5035 129.384 85.7168 123.303 85.7168 115.831C85.7168 108.36 92.5035 102.278 100.84 102.278C109.176 102.278 115.913 108.316 115.963 115.75C116.274 116.513 118.692 122.392 118.764 128.218C118.765 128.301 118.739 128.382 118.691 128.45C118.643 128.517 118.574 128.567 118.495 128.593C118.416 128.619 118.331 128.619 118.252 128.592C118.174 128.566 118.105 128.516 118.057 128.448C118.026 128.405 115.048 124.249 111.933 125.026C108.934 127.851 104.961 129.412 100.84 129.384ZM100.84 103.056C92.9298 103.056 86.4947 108.789 86.4947 115.831C86.4947 122.874 92.9298 128.607 100.84 128.607C104.885 128.607 108.75 127.079 111.463 124.414C111.515 124.363 111.58 124.329 111.65 124.314C114.317 123.567 116.753 125.748 117.939 127.073C117.578 121.496 115.241 116.043 115.216 115.987C115.197 115.937 115.186 115.885 115.185 115.831C115.185 108.789 108.75 103.056 100.84 103.056Z"
    fill="#323439" />
  <path
    d="M99.6015 122.336L93.5149 114.656L95.3788 113.178L99.5081 118.386L106.018 109.327L107.95 110.718L99.6015 122.336Z"
    fill="#FF7A00" />
  <path
    d="M99.6018 122.725C99.5419 122.725 99.4827 122.712 99.4287 122.686C99.3747 122.66 99.3275 122.622 99.2906 122.575L93.204 114.898C93.172 114.858 93.1483 114.812 93.1341 114.763C93.1199 114.714 93.1156 114.662 93.1214 114.612C93.1272 114.561 93.1429 114.512 93.1678 114.467C93.1927 114.422 93.2261 114.383 93.2662 114.351L95.1333 112.873C95.173 112.841 95.2187 112.818 95.2677 112.804C95.3166 112.789 95.3679 112.785 95.4185 112.791C95.4692 112.797 95.5182 112.812 95.5627 112.837C95.6072 112.862 95.6463 112.895 95.6779 112.935L99.4866 117.738L105.695 109.103C105.724 109.061 105.761 109.026 105.805 108.999C105.848 108.971 105.896 108.953 105.947 108.945C106.049 108.929 106.154 108.953 106.239 109.013L108.172 110.4C108.213 110.43 108.248 110.468 108.275 110.512C108.302 110.555 108.32 110.604 108.328 110.654C108.336 110.705 108.334 110.757 108.322 110.806C108.31 110.856 108.289 110.903 108.259 110.945L99.9098 122.56C99.875 122.61 99.8284 122.651 99.7742 122.679C99.72 122.707 99.6598 122.722 99.5987 122.722L99.6018 122.725ZM94.0597 114.718L99.5862 121.692L107.409 110.805L106.105 109.871L99.8227 118.612C99.7869 118.661 99.74 118.701 99.686 118.728C99.6319 118.756 99.5721 118.77 99.5115 118.77C99.4509 118.77 99.3912 118.756 99.3371 118.728C99.283 118.701 99.2362 118.661 99.2004 118.612L95.3169 113.722L94.0597 114.718Z"
    fill="#323439" />
  <path d="M104.393 168.725H5.34351V174.346H104.393V168.725Z" fill="white" />
  <path
    d="M104.394 174.734H5.34374C5.2924 174.735 5.24148 174.725 5.19393 174.705C5.14638 174.686 5.10313 174.657 5.06668 174.621C5.03023 174.585 5.00131 174.542 4.98156 174.495C4.96182 174.447 4.95166 174.397 4.95166 174.345V168.724C4.9557 168.623 4.99888 168.528 5.07206 168.458C5.14525 168.389 5.24268 168.35 5.34374 168.351H104.394C104.497 168.351 104.596 168.392 104.669 168.465C104.742 168.538 104.783 168.637 104.783 168.74V174.361C104.779 174.461 104.736 174.556 104.663 174.626C104.591 174.695 104.494 174.734 104.394 174.734ZM5.73271 173.95H104.005V169.113H5.73271V173.95Z"
    fill="#323439" />
  <path
    d="M41.2378 160.777C40.923 160.776 40.6216 160.65 40.399 160.428C40.1765 160.205 40.0507 159.904 40.0491 159.589V151.405C40.0493 151.199 40.1031 150.997 40.2051 150.818C40.3071 150.639 40.4539 150.49 40.631 150.385C41.0262 150.148 44.5767 148.12 47.1314 149.206C47.8907 149.517 48.8771 150.26 49.2723 151.928C50.489 157.054 42.5789 160.326 41.6734 160.693C41.5348 160.749 41.387 160.777 41.2378 160.777ZM42.4264 152.121V157.72C44.5829 156.569 47.4488 154.531 46.9603 152.478C46.7798 151.716 46.4437 151.492 46.2041 151.393C45.2581 150.988 43.5373 151.592 42.4264 152.121Z"
    fill="#FF7A00" />
  <path
    d="M41.2381 161.166C40.8199 161.165 40.4191 160.999 40.1234 160.703C39.8277 160.408 39.6612 160.007 39.6604 159.589V151.405C39.6612 151.132 39.7327 150.863 39.8679 150.625C40.0031 150.388 40.1975 150.189 40.4321 150.049C40.846 149.806 44.5552 147.688 47.278 148.845C48.1181 149.203 49.2135 150.011 49.646 151.837C50.9374 157.284 42.7473 160.684 41.8106 161.054C41.6285 161.127 41.4343 161.165 41.2381 161.166ZM45.4327 149.274C43.3447 149.274 41.1323 150.54 40.8304 150.717C40.7112 150.788 40.6124 150.889 40.5437 151.01C40.475 151.13 40.4387 151.266 40.4383 151.405V159.589C40.4384 159.719 40.4702 159.847 40.5309 159.962C40.5917 160.077 40.6795 160.175 40.7869 160.248C40.895 160.321 41.019 160.367 41.1485 160.381C41.2779 160.396 41.4089 160.379 41.5306 160.332C42.405 159.987 50.035 156.824 48.8961 152.018C48.5382 150.509 47.6514 149.84 46.9792 149.563C46.4889 149.363 45.9625 149.264 45.4327 149.274ZM42.4267 158.108C42.3555 158.109 42.2855 158.089 42.2245 158.052C42.1678 158.017 42.1209 157.968 42.0883 157.91C42.0556 157.852 42.0382 157.786 42.0378 157.72V152.12C42.0377 152.047 42.0581 151.976 42.0965 151.914C42.135 151.851 42.1901 151.801 42.2556 151.769C42.8966 151.458 45.0873 150.494 46.3569 151.035C46.8516 151.246 47.1753 151.688 47.3402 152.388C47.919 154.824 44.6236 156.988 42.6072 158.062C42.552 158.092 42.4899 158.108 42.4267 158.108ZM42.8157 152.366V157.057C44.2876 156.202 47.0072 154.351 46.584 152.565C46.4284 151.909 46.164 151.797 46.0519 151.75C45.33 151.442 43.9079 151.865 42.8157 152.366Z"
    fill="#323439" />
  <path
    d="M17.2773 166.407H49.9786V167.207C49.9786 167.609 49.8186 167.995 49.5339 168.28C49.2491 168.565 48.8628 168.725 48.4601 168.725H18.7927C18.39 168.725 18.0037 168.565 17.7189 168.28C17.4342 167.995 17.2742 167.609 17.2742 167.207V166.407H17.2773Z"
    fill="#FF7A00" />
  <path
    d="M48.4604 169.114H18.7931C18.2877 169.113 17.8033 168.912 17.4463 168.554C17.0892 168.197 16.8887 167.712 16.8887 167.207V166.407C16.8887 166.304 16.9297 166.205 17.0026 166.132C17.0755 166.06 17.1745 166.019 17.2776 166.019H49.979C50.0821 166.019 50.1811 166.06 50.254 166.132C50.327 166.205 50.3679 166.304 50.3679 166.407V167.207C50.3671 167.712 50.1659 168.197 49.8083 168.554C49.4508 168.912 48.9661 169.113 48.4604 169.114ZM17.6542 166.796V167.207C17.6542 167.506 17.7727 167.792 17.9839 168.004C18.1951 168.216 18.4816 168.335 18.7806 168.336H48.448C48.7473 168.335 49.0342 168.216 49.2458 168.004C49.4575 167.793 49.5767 167.506 49.5776 167.207V166.796H17.6542Z"
    fill="#323439" />
  <path
    d="M24.8264 145.831H42.4264V157.891C42.4264 160.149 41.5288 162.316 39.931 163.913C38.3332 165.51 36.1661 166.407 33.9065 166.407H33.3464C31.0867 166.407 28.9197 165.51 27.3219 163.913C25.7241 162.316 24.8264 160.149 24.8264 157.891V145.831Z"
    fill="#FF7A00" />
  <path
    d="M33.9065 166.796H33.3464C30.9844 166.794 28.7198 165.855 27.0496 164.185C25.3794 162.516 24.44 160.252 24.4375 157.891V145.831C24.4375 145.728 24.4785 145.629 24.5514 145.556C24.6244 145.483 24.7233 145.442 24.8265 145.442H42.4265C42.5297 145.442 42.6286 145.483 42.7016 145.556C42.7745 145.629 42.8155 145.728 42.8155 145.831V157.891C42.813 160.252 41.8736 162.516 40.2034 164.185C38.5332 165.855 36.2686 166.794 33.9065 166.796ZM25.2154 146.22V157.891C25.2179 160.046 26.0754 162.112 27.5997 163.635C29.124 165.159 31.1907 166.016 33.3464 166.019H33.9065C36.0623 166.016 38.129 165.159 39.6533 163.635C41.1776 162.112 42.0351 160.046 42.0375 157.891V146.22H25.2154Z"
    fill="#323439" />
  <path
    d="M32.5157 136.15C32.4722 136.15 32.4291 136.142 32.3881 136.128C32.2908 136.094 32.2109 136.023 32.1659 135.93C32.121 135.837 32.1148 135.731 32.1485 135.633C34.4637 128.977 32.8611 126.976 31.3146 125.057C30.4744 124.009 29.6031 122.926 29.4942 121.172C29.3417 118.715 30.5086 117.315 31.6382 115.962C32.7678 114.609 33.9409 113.203 33.9627 110.596C33.9627 109.146 33.4088 108.107 32.7584 106.922C31.8996 105.367 30.9287 103.575 30.9194 100.39C30.9194 100.287 30.9604 100.188 31.0333 100.115C31.1063 100.042 31.2052 100.001 31.3084 100.001C31.4115 100.001 31.5104 100.042 31.5834 100.115C31.6563 100.188 31.6973 100.287 31.6973 100.39C31.6973 103.388 32.6308 105.074 33.4399 106.561C34.1151 107.806 34.7531 108.963 34.7406 110.605C34.7188 113.492 33.3994 115.069 32.2512 116.462C31.103 117.856 30.1539 118.979 30.2877 121.128C30.3811 122.634 31.103 123.533 31.9369 124.575C33.5395 126.575 35.3598 128.84 32.8985 135.904C32.8689 135.98 32.8159 136.045 32.7472 136.089C32.6784 136.133 32.5973 136.155 32.5157 136.15Z"
    fill="#323439" />
  <path
    d="M32.9856 144.148C32.9347 144.146 32.8845 144.135 32.8379 144.114C32.7913 144.094 32.7493 144.064 32.7143 144.027C32.6793 143.99 32.652 143.946 32.6339 143.899C32.6159 143.851 32.6074 143.8 32.6091 143.749C32.6869 141.155 34.3143 138.303 35.8858 135.547C37.3265 133.021 38.6863 130.635 38.7548 128.681C38.8201 126.784 37.9022 125.54 36.9282 124.221C35.8049 122.693 34.6442 121.11 34.806 118.454C34.8057 118.4 34.8163 118.348 34.8372 118.299C34.8581 118.25 34.8888 118.206 34.9274 118.169C34.9661 118.132 35.0119 118.104 35.0619 118.086C35.1119 118.068 35.1652 118.06 35.2183 118.063C35.2715 118.066 35.3234 118.08 35.3709 118.105C35.4184 118.129 35.4604 118.162 35.4944 118.203C35.5284 118.244 35.5536 118.292 35.5685 118.343C35.5833 118.394 35.5875 118.448 35.5808 118.5C35.4377 120.883 36.4677 122.28 37.5568 123.757C38.565 125.126 39.6074 126.557 39.5327 128.709C39.458 130.862 38.0515 133.319 36.561 135.932C35.0363 138.608 33.4493 141.373 33.387 143.771C33.3854 143.822 33.3738 143.872 33.3527 143.919C33.3317 143.966 33.3016 144.008 33.2644 144.043C33.2271 144.077 33.1833 144.105 33.1354 144.123C33.0876 144.141 33.0367 144.149 32.9856 144.148Z"
    fill="#323439" />
  <path
    d="M132.686 122.258C132.686 122.258 136.663 117.172 140.979 118.283C144.343 121.259 149.194 123.126 154.587 123.126C164.753 123.126 172.996 116.491 172.996 108.304C172.996 100.116 164.753 93.4814 154.587 93.4814C144.42 93.4814 136.187 100.116 136.187 108.316C136.187 108.316 132.782 115.383 132.686 122.258Z"
    fill="white" />
  <path
    d="M154.589 123.515C149.365 123.515 144.342 121.739 140.798 118.637C136.806 117.704 133.019 122.451 132.994 122.498C132.944 122.562 132.875 122.61 132.797 122.633C132.718 122.656 132.635 122.654 132.558 122.627C132.481 122.601 132.414 122.55 132.367 122.483C132.32 122.417 132.296 122.337 132.297 122.255C132.387 115.766 135.408 109.029 135.797 108.217C135.853 99.8677 144.264 93.0928 154.589 93.0928C164.914 93.0928 173.387 99.9175 173.387 108.316C173.387 116.715 164.954 123.515 154.589 123.515ZM141.066 117.916C141.13 117.93 141.19 117.96 141.24 118.003C144.663 121.02 149.517 122.75 154.589 122.75C164.525 122.75 172.609 116.276 172.609 108.316C172.609 100.356 164.519 93.8829 154.589 93.8829C144.66 93.8829 136.578 100.344 136.578 108.316C136.578 108.375 136.564 108.432 136.538 108.484C136.507 108.55 133.52 114.836 133.115 121.197C134.5 119.738 137.64 117.026 141.066 117.903V117.916Z"
    fill="#323439" />
  <path
    d="M164.382 109.803C164.085 109.803 163.795 109.715 163.549 109.55C163.302 109.385 163.11 109.151 162.996 108.877C162.883 108.603 162.853 108.302 162.911 108.011C162.969 107.72 163.112 107.453 163.321 107.243C163.531 107.034 163.798 106.891 164.089 106.833C164.38 106.775 164.682 106.805 164.956 106.918C165.23 107.032 165.464 107.224 165.629 107.471C165.794 107.717 165.882 108.007 165.882 108.304C165.881 108.701 165.723 109.082 165.442 109.363C165.16 109.644 164.779 109.802 164.382 109.803ZM164.382 107.582C164.239 107.582 164.1 107.624 163.981 107.703C163.862 107.783 163.77 107.896 163.715 108.027C163.66 108.159 163.646 108.304 163.674 108.444C163.702 108.584 163.771 108.713 163.871 108.814C163.972 108.915 164.101 108.983 164.241 109.011C164.381 109.039 164.526 109.025 164.658 108.97C164.79 108.916 164.903 108.823 164.982 108.704C165.062 108.586 165.104 108.446 165.104 108.304C165.103 108.112 165.027 107.929 164.892 107.794C164.756 107.659 164.573 107.583 164.382 107.582Z"
    fill="#323439" />
  <path
    d="M154.708 109.803C154.411 109.803 154.121 109.715 153.874 109.55C153.628 109.385 153.435 109.151 153.322 108.877C153.208 108.603 153.179 108.302 153.237 108.011C153.294 107.72 153.437 107.453 153.647 107.243C153.857 107.034 154.124 106.891 154.415 106.833C154.706 106.775 155.008 106.805 155.282 106.918C155.556 107.032 155.79 107.224 155.955 107.471C156.12 107.717 156.207 108.007 156.207 108.304C156.207 108.5 156.169 108.695 156.093 108.877C156.018 109.059 155.907 109.224 155.768 109.364C155.629 109.503 155.464 109.613 155.282 109.689C155.1 109.764 154.905 109.803 154.708 109.803ZM154.708 107.582C154.565 107.582 154.425 107.624 154.307 107.703C154.188 107.783 154.095 107.896 154.041 108.027C153.986 108.159 153.972 108.304 154 108.444C154.027 108.584 154.096 108.713 154.197 108.814C154.298 108.915 154.427 108.983 154.567 109.011C154.707 109.039 154.852 109.025 154.984 108.97C155.116 108.916 155.229 108.823 155.308 108.704C155.387 108.586 155.43 108.446 155.43 108.304C155.43 108.112 155.354 107.929 155.218 107.793C155.083 107.658 154.899 107.582 154.708 107.582Z"
    fill="#323439" />
  <path
    d="M145.033 109.803C144.736 109.802 144.446 109.713 144.199 109.548C143.953 109.382 143.761 109.147 143.648 108.872C143.536 108.597 143.507 108.295 143.567 108.004C143.626 107.714 143.77 107.447 143.981 107.238C144.192 107.029 144.461 106.887 144.752 106.831C145.044 106.775 145.346 106.807 145.62 106.922C145.893 107.038 146.126 107.232 146.29 107.48C146.453 107.728 146.539 108.019 146.536 108.316C146.533 108.712 146.373 109.091 146.091 109.369C145.81 109.648 145.429 109.804 145.033 109.803ZM145.033 107.582C144.89 107.582 144.751 107.624 144.632 107.703C144.513 107.783 144.421 107.895 144.366 108.027C144.311 108.159 144.297 108.304 144.325 108.444C144.353 108.584 144.422 108.713 144.523 108.814C144.624 108.915 144.752 108.983 144.892 109.011C145.032 109.039 145.177 109.025 145.309 108.97C145.441 108.916 145.554 108.823 145.633 108.704C145.713 108.586 145.755 108.446 145.755 108.304C145.755 108.112 145.679 107.929 145.544 107.793C145.408 107.658 145.225 107.582 145.033 107.582Z"
    fill="#323439" />
  <path
    d="M170.942 134.893C170.406 137.338 169.734 140.206 167.32 143.603C165.599 146.059 163.666 148.359 161.544 150.478L159.204 149.181L148.988 143.519C149.299 145.662 146.605 146.238 142.615 144.651C138.626 143.065 139.224 140.511 139.224 140.511C136.252 140.381 136.625 137.82 136.625 137.82C136.625 137.82 128.771 143.174 128.647 139.6C128.522 136.026 143.941 126.432 149.312 125.717C154.219 125.067 163.084 129.916 169.227 133.786C170.002 134.287 170.266 134.445 170.942 134.893Z"
    fill="white" />
  <path
    d="M161.544 150.882C161.478 150.881 161.413 150.864 161.354 150.833L159.017 149.536L158.98 149.514L149.374 144.195C149.307 144.665 149.058 145.089 148.68 145.377C147.557 146.26 145.235 146.129 142.472 145.028C139.155 143.706 138.782 141.756 138.797 140.882C138.038 140.825 137.332 140.475 136.827 139.905C136.513 139.515 136.314 139.046 136.252 138.549C134.696 139.547 130.722 141.893 129.051 141.037C128.706 140.863 128.289 140.474 128.258 139.622C128.121 135.612 144.068 126.028 149.262 125.338C154.241 124.678 162.972 129.382 169.435 133.463L169.628 133.584C170.251 133.976 170.537 134.153 171.153 134.561C171.214 134.601 171.263 134.657 171.294 134.723C171.325 134.789 171.336 134.862 171.327 134.934C170.979 137.734 169.809 140.533 167.646 143.824C165.953 146.336 163.998 148.661 161.815 150.761C161.744 150.835 161.647 150.878 161.544 150.882ZM159.428 148.876L161.472 149.999C163.533 147.993 165.382 145.78 166.99 143.395C169.022 140.316 170.148 137.662 170.515 135.074C170.042 134.763 169.772 134.592 169.208 134.241L169.015 134.119C160.032 128.461 153.052 125.615 149.358 126.106C144.068 126.809 128.917 136.328 129.029 139.591C129.048 140.107 129.247 140.266 129.397 140.341C130.582 140.941 134.322 138.919 136.401 137.504C136.463 137.461 136.537 137.438 136.612 137.436C136.687 137.435 136.762 137.455 136.826 137.495C136.89 137.535 136.941 137.593 136.972 137.661C137.004 137.729 137.015 137.805 137.005 137.88C136.95 138.422 137.1 138.964 137.425 139.401C137.795 139.846 138.405 140.089 139.236 140.126C139.293 140.129 139.349 140.144 139.4 140.171C139.45 140.198 139.494 140.236 139.528 140.281C139.563 140.328 139.587 140.381 139.598 140.437C139.61 140.494 139.608 140.552 139.594 140.608C139.575 140.695 139.124 142.848 142.752 144.294C145.699 145.467 147.495 145.299 148.195 144.751C148.366 144.613 148.495 144.43 148.567 144.222C148.638 144.014 148.65 143.79 148.599 143.576C148.59 143.504 148.6 143.432 148.63 143.366C148.659 143.301 148.706 143.244 148.765 143.204C148.824 143.163 148.894 143.14 148.966 143.136C149.037 143.133 149.109 143.149 149.172 143.184L159.388 148.842L159.428 148.876Z"
    fill="#323439" />
  <path
    d="M136.625 138.228H136.569C136.467 138.213 136.375 138.159 136.314 138.077C136.252 137.995 136.225 137.891 136.239 137.79C136.672 134.819 144.047 131.879 144.887 131.55C144.983 131.512 145.09 131.514 145.185 131.556C145.279 131.597 145.353 131.674 145.391 131.77C145.429 131.867 145.426 131.974 145.385 132.068C145.343 132.163 145.266 132.237 145.17 132.274C142.992 133.114 137.319 135.761 137.011 137.902C136.996 137.993 136.948 138.076 136.878 138.135C136.807 138.195 136.718 138.228 136.625 138.228Z"
    fill="#323439" />
  <path
    d="M139.224 140.916H139.183C139.081 140.905 138.987 140.854 138.922 140.774C138.856 140.694 138.825 140.592 138.835 140.489C139.121 137.581 146.185 135.528 146.483 135.444C146.533 135.427 146.586 135.42 146.638 135.425C146.691 135.429 146.742 135.443 146.789 135.468C146.835 135.492 146.876 135.526 146.91 135.566C146.943 135.607 146.968 135.654 146.982 135.705C146.997 135.755 147.001 135.808 146.994 135.86C146.988 135.913 146.971 135.963 146.944 136.008C146.918 136.054 146.882 136.093 146.84 136.125C146.798 136.156 146.749 136.178 146.698 136.191C144.05 136.949 139.784 138.807 139.61 140.564C139.6 140.66 139.556 140.749 139.484 140.814C139.413 140.879 139.32 140.915 139.224 140.916Z"
    fill="#323439" />
  <path
    d="M148.988 143.924C148.922 143.924 148.858 143.907 148.801 143.874L145.291 141.93C145.201 141.88 145.134 141.796 145.105 141.697C145.077 141.598 145.089 141.491 145.139 141.401C145.189 141.311 145.272 141.244 145.372 141.215C145.471 141.187 145.577 141.199 145.668 141.249L149.187 143.196C149.262 143.238 149.321 143.304 149.355 143.383C149.388 143.462 149.395 143.55 149.373 143.633C149.351 143.716 149.303 143.79 149.235 143.843C149.167 143.895 149.083 143.924 148.997 143.924H148.988Z"
    fill="#323439" />
  <path
    d="M132.956 137.015H116.691C115.612 137.015 114.737 137.889 114.737 138.968V170.706C114.737 171.785 115.612 172.659 116.691 172.659H132.956C134.036 172.659 134.911 171.785 134.911 170.706V138.968C134.911 137.889 134.036 137.015 132.956 137.015Z"
    fill="#0684BC" />
  <path
    d="M132.956 173.049H116.691C116.069 173.048 115.473 172.8 115.034 172.36C114.595 171.921 114.348 171.325 114.348 170.703V138.975C114.349 138.354 114.596 137.758 115.035 137.319C115.474 136.88 116.07 136.633 116.691 136.632H132.956C133.577 136.633 134.173 136.88 134.612 137.319C135.051 137.758 135.298 138.354 135.299 138.975V170.703C135.299 171.325 135.053 171.921 134.613 172.36C134.174 172.8 133.578 173.048 132.956 173.049ZM116.691 137.404C116.278 137.404 115.883 137.568 115.591 137.859C115.299 138.151 115.135 138.547 115.135 138.959V170.688C115.135 171.1 115.299 171.496 115.591 171.787C115.883 172.079 116.278 172.243 116.691 172.243H132.956C133.369 172.243 133.765 172.079 134.056 171.787C134.348 171.496 134.512 171.1 134.512 170.688V138.959C134.512 138.547 134.348 138.151 134.056 137.859C133.765 137.568 133.369 137.404 132.956 137.404H116.691Z"
    fill="#323439" />
  <path
    d="M123.198 147.134H118.904C118.371 147.133 117.86 146.921 117.484 146.544C117.108 146.168 116.896 145.657 116.896 145.124V140.835C116.896 140.302 117.108 139.792 117.484 139.415C117.86 139.038 118.371 138.826 118.904 138.825H123.198C123.73 138.826 124.241 139.038 124.617 139.415C124.993 139.792 125.205 140.302 125.205 140.835V145.124C125.205 145.657 124.993 146.168 124.617 146.544C124.241 146.921 123.73 147.133 123.198 147.134ZM118.904 139.603C118.573 139.603 118.257 139.734 118.023 139.968C117.79 140.201 117.659 140.517 117.659 140.847V145.137C117.659 145.467 117.79 145.783 118.023 146.017C118.257 146.25 118.573 146.381 118.904 146.381H123.198C123.528 146.381 123.844 146.25 124.078 146.017C124.311 145.783 124.442 145.467 124.442 145.137V140.835C124.442 140.505 124.311 140.188 124.078 139.955C123.844 139.722 123.528 139.591 123.198 139.591L118.904 139.603Z"
    fill="#323439" />
  <path
    d="M119.592 142.975C119.317 142.975 119.049 142.894 118.82 142.741C118.592 142.589 118.414 142.372 118.309 142.118C118.204 141.864 118.177 141.585 118.231 141.316C118.285 141.047 118.417 140.8 118.611 140.606C118.806 140.412 119.053 140.28 119.323 140.227C119.592 140.174 119.871 140.201 120.125 140.307C120.379 140.412 120.595 140.591 120.747 140.819C120.899 141.048 120.98 141.316 120.98 141.591C120.98 141.773 120.944 141.953 120.874 142.121C120.804 142.289 120.702 142.442 120.573 142.571C120.444 142.699 120.291 142.801 120.123 142.871C119.954 142.94 119.774 142.976 119.592 142.975ZM119.592 140.981C119.469 140.981 119.348 141.018 119.246 141.086C119.144 141.154 119.064 141.252 119.017 141.365C118.97 141.479 118.957 141.604 118.981 141.725C119.005 141.845 119.065 141.956 119.152 142.043C119.239 142.13 119.35 142.19 119.47 142.214C119.591 142.238 119.716 142.225 119.83 142.178C119.944 142.131 120.041 142.051 120.109 141.949C120.178 141.847 120.214 141.726 120.214 141.603C120.214 141.521 120.199 141.44 120.168 141.364C120.136 141.288 120.091 141.22 120.033 141.161C119.975 141.103 119.906 141.057 119.831 141.026C119.755 140.994 119.674 140.978 119.592 140.978V140.981Z"
    fill="#323439" />
  <path
    d="M119.592 146.008C119.317 146.008 119.049 145.926 118.821 145.774C118.592 145.622 118.415 145.405 118.309 145.151C118.204 144.898 118.177 144.619 118.231 144.35C118.284 144.081 118.416 143.834 118.61 143.639C118.804 143.445 119.052 143.313 119.321 143.26C119.59 143.206 119.869 143.234 120.123 143.339C120.376 143.444 120.593 143.622 120.746 143.85C120.898 144.078 120.98 144.346 120.98 144.621C120.98 144.988 120.833 145.341 120.573 145.602C120.313 145.862 119.96 146.008 119.592 146.008ZM119.592 144.011C119.469 144.011 119.348 144.047 119.246 144.116C119.144 144.184 119.064 144.281 119.017 144.395C118.97 144.509 118.957 144.634 118.981 144.754C119.005 144.875 119.065 144.986 119.152 145.073C119.239 145.16 119.35 145.219 119.47 145.243C119.591 145.267 119.716 145.255 119.83 145.208C119.944 145.161 120.041 145.081 120.109 144.979C120.178 144.876 120.214 144.756 120.214 144.633C120.214 144.468 120.148 144.31 120.032 144.193C119.915 144.076 119.757 144.011 119.592 144.011Z"
    fill="#323439" />
  <path
    d="M122.728 142.975C122.454 142.972 122.187 142.888 121.96 142.733C121.734 142.578 121.558 142.359 121.456 142.105C121.354 141.851 121.329 141.571 121.386 141.303C121.442 141.035 121.576 140.789 121.772 140.597C121.968 140.405 122.217 140.275 122.486 140.225C122.756 140.174 123.035 140.204 123.287 140.311C123.54 140.418 123.754 140.598 123.905 140.828C124.055 141.057 124.134 141.326 124.132 141.6C124.13 141.783 124.093 141.963 124.022 142.131C123.95 142.299 123.847 142.452 123.716 142.58C123.586 142.707 123.431 142.808 123.262 142.876C123.092 142.944 122.911 142.977 122.728 142.975ZM122.728 140.981C122.605 140.981 122.485 141.018 122.382 141.086C122.28 141.154 122.2 141.251 122.153 141.365C122.106 141.479 122.094 141.604 122.118 141.725C122.142 141.845 122.201 141.956 122.288 142.043C122.375 142.13 122.486 142.189 122.607 142.213C122.727 142.237 122.853 142.225 122.966 142.178C123.08 142.131 123.177 142.051 123.246 141.949C123.314 141.847 123.351 141.726 123.351 141.603C123.351 141.521 123.335 141.44 123.304 141.364C123.273 141.288 123.227 141.219 123.169 141.161C123.112 141.103 123.043 141.057 122.967 141.026C122.891 140.994 122.81 140.978 122.728 140.978V140.981Z"
    fill="#323439" />
  <path
    d="M122.728 145.625C122.529 145.625 122.335 145.566 122.17 145.456C122.005 145.345 121.876 145.189 121.8 145.005C121.724 144.821 121.704 144.619 121.742 144.424C121.781 144.23 121.877 144.051 122.018 143.91C122.158 143.769 122.337 143.674 122.532 143.635C122.727 143.596 122.929 143.616 123.113 143.692C123.297 143.768 123.454 143.897 123.564 144.062C123.674 144.227 123.733 144.422 123.733 144.62C123.733 144.752 123.707 144.883 123.657 145.005C123.606 145.127 123.532 145.238 123.439 145.331C123.346 145.424 123.235 145.498 123.113 145.549C122.991 145.599 122.86 145.625 122.728 145.625ZM122.728 144.381C122.683 144.381 122.639 144.394 122.602 144.419C122.565 144.444 122.536 144.48 122.518 144.521C122.501 144.563 122.497 144.608 122.505 144.652C122.514 144.696 122.536 144.737 122.568 144.769C122.599 144.8 122.64 144.822 122.684 144.831C122.728 144.839 122.774 144.835 122.815 144.818C122.857 144.801 122.892 144.772 122.917 144.734C122.942 144.697 122.955 144.653 122.955 144.608C122.951 144.551 122.925 144.498 122.883 144.459C122.841 144.421 122.785 144.399 122.728 144.4V144.381Z"
    fill="#323439" />
  <path
    d="M138.056 148.133C138.059 148.191 138.059 148.249 138.056 148.307C138.056 148.363 138.041 148.416 138.031 148.472C138.033 148.479 138.033 148.486 138.031 148.493C138.031 148.546 138.003 148.599 137.991 148.658V148.68C137.978 148.733 137.962 148.785 137.941 148.836C137.937 148.85 137.932 148.865 137.926 148.879C137.907 148.929 137.888 148.982 137.863 149.035C137.865 149.044 137.865 149.053 137.863 149.063C137.823 149.153 137.779 149.243 137.73 149.333C137.73 149.333 137.73 149.333 137.73 149.352L137.68 149.445C137.605 149.576 137.521 149.707 137.431 149.837L137.309 150.015L137.229 150.127L137.154 150.22C137.107 150.282 137.057 150.344 137.008 150.403C136.805 150.649 136.588 150.892 136.385 151.116L136.152 151.355L136.062 151.442L135.844 151.651C135.645 151.837 135.455 152.008 135.29 152.148L135.193 152.229C135.175 152.247 135.155 152.264 135.134 152.279L135.025 152.372C134.885 152.491 134.777 152.575 134.714 152.621L134.677 152.652C134.954 152.505 135.249 152.393 135.554 152.32L135.666 152.295C136.258 152.186 136.955 152.26 137.316 153.054C137.411 153.271 137.434 153.513 137.381 153.744C137.379 153.767 137.374 153.789 137.365 153.81C137.318 154.008 137.243 154.2 137.145 154.379L137.092 154.472C137.039 154.565 136.98 154.662 136.914 154.755L136.849 154.849L136.759 154.97L136.637 155.125C135.85 156.026 134.961 156.832 133.989 157.53L133.915 157.583C133.569 157.835 133.326 158 133.292 158.034L133.401 158.003H133.454C133.514 157.988 133.576 157.977 133.638 157.972C133.694 157.967 133.75 157.967 133.806 157.972C133.909 157.962 134.013 157.962 134.117 157.972L134.238 157.996C134.437 158.041 134.621 158.14 134.767 158.283C134.78 158.294 134.793 158.307 134.805 158.32C134.885 158.406 134.952 158.504 135.004 158.609C135.85 160.305 132.1 163.586 125.031 165.334C122.065 166.069 115.779 166.23 110.268 166.209H109.207H108.177H107.866H107.679H107.368L105.299 166.174C105.034 166.174 104.779 166.174 104.53 166.156L103.314 166.125H102.903H102.539H102.498H101.954H101.705L101.173 166.106H100.958H100.815C100.06 162.865 99.7833 159.532 99.9934 156.211C100.102 154.217 100.497 149.551 101.111 146.814H101.335L101.705 146.798H101.836H101.976H102.134H102.408L103.03 146.752L103.283 146.577C104.182 146.5 105.215 146.388 106.288 146.22L106.895 146.12C107.206 146.067 107.518 146.011 107.829 145.946L108.221 145.865C108.423 145.825 108.628 145.775 108.843 145.728L109.266 145.622C109.406 145.588 109.543 145.551 109.68 145.51C109.817 145.47 109.883 145.457 109.991 145.426L110.225 145.358L110.567 145.252C110.838 145.165 111.105 145.072 111.367 144.975L111.731 144.832C112.318 144.6 112.886 144.321 113.43 143.999C113.529 143.94 113.626 143.88 113.719 143.815C113.813 143.75 113.915 143.684 114.006 143.619C114.096 143.554 114.174 143.495 114.255 143.429L114.326 143.373C114.376 143.333 114.423 143.296 114.469 143.252C114.516 143.209 114.538 143.193 114.572 143.162L114.777 142.969V148.453C114.777 148.453 121.642 149.2 125.687 147.579L126.089 147.411C126.266 147.336 126.443 147.255 126.621 147.175C127.143 146.932 127.669 146.668 128.176 146.391L128.69 146.114L129.225 145.821L129.686 145.569C130.1 145.339 130.504 145.112 130.899 144.901C133.025 143.759 134.78 142.997 135.489 144.005C135.671 144.261 135.774 144.564 135.787 144.878C135.8 145.191 135.721 145.502 135.561 145.772L135.514 145.865C135.495 145.899 135.48 145.93 135.458 145.965C134.692 147.24 132.769 148.481 131.344 149.358L131.584 149.215L132.048 148.948L132.29 148.811C132.72 148.568 133.186 148.316 133.659 148.083L133.943 147.946C134.431 147.71 134.92 147.492 135.377 147.324L135.735 147.199C135.909 147.143 136.08 147.097 136.239 147.059L136.354 147.031C136.476 147.007 136.591 146.988 136.7 146.972H136.793C136.952 146.939 137.117 146.943 137.275 146.984C137.432 147.025 137.579 147.102 137.702 147.209C137.934 147.46 138.061 147.791 138.056 148.133Z"
    fill="white" />
  <path
    d="M111.062 166.591H109.114H108.078H107.767H107.263L105.187 166.557L104.422 166.538L103.594 166.485H103.18H102.81H102.402H102.377H101.889L101.008 166.454H100.815C100.733 166.449 100.653 166.418 100.589 166.365C100.525 166.313 100.479 166.242 100.458 166.162C99.6338 162.89 99.3055 159.514 99.4836 156.145L99.5116 155.588C99.6236 153.411 99.8227 149.333 100.678 146.652C100.702 146.574 100.75 146.507 100.814 146.458C100.878 146.409 100.956 146.381 101.036 146.378H101.254H101.565H101.836C101.895 146.378 101.939 146.378 101.982 146.378H102.038H102.281L102.844 146.337H102.916L103.249 146.313C104.269 146.225 105.271 146.107 106.23 145.961L106.83 145.862C107.142 145.809 107.437 145.753 107.742 145.69L108.131 145.61C108.33 145.569 108.526 145.522 108.722 145.479L109.155 145.37L109.562 145.261L109.852 145.18L110.085 145.112L110.428 145.006C110.689 144.922 110.95 144.829 111.205 144.735L111.299 144.698L111.557 144.599C112.127 144.372 112.678 144.101 113.206 143.79L113.48 143.616C113.58 143.553 113.667 143.488 113.754 143.426C113.841 143.364 113.91 143.314 113.981 143.255L114.059 143.193C114.104 143.16 114.146 143.124 114.187 143.087L114.283 143.003L114.476 142.819C114.532 142.766 114.601 142.73 114.677 142.716C114.753 142.701 114.831 142.709 114.902 142.738C114.973 142.768 115.033 142.817 115.075 142.88C115.118 142.943 115.141 143.017 115.142 143.093V148.222C116.579 148.341 122.153 148.692 125.557 147.333L125.622 147.305C125.728 147.261 125.84 147.218 125.949 147.168C126.126 147.093 126.301 147.016 126.472 146.938C126.938 146.72 127.446 146.468 128.028 146.163L128.541 145.886L129.07 145.597L129.534 145.342C129.944 145.112 130.355 144.885 130.75 144.673C132.929 143.501 134.954 142.558 135.847 143.905C136.059 144.22 136.18 144.587 136.197 144.966C136.214 145.345 136.126 145.722 135.944 146.054V146.079C135.944 146.104 135.919 146.132 135.903 146.157C135.882 146.203 135.857 146.246 135.829 146.288C135.652 146.581 135.443 146.853 135.206 147.1L135.272 147.075L135.346 147.047L135.642 146.947C135.826 146.885 136.006 146.835 136.177 146.795L136.311 146.764C136.432 146.739 136.557 146.717 136.678 146.701H136.784C137.006 146.658 137.235 146.668 137.452 146.732C137.668 146.796 137.866 146.911 138.029 147.068C138.285 147.365 138.432 147.741 138.446 148.132C138.446 148.197 138.446 148.265 138.446 148.338C138.446 148.338 138.446 148.356 138.446 148.366C138.446 148.425 138.446 148.484 138.418 148.546C138.418 148.546 138.418 148.546 138.418 148.568C138.418 148.611 138.396 148.655 138.387 148.698V148.745C138.387 148.745 138.387 148.77 138.387 148.776C138.368 148.838 138.349 148.901 138.327 148.963C138.327 148.963 138.327 148.997 138.306 149.019L138.237 149.19C138.237 149.19 138.222 149.227 138.219 149.233C138.184 149.311 138.138 149.408 138.085 149.501C138.085 149.516 138.085 149.532 138.063 149.544L138.019 149.622C137.939 149.765 137.851 149.905 137.749 150.052C137.708 150.111 137.668 150.173 137.621 150.235L137.456 150.456L137.329 150.618L137.307 150.643C137.12 150.87 136.905 151.112 136.65 151.38L136.585 151.445C136.526 151.507 136.467 151.57 136.408 151.625L136.33 151.703L136.155 151.871C136.477 151.879 136.788 151.98 137.053 152.162C137.317 152.345 137.522 152.6 137.643 152.898C137.769 153.183 137.801 153.501 137.736 153.806C137.732 153.842 137.725 153.877 137.714 153.912C137.659 154.141 137.572 154.362 137.456 154.568C137.439 154.602 137.421 154.636 137.4 154.668C137.342 154.775 137.277 154.879 137.207 154.979L137.142 155.072C137.108 155.122 137.073 155.165 137.039 155.209L136.918 155.368C136.176 156.222 135.341 156.991 134.428 157.66C134.631 157.729 134.816 157.842 134.97 157.99L135.041 158.065C135.141 158.174 135.224 158.296 135.29 158.428C135.405 158.68 135.459 158.954 135.449 159.23C135.439 159.506 135.364 159.776 135.231 160.018C134.407 161.804 130.94 164.258 125.062 165.707C122.1 166.426 115.991 166.591 111.062 166.591ZM107.764 165.791H108.094H109.118H110.176C117.37 165.819 122.442 165.521 124.844 164.93C130.445 163.549 133.772 161.234 134.491 159.67C134.571 159.532 134.619 159.379 134.631 159.22C134.643 159.062 134.618 158.903 134.559 158.755C134.525 158.685 134.481 158.62 134.428 158.562L134.397 158.531C134.302 158.438 134.182 158.375 134.052 158.348H133.974C133.898 158.339 133.82 158.339 133.744 158.348C133.698 158.344 133.653 158.344 133.607 158.348L133.454 158.369H133.417L133.336 158.391H133.302C133.214 158.411 133.122 158.4 133.041 158.36C132.961 158.32 132.896 158.253 132.86 158.171C132.823 158.088 132.816 157.996 132.84 157.909C132.864 157.822 132.917 157.746 132.991 157.694L133.034 157.663C133.128 157.601 133.346 157.455 133.623 157.25L133.716 157.181C134.651 156.515 135.507 155.743 136.268 154.882L136.383 154.733C136.411 154.696 136.439 154.661 136.464 154.624L136.529 154.531C136.585 154.45 136.638 154.366 136.684 154.282L136.731 154.195C136.815 154.048 136.878 153.89 136.918 153.725C136.917 153.712 136.917 153.698 136.918 153.685C136.954 153.528 136.942 153.365 136.884 153.215C136.744 152.904 136.467 152.528 135.658 152.677C135.628 152.682 135.599 152.688 135.57 152.696C135.297 152.765 135.033 152.869 134.786 153.007C134.704 153.05 134.609 153.063 134.517 153.043C134.426 153.023 134.345 152.972 134.288 152.898C134.232 152.825 134.204 152.734 134.209 152.641C134.215 152.549 134.254 152.462 134.32 152.397L134.357 152.36H134.376C134.386 152.349 134.397 152.339 134.41 152.332C134.469 152.288 134.575 152.204 134.721 152.092L134.824 152.005C134.858 151.98 134.867 151.968 134.88 151.958C134.892 151.949 134.929 151.915 134.945 151.902L134.979 151.871C135.144 151.734 135.328 151.56 135.524 151.383C135.592 151.321 135.661 151.255 135.729 151.184L135.832 151.084L135.984 150.932L136.05 150.863C136.289 150.615 136.492 150.387 136.672 150.176L136.809 150.002L136.952 149.815L137.073 149.638C137.164 149.507 137.238 149.389 137.304 149.274L137.35 149.187V149.165C137.396 149.087 137.436 149.006 137.472 148.922L137.494 148.876C137.494 148.851 137.522 148.807 137.537 148.764C137.54 148.75 137.546 148.736 137.553 148.723C137.568 148.677 137.581 148.633 137.593 148.593C137.606 148.552 137.593 148.565 137.593 148.558V148.53C137.593 148.496 137.609 148.462 137.618 148.428C137.627 148.388 137.633 148.347 137.637 148.306C137.637 148.306 137.637 148.306 137.637 148.285C137.64 148.242 137.64 148.2 137.637 148.157C137.644 147.914 137.556 147.677 137.391 147.498C137.306 147.441 137.21 147.402 137.109 147.384C137.009 147.366 136.905 147.368 136.806 147.392H136.737C136.628 147.392 136.526 147.423 136.426 147.445L136.324 147.47C136.168 147.507 136.012 147.551 135.844 147.603L135.567 147.7L135.499 147.725C135.094 147.874 134.621 148.076 134.102 148.328L133.825 148.465C133.423 148.664 132.978 148.901 132.471 149.184L132.288 149.286L131.768 149.597C131.68 149.642 131.579 149.651 131.484 149.624C131.39 149.596 131.309 149.534 131.259 149.45C131.208 149.365 131.192 149.265 131.212 149.169C131.233 149.073 131.289 148.988 131.37 148.932C132.773 148.067 134.466 146.935 135.104 145.821C135.121 145.797 135.135 145.771 135.147 145.743L135.191 145.662L135.206 145.631C135.325 145.422 135.383 145.184 135.373 144.944C135.363 144.703 135.286 144.471 135.15 144.272C134.643 143.51 132.891 144.316 131.068 145.295C130.676 145.507 130.271 145.731 129.86 145.961L129.397 146.216C129.219 146.313 129.042 146.412 128.858 146.509L128.345 146.785C127.754 147.096 127.234 147.358 126.755 147.579C126.574 147.663 126.391 147.747 126.213 147.821L125.871 147.964L125.806 147.992C121.708 149.628 114.952 148.925 114.666 148.901C114.571 148.891 114.483 148.846 114.419 148.774C114.355 148.703 114.32 148.611 114.32 148.515V143.83L114.165 143.942C114.068 144.014 113.966 144.082 113.854 144.151L113.542 144.34C112.982 144.674 112.395 144.962 111.787 145.202C111.7 145.239 111.604 145.274 111.507 145.311L111.417 145.348C111.146 145.448 110.876 145.541 110.599 145.631L110.244 145.74L110.004 145.812L109.693 145.899L109.276 146.011L108.847 146.117L108.224 146.257L107.829 146.337C107.518 146.403 107.207 146.459 106.896 146.512L106.273 146.614C105.296 146.764 104.276 146.885 103.239 146.972L102.894 147H102.829C102.63 147 102.44 147.031 102.259 147.04H102.007H101.836H101.553H101.288C100.542 149.632 100.355 153.445 100.237 155.523L100.205 156.086C100.04 159.279 100.337 162.479 101.089 165.586L101.858 165.611H102.337H102.365H102.773H103.152H103.563L104.366 165.63L105.131 165.648L107.198 165.682H107.509L107.764 165.791Z"
    fill="#323439" />
  <path
    d="M120.59 154.438C120.495 154.436 120.404 154.4 120.334 154.335C120.264 154.271 120.22 154.183 120.21 154.088C120.2 153.993 120.226 153.898 120.282 153.821C120.337 153.744 120.42 153.69 120.513 153.669C122.308 153.296 129.017 150.344 131.388 148.885C131.476 148.831 131.582 148.814 131.682 148.838C131.782 148.862 131.869 148.925 131.923 149.013C131.977 149.101 131.994 149.206 131.97 149.307C131.946 149.407 131.884 149.494 131.796 149.548C129.515 150.951 122.706 154.005 120.671 154.432L120.59 154.438Z"
    fill="#323439" />
  <path
    d="M121.057 159.147C120.962 159.146 120.87 159.11 120.799 159.046C120.729 158.982 120.684 158.894 120.674 158.799C120.664 158.704 120.689 158.609 120.745 158.531C120.801 158.454 120.883 158.399 120.976 158.379C126.412 157.2 133.498 152.941 134.382 152.338C134.467 152.28 134.572 152.258 134.674 152.277C134.775 152.296 134.865 152.355 134.923 152.44C134.981 152.526 135.003 152.631 134.984 152.732C134.965 152.834 134.906 152.924 134.82 152.982C133.921 153.604 126.699 157.934 121.129 159.138L121.057 159.147Z"
    fill="#323439" />
  <path
    d="M121.057 163.642C120.962 163.642 120.87 163.608 120.799 163.546C120.727 163.484 120.681 163.397 120.669 163.303C120.657 163.209 120.679 163.114 120.732 163.036C120.785 162.957 120.865 162.901 120.957 162.877C124.38 161.944 128.444 160.211 133.009 157.698L133.382 158.379C128.765 160.923 124.651 162.69 121.159 163.629C121.126 163.638 121.091 163.642 121.057 163.642Z"
    fill="#323439" />
  <path d="M125.908 103.961L143.157 94.1065L142.323 93.3381L125.908 103.961Z" fill="#323439" />
  <path d="M143.157 94.1065L142.323 93.3381L141.134 94.1065L143.742 96.0568L144.557 95.3943L143.157 94.1065Z"
    fill="#323439" />
  <path d="M169.012 133.665L170.942 134.909L171.06 132.899C171.06 132.899 170.201 132.803 169.012 133.665Z"
    fill="#323439" />
  <path d="M159.204 149.196C159.204 149.196 158.439 151.685 159.104 152.26L161.544 150.493L159.204 149.196Z"
    fill="#323439" />
  <path
    d="M170.942 135.282C170.867 135.283 170.794 135.262 170.73 135.223L168.804 133.979C168.75 133.945 168.706 133.899 168.674 133.844C168.643 133.789 168.625 133.727 168.623 133.663C168.622 133.6 168.635 133.537 168.664 133.48C168.692 133.424 168.734 133.375 168.785 133.338C170.074 132.405 171.054 132.479 171.094 132.483C171.195 132.491 171.288 132.539 171.354 132.616C171.42 132.693 171.453 132.792 171.446 132.893L171.328 134.906C171.322 134.971 171.299 135.034 171.262 135.089C171.225 135.143 171.175 135.187 171.116 135.217C171.064 135.253 171.004 135.275 170.942 135.282ZM169.734 133.665L170.59 134.209L170.643 133.313C170.325 133.386 170.019 133.505 169.734 133.665Z"
    fill="#323439" />
  <path
    d="M159.104 152.649C159.012 152.649 158.922 152.616 158.852 152.556C158.052 151.874 158.634 149.725 158.833 149.081C158.85 149.026 158.879 148.975 158.918 148.932C158.958 148.889 159.006 148.856 159.06 148.834C159.113 148.813 159.171 148.804 159.229 148.808C159.287 148.811 159.343 148.828 159.394 148.857L161.731 150.151C161.787 150.183 161.835 150.229 161.87 150.284C161.905 150.34 161.925 150.403 161.929 150.468C161.933 150.533 161.921 150.599 161.893 150.658C161.865 150.717 161.824 150.769 161.771 150.807L159.331 152.574C159.265 152.622 159.186 152.648 159.104 152.649ZM159.446 149.775C159.273 150.394 159.202 151.039 159.238 151.681L160.819 150.537L159.446 149.775Z"
    fill="#323439" />
  <path d="M102.928 146.611L101.061 146.72L101.942 144.62C101.942 144.62 102.779 144.894 102.928 146.611Z"
    fill="#323439" />
  <path
    d="M103.199 166.09L100.844 166.019C100.844 166.019 101.59 168.725 101.936 168.725C102.928 168.725 103.199 166.09 103.199 166.09Z"
    fill="#323439" />
  <path
    d="M101.054 147.109C100.991 147.109 100.928 147.093 100.871 147.063C100.815 147.033 100.767 146.989 100.732 146.936C100.696 146.883 100.675 146.821 100.669 146.758C100.662 146.694 100.672 146.63 100.697 146.571L101.577 144.471C101.615 144.381 101.685 144.308 101.774 144.267C101.862 144.226 101.963 144.22 102.056 144.251C102.168 144.288 103.149 144.661 103.317 146.577C103.321 146.629 103.315 146.682 103.299 146.731C103.283 146.781 103.257 146.827 103.223 146.867C103.154 146.945 103.057 146.993 102.953 147L101.086 147.109H101.054ZM102.094 145.243L101.655 146.291L102.489 146.241C102.438 145.884 102.303 145.544 102.094 145.249V145.243Z"
    fill="#323439" />
  <path
    d="M101.935 169.113C101.68 169.113 101.294 169.113 100.467 166.124C100.45 166.065 100.447 166.004 100.459 165.944C100.471 165.884 100.497 165.827 100.534 165.779C100.572 165.731 100.62 165.692 100.675 165.666C100.731 165.64 100.791 165.628 100.852 165.63L103.208 165.701C103.262 165.703 103.315 165.716 103.363 165.739C103.412 165.762 103.456 165.794 103.491 165.835C103.529 165.877 103.557 165.926 103.573 165.98C103.589 166.034 103.593 166.09 103.585 166.146C103.535 166.628 103.214 169.113 101.935 169.113ZM101.363 166.426C101.542 167.065 101.772 167.689 102.05 168.292C102.334 168.109 102.617 167.297 102.754 166.46L101.363 166.426Z"
    fill="#323439" />
  <path d="M178.559 120.252L177.766 136.894L179.321 137.715L178.559 120.252Z" fill="#323439" />
  <path d="M102.489 128.996L98.9106 144.394H100.989L102.489 128.996Z" fill="#323439" />
  <path d="M274.659 73.1941H219.7V126.003H274.659V73.1941Z" fill="white" />
  <path
    d="M274.659 126.392H219.7C219.596 126.392 219.497 126.351 219.424 126.278C219.352 126.205 219.311 126.106 219.311 126.003V73.1938C219.311 73.0906 219.352 72.9917 219.424 72.9188C219.497 72.8459 219.596 72.8049 219.7 72.8049H274.659C274.762 72.8049 274.861 72.8459 274.934 72.9188C275.007 72.9917 275.048 73.0906 275.048 73.1938V126.003C275.048 126.106 275.007 126.205 274.934 126.278C274.861 126.351 274.762 126.392 274.659 126.392ZM220.088 125.614H274.27V73.5826H220.088V125.614Z"
    fill="#323439" />
  <path d="M232.243 97.1836H224.778V113.238H232.243V97.1836Z" fill="#0684BC" />
  <path d="M239.711 90.4243H232.246V113.238H239.711V90.4243Z" fill="#0684BC" />
  <path d="M247.176 93.2393H239.711V113.238H247.176V93.2393Z" fill="#0684BC" />
  <path d="M254.644 78.8738H247.179V113.234H254.644V78.8738Z" fill="#0684BC" />
  <path d="M262.109 88.4519H254.644V113.237H262.109V88.4519Z" fill="#0684BC" />
  <path d="M269.575 98.8723H262.11V113.237H269.575V98.8723Z" fill="#0684BC" />
  <path
    d="M232.246 113.626H224.778C224.675 113.626 224.576 113.585 224.503 113.512C224.43 113.439 224.389 113.34 224.389 113.237V97.1833C224.389 97.0801 224.43 96.9812 224.503 96.9083C224.576 96.8354 224.675 96.7944 224.778 96.7944H232.246C232.349 96.7944 232.448 96.8354 232.521 96.9083C232.594 96.9812 232.635 97.0801 232.635 97.1833V113.237C232.635 113.34 232.594 113.439 232.521 113.512C232.448 113.585 232.349 113.626 232.246 113.626ZM225.167 112.848H231.857V97.5721H225.167V112.848Z"
    fill="#323439" />
  <path
    d="M239.711 113.627H232.243C232.14 113.627 232.041 113.586 231.968 113.513C231.895 113.44 231.854 113.341 231.854 113.238V90.4245C231.854 90.3213 231.895 90.2225 231.968 90.1495C232.041 90.0766 232.14 90.0356 232.243 90.0356H239.711C239.814 90.0356 239.913 90.0766 239.986 90.1495C240.059 90.2225 240.1 90.3213 240.1 90.4245V113.238C240.1 113.341 240.059 113.44 239.986 113.513C239.913 113.586 239.814 113.627 239.711 113.627ZM232.635 112.849H239.322V90.8133H232.635V112.849Z"
    fill="#323439" />
  <path
    d="M247.179 113.626H239.711C239.608 113.626 239.509 113.585 239.436 113.512C239.363 113.439 239.322 113.341 239.322 113.237V93.2392C239.322 93.136 239.363 93.0371 239.436 92.9642C239.509 92.8913 239.608 92.8503 239.711 92.8503H247.179C247.282 92.8503 247.381 92.8913 247.454 92.9642C247.527 93.0371 247.568 93.136 247.568 93.2392V113.237C247.568 113.288 247.558 113.339 247.538 113.386C247.519 113.433 247.49 113.476 247.454 113.512C247.418 113.548 247.375 113.577 247.328 113.597C247.281 113.616 247.23 113.626 247.179 113.626ZM240.1 112.849H246.79V93.628H240.1V112.849Z"
    fill="#323439" />
  <path
    d="M254.645 113.626H247.176C247.073 113.626 246.974 113.585 246.901 113.512C246.828 113.439 246.787 113.34 246.787 113.237V78.8739C246.787 78.7708 246.828 78.6719 246.901 78.599C246.974 78.5261 247.073 78.4851 247.176 78.4851H254.645C254.748 78.4851 254.847 78.5261 254.92 78.599C254.993 78.6719 255.033 78.7708 255.033 78.8739V113.237C255.033 113.34 254.993 113.439 254.92 113.512C254.847 113.585 254.748 113.626 254.645 113.626ZM247.568 112.848H254.256V79.2534H247.568V112.848Z"
    fill="#323439" />
  <path
    d="M262.109 113.626H254.641C254.538 113.626 254.439 113.585 254.366 113.512C254.293 113.439 254.252 113.34 254.252 113.237V88.4516C254.252 88.3484 254.293 88.2495 254.366 88.1766C254.439 88.1037 254.538 88.0627 254.641 88.0627H262.109C262.213 88.0627 262.311 88.1037 262.384 88.1766C262.457 88.2495 262.498 88.3484 262.498 88.4516V113.237C262.498 113.288 262.488 113.339 262.469 113.386C262.449 113.433 262.421 113.476 262.384 113.512C262.348 113.548 262.305 113.577 262.258 113.596C262.211 113.616 262.16 113.626 262.109 113.626ZM255.033 112.848H261.72V88.8404H255.033V112.848Z"
    fill="#323439" />
  <path
    d="M269.578 113.626H262.11C262.007 113.626 261.908 113.585 261.835 113.512C261.762 113.439 261.721 113.34 261.721 113.237V98.872C261.721 98.7689 261.762 98.67 261.835 98.597C261.908 98.5241 262.007 98.4832 262.11 98.4832H269.578C269.681 98.4832 269.78 98.5241 269.853 98.597C269.926 98.67 269.967 98.7689 269.967 98.872V113.237C269.967 113.288 269.957 113.339 269.937 113.386C269.918 113.433 269.889 113.476 269.853 113.512C269.817 113.548 269.774 113.577 269.727 113.596C269.68 113.616 269.629 113.626 269.578 113.626ZM262.499 112.848H269.189V99.2608H262.499V112.848Z"
    fill="#323439" />
  <path
    d="M254.314 101.162L242.785 121.62L242.767 121.648C242.654 121.82 242.509 121.967 242.339 122.081C242.169 122.195 241.978 122.275 241.777 122.314C241.701 122.329 241.624 122.336 241.547 122.336C241.347 122.34 241.151 122.285 240.984 122.177C240.71 122.003 240.512 121.732 240.43 121.418C240.347 121.104 240.386 120.771 240.539 120.485L252.127 99.9175C252.209 99.7745 252.318 99.649 252.448 99.5482C252.578 99.4474 252.727 99.3732 252.886 99.3298C253.045 99.2865 253.211 99.2749 253.374 99.2957C253.538 99.3164 253.695 99.3692 253.838 99.4509C253.981 99.5326 254.107 99.6416 254.208 99.7718C254.309 99.902 254.383 100.051 254.426 100.21C254.469 100.369 254.481 100.534 254.46 100.698C254.44 100.861 254.387 101.019 254.305 101.162H254.314Z"
    fill="#FF7A00" />
  <path
    d="M256.362 115.16C256.174 114.456 255.793 113.82 255.262 113.321C254.731 112.823 254.071 112.483 253.356 112.34C252.642 112.197 251.902 112.256 251.22 112.512C250.538 112.767 249.941 113.208 249.496 113.785C249.051 114.361 248.777 115.051 248.704 115.775C248.63 116.5 248.761 117.23 249.082 117.884C249.402 118.538 249.899 119.09 250.516 119.476C251.133 119.863 251.847 120.069 252.575 120.072C252.914 120.07 253.252 120.026 253.58 119.941C254.581 119.673 255.436 119.02 255.957 118.124C256.479 117.228 256.624 116.163 256.362 115.16ZM253.789 116.865C253.601 117.184 253.296 117.416 252.938 117.511C252.58 117.606 252.199 117.556 251.878 117.372C251.557 117.183 251.323 116.876 251.228 116.516C251.173 116.309 251.167 116.093 251.21 115.883C251.253 115.673 251.343 115.476 251.473 115.307C251.604 115.137 251.772 115 251.964 114.906C252.156 114.811 252.367 114.762 252.581 114.762C252.889 114.763 253.188 114.866 253.432 115.055C253.676 115.243 253.852 115.506 253.932 115.804C253.98 115.983 253.993 116.17 253.968 116.353C253.943 116.537 253.882 116.714 253.789 116.874V116.865Z"
    fill="#FF7A00" />
  <path
    d="M246.031 104.478C245.803 103.602 245.277 102.832 244.544 102.3C243.811 101.767 242.916 101.506 242.012 101.559C241.107 101.613 240.25 101.978 239.585 102.593C238.92 103.209 238.489 104.035 238.365 104.932C238.242 105.829 238.434 106.742 238.908 107.513C239.382 108.285 240.109 108.869 240.965 109.164C241.821 109.46 242.754 109.45 243.603 109.135C244.453 108.821 245.167 108.221 245.624 107.439C245.884 106.997 246.054 106.508 246.124 105.999C246.194 105.491 246.162 104.974 246.031 104.478ZM243.455 106.17C243.363 106.329 243.241 106.468 243.095 106.579C242.949 106.691 242.783 106.771 242.605 106.817C242.247 106.91 241.866 106.857 241.546 106.67C241.227 106.483 240.994 106.177 240.9 105.819C240.852 105.642 240.841 105.457 240.866 105.275C240.891 105.093 240.952 104.919 241.046 104.761C241.138 104.602 241.261 104.462 241.408 104.351C241.554 104.239 241.721 104.158 241.899 104.111C242.257 104.02 242.637 104.073 242.956 104.26C243.276 104.447 243.508 104.752 243.604 105.109C243.65 105.287 243.661 105.473 243.635 105.655C243.61 105.837 243.548 106.012 243.455 106.17Z"
    fill="#FF7A00" />
  <path
    d="M241.547 122.725C241.269 122.728 240.996 122.649 240.763 122.497C240.408 122.269 240.153 121.915 240.049 121.507C239.944 121.098 239.998 120.665 240.2 120.295L251.788 99.74C251.948 99.4569 252.188 99.2275 252.479 99.0809C252.769 98.9343 253.097 98.8771 253.419 98.9163C253.742 98.9556 254.047 99.0897 254.293 99.3016C254.54 99.5135 254.719 99.7938 254.806 100.107C254.864 100.314 254.88 100.531 254.854 100.744C254.828 100.958 254.76 101.164 254.654 101.351L243.125 121.813C243.117 121.824 243.109 121.835 243.103 121.847C242.963 122.065 242.78 122.253 242.567 122.399C242.353 122.545 242.112 122.648 241.858 122.7C241.755 122.717 241.651 122.725 241.547 122.725ZM253.222 99.6809C253.068 99.6806 252.917 99.7214 252.784 99.799C252.651 99.8767 252.541 99.9884 252.466 100.123L240.878 120.678C240.774 120.88 240.75 121.114 240.811 121.333C240.872 121.553 241.014 121.741 241.208 121.86C241.359 121.941 241.534 121.968 241.703 121.934C241.854 121.904 241.998 121.843 242.126 121.756C242.253 121.669 242.362 121.557 242.446 121.427L253.96 100.972C254.016 100.873 254.053 100.765 254.067 100.652C254.081 100.539 254.072 100.425 254.041 100.315C253.989 100.135 253.879 99.9762 253.729 99.8638C253.578 99.7514 253.395 99.6916 253.207 99.6934L253.222 99.6809Z"
    fill="#323439" />
  <path
    d="M252.575 120.469C251.774 120.466 250.99 120.24 250.311 119.815C249.632 119.39 249.086 118.784 248.733 118.064C248.381 117.345 248.237 116.542 248.318 115.745C248.398 114.949 248.7 114.19 249.189 113.556C249.678 112.922 250.335 112.437 251.085 112.156C251.835 111.875 252.649 111.81 253.434 111.968C254.22 112.125 254.945 112.499 255.529 113.047C256.113 113.595 256.532 114.295 256.739 115.069C257.029 116.172 256.869 117.344 256.296 118.329C255.723 119.315 254.782 120.033 253.68 120.326C253.319 120.419 252.948 120.467 252.575 120.469ZM252.575 112.649C252.271 112.649 251.968 112.687 251.673 112.764C250.849 112.986 250.134 113.499 249.659 114.208C249.185 114.917 248.984 115.773 249.093 116.619C249.203 117.465 249.615 118.242 250.255 118.807C250.894 119.372 251.716 119.686 252.569 119.691C252.876 119.691 253.181 119.651 253.478 119.573C254.304 119.354 255.022 118.841 255.498 118.131C255.975 117.422 256.176 116.563 256.066 115.715C255.955 114.868 255.54 114.089 254.898 113.525C254.256 112.961 253.43 112.65 252.575 112.649ZM252.575 117.959C252.181 117.959 251.798 117.828 251.485 117.587C251.173 117.346 250.949 117.009 250.848 116.627C250.773 116.343 250.769 116.045 250.836 115.758C250.903 115.472 251.04 115.207 251.235 114.986C251.429 114.765 251.675 114.596 251.951 114.493C252.227 114.39 252.523 114.356 252.815 114.395C253.107 114.434 253.384 114.545 253.623 114.717C253.862 114.888 254.055 115.117 254.184 115.381C254.314 115.645 254.376 115.937 254.366 116.231C254.356 116.525 254.273 116.812 254.125 117.066C253.885 117.474 253.494 117.77 253.036 117.89C252.887 117.933 252.733 117.956 252.579 117.959H252.575ZM252.575 115.159C252.488 115.16 252.401 115.171 252.317 115.193C252.187 115.227 252.065 115.286 251.959 115.368C251.852 115.449 251.762 115.55 251.695 115.666C251.629 115.78 251.586 115.906 251.569 116.036C251.552 116.166 251.561 116.298 251.595 116.425C251.629 116.555 251.689 116.677 251.77 116.783C251.851 116.89 251.952 116.98 252.068 117.047C252.241 117.147 252.439 117.193 252.638 117.18C252.837 117.167 253.027 117.096 253.185 116.974C253.343 116.853 253.462 116.688 253.526 116.499C253.591 116.311 253.598 116.108 253.546 115.915C253.516 115.785 253.459 115.663 253.379 115.556C253.299 115.449 253.198 115.36 253.083 115.293C252.93 115.205 252.757 115.159 252.582 115.159H252.575Z"
    fill="#323439" />
  <path
    d="M242.25 109.766C241.448 109.763 240.662 109.535 239.983 109.109C239.303 108.683 238.756 108.075 238.404 107.354C238.052 106.633 237.909 105.828 237.992 105.03C238.074 104.232 238.378 103.473 238.869 102.839C239.361 102.205 240.02 101.721 240.772 101.442C241.524 101.163 242.34 101.101 243.126 101.261C243.912 101.422 244.638 101.799 245.221 102.35C245.803 102.902 246.22 103.605 246.423 104.381C246.59 105.017 246.608 105.682 246.478 106.326C246.347 106.97 246.07 107.575 245.668 108.095C245.267 108.615 244.751 109.036 244.161 109.326C243.572 109.615 242.923 109.766 242.266 109.766H242.25ZM242.25 101.946C241.635 101.945 241.03 102.106 240.496 102.412C239.962 102.718 239.517 103.159 239.207 103.691C238.971 104.088 238.817 104.529 238.754 104.987C238.691 105.444 238.72 105.91 238.84 106.357C239.075 107.26 239.66 108.033 240.465 108.505C241.27 108.978 242.231 109.111 243.134 108.876C244.038 108.641 244.811 108.057 245.284 107.252C245.757 106.447 245.89 105.487 245.655 104.584C245.457 103.832 245.017 103.166 244.402 102.69C243.787 102.214 243.031 101.955 242.254 101.952L242.25 101.946ZM242.25 107.256C241.935 107.255 241.625 107.171 241.351 107.013C241.14 106.9 240.953 106.745 240.803 106.558C240.652 106.371 240.541 106.156 240.476 105.925C240.41 105.694 240.392 105.452 240.422 105.214C240.453 104.976 240.531 104.747 240.652 104.539C240.772 104.332 240.934 104.151 241.126 104.008C241.319 103.864 241.538 103.761 241.771 103.704C242.004 103.647 242.247 103.638 242.483 103.677C242.72 103.716 242.947 103.802 243.15 103.93C243.354 104.046 243.533 104.202 243.675 104.388C243.817 104.575 243.92 104.788 243.977 105.016C244.097 105.473 244.029 105.958 243.791 106.366C243.792 106.373 243.792 106.381 243.791 106.388C243.674 106.586 243.519 106.76 243.335 106.899C243.15 107.038 242.941 107.139 242.717 107.196C242.565 107.237 242.408 107.257 242.25 107.256ZM242.25 104.456C242.164 104.456 242.079 104.468 241.995 104.49C241.866 104.523 241.744 104.582 241.637 104.662C241.53 104.743 241.44 104.844 241.373 104.96C241.305 105.074 241.261 105.199 241.243 105.33C241.225 105.461 241.233 105.594 241.267 105.722C241.3 105.852 241.359 105.974 241.439 106.081C241.52 106.188 241.621 106.278 241.737 106.345C241.853 106.412 241.982 106.456 242.115 106.473C242.248 106.49 242.383 106.48 242.512 106.444C242.641 106.412 242.763 106.355 242.87 106.275C242.977 106.195 243.067 106.095 243.134 105.98C243.135 105.972 243.135 105.964 243.134 105.955C243.262 105.729 243.296 105.463 243.231 105.212C243.2 105.082 243.143 104.96 243.063 104.853C242.984 104.746 242.883 104.656 242.767 104.59C242.611 104.499 242.434 104.453 242.254 104.456H242.25Z"
    fill="#323439" />
  <path
    d="M154.162 39.7353C149.667 39.7353 146.023 36.0924 146.023 31.5986C146.023 27.1048 149.667 23.4619 154.162 23.4619C158.658 23.4619 162.302 27.1048 162.302 31.5986C162.302 36.0924 158.658 39.7353 154.162 39.7353Z"
    fill="#323439" />
  <path
    d="M129.02 42.968C125.183 42.968 122.073 39.8589 122.073 36.0235C122.073 32.1882 125.183 29.0791 129.02 29.0791C132.856 29.0791 135.967 32.1882 135.967 36.0235C135.967 39.8589 132.856 42.968 129.02 42.968Z"
    fill="#323439" />
  <path
    d="M154.163 40.2196C155.869 40.2203 157.538 39.7151 158.957 38.7677C160.377 37.8203 161.483 36.4734 162.136 34.8973C162.79 33.3213 162.961 31.5869 162.628 29.9135C162.296 28.2402 161.474 26.7031 160.267 25.4967C159.06 24.2904 157.523 23.4689 155.849 23.1362C154.175 22.8036 152.44 22.9747 150.863 23.6279C149.287 24.2812 147.939 25.3872 146.991 26.8061C146.044 28.2249 145.538 29.8929 145.539 31.599C145.541 33.8847 146.45 36.0762 148.067 37.6924C149.684 39.3086 151.876 40.2175 154.163 40.2196ZM154.163 23.9423C155.678 23.9385 157.161 24.3843 158.423 25.2233C159.685 26.0623 160.67 27.2567 161.253 28.6555C161.835 30.0542 161.99 31.5943 161.697 33.0809C161.403 34.5674 160.675 35.9335 159.605 37.0062C158.534 38.079 157.17 38.8101 155.683 39.1071C154.197 39.4041 152.656 39.2536 151.255 38.6747C149.855 38.0958 148.657 37.1144 147.815 35.8548C146.972 34.5953 146.523 33.1142 146.523 31.599C146.525 29.5723 147.33 27.6289 148.761 26.194C150.193 24.7591 152.135 23.9495 154.163 23.9423Z"
    fill="#323439" />
  <path
    d="M129.02 43.4552C130.49 43.4559 131.928 43.0207 133.151 42.2045C134.375 41.3883 135.328 40.2278 135.891 38.8699C136.455 37.5119 136.603 36.0174 136.316 34.5754C136.03 33.1335 135.322 31.8088 134.282 30.769C133.243 29.7292 131.918 29.021 130.476 28.7339C129.033 28.4468 127.538 28.5938 126.179 29.1562C124.821 29.7186 123.659 30.6712 122.842 31.8935C122.025 33.1158 121.589 34.5529 121.589 36.023C121.59 37.9931 122.373 39.8824 123.766 41.2758C125.16 42.6693 127.049 43.4531 129.02 43.4552ZM129.02 29.5624C130.299 29.5617 131.55 29.9402 132.614 30.6503C133.678 31.3603 134.508 32.3699 134.997 33.5512C135.487 34.7326 135.616 36.0327 135.366 37.2871C135.117 38.5414 134.501 39.6936 133.596 40.5979C132.692 41.5022 131.539 42.118 130.284 42.3673C129.03 42.6166 127.729 42.4883 126.547 41.9985C125.365 41.5087 124.356 40.6796 123.645 39.6159C122.935 38.5522 122.556 37.3019 122.557 36.023C122.559 34.3102 123.241 32.6681 124.452 31.4569C125.664 30.2458 127.306 29.5645 129.02 29.5624Z"
    fill="#323439" />
  <path d="M138.556 80.6074L142.155 93.0893L159.268 75.4678L156.145 56.094L135.107 59.5933L138.556 80.6074Z"
    fill="white" />
  <path
    d="M142.259 93.8347C142.334 93.8348 142.409 93.817 142.476 93.7827C142.543 93.7484 142.602 93.6985 142.646 93.6372L159.917 75.652C159.958 75.5975 159.988 75.5348 160.003 75.468C160.018 75.4013 160.006 75.2649 160.006 75.2649L156.622 55.9934C156.599 55.869 156.528 55.7585 156.424 55.686C156.321 55.6135 156.193 55.5849 156.068 55.6063L135.026 59.0901C134.903 59.1137 134.793 59.1842 134.721 59.2868C134.649 59.3893 134.619 59.5159 134.639 59.6398L138.191 81.0251L141.786 93.3469C141.792 93.4464 141.828 93.5419 141.889 93.6201C141.951 93.6984 142.035 93.7558 142.131 93.7843C142.171 93.8077 142.214 93.8247 142.259 93.8347ZM159.015 75.2456L142.669 91.9882L139.144 80.9748C139.145 80.9593 139.145 80.9437 139.144 80.9283L135.661 59.9921L155.762 56.6476L159.015 75.2456Z"
    fill="#323439" />
  <path d="M156.75 59.7676L158.477 70.2617C158.477 70.2617 154.689 70.5171 143.785 69.1313L156.75 59.7676Z"
    fill="#323439" />
  <path
    d="M157.559 70.78C158.17 70.78 158.469 70.78 158.507 70.78C158.575 70.7744 158.64 70.7554 158.7 70.7241C158.76 70.6929 158.813 70.65 158.856 70.598C158.899 70.5442 158.93 70.4818 158.946 70.415C158.963 70.3482 158.965 70.2786 158.953 70.2109L157.431 60.9439C157.419 60.8651 157.387 60.7904 157.339 60.7268C157.291 60.6632 157.228 60.6125 157.155 60.5795C157.082 60.5464 157.003 60.532 156.923 60.5375C156.843 60.543 156.766 60.5683 156.699 60.611L143.533 68.74C143.446 68.7914 143.378 68.8688 143.338 68.9612C143.297 69.0537 143.287 69.1564 143.309 69.255C143.33 69.3535 143.382 69.4428 143.457 69.5102C143.532 69.5776 143.627 69.6196 143.727 69.6303C151.688 70.6484 155.851 70.78 157.559 70.78ZM157.907 69.8084C156.602 69.8084 152.796 69.7542 145.21 68.8368L156.591 61.8033L157.907 69.8084Z"
    fill="#323439" />
  <path
    d="M128.733 54.817C130.588 64.1421 134.952 70.9085 146.135 68.9149C153.922 67.5291 158.678 58.5679 156.827 49.239C154.976 39.9101 147.181 33.6005 139.425 35.1372C131.669 36.674 126.882 45.4881 128.733 54.817Z"
    fill="white" />
  <path
    d="M142.402 69.7624C143.685 69.7497 144.965 69.6202 146.224 69.3753C149.585 68.7559 152.583 66.7198 154.674 63.6463C157.384 59.6515 158.341 54.3561 157.299 49.1303C155.398 39.5536 147.336 33.0582 139.332 34.6492C131.328 36.2401 126.36 45.3213 128.261 54.8941C129.326 60.2476 131.072 64.0334 133.605 66.4682C135.874 68.6669 138.824 69.7624 142.402 69.7624ZM141.767 35.3924C148.459 35.3924 154.732 41.1988 156.35 49.3277C157.342 54.3096 156.435 59.3341 153.872 63.116C151.936 65.9727 149.152 67.8617 146.046 68.4346C136.753 70.1495 131.409 65.7908 129.21 54.7161C127.413 45.6658 132.036 37.0956 139.521 35.6092C140.261 35.4625 141.013 35.3899 141.767 35.3924Z"
    fill="#323439" />
  <path
    d="M128.373 52.0137C128.373 52.0137 127.119 44.8641 129.597 39.5261C132.017 34.312 137.067 31.2423 143.061 31.6294C150.17 32.0901 157.957 36.3055 159.27 48.0654C159.963 54.2589 156.834 60.2781 156.834 60.2781L157.125 55.2963C157.125 55.2963 154.778 55.5634 154.503 54.4563C154.503 54.4563 158.019 47.5583 154.414 45.9983C151.104 44.5661 150.929 49.2034 150.929 49.2034C147.887 48.6246 144.88 47.8737 141.922 46.9544C138.736 45.8672 135.639 44.5328 132.66 42.9635L128.373 52.0137Z"
    fill="#323439" />
  <path
    d="M156.835 60.7623C156.923 60.7625 157.01 60.7385 157.086 60.6927C157.162 60.647 157.223 60.5814 157.264 60.503C157.392 60.2514 160.451 54.2708 159.754 48.0115C159.135 42.4916 157.086 38.1948 153.655 35.2374C150.108 32.1833 145.953 31.3239 143.096 31.1381C137.02 30.751 131.684 33.8788 129.156 39.3135C126.627 44.7483 127.843 51.7934 127.893 52.0876C127.913 52.1869 127.963 52.2777 128.036 52.3471C128.11 52.4166 128.203 52.4612 128.304 52.4747C128.406 52.4901 128.51 52.472 128.601 52.4231C128.691 52.3742 128.764 52.2973 128.807 52.2037L132.885 43.6064C135.755 45.0901 138.732 46.3569 141.791 47.396C144.77 48.3173 147.797 49.0733 150.86 49.6605C150.928 49.6721 150.997 49.6691 151.064 49.6517C151.131 49.6344 151.193 49.6031 151.247 49.5599C151.301 49.516 151.345 49.4613 151.376 49.3992C151.408 49.3372 151.426 49.2693 151.429 49.1999C151.452 48.6038 151.704 46.9276 152.591 46.378C153.017 46.1109 153.555 46.1264 154.244 46.4244C154.511 46.5334 154.75 46.6989 154.947 46.9094C155.143 47.1199 155.292 47.3704 155.382 47.6438C156.227 49.9857 154.116 54.174 154.093 54.2244C154.042 54.3288 154.028 54.4477 154.054 54.5611C154.329 55.6643 155.797 55.8076 156.633 55.7998L156.374 60.2398C156.368 60.3505 156.4 60.46 156.465 60.5501C156.53 60.6401 156.623 60.7055 156.73 60.7353C156.764 60.7482 156.799 60.7573 156.835 60.7623ZM142.039 32.0788C142.364 32.0788 142.697 32.0788 143.03 32.1136C147.262 32.3846 157.268 34.4942 158.79 48.1199C159.177 51.6463 158.287 55.1572 157.485 57.4488L157.609 55.3237C157.613 55.2521 157.602 55.1805 157.576 55.1137C157.55 55.0469 157.51 54.9865 157.458 54.9366C157.406 54.8889 157.345 54.8528 157.278 54.8307C157.211 54.8087 157.141 54.8012 157.071 54.8089C156.463 54.8747 155.332 54.8089 155.038 54.4566C155.483 53.5237 157.144 49.7612 156.269 47.3302C156.134 46.9317 155.916 46.5665 155.629 46.2588C155.342 45.9511 154.992 45.7081 154.604 45.5457C153.617 45.1199 152.753 45.1277 152.048 45.569C150.972 46.2502 150.62 47.787 150.5 48.6192C147.653 48.0595 144.839 47.3475 142.07 46.4864C138.912 45.4065 135.842 44.0838 132.888 42.5303C132.831 42.4992 132.767 42.4802 132.702 42.4743C132.637 42.4685 132.571 42.4759 132.509 42.4962C132.447 42.5164 132.389 42.5491 132.34 42.5922C132.291 42.6354 132.251 42.688 132.222 42.7471L128.648 50.2838C128.443 47.8954 128.346 43.3432 130.031 39.7238C131.056 37.4088 132.743 35.4482 134.879 34.0881C137.016 32.7279 139.506 32.0289 142.039 32.0788Z"
    fill="#323439" />
  <path
    d="M136.455 58.1805C137.114 58.1529 137.769 58.0595 138.41 57.9018C138.536 57.8746 138.646 57.7986 138.715 57.6904C138.785 57.5822 138.809 57.4508 138.782 57.325C138.755 57.1993 138.678 57.0895 138.57 57.0198C138.462 56.9501 138.331 56.9262 138.205 56.9534C137.617 57.0925 137.019 57.1806 136.416 57.2167C136.234 56.516 135.889 54.0541 135.641 51.8438C135.62 51.7222 135.554 51.6131 135.455 51.539C135.356 51.4649 135.233 51.4313 135.11 51.4452C134.987 51.459 134.875 51.5193 134.795 51.6135C134.715 51.7078 134.674 51.8289 134.681 51.9522C135.339 57.6541 135.595 57.867 135.761 58.0063C135.835 58.0683 135.967 58.1805 136.455 58.1805Z"
    fill="#323439" />
  <path
    d="M142.983 51.7199C143.077 51.7195 143.168 51.6919 143.247 51.6407C143.325 51.5894 143.387 51.5166 143.424 51.431C143.462 51.3454 143.474 51.2507 143.459 51.1584C143.444 51.0661 143.403 50.9801 143.34 50.9109C143.313 50.8838 140.757 48.1277 137.237 49.5715C137.178 49.5953 137.124 49.6306 137.079 49.6753C137.034 49.72 136.998 49.7732 136.973 49.8319C136.949 49.8907 136.936 49.9536 136.936 50.0173C136.936 50.0809 136.949 50.1438 136.974 50.2025C136.998 50.2615 137.033 50.3152 137.077 50.3606C137.122 50.406 137.175 50.4421 137.234 50.4669C137.293 50.4918 137.355 50.5048 137.419 50.5052C137.483 50.5057 137.546 50.4936 137.605 50.4696C140.486 49.2851 142.538 51.4683 142.639 51.5612C142.683 51.6091 142.736 51.6479 142.795 51.6751C142.854 51.7023 142.918 51.7176 142.983 51.7199Z"
    fill="#323439" />
  <path
    d="M129.829 52.5253C129.918 52.5252 130.006 52.5001 130.082 52.4529C130.158 52.4057 130.219 52.3383 130.259 52.2582C131.208 50.3924 133.357 50.764 133.395 50.7679C133.52 50.7866 133.647 50.756 133.75 50.6825C133.852 50.6091 133.922 50.4986 133.944 50.3746C133.966 50.2505 133.939 50.1227 133.868 50.0183C133.798 49.914 133.689 49.8412 133.566 49.8156C132.571 49.6337 130.414 49.8156 129.395 51.8207C129.337 51.9352 129.327 52.068 129.367 52.19C129.407 52.312 129.494 52.4131 129.608 52.4711C129.677 52.5057 129.752 52.5243 129.829 52.5253Z"
    fill="#323439" />
  <path
    d="M153.326 50.5702H153.392L154.224 50.4619C154.352 50.4454 154.467 50.3791 154.546 50.2775C154.624 50.1758 154.659 50.0472 154.643 49.9199C154.626 49.7926 154.56 49.6771 154.458 49.5987C154.356 49.5203 154.228 49.4854 154.1 49.5019H154.054L154.491 48.2864C154.531 48.1668 154.522 48.0365 154.467 47.9232C154.412 47.8099 154.315 47.7226 154.196 47.6797C154.078 47.6369 153.947 47.6419 153.833 47.6938C153.718 47.7456 153.628 47.8402 153.582 47.9574L152.873 49.9199C152.847 49.9927 152.839 50.0707 152.849 50.1473C152.859 50.2238 152.888 50.2968 152.932 50.3601C152.977 50.4234 153.036 50.4752 153.104 50.5111C153.173 50.547 153.249 50.5659 153.326 50.5664V50.5702Z"
    fill="#323439" />
  <path
    d="M139.301 54.3055C138.969 54.3055 138.701 54.0368 138.701 53.7055C138.701 53.3741 138.969 53.1055 139.301 53.1055C139.632 53.1055 139.901 53.3741 139.901 53.7055C139.901 54.0368 139.632 54.3055 139.301 54.3055Z"
    fill="#323439" />
  <path
    d="M132.695 55.0484C132.363 55.0484 132.095 54.7797 132.095 54.4484C132.095 54.117 132.363 53.8484 132.695 53.8484C133.026 53.8484 133.295 54.117 133.295 54.4484C133.295 54.7797 133.026 55.0484 132.695 55.0484Z"
    fill="#323439" />
  <path d="M154.56 52.0389L158.142 54.3218L155.858 57.9024L152.277 55.6195L154.56 52.0389Z" fill="#FF7A00" />
  <path
    d="M155.859 58.397C155.94 58.3973 156.021 58.3769 156.093 58.3376C156.165 58.2983 156.225 58.2415 156.269 58.1725L158.55 54.5957C158.584 54.5422 158.608 54.4823 158.619 54.4196C158.63 54.3569 158.629 54.2926 158.615 54.2304C158.602 54.1681 158.576 54.1092 158.539 54.057C158.503 54.0048 158.456 53.9603 158.403 53.9261L154.821 51.6461C154.713 51.5769 154.582 51.5532 154.457 51.5803C154.395 51.5937 154.336 51.6194 154.284 51.656C154.232 51.6926 154.188 51.7392 154.155 51.7932L151.87 55.3738C151.802 55.4817 151.779 55.6123 151.807 55.737C151.834 55.8617 151.91 55.9705 152.017 56.0396L155.599 58.3234C155.677 58.3718 155.767 58.3973 155.859 58.397ZM157.473 54.4835L155.712 57.2473L152.947 55.4861L154.709 52.7222L157.473 54.4835Z"
    fill="#323439" />
  <path
    d="M141.31 60.8167H141.392C143.916 60.3987 144.319 57.9484 144.18 56.7135C144.177 56.6474 144.16 56.5825 144.131 56.523C144.103 56.4634 144.062 56.4104 144.011 56.3673C143.961 56.3242 143.903 56.2918 143.839 56.2722C143.776 56.2526 143.709 56.2462 143.644 56.2533C143.578 56.2605 143.514 56.2811 143.457 56.3138C143.399 56.3466 143.349 56.3908 143.309 56.4437C143.269 56.4967 143.241 56.5572 143.225 56.6216C143.21 56.686 143.208 56.7528 143.219 56.818C143.219 56.9303 143.479 59.489 141.233 59.8645C141.115 59.8858 141.008 59.9503 140.935 60.0455C140.862 60.1407 140.827 60.2598 140.836 60.3796C140.846 60.4993 140.9 60.6112 140.987 60.6934C141.075 60.7757 141.19 60.8224 141.31 60.8245V60.8167Z"
    fill="#323439" />
</svg>