<?xml version="1.0" encoding="UTF-8" standalone="no"?>
<svg width="17px" height="17px" viewBox="0 0 17 17" version="1.1" xmlns="http://www.w3.org/2000/svg" xmlns:xlink="http://www.w3.org/1999/xlink">
    <!-- Generator: Sketch 44.1 (41455) - http://www.bohemiancoding.com/sketch -->
    <defs></defs>
    <g id="Page-1" stroke="none" stroke-width="1" fill="none" fill-rule="evenodd">
        <g id="Recent-Activities4-Expand" transform="translate(-1240.000000, -423.000000)" fill-rule="nonzero" fill="#303030">
            <g id="Fax" transform="translate(978.000000, 370.000000)">
                <g id="Group-23-Copy">
                    <g id="Group" transform="translate(262.000000, 53.000000)">
                        <g id="Group-20">
                            <path d="M13.6005181,11.9750135 C12.708243,11.2024422 11.8642034,10.4539999 11.0683994,9.65728325 C10.5860934,9.15027874 9.76617159,9.05371352 9.13915897,9.46413632 C8.87389645,9.65728325 8.68097076,9.85043019 8.51216285,10.0435771 L8.41570824,10.1401423 C8.31925364,10.2367076 8.24690033,10.3332893 8.15044572,10.4298545 C7.95752003,10.4057091 7.30640613,10.2125621 6.19710403,8.83640466 C5.18425652,7.55682891 5.03956637,6.88082289 5.03956637,6.5669488 C5.13602098,6.49451251 5.23249206,6.42209273 5.37718221,6.37380187 L5.44953553,6.32551101 C5.69069676,6.20480036 5.95595928,6.05994429 6.19712051,5.79436107 C6.72766204,5.26321112 6.79999887,4.49063989 6.41416397,3.86290822 C5.90774022,3.06619156 5.23250855,2.00389167 4.70196702,0.893317427 C4.34023342,0.241456837 3.66500175,-0.0965461722 2.9656523,0.0241644729 C2.41099301,0.0966007624 1.34992644,0.651879632 0.915839518,1.0381735 C-0.699886343,2.51089618 -0.362270508,6.42207622 3.42384051,11.1058275 C5.98007705,14.2685652 8.82569388,16.1517272 11.0443146,16.1517272 C11.743664,16.1517272 12.2983233,15.9585803 12.708276,15.6205773 C13.1664642,15.2584288 13.938167,14.3410015 14.1069749,13.8822714 C14.3722374,13.2304108 14.1793282,12.457823 13.6005511,11.9749639 L13.6005181,11.9750135 Z M13.2146833,13.496027 C13.0941109,13.8098846 12.4670983,14.5824723 12.0812634,14.8963299 C11.8401021,15.1136223 11.478385,15.2101875 11.0201803,15.2101875 C9.06683863,15.2101875 6.48648432,13.4477361 4.12317347,10.5022908 C0.554089426,6.05996079 0.433517052,2.72822156 1.51870139,1.76250339 C1.83219945,1.47279124 2.72447458,1.03820651 3.08620819,0.989932154 L3.20678057,0.989932154 C3.47204309,0.989932154 3.71320432,1.13478823 3.85789446,1.37622602 C4.41255376,2.5109457 5.08778543,3.59739102 5.61832696,4.41825311 C5.78713488,4.6596909 5.73889933,4.97354848 5.52187236,5.19082434 C5.37718221,5.33568042 5.18425652,5.43226214 4.99133083,5.55297278 L4.94309529,5.57711821 C4.72605183,5.67368343 4.53312614,5.79441058 4.31609916,5.98755751 C4.26786362,6.03584837 4.12317347,6.20484988 4.12317347,6.4704166 C4.07493793,7.21885891 4.53314262,8.2087225 5.47363681,9.41587847 C7.33052391,11.6853343 8.36748918,11.3473313 8.48806156,11.2990404 L8.58451616,11.274895 L8.65686948,11.2266042 C8.82567739,11.0817481 8.97036754,10.9127466 9.11505769,10.7437451 L9.21151229,10.6471799 C9.35620243,10.4781784 9.50089258,10.3333223 9.6697005,10.2126116 C9.91086173,10.0436101 10.2484776,10.091901 10.4413868,10.2850479 C11.2613086,11.10591 12.1294659,11.8784978 13.0217411,12.651069 C13.2629023,12.8925068 13.3593569,13.2063644 13.2146668,13.4960765 L13.2146833,13.496027 Z M13.3640948,1.08296181 L13.3640948,1.08297831 C15.1245273,2.33840863 16.2097116,4.51129927 16.6196808,7.64989157 C16.643782,7.89132936 16.4508728,8.13275065 16.2097116,8.15689608 L16.1614761,8.15689608 C15.9203313,8.15689608 15.7274056,7.98789458 15.7032879,7.74645678 C15.365672,4.94586749 14.4010601,2.96614029 12.8817888,1.87969497 C11.097255,0.600102722 9.09567778,1.01054202 9.07156001,1.01054202 C8.806281,1.05883288 8.56513625,0.889831376 8.51690071,0.648393582 C8.44454739,0.382810357 8.61335531,0.141389067 8.85451655,0.0930982076 C8.95097115,0.0689527778 11.2419452,-0.413906307 13.3640948,1.08296181 Z M9.04744224,5.20161322 L9.04744224,5.20162972 C8.806281,5.24992058 8.56513625,5.08091908 8.51690071,4.86362671 C8.44454739,4.59804349 8.61335531,4.3566222 8.85451655,4.30833134 C8.90275209,4.28418591 10.1808621,4.01861919 11.3625175,4.86362671 C12.327146,5.53963273 12.9059066,6.72264327 13.12295,8.38851288 C13.1470513,8.62995068 12.9541421,8.87137197 12.7129809,8.8955174 L12.6647453,8.8955174 C12.4236006,8.8955174 12.2306749,8.72651589 12.2065571,8.4850781 C12.0136314,7.10892063 11.5554432,6.14320246 10.831976,5.61205252 C10.0120542,5.00846628 9.04744224,5.20161322 9.04744224,5.20161322 Z" id="Combined-Shape"></path>
                        </g>
                    </g>
                </g>
            </g>
        </g>
    </g>
</svg>