<?xml version="1.0" encoding="UTF-8" standalone="no"?>
<svg width="17px" height="15px" viewBox="0 0 17 15" version="1.1" xmlns="http://www.w3.org/2000/svg" xmlns:xlink="http://www.w3.org/1999/xlink">
    <!-- Generator: Sketch 44.1 (41455) - http://www.bohemiancoding.com/sketch -->
    <defs></defs>
    <g id="Page-1" stroke="none" stroke-width="1" fill="none" fill-rule="evenodd">
        <g id="multi-call-2-copy" transform="translate(-1081.000000, -303.000000)" fill="#303030">
            <g id="Group-3" transform="translate(1007.000000, 303.000000)">
                <g id="Page-1-Copy-8" transform="translate(74.000000, 0.000000)">
                    <path d="M16.4933792,5.71808043 C16.4737838,5.66693643 16.4423854,5.62112657 16.4012708,5.58095337 C16.3725786,5.54726075 16.3243073,5.51317006 16.2688303,5.49081446 C16.2172658,5.46998746 16.1614139,5.46011533 16.1024645,5.46011533 L14.3518987,5.46011533 L14.3518987,3.75486427 C14.3518987,3.70338589 14.3435356,3.65337241 14.3264833,3.60638426 C14.3070835,3.55262893 14.2752613,3.50449434 14.2330218,3.46320655 C14.1930647,3.42421164 14.1451683,3.39504109 14.091077,3.3764592 C14.0424144,3.35943773 13.9898718,3.35147634 13.9342318,3.35147634 C13.8801242,3.35147634 13.8287391,3.36018611 13.7804515,3.37758971 C13.7335169,3.39504109 13.6900874,3.42039017 13.6510921,3.45298412 C13.5999189,3.50221738 13.5686836,3.54692857 13.5477513,3.59692613 C13.526819,3.64654154 13.5165322,3.69993065 13.5165322,3.75484835 L13.5165322,5.46011533 L11.770629,5.46011533 C11.7142064,5.46011533 11.6597076,5.4703696 11.6086974,5.49081446 C11.5574917,5.51125933 11.5115516,5.54194254 11.471627,5.58095337 C11.4278062,5.62983633 11.4018203,5.67227057 11.3841811,5.71808043 C11.3661506,5.76506858 11.3576082,5.81544828 11.3576082,5.8680731 C11.3576082,5.9226405 11.3655638,5.97376857 11.3828117,6.02148917 C11.4020159,6.07416175 11.4316862,6.12111806 11.471627,6.16014481 C11.5138828,6.20141668 11.5631323,6.2324502 11.6182017,6.25141424 C11.6665057,6.26805355 11.7174995,6.27601495 11.770629,6.27601495 L13.5165485,6.27601495 L13.5165485,7.98585177 C13.5165485,8.04377887 13.5264278,8.09834627 13.5477513,8.14872597 C13.5706398,8.20287938 13.6055595,8.24988345 13.6511084,8.28809814 C13.6809743,8.31804891 13.7281045,8.34873212 13.7804678,8.36804647 C13.8287554,8.38549784 13.8801242,8.39382546 13.9342481,8.39382546 C13.9898881,8.39382546 14.0424307,8.38623029 14.0910933,8.36919291 C14.1506296,8.34873212 14.2024222,8.31389306 14.2435368,8.26688899 C14.2698815,8.24797272 14.3055837,8.19721086 14.3265159,8.13925191 C14.3437639,8.09154724 14.3519313,8.04040324 14.3519313,7.98585177 L14.3519313,6.27603087 L16.1024808,6.27603087 C16.1581371,6.27603087 16.210696,6.26845162 16.2593912,6.25143016 C16.3188949,6.2309853 16.3704756,6.19608255 16.4117858,6.14914216 C16.4381631,6.13022589 16.4738327,6.07984619 16.4947812,6.02148917 C16.5120618,5.97376857 16.5201804,5.9226405 16.5201804,5.8680731 C16.5201314,5.81544828 16.5116053,5.76506858 16.4933792,5.71808043 M13.102422,13.4390981 C13.1022546,13.4419912 13.1020371,13.4448353 13.1018195,13.447663 L0.900022649,13.447663 C0.897980991,13.4101344 0.896926693,13.3731941 0.896926693,13.3368423 L0.896926693,13.0790617 C0.919803295,12.8041839 0.978124404,12.5156578 1.07008265,12.246223 C1.16245927,11.9755459 1.26614868,11.75549 1.37900881,11.5867255 C1.41207697,11.5330967 1.47754388,11.4650515 1.5824382,11.378716 C1.7096234,11.2748747 1.84758587,11.1741554 1.9964595,11.0773589 C2.1686281,10.9704121 2.39257446,10.8537725 2.65949604,10.7339946 C2.93957124,10.6080219 3.22639061,10.4839779 3.52018842,10.3623203 C3.67684378,10.2907772 3.83368321,10.2273577 4.00667182,10.1655728 C4.21348165,10.0916759 4.39997532,10.0092469 4.56640386,9.91784439 C4.63250669,9.88639616 4.76665361,9.82376122 4.94799293,9.74172449 C5.27502625,9.59396358 5.48541735,9.38827515 5.48541735,9.07331884 C5.48541735,8.92595021 5.48938352,8.8054368 5.49736606,8.71326603 C5.50749068,8.59352084 5.51249441,8.44110154 5.51249441,8.25368708 L5.51249441,8.0950239 C5.51249441,7.96362456 5.48499898,7.84311115 5.40997644,7.73346732 C5.27281724,7.5324046 5.13488824,7.30921043 4.99635678,7.06388481 C4.87931292,6.8566109 4.81244028,6.66452171 4.79232494,6.48681633 C4.78355585,6.40206629 4.7744186,6.31649899 4.76524788,6.23563912 C4.7568637,6.16283745 4.74864686,6.08612927 4.74027941,6.00548188 C4.73325076,5.85482786 4.66754956,5.71208493 4.53874107,5.61156174 C4.53136099,5.60574284 4.51305301,5.58939761 4.48778332,5.56453651 L4.43960356,5.52368977 C4.38069673,5.480522 4.34247423,5.43933201 4.32075233,5.40005442 C4.28378495,5.33370911 4.25252416,5.26471588 4.22648467,5.19286223 C4.2011313,5.05381333 4.17731755,4.93485271 4.15534463,4.83586598 C4.13623338,4.74993908 4.11812622,4.63795788 4.10162562,4.50106655 C4.09048018,4.39142272 4.09844599,4.30201429 4.12093769,4.23900341 C4.12510467,4.22695698 4.16033163,4.19158589 4.25130252,4.14256653 L4.48380041,4.01777067 L4.48380041,3.50765227 C4.48380041,3.46018571 4.48759923,3.38748211 4.49574913,3.29299031 C4.50510393,3.12968508 4.51586447,2.99903762 4.52838217,2.88862557 C4.53914271,2.79452606 4.5590405,2.6973046 4.5882931,2.5969939 C4.70056751,2.14477032 4.88828283,1.8034001 5.15560604,1.54560308 C5.42450233,1.28662919 5.77782617,1.10390582 6.22488215,0.99851175 L6.27306192,0.98452023 C6.34510564,0.958858213 6.41100766,0.942153383 6.47051694,0.93317985 C6.55350529,0.921149758 6.63632628,0.911032058 6.71933136,0.902859441 C6.72373264,0.902859441 6.72373264,0.902859441 6.79714862,0.897040538 C6.84213202,0.893918598 6.91519657,0.892006206 7.01312918,0.892006206 C7.11005769,0.892006206 7.18031078,0.893918598 7.21953737,0.897040538 C7.28721329,0.902483501 7.28721329,0.902483501 7.30075182,0.903660358 C7.32284188,0.907517833 7.36645302,0.91569045 7.40504369,0.925023578 C7.47074488,0.940976527 7.53663016,0.954575761 7.60249871,0.965085747 C7.95540418,1.0187308 8.26635526,1.12878326 8.54420472,1.29599501 C8.80476704,1.45305636 9.01417078,1.67507367 9.17619803,1.96984362 C9.278716,2.16270104 9.36349498,2.3613937 9.42758963,2.56160647 C9.48790219,2.74903727 9.52711205,2.98076365 9.54322775,3.25528185 C9.55137764,3.36688711 9.55320175,3.4458019 9.55000538,3.49366075 C9.54481756,3.57453696 9.54244121,3.67561589 9.54244121,3.79849936 L9.54244121,4.23668239 L9.89735486,4.23668239 C9.9041827,4.29124278 9.90788111,4.35219416 9.90788111,4.41981439 C9.90788111,4.44433224 9.90450066,4.48787595 9.89733813,4.5473726 C9.88975722,4.6115113 9.88220978,4.66015471 9.87605134,4.69086741 C9.84517546,4.90508804 9.81471795,5.09291113 9.77970855,5.28030923 C9.76536675,5.35811255 9.72973815,5.41097303 9.65647278,5.4599597 L9.59261242,5.51169236 C9.5870397,5.51713533 9.55835609,5.54163683 9.51437679,5.5774002 C9.37204651,5.69323888 9.28465689,5.85152612 9.26157947,6.03151984 L9.25839984,6.07275886 C9.25063485,6.332076 9.20786045,6.58055625 9.13042809,6.81931108 C9.05639292,7.04714729 8.94154133,7.25867097 8.78426679,7.45618677 L8.7536252,7.49973048 C8.73213759,7.53477466 8.70844098,7.57053803 8.68276965,7.60590912 C8.6425557,7.66226748 8.60563852,7.72266312 8.57178383,7.78693258 C8.52226528,7.86833185 8.49343105,7.95831236 8.48273745,8.05344162 C8.47636146,8.10868851 8.47319856,8.16230088 8.47319856,8.2140172 C8.47319856,8.37812335 8.47815209,8.50875446 8.48911345,8.61022567 C8.49724661,8.68606756 8.50581487,8.79688824 8.51456722,8.94074265 C8.51383089,9.28817694 8.59978131,9.55506192 8.93744129,9.62828857 C8.94964102,9.63892931 8.96528815,9.654065 8.98354592,9.67371197 C9.14038536,9.84049874 9.34401556,9.95872382 9.58565071,10.0286978 C9.73216471,10.0714569 9.86273037,10.1189071 9.97718031,10.1710157 C10.250662,10.2856939 10.4981041,10.3813462 10.7323424,10.4638079 C10.9467499,10.5392248 11.1800176,10.6321638 11.4316268,10.7421836 C11.6181372,10.8222752 11.829934,10.9572215 12.0662307,11.1489347 C12.3088365,11.3456496 12.4959494,11.528422 12.627335,11.6944569 C12.8114523,11.9393739 12.9390392,12.2030062 13.0061126,12.4794858 C13.0781396,12.77692 13.1105886,13.0965674 13.102422,13.4390981 L13.102422,13.4390981 Z M13.8787203,12.2776548 C13.7833816,11.8841924 13.6040504,11.5132209 13.3434881,11.1671597 C13.1615631,10.9373947 12.9290484,10.7103431 12.6392335,10.4750861 C12.3432434,10.2347458 12.0632184,10.0566971 11.7956944,9.94159401 C11.5269655,9.82415351 11.2727791,9.72305823 11.0361143,9.63986099 C10.8191296,9.56325088 10.5882383,9.47423474 10.3434068,9.37157032 C10.2002899,9.30625477 10.0285062,9.24361983 9.84119256,9.18922289 C9.74883267,9.16238402 9.68632784,9.12622836 9.6445408,9.08149146 C9.56633864,8.99816345 9.48925771,8.92995479 9.40859552,8.87836923 C9.39917377,8.71653507 9.39027081,8.60396545 9.38098294,8.51846353 C9.37402123,8.45275569 9.37005506,8.35009127 9.37005506,8.21398451 C9.37005506,8.20474945 9.37037302,8.1946481 9.37104242,8.18379486 C9.38603688,8.15571375 9.40165054,8.13046036 9.41743154,8.10824719 C9.44988051,8.0632978 9.48032128,8.01774363 9.50905509,7.97212408 C9.72215725,7.69964903 9.88138977,7.402934 9.98511265,7.08405483 C10.0778742,6.79881416 10.1328148,6.50345578 10.1503697,6.19914021 C10.167841,6.18439681 10.1830865,6.17122255 10.1965581,6.15912708 C10.4465941,5.98060444 10.6068307,5.73366064 10.6620894,5.43696195 C10.6995086,5.23670015 10.7319408,5.03648738 10.760022,4.83624192 C10.7672012,4.80551288 10.7777107,4.73514664 10.7880864,4.64959569 C10.7990477,4.55902675 10.8048045,4.48396943 10.8048045,4.4197817 C10.8048045,4.21409328 10.7817271,4.0286566 10.7333465,3.86337359 C10.6835268,3.69323605 10.5825986,3.5651548 10.4478325,3.48081339 C10.449439,3.40098327 10.4461255,3.30775006 10.4381263,3.1988908 C10.4184293,2.86252223 10.3674715,2.5611815 10.283295,2.29911836 C10.2032855,2.04949395 10.0983744,1.80338376 9.96918103,1.56075511 C9.73131123,1.12755737 9.41284618,0.790060982 9.01473977,0.550554269 C8.63375315,0.321132565 8.20938968,0.171066972 7.74519716,0.100275764 C7.70779467,0.094456861 7.66520436,0.0854996728 7.62259732,0.0754146634 C7.55292995,0.0583012035 7.47929641,0.0443096832 7.4012616,0.033391067 C7.36163337,0.0295172465 7.36163337,0.0295172465 7.29395745,0.0240906289 C7.22489254,0.0182226899 7.13271674,0.0159180119 7.01311244,0.0159180119 C6.89426122,0.0159180119 6.80051234,0.0182226899 6.7282678,0.0236983432 C6.65500243,0.0291249609 6.65500243,0.0291249609 6.64027572,0.0303018178 C6.53238585,0.0407791127 6.43487162,0.0528582406 6.337508,0.0668497608 C6.22454746,0.0835218995 6.10926077,0.112240475 5.99161445,0.152662239 C5.4023286,0.295339786 4.91049003,0.551469602 4.5257548,0.921852603 C4.13422519,1.29903522 3.86629952,1.78623761 3.72120798,2.37376704 C3.68298548,2.50284536 3.65333125,2.64789296 3.63699799,2.79176371 C3.6224721,2.91930557 3.61052339,3.06588963 3.6009845,3.23230046 C3.59201459,3.33689361 3.58686025,3.43216998 3.58686025,3.50760323 L3.58686025,3.52711944 C3.43892377,3.64606371 3.33161963,3.78712308 3.27294709,3.95319065 C3.20507035,4.14567213 3.1859591,4.36031774 3.21005735,4.595542 C3.2305576,4.76621893 3.25303256,4.90541495 3.27892144,5.02210357 C3.30022496,5.11697131 3.32390484,5.23709243 3.34997781,5.3817641 L3.36631106,5.44435 C3.41069201,5.57460517 3.46643594,5.69979332 3.53330858,5.81957119 C3.61157769,5.95978061 3.72134186,6.08356306 3.85831698,6.19149064 C3.86352153,6.23983985 3.86872608,6.28694681 3.87388043,6.3324356 C3.88263278,6.41022256 3.89160268,6.49225929 3.90035503,6.57859482 C3.93479545,6.88184794 4.03948895,7.18317233 4.21108856,7.48727541 C4.34541957,7.72503318 4.48023588,7.9449583 4.61553751,8.14757382 L4.61553751,8.25365439 C4.61553751,8.41888836 4.61135378,8.54881663 4.60358879,8.64052973 C4.59625891,8.72676719 4.59167355,8.82603179 4.58966536,8.93827452 C4.58380815,8.94106955 4.57763297,8.94392997 4.57095575,8.94692114 C4.38225307,9.0324721 4.24114444,9.09819629 4.14598982,9.14446964 C4.00446282,9.22143935 3.8617309,9.2848752 3.6985322,9.34316231 C3.50146208,9.41352854 3.31992194,9.48662442 3.15414607,9.56284225 C2.86791242,9.68103464 2.57290969,9.80856015 2.28448378,9.93807979 C1.98292097,10.0737452 1.7239652,10.2082828 1.50699729,10.3432454 C1.32326488,10.4629416 1.15886127,10.5827195 1.00618882,10.707548 C0.831426314,10.8506505 0.702835381,10.9852045 0.618826208,11.1220958 C0.469751763,11.3444727 0.334399932,11.6314297 0.219347529,11.9689588 C0.10369267,12.3076157 0.0312473094,12.6668839 0.00139225676,13.045652 L3.26047666e-06,13.3368423 C3.26047666e-06,13.4295852 0.00475597066,13.5237174 0.0140271025,13.6194841 C0.0192149199,13.8036949 0.0824393533,13.9703509 0.224920249,14.0939045 C0.300946877,14.1600864 0.393457377,14.2126527 0.506267304,14.2601519 C0.585306213,14.3042841 0.672394607,14.3237022 0.759767494,14.3237022 L13.1717044,14.3237022 C13.2254569,14.3237022 13.2704236,14.3163141 13.3209964,14.3038754 C13.5592511,14.2346697 13.7025688,14.1627343 13.8094545,14.0464707 C13.9408235,13.9037768 13.984033,13.7280328 13.998358,13.4737337 C14.0088843,13.0440502 13.9688879,12.6498031 13.8787203,12.2776548 L13.8787203,12.2776548 Z" id="Combined-Shape"></path>
                </g>
            </g>
        </g>
    </g>
</svg>