<?xml version="1.0" encoding="UTF-8" standalone="no"?>
<svg width="9px" height="9px" viewBox="0 0 9 9" version="1.1" xmlns="http://www.w3.org/2000/svg" xmlns:xlink="http://www.w3.org/1999/xlink">
    <!-- Generator: sketchtool 47 (45396) - http://www.bohemiancoding.com/sketch -->
    <title>188D7F9C-6A4F-4736-B027-05795EB2813C</title>
    <desc>Created with sketchtool.</desc>
    <defs></defs>
    <g id="Symbols" stroke="none" stroke-width="1" fill="none" fill-rule="evenodd">
        <g id="X" fill="#666666">
            <path d="M5.16731879,4.62339049 L8.97677868,0.813930601 C9.12375472,0.666954555 9.12501849,0.422165797 8.97481684,0.271964147 C8.82900794,0.126155244 8.58196854,0.120884151 8.43285038,0.270002308 L4.62339049,4.0794622 L0.813930601,0.270002308 C0.664812444,0.120884151 0.417773049,0.126155244 0.271964147,0.271964147 C0.121762496,0.422165797 0.123026262,0.666954555 0.270002308,0.813930601 L4.0794622,4.62339049 L0.270002308,8.43285038 C0.123026262,8.57982643 0.121762496,8.82461519 0.271964147,8.97481684 C0.417773049,9.12062574 0.664812444,9.12589683 0.813930601,8.97677868 L4.62339049,5.16731879 L8.43285038,8.97677868 C8.58196854,9.12589683 8.82900794,9.12062574 8.97481684,8.97481684 C9.12501849,8.82461519 9.12375472,8.57982643 8.97677868,8.43285038 L5.16731879,4.62339049 Z" id="Combined-Shape"></path>
        </g>
    </g>
</svg>
