<svg xmlns="http://www.w3.org/2000/svg" width="22" height="18" viewBox="0 0 22 18">
    <g fill="none" fill-rule="evenodd" stroke="#666" stroke-linecap="round" stroke-linejoin="round">
        <path d="M14.698 15.297v-.013a2.478 2.478 0 0 0-.498-1.313 2.483 2.483 0 0 0-1.223-.853c-.447-.14-.95-.295-1.438-.442.073-.034.15-.063.228-.088.73-.23 1.662-.515 2.237-.66l.247-1.333c-.3-.28-.547-.655-.717-1.094-.433-1.12-.595-2.846-.447-3.772.05-.314.087-.63.223-.919.2-.425.548-.727 1.039-.675.023-.278.344-.63.628-.666.306-.04.775-.02 1.486.156.421.1.86.326 1.216.78.257.326.466.951.494 1.366.218 3.204-.942 4.542-1.255 4.833l.258 1.325c.578.148 1.508.432 2.236.66.372.117.692.345.922.643.22.285.345.632.375.99l.09 1.075h-6.101z"/>
        <path d="M14.697 15.284a2.478 2.478 0 0 0-.497-1.313 2.483 2.483 0 0 0-1.223-.853c-.966-.303-2.2-.68-2.965-.875v-.664s-.043-.237-.343-.11v-.984c.42-.39.79-.908.989-1.54.076-.244.127-.503.146-.779.08.071.147.103.202.107.184.015.234-.281.225-.42-.013-.197.17-.452.197-1.3.01-.333-.085-.42-.203-.404a.39.39 0 0 0-.138.053 14.8 14.8 0 0 0 .105-1.06l.001-.015.008-.181c.02-.557.016-.963.004-1.255a2.462 2.462 0 0 0-.5-1.393 2.851 2.851 0 0 0-1.64-1.068c-.943-.234-1.564-.26-1.97-.207a.795.795 0 0 0-.69.722c-.652-.068-1.255.492-1.52 1.056-.182.385-.26.799-.297 1.22-.032.368-.07.765-.029 1.142v.21c.02.247.048.501.081.762l.004.028a.245.245 0 0 0-.085-.016c-.104.003-.182.102-.172.405.026.85.21 1.104.197 1.302-.009.13.035.4.194.42.06.006.136-.023.232-.108.021.306.081.592.172.856.201.592.552 1.079.95 1.45v.99c-.285-.11-.327.117-.327.117v.662c-.764.193-2 .571-2.968.876-.52.164-.962.49-1.27.919-.261.363-.41.796-.447 1.242L1 16.709h13.817l-.12-1.425z"/>
    </g>
</svg>
