<svg xmlns="http://www.w3.org/2000/svg" width="23" height="20" viewBox="0 0 25 22">
    <path fill="#2F2F2F" fill-rule="nonzero" d="M12.682 8.526a5.031 5.031 0 1 1 0 10.062 5.031 5.031 0 0 1 0-10.062zm0-1.092a6.1 6.1 0 0 0-4.33 1.793 6.1 6.1 0 0 0-1.792 4.33 6.1 6.1 0 0 0 1.793 4.33 6.1 6.1 0 0 0 4.33 1.792 6.1 6.1 0 0 0 4.33-1.793 6.1 6.1 0 0 0 1.792-4.33 6.1 6.1 0 0 0-1.793-4.33 6.101 6.101 0 0 0-4.33-1.792zm0-6.338a1.965 1.965 0 1 1 0 3.93 1.965 1.965 0 0 1 0-3.93zm0-1.096c-.817 0-1.586.318-2.164.897A3.041 3.041 0 0 0 9.62 3.06c0 .818.318 1.587.897 2.165a3.041 3.041 0 0 0 2.164.896c.818 0 1.587-.318 2.165-.896a3.041 3.041 0 0 0 .896-2.165c0-.817-.318-1.586-.896-2.164A3.041 3.041 0 0 0 12.682 0zm-9.62 16.402a1.965 1.965 0 1 1 0 3.93 1.965 1.965 0 0 1 0-3.93zm0-1.096c-.818 0-1.587.319-2.165.897A3.041 3.041 0 0 0 0 18.367c0 .818.318 1.587.897 2.165a3.041 3.041 0 0 0 2.164.897c.818 0 1.587-.319 2.165-.897a3.041 3.041 0 0 0 .896-2.165c0-.817-.318-1.586-.896-2.164a3.041 3.041 0 0 0-2.165-.897zm18.804 1.096a1.965 1.965 0 1 1 0 3.93 1.965 1.965 0 0 1 0-3.93zm0-1.096c-.818 0-1.587.319-2.165.897a3.041 3.041 0 0 0-.896 2.164c0 .818.318 1.587.896 2.165a3.041 3.041 0 0 0 2.165.897c.818 0 1.586-.319 2.165-.897a3.041 3.041 0 0 0 .896-2.165c0-.817-.318-1.586-.896-2.164a3.042 3.042 0 0 0-2.165-.897z"/>
</svg>
