<svg xmlns="http://www.w3.org/2000/svg" width="23" height="16" viewBox="0 0 23 16">
    <path fill="#FFF" fill-rule="evenodd" d="M0 1c0-.552.44-1 1.002-1h19.996A.999.999 0 0 1 22 1c0 .552-.44 1-1.002 1H1.002A.999.999 0 0 1 0 1zm0 14c0-.552.445-1 1.002-1h8.06a.999.999 0 1 1 0 2h-8.06A.998.998 0 0 1 0 15zm0-7c0-.552.445-1 1.002-1h8.06a.999.999 0 1 1 0 2h-8.06A.998.998 0 0 1 0 8zm17.03-3.879s.098-.017.28-.017c.182 0 .28.017.28.017.1.017.182.034.282.05.677.12 1.255.458 1.585 1.085.198.39.33.746.347 1.288.016.22 0 .305 0 .509.297 0 .313.254.313.542 0 .085-.016.237-.033.322-.05.339-.05.712-.346.915-.033.034-.15.102-.166.237a2.504 2.504 0 0 1-.478 1.44c-.05.068-.1.153-.15.238-.032.05-.032.135-.032.186 0 .271.016.356.033.627 0 .322.132.22.297.407.165.186.496.237.71.339.43.186.776.305 1.222.508.38.17.892.61 1.14.95.38.524.495 1.118.479 1.778-.017.289-.066.322-.265.373 0 0-.033.017-.05.017H12.126c-.033 0-.066 0-.083-.017-.149-.05-.215-.101-.215-.237-.016-.153-.016-.305-.016-.458.05-.61.248-1.169.462-1.525.1-.152.364-.372.628-.559.33-.22.842-.44 1.337-.66.265-.12.595-.238.843-.374.148-.084.578-.237.578-.406 0-.288.016-.407.016-.729 0-.085.017-.186-.016-.237-.248-.373-.529-.847-.578-1.271l-.05-.44c0-.068-.033-.085-.099-.136a.936.936 0 0 1-.314-.509c-.05-.254-.082-.39-.115-.66-.033-.305.016-.526.313-.695 0-.187 0-.254.017-.44.016-.289.033-.475.083-.696.214-.898.776-1.457 1.65-1.677.166-.051.315-.068.463-.085z"/>
</svg>
