<?xml version="1.0" encoding="UTF-8"?>
<svg width="12" height="12" viewBox="0 0 12 12" version="1.1" xmlns="http://www.w3.org/2000/svg" xmlns:xlink="http://www.w3.org/1999/xlink">
    <title>icon-delete circle</title>
    <g id="DNC--lightinh" stroke="none" stroke-width="1" fill="none" fill-rule="evenodd">
        <g transform="translate(-130.000000, -79.000000)" fill="#F54C3D">
            <g transform="translate(130.000000, 79.000000)">
                <path d="M6,0 C9.3137085,0 12,2.6862915 12,6 C12,9.3137085 9.3137085,12 6,12 C2.6862915,12 0,9.3137085 0,6 C0,2.6862915 2.6862915,0 6,0 Z M3.53842053,3.18361594 C3.41828532,3.10061513 3.26915968,3.07728972 3.1323913,3.11328583 L3.1323913,3.11328583 L3.118,3.118 L3.11371817,3.13217146 C3.07062908,3.29639977 3.11319303,3.47819246 3.24113646,3.60613588 L3.24113646,3.60613588 L5.634,5.999 L3.24113646,8.39275183 C3.11319303,8.52069525 3.07062908,8.70248794 3.11371817,8.86671625 L3.11371817,8.86671625 L3.118,8.88 L3.1323913,8.88560188 C3.29651336,8.92879721 3.47842986,8.88656956 3.60669203,8.75830739 L3.60669203,8.75830739 L6,6.365 L8.39330797,8.75830739 L8.46157947,8.81527177 C8.58171468,8.89827258 8.73084032,8.92159799 8.8676087,8.88560188 L8.8676087,8.88560188 L8.881,8.88 L8.88628183,8.86671625 C8.92937092,8.70248794 8.88680697,8.52069525 8.75886354,8.39275183 L8.75886354,8.39275183 L6.365,5.999 L8.75886354,3.60613588 C8.88680697,3.47819246 8.92937092,3.29639977 8.88628183,3.13217146 L8.88628183,3.13217146 L8.881,3.118 L8.8676087,3.11328583 C8.70348664,3.0700905 8.52157014,3.11231815 8.39330797,3.24058032 L8.39330797,3.24058032 L6,5.634 L3.60669203,3.24058032 Z"></path>
            </g>
        </g>
    </g>
</svg>
