<svg xmlns="http://www.w3.org/2000/svg" width="18" height="18" viewBox="0 0 18 18">
    <path fill="#0684BD" fill-rule="evenodd" d="M9 0a9 9 0 0 0-9 9 9 9 0 0 0 9 9 9 9 0 0 0 9-9 9 9 0 0 0-9-9m0 1c4.411 0 8 3.589 8 8s-3.589 8-8 8-8-3.589-8-8 3.589-8 8-8m3.859 8.611a.48.48 0 0 0-.682 0l-2.695 2.723V5.488A.485.485 0 0 0 9 5a.485.485 0 0 0-.483.488v6.846L5.823 9.611a.48.48 0 0 0-.682 0 .492.492 0 0 0 0 .69l3.517 3.555A.478.478 0 0 0 9 14a.48.48 0 0 0 .342-.144l3.517-3.555a.492.492 0 0 0 0-.69"/>
</svg>
