<?xml version="1.0" encoding="UTF-8"?>
<svg width="41px" height="41px" viewBox="0 0 41 41" version="1.1" xmlns="http://www.w3.org/2000/svg" xmlns:xlink="http://www.w3.org/1999/xlink">
    <title>icon/300/end&amp;answer</title>
    <g id="multiple-call" stroke="none" stroke-width="1" fill="none" fill-rule="evenodd">
        <g id="multiple_inbound-call-1" transform="translate(-46.000000, -335.000000)">
            <g id="icon/300/end&amp;answer" transform="translate(46.000000, 335.000000)">
                <g id="Group-15">
                    <circle id="Oval-3-Copy-3" fill="#F95B5C" cx="10" cy="10" r="10"></circle>
                    <path d="M7.94611792,12.0327554 C5.85702417,9.43533373 5.61499794,7.27081426 6.44299342,6.53233821 C6.65954917,6.34135017 7.23277011,6.04850127 7.50027554,6.01030889 C7.79326016,5.9593828 8.08623608,6.09943606 8.23910254,6.37955126 C8.53208717,6.97797406 8.88876107,7.56367186 9.25817458,8.13662727 C9.42377193,8.39127508 9.38556185,8.70959138 9.1690061,8.9260381 C9.04161883,9.05336636 8.88876107,9.12975984 8.74864292,9.20615331 C8.63399524,9.25707939 8.54482677,9.32074787 8.45565829,9.39714135 C8.45565829,9.39714135 8.4174395,9.43534243 8.4174395,9.51173591 C8.4046999,9.67725655 8.4301791,10.1356261 9.1562665,11.0523652 C9.94604319,12.0200304 10.4173648,12.0836901 10.5447433,12.0836901 C10.595693,12.0836901 10.6339118,12.0709564 10.6339118,12.0709564 C10.7230803,11.994563 10.7995092,11.9054358 10.875938,11.8163086 C10.9905857,11.6889804 11.0924938,11.5616608 11.2453515,11.4598 C11.5001174,11.2942793 11.8440517,11.3324717 12.0351282,11.5361934 C12.5191894,12.0200304 13.0414607,12.4783912 13.5382527,12.9113021 C13.780279,13.1150238 13.8694474,13.4333314 13.7420689,13.7007129 C13.6529004,13.942627 13.2452768,14.4391977 13.0032419,14.6301857 C12.7994257,14.80844 12.5191807,14.8848335 12.2007256,14.8848335 C10.9778461,14.8848248 9.38555314,13.8152988 7.94611792,12.0327554 Z" id="Shape" fill="#FFFFFF" transform="translate(9.900000, 10.442417) rotate(127.000000) translate(-9.900000, -10.442417) "></path>
                </g>
                <g id="Group-2-Copy" transform="translate(10.000000, 10.000000)">
                    <circle id="Oval-3-Copy-3" stroke="#FFFFFF" stroke-width="1.2" fill="#5FB95C" cx="15" cy="15" r="15"></circle>
                    <path d="M17.7608046,20.6776042 L17.7608046,20.6776042 C16.1962506,20.6776042 14.1590684,19.3092508 12.3174527,17.0286619 C9.6446627,13.7055164 9.33501394,10.9362267 10.3943527,9.9914192 C10.6714145,9.7470688 11.4047943,9.37239743 11.7470412,9.32353403 C12.1218862,9.25837912 12.4967201,9.43756348 12.6922977,9.79594333 C13.0671427,10.5615664 13.5234718,11.3109092 13.9961001,12.0439492 C14.2079656,12.3697461 14.1590796,12.7770005 13.8820178,13.0539228 C13.7190383,13.2168267 13.5234718,13.3145647 13.3442044,13.4123026 C13.197524,13.4774575 13.0834417,13.5589151 12.9693594,13.656653 C12.9693594,13.656653 12.9204622,13.7055275 12.9204622,13.8032655 C12.9041632,14.0150329 12.9367613,14.6014716 13.8657187,15.7743491 C14.8761603,17.0123815 15.4791699,17.0938279 15.6421382,17.0938279 C15.7073233,17.0938279 15.7562205,17.0775364 15.7562205,17.0775364 C15.8703028,16.9797985 15.9680861,16.865769 16.0658693,16.7517396 C16.2125497,16.5888356 16.3429311,16.4259428 16.5384975,16.2956218 C16.8644454,16.0838544 17.3044755,16.1327178 17.5489391,16.3933597 C18.1682478,17.0123815 18.8364425,17.5988091 19.4720391,18.152676 C19.7816878,18.4133179 19.8957701,18.8205611 19.7328018,19.1626495 C19.6187195,19.4721548 19.0972052,20.1074681 18.7875453,20.3518185 C18.5267826,20.5798774 18.1682366,20.6776153 17.7608046,20.6776153 L17.7608046,20.6776042 Z" id="Shape" fill="#FFFFFF"></path>
                </g>
            </g>
        </g>
    </g>
</svg>