<svg xmlns="http://www.w3.org/2000/svg" width="21" height="17" viewBox="0 0 21 17">
    <path fill="#666" fill-rule="nonzero" d="M15.055 12.04a.5.5 0 1 0 0-1H11.17a.5.5 0 0 0-.5.5v4.101a.5.5 0 1 0 1 0V12.04h3.386zm-4.101 3.101H3.386V1.001h11.169v2.923a.5.5 0 1 0 1 0V.5a.5.5 0 0 0-.5-.5H2.885a.5.5 0 0 0-.5.5v15.141a.5.5 0 0 0 .5.5h8.284a.5.5 0 0 0 .363-.156l3.886-4.102a.5.5 0 0 0 .137-.344V8.857a.5.5 0 1 0-1 0v2.483l-3.601 3.801zM.5 1h16.94a.5.5 0 1 0 0-1H.5a.5.5 0 1 0 0 1zm7.494 5.874c.162.027 2.135.03 6.094.023a3030.471 3030.471 0 0 0 6.015-.016.5.5 0 1 0-.003-1 2485.614 2485.614 0 0 1-6.014.016c-3.358.007-5.86.002-5.927-.01a.5.5 0 1 0-.165.987zM9.46 4.692a.5.5 0 0 0-.707-.708L6.69 6.046a.5.5 0 0 0 0 .707l2.063 2.063a.5.5 0 1 0 .707-.707L7.75 6.4l1.71-1.708z"/>
</svg>
