<?xml version="1.0" encoding="UTF-8" standalone="no"?>
<svg width="23px" height="15px" viewBox="0 0 23 15" version="1.1" xmlns="http://www.w3.org/2000/svg" xmlns:xlink="http://www.w3.org/1999/xlink">
    <!-- Generator: Sketch 44.1 (41455) - http://www.bohemiancoding.com/sketch -->
    <defs></defs>
    <g id="Page-1" stroke="none" stroke-width="1" fill="none" fill-rule="evenodd">
        <g id="multi-call-1" transform="translate(-1032.000000, -388.000000)" fill-rule="nonzero" fill="#000000">
            <g id="Reply" transform="translate(1044.000000, 395.500000) scale(-1, 1) translate(-1044.000000, -395.500000) translate(1032.000000, 388.000000)">
                <path d="M1.04405148,6.75910689 C1.08728979,6.68778028 1.14519322,6.62348377 1.21715613,6.56634555 C1.28935697,6.5096988 1.35439829,6.45249648 1.41199889,6.39531553 C1.989173,5.99609591 2.56613081,5.59388477 3.14308862,5.18759232 C3.72030599,4.78129987 4.29722053,4.37150306 4.87445953,3.95815915 C5.45137408,3.54528533 6.02497924,3.13544578 6.59477753,2.72913197 C7.16455419,2.32290362 7.73815935,1.92011554 8.31511716,1.52143012 C8.63264511,1.30742892 8.94275398,1.08985925 9.24570334,0.869255309 C9.54865269,0.648159908 9.85876156,0.431124439 10.1763111,0.2170805 C10.2915556,0.14573252 10.4106286,0.0855386717 10.5332489,0.0354519198 C10.6559341,-0.0146562001 10.7893477,-0.0111091008 10.9335115,0.0460718497 C11.0923187,0.117419829 11.1934605,0.2170805 11.2366988,0.34560943 C11.2799803,0.473604158 11.3015238,0.609205919 11.3015238,0.751389045 L11.3015238,3.59483788 C11.3015238,3.79418059 11.319455,3.91206822 11.3555555,3.94747511 C11.3916342,3.9834162 11.5035693,4.00113033 11.690993,4.00113033 C12.2825294,4.00113033 12.8633374,4.03653722 13.433114,4.1078852 C14.0029339,4.17923318 14.5765391,4.27889385 15.1534537,4.40744415 C16.3219695,4.69225913 17.3967194,5.1233599 18.3777467,5.700661 C19.358774,6.2779621 20.2171809,7.0580889 20.9531407,8.04170382 C21.4868385,8.76826088 21.9123865,9.54137895 22.2296982,10.3609939 C22.5472262,11.180673 22.7779747,12.0392848 22.922398,12.9373419 C22.9656579,13.2080326 22.9978866,13.482249 23.0196463,13.7599912 C23.0411898,14.0383103 23.052221,14.3125053 23.052221,14.583196 C23.0375992,14.7972186 22.9656579,14.928739 22.8357916,14.9788472 C22.7059685,15.0284425 22.5615668,14.9895312 22.4027596,14.8609595 C22.2586175,14.7612989 22.1251606,14.6474712 22.0025186,14.5189422 C21.8798767,14.3909689 21.7607821,14.2553457 21.6455376,14.1126712 C21.2703874,13.6709077 20.8701465,13.2540167 20.4445336,12.8624041 C20.0189423,12.4703001 19.5536384,12.1176415 19.0486867,11.8039796 C18.5149889,11.4619409 17.9667556,11.1912289 17.4041385,10.9918862 C16.8414997,10.792052 16.2714852,10.6352317 15.6945706,10.5213613 C15.11731,10.407555 14.5296886,10.3326385 13.9309278,10.2966974 C13.3322102,10.2612905 12.7297074,10.2365036 12.1238087,10.2218023 C11.8930818,10.2218023 11.7091622,10.2896246 11.57192,10.4252477 C11.4349374,10.5602725 11.3591244,10.7424353 11.3447837,10.9701335 C11.3158428,11.2413156 11.3015238,11.5119849 11.3015238,11.7826756 L11.3015238,13.0865338 C11.3015238,13.2574997 11.2943426,13.4285724 11.2799803,13.5995597 C11.2510611,13.8277707 11.1573384,13.9846123 10.9985312,14.070106 C10.8397888,14.1555782 10.659503,14.1555782 10.4574575,14.070106 C10.3708727,14.0417933 10.291534,14.0058735 10.2195711,13.9633725 C10.147327,13.9203372 10.0825452,13.8707633 10.0246418,13.8135609 C9.51969016,13.457398 9.01136425,13.1012136 8.4991882,12.7445378 C7.98703378,12.3883108 7.47846993,12.0321051 6.9735183,11.6758994 C6.46850177,11.319245 5.95991629,10.963082 5.4477835,10.6068763 C4.93565071,10.2506706 4.42706524,9.89442217 3.92230827,9.53774638 C3.48951421,9.22459734 3.06035398,8.91798693 2.63471944,8.61894082 C2.20917142,8.3194246 1.78710583,8.01990839 1.3686957,7.72088364 C1.16665015,7.57818768 1.03682707,7.42134606 0.979183204,7.25033741 C0.921625855,7.07935013 0.943104415,6.91541431 1.04405148,6.75910689 L1.04405148,6.75910689 Z" id="Shape"></path>
            </g>
        </g>
    </g>
</svg>