<svg xmlns="http://www.w3.org/2000/svg" width="21" height="21" viewBox="0 0 1024 1024">
  <rect id="backgroundrect" width="100%" height="100%" x="0" y="0" fill="none" stroke="none"/>
  <g class="currentLayer" style=""><g id="icomoon-ignore">
  </g>
    <path fill="#000" d="M887.395 649.354h15.172c40.366 0 73.21-32.648 73.21-72.777v-447.515c0-40.138-32.844-72.798-73.21-72.798h-603.91c-40.367 0-73.209 32.66-73.209 72.798v15.356h-44.138v-15.356c0-64.48 52.65-116.936 117.348-116.936h603.909c64.695 0 117.346 52.456 117.346 116.936v447.514c0 64.459-52.65 116.915-117.346 116.915h-15.172v-44.137z" id="svg_1" class=""/>
    <path fill="#000000" d="M418.59,1019.2721110448837 l-15.044,-14.01 c-95.751,-89.2 -130.707,-121.807 -143.768,-134.112 h-137.669 c-64.708,0 -117.348,-52.456 -117.348,-116.914 v-447.514 c0,-64.48 52.64,-116.937 117.348,-116.937 h603.909 c64.696,0 117.346,52.456 117.346,116.937 v447.514 c0,64.458 -52.649,116.914 -117.346,116.914 h-148.617 c-13.061,12.306000000000001 -48.018,44.912 -143.77,134.112 l-15.041,14.01 zM122.109,233.92211104488374 c-40.366,0 -73.211,32.662 -73.211,72.801 v447.514 c0,40.126 32.845,72.776 73.211,72.776 h156.741 l6.617,7.933 c2.3280000000000003,2.132 76.185,70.968 133.123,124.006 c56.938,-53.038 130.901,-122.003 134.543,-125.536 l6.617,-7.952 l8.921,1.55 h157.348 c40.364,0 73.209,-32.65 73.209,-72.776 v-447.516 c0,-40.139 -32.845,-72.801 -73.209,-72.801 h-603.91 z" id="svg_2" class="" fill-opacity="1"/>
    <rect fill="#000" stroke-dashoffset="" fill-rule="nonzero" id="svg_3" x="46.33333206176758" y="231.88888549804688" width="757" height="600" style="color: rgb(0, 0, 0);" class=""/>
    <rect fill="#000" stroke-dashoffset="" fill-rule="nonzero" id="svg_5" x="281" y="489" width="16" height="1" style="color: rgb(0, 0, 0);"/>
    <rect fill="#000" stroke-dashoffset="" fill-rule="nonzero" id="svg_7" x="197" y="480" width="84" height="9" style="color: rgb(0, 0, 0);"/>
    <rect fill="#000" stroke-dashoffset="" fill-rule="nonzero" id="svg_9" x="155" y="504" width="1" height="0" style="color: rgb(0, 0, 0);"/>
    <path fill="#000000" fill-opacity="1" stroke="none" stroke-opacity="1" stroke-width="1" stroke-dasharray="none" stroke-linejoin="miter" stroke-linecap="butt" stroke-dashoffset="" fill-rule="nonzero" opacity="1" marker-start="" marker-mid="" marker-end="" id="svg_4" d="M266.4444202935264,822.6221732581122 " style="color: rgb(0, 0, 0);"/>
    <path fill="#000000" fill-opacity="1" stroke="none" stroke-opacity="1" stroke-width="1" stroke-dasharray="none" stroke-linejoin="miter" stroke-linecap="butt" stroke-dashoffset="" fill-rule="nonzero" opacity="1" marker-start="" marker-mid="" marker-end="" id="svg_6" d="M 270.88886456136447 822.6221732581122 C 270.88886456136447 822.6221732581122 566.4444083725979 821.5110621911526 565.5555555555555 821.1111111111111 C 566.4444083725979 821.5110621911526 421.99996966785966 967.0666119628503 421.1111111111111 966.6666666666666" style="color: rgb(0, 0, 0);"/>
    <rect fill="#000000" stroke-dashoffset="" fill-rule="nonzero" id="svg_10" x="211.3563690185547" y="55.17813491821289" width="770.8658447265625" height="88.71075439453125" style="color: rgb(0, 0, 0);" class=""/>
    <rect fill="#000000" stroke-dashoffset="" fill-rule="nonzero" id="svg_12" x="850" y="80" width="1" height="14" style="color: rgb(0, 0, 0);"/>
    <rect fill="#000000" stroke-dashoffset="" fill-rule="nonzero" id="svg_15" x="887.6187133789062" y="137.55552673339844" width="93.6034927368164" height="518.888916015625" style="color: rgb(0, 0, 0);" class=""/>
    <rect fill="#000000" stroke-dashoffset="" fill-rule="nonzero" id="svg_19" x="907" y="325" width="0" height="2" style="color: rgb(0, 0, 0);"/><path fill="#000000" fill-opacity="1" stroke="none" stroke-opacity="1" stroke-width="1" stroke-dasharray="none" stroke-linejoin="miter" stroke-linecap="butt" stroke-dashoffset="" fill-rule="nonzero" opacity="1" marker-start="" marker-mid="" marker-end="" id="svg_21" d="M799.777732434098,127.06664534145014 " style="color: rgb(0, 0, 0);"/><path fill="#000000" fill-opacity="1" stroke="none" stroke-opacity="1" stroke-width="1" stroke-dasharray="none" stroke-linejoin="miter" stroke-linecap="butt" stroke-dashoffset="" fill-rule="nonzero" opacity="1" marker-start="" marker-mid="" marker-end="" id="svg_13" d="M 817.5555095054503 127.06664534145014 C 817.5555095054503 127.06664534145014 910.8888391300502 212.62219749733356 910 212.22222222222223 C 910.8888391300502 212.62219749733356 895.3332841926169 115.9555346718549 894.4444444444445 115.55555555555556" style="color: rgb(0, 0, 0);"/></g>
</svg>
