<?xml version="1.0" encoding="UTF-8"?>
<svg width="21" height="21" viewBox="0 0 136 136" version="1.1" xmlns="http://www.w3.org/2000/svg" xmlns:xlink="http://www.w3.org/1999/xlink">
    <defs></defs>
    <g id="LargeSize_Black" stroke="none" stroke-width="1" fill="none" fill-rule="evenodd">
        <g id="Group-4" fill="#000000">
            <path d="M48.3742273,-1.61652314e-14 L87.6257727,-5.15105068e-15 C104.446545,-8.24097649e-15 110.546164,1.75139168 116.695587,5.04013913 C122.84501,8.32888658 127.671113,13.1549898 130.959861,19.3044129 C134.248608,25.453836 136,31.5534546 136,48.3742273 L136,133.836681 C136,134.588914 135.921677,134.861692 135.774602,135.136697 C135.627528,135.411702 135.411702,135.627528 135.136697,135.774602 C134.861692,135.921677 134.588914,136 133.836681,136 L48.3742273,136 C31.5534546,136 25.453836,134.248608 19.3044129,130.959861 C13.1549898,127.671113 8.32888658,122.84501 5.04013913,116.695587 C1.75139168,110.546164 -1.07086216e-14,104.446545 -2.02384958e-14,87.6257727 L-5.80250957e-15,48.3742273 C-7.86246011e-15,31.5534546 1.75139168,25.453836 5.04013913,19.3044129 C8.32888658,13.1549898 13.1549898,8.32888658 19.3044129,5.04013913 C25.453836,1.75139168 31.5534546,-1.30753056e-14 48.3742273,-1.61652314e-14 Z M46.0992493,7 C32.5035885,7 27.5734734,8.41559057 22.603103,11.0737737 C17.6327327,13.7319569 13.7319569,17.6327327 11.0737737,22.603103 C8.41559057,27.5734734 7,32.5035885 7,46.0992493 L7,89.9007507 C7,103.496411 8.41559057,108.426527 11.0737737,113.396897 C13.7319569,118.367267 17.6327327,122.268043 22.603103,124.926226 C27.5734734,127.584409 32.5035885,129 46.0992493,129 L127.178606,129 C127.811945,129 128.041608,128.934056 128.273147,128.810228 C128.504686,128.6864 128.6864,128.504686 128.810228,128.273147 C128.934056,128.041608 129,127.811945 129,127.178606 L129,46.0992493 C129,32.5035885 127.584409,27.5734734 124.926226,22.603103 C122.268043,17.6327327 118.367267,13.7319569 113.396897,11.0737737 C108.426527,8.41559057 103.496411,7 89.9007507,7 L46.0992493,7 Z" id="Combined-Shape"></path>
            <g transform="translate(25.000000, 25.000000)" id="Path">
                <path d="M13.2942708,0.427083333 L72.6681793,0.427083333 C79.7745307,0.427083333 85.5353668,6.1879194 85.5353668,13.2942708 L85.5353668,43.3113751 C85.5353668,52.7193201 76.6498245,58.6113413 70.1720317,60.5163772 C73.0764491,66.0042134 77.6276121,74.3034418 83.8255208,85.4140625 L62.8567708,85.4140625 L49.0177867,61.4514869 L48.1198737,61.4514869 C46.5523822,61.4514869 45.2816793,60.180784 45.2816793,58.6132925 L45.2816793,41.8043578 L64.5754779,41.8043578 L64.5754779,21.3777263 L21.4554155,21.3777263 L21.4554155,58.0186847 C21.4554155,64.1238455 22.6543742,74.6839773 31.8802083,85.4140625 L10.9075601,85.4140625 C3.20042056,79.7771382 0.427083333,68.2481039 0.427083333,61.4514869 L0.427083333,13.2942708 C0.427083333,6.1879194 6.1879194,0.427083333 13.2942708,0.427083333 Z"></path>
            </g>
        </g>
    </g>
</svg>
