<!-- Generated by IcoMoon.io -->
<svg version="1.1" xmlns="http://www.w3.org/2000/svg" width="21" height="21" viewBox="0 0 1024 1024">
<g id="icomoon-ignore">
</g>
<path fill="#000" d="M887.395 649.354h15.172c40.366 0 73.21-32.648 73.21-72.777v-447.515c0-40.138-32.844-72.798-73.21-72.798h-603.91c-40.367 0-73.209 32.66-73.209 72.798v15.356h-44.138v-15.356c0-64.48 52.65-116.936 117.348-116.936h603.909c64.695 0 117.346 52.456 117.346 116.936v447.514c0 64.459-52.65 116.915-117.346 116.915h-15.172v-44.137z"></path>
<path fill="#000" d="M418.59 1018.161l-15.044-14.010c-95.751-89.2-130.707-121.807-143.768-134.112h-137.669c-64.708 0-117.348-52.456-117.348-116.914v-447.514c0-64.48 52.64-116.937 117.348-116.937h603.909c64.696 0 117.346 52.456 117.346 116.937v447.514c0 64.458-52.649 116.914-117.346 116.914h-148.617c-13.061 12.306-48.018 44.912-143.77 134.112l-15.041 14.010zM122.109 232.811c-40.366 0-73.211 32.662-73.211 72.801v447.514c0 40.126 32.845 72.776 73.211 72.776h156.741l6.617 7.933c2.328 2.132 76.185 70.968 133.123 124.006 56.938-53.038 130.901-122.003 134.543-125.536l6.617-7.952 8.921 1.55h157.348c40.364 0 73.209-32.65 73.209-72.776v-447.516c0-40.139-32.845-72.801-73.209-72.801h-603.91z"></path>
</svg>
