<?xml version="1.0" encoding="UTF-8"?>
<svg width="36px" height="36px" viewBox="0 0 36 36" version="1.1" xmlns="http://www.w3.org/2000/svg" xmlns:xlink="http://www.w3.org/1999/xlink">
    <!-- Generator: Sketch 58 (84663) - https://sketch.com -->
    <title>Group 18</title>
    <desc>Created with Sketch.</desc>
    <g id="Vxd---Call-notification" stroke="none" stroke-width="1" fill="none" fill-rule="evenodd">
        <g id="Group-18">
            <ellipse id="Oval-3-Copy-4" fill="#F44236" cx="17.9513514" cy="18" rx="17.9513514" ry="18"></ellipse>
            <path d="M15.0942028,20.9434897 C11.7286692,16.7597718 11.3426746,13.2701931 12.6802861,12.0777318 C13.0301235,11.7693269 13.9556931,11.2959326 14.3874228,11.2337897 C14.8602927,11.1510614 15.3327478,11.3762695 15.578827,11.8276085 C16.0503345,12.791895 16.6246383,13.7355299 17.2195256,14.6585922 C17.4862009,15.0688407 17.4238769,15.5821763 17.0739862,15.9316309 C16.8681656,16.1372032 16.6213524,16.2607013 16.395096,16.3841727 C16.2099925,16.4665268 16.0659758,16.5693734 15.9219323,16.6927379 C15.9219323,16.6927379 15.8601819,16.7544138 15.8600216,16.8775911 C15.8391176,17.1445045 15.8792694,17.8835294 17.0489681,19.3601626 C18.3213296,20.9187757 19.0817255,21.0204323 19.2872648,21.0201651 C19.3694778,21.0200582 19.4311747,20.9994461 19.4311747,20.9994461 C19.5752182,20.8760816 19.6987316,20.732212 19.822245,20.5883423 C20.0075089,20.3827968 20.1722159,20.177292 20.4190825,20.0127301 C20.8305226,19.7453089 21.3854184,19.806169 21.6933141,20.1342504 C22.4733851,20.9133769 23.3151657,21.6513454 24.1158862,22.3483316 C24.5059948,22.6763062 24.6492101,23.1893605 24.4431097,23.6207556 C24.298719,24.0110067 23.6399315,24.812536 23.2489807,25.1209943 C22.9197268,25.4088405 22.4673603,25.5326059 21.9534978,25.533274 C19.9802468,25.5358258 17.4131504,23.8146552 15.0942028,20.9434897 Z" id="Shape-Copy" fill="#FFFFFF" transform="translate(18.250008, 18.375097) rotate(129.000000) translate(-18.250008, -18.375097) "></path>
        </g>
    </g>
</svg>