<?xml version="1.0" encoding="UTF-8"?>
<svg width="41px" height="41px" viewBox="0 0 41 41" version="1.1" xmlns="http://www.w3.org/2000/svg" xmlns:xlink="http://www.w3.org/1999/xlink">
    <title>icon/300/hold&amp;answer</title>
    <g id="multiple-call" stroke="none" stroke-width="1" fill="none" fill-rule="evenodd">
        <g id="multiple_inbound-call-1" transform="translate(-211.000000, -335.000000)">
            <g id="icon/300/hold&amp;answer" transform="translate(211.000000, 335.000000)">
                <g id="Group-3">
                    <circle id="Oval-Copy-3" fill="#0684BD" cx="10" cy="10" r="10"></circle>
                    <path d="M7.80307846,6 C8.24660645,6 8.60615692,6.35754594 8.60615692,6.79332427 L8.60615692,12.6197077 C8.60615692,13.0241454 8.30242916,13.3578975 7.90442294,13.4068508 L7.80307846,13.4130319 C7.35955047,13.4130319 7,13.055486 7,12.6197077 L7,6.79332427 C7,6.38888652 7.30372776,6.05513447 7.70173398,6.00618112 L7.80307846,6 Z M11.9214295,6 C12.3649575,6 12.724508,6.35754594 12.724508,6.79332427 L12.724508,12.6197077 C12.724508,13.0241454 12.4207802,13.3578975 12.022774,13.4068508 L11.9214295,13.4130319 C11.4779016,13.4130319 11.1183511,13.055486 11.1183511,12.6197077 L11.1183511,6.79332427 C11.1183511,6.38888652 11.4220788,6.05513447 11.8200851,6.00618112 L11.9214295,6 Z" id="Combined-Shape" fill="#FFFFFF"></path>
                </g>
                <g id="Group-2-Copy" transform="translate(10.000000, 10.000000)">
                    <circle id="Oval-3-Copy-3" stroke="#FFFFFF" stroke-width="1.2" fill="#5FB95C" cx="15" cy="15" r="15"></circle>
                    <path d="M17.7608046,20.6776042 L17.7608046,20.6776042 C16.1962506,20.6776042 14.1590684,19.3092508 12.3174527,17.0286619 C9.6446627,13.7055164 9.33501394,10.9362267 10.3943527,9.9914192 C10.6714145,9.7470688 11.4047943,9.37239743 11.7470412,9.32353403 C12.1218862,9.25837912 12.4967201,9.43756348 12.6922977,9.79594333 C13.0671427,10.5615664 13.5234718,11.3109092 13.9961001,12.0439492 C14.2079656,12.3697461 14.1590796,12.7770005 13.8820178,13.0539228 C13.7190383,13.2168267 13.5234718,13.3145647 13.3442044,13.4123026 C13.197524,13.4774575 13.0834417,13.5589151 12.9693594,13.656653 C12.9693594,13.656653 12.9204622,13.7055275 12.9204622,13.8032655 C12.9041632,14.0150329 12.9367613,14.6014716 13.8657187,15.7743491 C14.8761603,17.0123815 15.4791699,17.0938279 15.6421382,17.0938279 C15.7073233,17.0938279 15.7562205,17.0775364 15.7562205,17.0775364 C15.8703028,16.9797985 15.9680861,16.865769 16.0658693,16.7517396 C16.2125497,16.5888356 16.3429311,16.4259428 16.5384975,16.2956218 C16.8644454,16.0838544 17.3044755,16.1327178 17.5489391,16.3933597 C18.1682478,17.0123815 18.8364425,17.5988091 19.4720391,18.152676 C19.7816878,18.4133179 19.8957701,18.8205611 19.7328018,19.1626495 C19.6187195,19.4721548 19.0972052,20.1074681 18.7875453,20.3518185 C18.5267826,20.5798774 18.1682366,20.6776153 17.7608046,20.6776153 L17.7608046,20.6776042 Z" id="Shape" fill="#FFFFFF"></path>
                </g>
            </g>
        </g>
    </g>
</svg>