<?xml version="1.0" encoding="UTF-8" standalone="no"?>
<svg width="11px" height="14px" viewBox="0 0 11 14" version="1.1" xmlns="http://www.w3.org/2000/svg" xmlns:xlink="http://www.w3.org/1999/xlink">
    <!-- Generator: Sketch 44.1 (41455) - http://www.bohemiancoding.com/sketch -->
    <defs></defs>
    <g id="Page-1" stroke="none" stroke-width="1" fill="none" fill-rule="evenodd">
        <g id="call" transform="translate(-1208.000000, -284.000000)" fill="#000000">
            <path d="M1208,285.508139 C1208,284.675217 1208.6658,284 1209.5,284 C1210.32843,284 1211,284.667829 1211,285.508139 L1211,296.338015 C1211,297.170937 1210.3342,297.846154 1209.5,297.846154 C1208.67157,297.846154 1208,297.178325 1208,296.338015 L1208,285.508139 Z M1215.69231,285.508139 C1215.69231,284.675217 1216.3581,284 1217.19231,284 C1218.02073,284 1218.69231,284.667829 1218.69231,285.508139 L1218.69231,296.338015 C1218.69231,297.170937 1218.02651,297.846154 1217.19231,297.846154 C1216.36388,297.846154 1215.69231,297.178325 1215.69231,296.338015 L1215.69231,285.508139 Z" id="Combined-Shape"></path>
        </g>
    </g>
</svg>