<?xml version="1.0" encoding="UTF-8"?>
<svg width="116px" height="69px" viewBox="0 0 116 69" version="1.1" xmlns="http://www.w3.org/2000/svg" xmlns:xlink="http://www.w3.org/1999/xlink">
    <title>img_call_switch</title>
    <g id="Take-over-call" stroke="none" stroke-width="1" fill="none" fill-rule="evenodd">
        <g id="takeover-4" transform="translate(-93.000000, -189.000000)">
            <g id="img_call_switch" transform="translate(93.000000, 189.000000)">
                <g id="Group-3" transform="translate(80.787402, 17.000000)">
                    <path d="M1.81,14.4947368 C1.81,19.3849712 5.77287745,23.3478947 10.662235,23.3478947 L24.5503634,23.3478947 C29.4399423,23.3478947 33.4025984,19.3845767 33.4025984,14.4947368 C33.4025984,9.60450249 29.439721,5.64157895 24.5503634,5.64157895 L10.662235,5.64157895 C5.77265611,5.64157895 1.81,9.60489695 1.81,14.4947368 Z" id="Rectangle-15" stroke="#7ED321" stroke-width="1.62"></path>
                    <polygon id="Rectangle-30-Copy" fill="#FFFFFF" fill-rule="nonzero" points="2.27373675e-13 6.44210526 17.0113309 6.44210526 17.0113309 24.1578947 2.27373675e-13 24.1578947"></polygon>
                    <rect id="Rectangle" fill="#F9F9F9" fill-rule="nonzero" x="15.3912041" y="22.5473684" width="3.2402535" height="1.61052632"></rect>
                    <polygon id="Rectangle" fill="#FFFFFF" fill-rule="nonzero" points="3.2402535 4.83157895 9.2402535 4.83157895 9.2402535 6.44210526 3.2402535 6.44210526"></polygon>
                    <path d="M10.494625,4.69235568 C10.4932864,4.24061596 10.8506914,3.87547389 11.2998614,3.87680502 L11.2998614,3.87680502 C11.7459215,3.87813422 12.1086045,4.24260908 12.1099553,4.6971559 L12.1262869,10.1916579 C12.1276256,10.6433976 11.7702205,11.0085397 11.3210506,11.0072086 L11.3210506,11.0072086 C10.8749905,11.0058794 10.5123074,10.6414045 10.5109566,10.1868577 L10.494625,4.69235568 Z" id="Rectangle-31-Copy" fill="#7ED321" fill-rule="nonzero" transform="translate(11.310456, 7.442007) rotate(-45.000000) translate(-11.310456, -7.442007) "></path>
                    <path d="M10.5109571,0.353007051 C10.5122995,-0.0987326687 10.8718811,-0.466005392 11.3210511,-0.467343803 L11.3210511,-0.467343803 C11.7671112,-0.46866572 12.1276344,-0.106339985 12.1262875,0.348206833 L12.1099558,5.84270889 C12.1086134,6.29444861 11.7490318,6.66172133 11.2998619,6.66305974 L11.2998619,6.66305974 C10.8538018,6.66438166 10.4932785,6.30205593 10.4946256,5.84750911 L10.5109571,0.353007051 Z" id="Rectangle-31" fill="#7ED321" fill-rule="nonzero" transform="translate(11.310457, 3.097858) rotate(45.000000) translate(-11.310457, -3.097858) "></path>
                </g>
                <path d="M38.3683843,24.8459048 C38.05383,25.1624286 37.5437855,25.1624286 37.2284267,24.8459048 C36.9138724,24.529381 36.9138724,24.0161429 37.2284267,23.6988095 L43.6635158,17.2242381 C43.9780701,16.9077143 44.4881147,16.9077143 44.8034735,17.2242381 C45.1180278,17.5407619 45.1180278,18.054 44.8034735,18.3705238 L38.3683843,24.8459048 Z M48.490436,19.6528095 C48.8057948,19.3362857 49.3150349,19.3362857 49.6303937,19.6528095 C49.944948,19.9693333 49.944948,20.4825714 49.6303937,20.7990952 L35.9549242,34.5601905 C35.6403699,34.8767143 35.1303254,34.8767143 34.8149666,34.5601905 C34.5004123,34.2436667 34.5004123,33.7304286 34.8149666,33.4130952 L48.490436,19.6528095 Z M41.0288219,53.4285714 C41.0288219,52.5348571 41.7488375,51.8095238 42.6377953,51.8095238 C43.5259486,51.8095238 44.2467687,52.5348571 44.2467687,53.4285714 C44.2467687,54.3230952 43.5259486,55.047619 42.6377953,55.047619 C41.7488375,55.047619 41.0288219,54.3230952 41.0288219,53.4285714 Z M83.6666171,49.3809524 L1.60897341,49.3809524 L1.60897341,56.6666667 C1.60897341,57.5595714 2.33059798,58.2857143 3.21794681,58.2857143 L82.0576437,58.2857143 C82.9441881,58.2857143 83.6666171,57.5595714 83.6666171,56.6666667 L83.6666171,49.3809524 Z M83.6666171,3.23809524 C83.6666171,2.34519048 82.9441881,1.61904762 82.0576437,1.61904762 L3.21794681,1.61904762 C2.33059798,1.61904762 1.60897341,2.34519048 1.60897341,3.23809524 L1.60897341,47.7619048 L83.6666171,47.7619048 L83.6666171,3.23809524 Z M37.8108751,66.3809524 L48.2692022,66.3809524 L48.2692022,59.9047619 L37.8108751,59.9047619 L37.8108751,66.3809524 Z M49.8781756,59.9047619 L49.8781756,66.3809524 L52.2916357,66.3809524 C52.7357124,66.3809524 53.0961224,66.7428095 53.0961224,67.1904762 C53.0961224,67.6373333 52.7357124,68 52.2916357,68 L33.7884415,68 C33.3435604,68 32.9839548,67.6373333 32.9839548,67.1904762 C32.9839548,66.7428095 33.3435604,66.3809524 33.7884415,66.3809524 L36.2019016,66.3809524 L36.2019016,59.9047619 L3.21794681,59.9047619 C1.44083569,59.9047619 0,58.4549048 0,56.6666667 L0,3.23809524 C0,1.44985714 1.44083569,2.13162821e-14 3.21794681,2.13162821e-14 L82.0576437,2.13162821e-14 C83.8347549,2.13162821e-14 85.2755906,1.44985714 85.2755906,3.23809524 L85.2755906,56.6666667 C85.2755906,58.4549048 83.8347549,59.9047619 82.0576437,59.9047619 L49.8781756,59.9047619 Z" id="Fill-1" fill="#2E80FE" fill-rule="nonzero"></path>
                <g id="Group-4" transform="translate(73.606299, 32.210526)" fill-rule="nonzero">
                    <rect id="Rectangle" stroke="#2E80FE" stroke-width="1.62" fill="#FFFFFF" x="0.81" y="0.81" width="20.8209449" height="34.1694737" rx="3.24"></rect>
                    <ellipse id="Oval" fill="#2E80FE" cx="11.2204724" cy="30.9090909" rx="1.60292463" ry="1.62679426"></ellipse>
                    <rect id="Rectangle" fill="#2E80FE" x="1.60292463" y="26.0287081" width="19.2350956" height="1.62679426"></rect>
                    <path d="M8.02316085,4.06698565 L14.417784,4.06698565 C14.8651347,4.06698565 15.227784,4.429635 15.227784,4.87698565 L15.227784,4.8837799 C15.227784,5.33113055 14.8651347,5.6937799 14.417784,5.6937799 L8.02316085,5.6937799 C7.57581021,5.6937799 7.21316085,5.33113055 7.21316085,4.8837799 L7.21316085,4.87698565 C7.21316085,4.429635 7.57581021,4.06698565 8.02316085,4.06698565 Z" id="Rectangle-Copy-2" fill="#2E80FE"></path>
                </g>
            </g>
        </g>
    </g>
</svg>