<?xml version="1.0" encoding="UTF-8"?>
<svg width="15px" height="18px" viewBox="0 0 15 18" version="1.1" xmlns="http://www.w3.org/2000/svg" xmlns:xlink="http://www.w3.org/1999/xlink">
    <!-- Generator: Sketch 58 (84663) - https://sketch.com -->
    <title>Group 4</title>
    <desc>Created with Sketch.</desc>
    <defs>
        <filter x="-0.0%" y="0.0%" width="100.0%" height="100.0%" filterUnits="objectBoundingBox" id="filter-1">
            <feGaussianBlur stdDeviation="0 0" in="SourceGraphic"></feGaussianBlur>
        </filter>
    </defs>
    <g id="Page-1" stroke="none" stroke-width="1" fill="none" fill-rule="evenodd">
        <g id="-Call-Log-no-match-create-record-Copy-96" transform="translate(-19.000000, -96.000000)" fill="#9E9E9E">
            <g id="incall" transform="translate(16.000000, 95.000000)">
                <g id="Group-4" transform="translate(3.000000, 1.000000)">
                    <path d="M3.78722279,18 L3.78722279,18 L3.66790628,18 C1.79876809,17.8772461 -0.149931528,14.6454374 0.0091229606,8.91820221 C0.128456575,3.19091429 2.23621069,0.040912089 4.10536597,0 L4.10536597,0 C4.6223529,0 5.65636097,0.286367034 6.05404849,0.49090989 C6.53129745,0.777259336 6.73015831,1.3499934 6.6108418,1.88179779 C6.37222586,2.98635384 6.1733821,4.13180439 6.01427632,5.27725494 C5.93474907,5.84998901 5.49728938,6.25909231 4.94051318,6.29998681 C4.6223529,6.3408989 4.3439648,6.25907472 4.06559379,6.21816263 C3.86678423,6.17721536 3.70766135,6.13632086 3.50881759,6.13632086 C3.38950107,6.17723295 2.79300399,6.74996702 2.71342545,8.95906153 C2.67367038,11.168156 3.23044658,11.781767 3.38953527,11.8226967 C3.54860686,11.8226967 3.74746772,11.7817846 3.94631148,11.7408725 C4.22468248,11.6999428 4.54284276,11.6590483 4.82121376,11.6999428 C5.37800707,11.7817846 5.77571168,12.1908703 5.81544966,12.7636044 C5.8949769,13.9499494 6.05403139,15.0954 6.25289225,16.1999384 C6.33241949,16.7727077 6.09385486,17.3045121 5.6165717,17.5908967 C5.29842852,17.7953868 4.30422683,17.9999648 3.78720569,17.9999648 L3.78722279,18 L3.78722279,18 Z M4.14515524,0.818189014 C2.87256543,0.859101103 0.963620884,3.43636923 0.844321468,8.91818462 C0.725022052,14.4 2.51465009,17.1000044 3.74750192,17.1818286 L3.78727409,17.1818286 C4.22471668,17.1818286 5.05988099,16.9772681 5.29851402,16.8545495 C5.45758561,16.7727253 5.53712995,16.5681648 5.49735778,16.3636572 C5.29851402,15.2182242 5.13940823,14.0727209 5.05991519,12.8454462 C5.05991519,12.6409385 4.94058157,12.5181846 4.74175491,12.5181846 C4.54289405,12.4772901 4.34403319,12.5181846 4.10543436,12.5591143 C3.9066077,12.6000264 3.66799177,12.6409385 3.42934164,12.6409385 L3.42934164,12.6409385 C3.27028715,12.6409385 3.03165412,12.6000264 2.75324892,12.3136769 C2.39535067,11.904556 1.91810171,11.0045604 1.95785678,8.91821979 C2.0771904,5.44093847 3.31002513,5.27730771 3.54864106,5.27730771 L3.58841323,5.27730771 C3.82701206,5.27730771 4.06562799,5.31823738 4.26450595,5.40006156 C4.50310478,5.44097365 4.70194854,5.48188574 4.9007923,5.48188574 C5.09967026,5.48188574 5.21896968,5.35913188 5.21896968,5.15458903 C5.37804126,3.96824398 5.57688502,2.78186375 5.81550096,1.67732529 C5.85527313,1.47278244 5.77574588,1.26822199 5.6166572,1.1864154 C5.41784763,1.06366155 4.50312188,0.818224192 4.14518944,0.818224192 L4.14515524,0.818189014 L4.14515524,0.818189014 Z M14.6022783,8.5908879 L7.88129423,8.5908879 L9.98903124,6.42270549 C10.1481199,6.25909231 10.1481199,6.01360218 9.98903124,5.84998901 C9.82994256,5.68635824 9.59130952,5.68635824 9.43227213,5.84998901 L6.6484253,8.71362417 C6.48935371,8.87725494 6.48935371,9.12272747 6.6484253,9.28635824 L9.43228923,12.1499758 C9.59132662,12.3136242 9.82995965,12.3136242 9.98904834,12.1499758 C10.148137,11.9863626 10.148137,11.7408725 9.98904834,11.5772593 L7.88131133,9.40905933 L14.6022954,9.40905933 C14.8408942,9.40905933 15,9.24544615 15,8.99995603 C14.9999829,8.75450108 14.8011391,8.5908879 14.6022783,8.5908879 Z" id="Shape" filter="url(#filter-1)"></path>
                </g>
            </g>
        </g>
    </g>
</svg>