<svg xmlns="http://www.w3.org/2000/svg" width="22" height="15" viewBox="0 0 22 15">
    <path fill="#FFF" fill-rule="evenodd" d="M14.688 7.509c2.169 2.048 4.193 4.07 6.36 6.119V1.392c-2.174 2.054-4.197 4.075-6.36 6.117zm-7.357 0C5.168 5.464 3.114 3.441.938 1.385v12.248c2.177-2.058 4.229-4.08 6.393-6.126zm-5.877 6.583h19.114c-2.174-2.055-4.314-3.99-6.467-6.025l-1.024.965c-1.176 1.108-2.925 1.118-4.112.019-.293-.272-.58-.549-.87-.823-.057-.052-.116-.1-.181-.156-2.152 2.034-4.286 3.966-6.46 6.02zM20.579.998l-.07-.08h-19l-.053.068c.066.043.141.077.197.13 2.607 2.46 5.21 4.84 7.818 7.3.932.88 2.158.868 3.095-.016 2.603-2.456 5.203-4.828 7.807-7.283.056-.052.137-.08.206-.12zM0 13.923V1.124c.018-.054.038-.107.054-.161C.176.53.444.233.877.082.95.056 1.023.027 1.096 0h19.813c.018.011.035.028.055.034.744.216 1.034.595 1.035 1.367v12.32c0 .109-.005.22-.03.322-.15.606-.634.957-1.307.957H10.275c-2.995 0-5.99 0-8.985-.002-.611-.001-1.086-.37-1.236-.938-.013-.046-.036-.092-.054-.137z"/>
</svg>
