<?xml version="1.0" encoding="UTF-8"?>
<svg width="12" height="12" viewBox="0 0 12 12" version="1.1" xmlns="http://www.w3.org/2000/svg" xmlns:xlink="http://www.w3.org/1999/xlink">
    <title>icon/remove</title>
    <g>
        <g transform="translate(-272.000000, -97.000000)">
            <g transform="translate(272.000000, 97.000000)">
                <path d="M3.1323913,3.11328583 C3.29651336,3.0700905 3.47842986,3.11231815 3.60669203,3.24058032 L3.60669203,3.24058032 L6,5.634 L8.39330797,3.24058032 C8.52157014,3.11231815 8.70348664,3.0700905 8.8676087,3.11328583 L8.881,3.118 L8.88628183,3.13217146 C8.92937092,3.29639977 8.88680697,3.47819246 8.75886354,3.60613588 L6.365,5.999 L8.75886354,8.39275183 C8.88680697,8.52069525 8.92937092,8.70248794 8.88628183,8.86671625 L8.881,8.88 L8.8676087,8.88560188 C8.73084032,8.92159799 8.58171468,8.89827258 8.46157947,8.81527177 L8.39330797,8.75830739 L6,6.365 L3.60669203,8.75830739 C3.47842986,8.88656956 3.29651336,8.92879721 3.1323913,8.88560188 L3.118,8.88 L3.11371817,8.86671625 C3.07062908,8.70248794 3.11319303,8.52069525 3.24113646,8.39275183 L5.634,5.999 L3.24113646,3.60613588 C3.11319303,3.47819246 3.07062908,3.29639977 3.11371817,3.13217146 L3.118,3.118 Z"></path>
                <circle stroke-width="0.5" cx="6" cy="6" r="5.75"></circle>
            </g>
        </g>
    </g>
</svg>
