<svg xmlns="http://www.w3.org/2000/svg" width="12" height="12" viewBox="0 0 12 12">
    <path fill="#FFF" fill-rule="nonzero" d="M11.289 6.007c-.405-.013-.706.378-.794.767-.376 1.68-1.94 3.823-4.583 3.823-2.367 0-4.48-2.238-4.461-4.602C1.468 3.726 3.33 1.415 6 1.358c1.525-.033 2.211.578 2.912 1.086l-1.192.06c-.328.09-.635.272-.66.743-.015.277.397.749.75.757h2.572c.473 0 .76-.106.76-.579V.857A.857.857 0 0 0 10.286 0c-.474 0-.8.4-.8.872l-.018.33C8.496.524 7.276.001 6 .001c-3.314 0-6 2.683-6 5.994a5.997 5.997 0 0 0 6 5.994c4.276 0 6-4.067 6-5.084 0-.623-.31-.885-.711-.898z"/>
</svg>
