<svg xmlns="http://www.w3.org/2000/svg" width="22" height="22" viewBox="0 0 22 22">
    <path fill="#666" fill-rule="evenodd" d="M10.863 21.986c-.69 0-1.379-.092-1.379-.092-.597-.092-1.057-.643-1.057-1.195v-.643c0-.184-.138-.367-.275-.414h-.046l-1.241-.551c-.23-.092-.46-.046-.551.046l-.46.459c-.413.414-1.148.46-1.608.093l-.046-.046-1.93-1.885c-.368-.505-.368-1.194.092-1.608l.46-.46c.137-.137.137-.367.091-.551l-.551-1.332c-.046-.138-.23-.276-.414-.276h-.644c-.597 0-1.103-.46-1.195-1.057 0-.046-.092-.735-.092-1.47-.046-.69.046-1.333.092-1.379.092-.597.644-1.057 1.195-1.057h.643c.184 0 .368-.138.414-.276v-.046l.551-1.332c.092-.184.046-.46-.046-.552l-.46-.46c-.413-.413-.459-1.102-.091-1.608l.046-.046 1.884-1.93c.46-.367 1.195-.321 1.608.092l.46.46c.137.138.367.138.551.092l1.424-.598c.138-.046.276-.23.276-.413v-.644c0-.597.46-1.103 1.057-1.195.046 0 .689-.092 1.425-.092.69 0 1.378.092 1.378.092.598.092 1.058.643 1.058 1.195v.643c0 .184.138.368.275.413h.046l1.333.552c.23.138.46.046.551-.046l.505-.506c.415-.367 1.15-.413 1.563-.046l.046.046 1.93 1.93c.368.506.368 1.196-.091 1.609l-.46.46c-.138.137-.138.367-.092.55l.552 1.38c.046.137.23.275.413.275h.644c.597 0 1.102.46 1.194 1.057 0 .046.092.69.092 1.378 0 .736-.092 1.425-.092 1.47-.092.598-.644 1.058-1.194 1.058h-.644c-.184 0-.367.184-.413.322l-.552 1.332c-.092.184-.046.46.046.552l.46.459c.413.46.413 1.149.046 1.609l-.047.045-1.93 1.931c-.459.367-1.194.322-1.608-.092l-.46-.46c-.137-.138-.366-.138-.55-.092l-1.333.552c-.138.045-.276.23-.276.413v.643c0 .598-.46 1.103-1.057 1.195-.138-.045-.827.047-1.516.047zm-1.241-1.012s.643.093 1.24.093c.644 0 1.241-.093 1.241-.093.138-.045.276-.183.276-.321v-.643c0-.598.413-1.149.919-1.287l1.24-.505c.138-.092.368-.138.598-.138.367 0 .735.138.965.414l.46.46c.137.137.275.091.367 0l1.838-1.839c.092-.138.046-.276-.046-.413l-.413-.46c-.368-.367-.506-1.057-.23-1.563l.505-1.24c.138-.505.736-.919 1.287-.919h.643c.138 0 .276-.138.322-.276 0 0 .092-.643.092-1.287 0-.597-.092-1.194-.092-1.24-.046-.138-.184-.276-.322-.276h-.643c-.598 0-1.15-.414-1.287-.919l-.506-1.287c-.229-.46-.137-1.148.277-1.562l.459-.46c.092-.092.092-.23 0-.367l-1.838-1.838c-.184-.092-.276-.046-.367 0l-.46.46c-.414.413-1.103.505-1.609.275l-1.286-.506c-.551-.184-.919-.735-.919-1.287v-.643c0-.138-.137-.276-.276-.322 0 0-.643-.092-1.24-.092-.643 0-1.24.092-1.24.092-.139.046-.277.184-.277.322v.643c0 .598-.413 1.15-.918 1.287l-1.287.551c-.138.092-.368.138-.598.138-.367 0-.735-.138-.965-.367l-.46-.46c-.137-.138-.275-.092-.366 0L2.913 4.937c-.092.092-.046.276.046.368l.459.46c.413.413.505 1.056.23 1.608l-.506 1.286c-.183.552-.735.92-1.287.92h-.643c-.138 0-.275.137-.321.275 0 0-.092.597-.046 1.194 0 .69.092 1.333.092 1.333.046.138.183.276.321.276h.643c.598 0 1.15.413 1.287.919l.506 1.24c.23.506.138 1.15-.276 1.563l-.46.46c-.091.091-.091.23 0 .367l1.839 1.792c.183.092.275.046.367-.046l.46-.459c.367-.368 1.103-.506 1.608-.23l1.195.506c.551.183.919.735.919 1.286v.644c-.046.092.092.23.275.275zm1.24-3.905a6.11 6.11 0 0 1-6.111-6.112c0-3.4 2.757-6.112 6.112-6.112a6.11 6.11 0 0 1 6.112 6.112 6.11 6.11 0 0 1-6.112 6.112zm0-11.305a5.187 5.187 0 0 0-5.192 5.193 5.158 5.158 0 0 0 5.193 5.192 5.187 5.187 0 0 0 5.192-5.192 5.187 5.187 0 0 0-5.192-5.193z"/>
</svg>
