<svg xmlns="http://www.w3.org/2000/svg" width="23" height="17" viewBox="0 0 23 17">
    <path fill="#FFF" fill-rule="evenodd" d="M0 1c0-.552.44-1 1.002-1h19.995A1 1 0 0 1 22 1c0 .553-.44 1.001-1.003 1.001H1.002a1 1 0 0 1-1.002-1zm0 7c0-.552.446-1 .998-1h7.004C8.553 7 9 7.444 9 8c0 .553-.446 1.001-.998 1.001H.998a.997.997 0 0 1-.998-1zm0 7c0-.552.446-1 .998-1h7.004c.551 0 .998.444.998 1 0 .553-.446 1.001-.998 1.001H.998a.997.997 0 0 1-.998-1zm16.93 2c-.376 0-.753-.05-.753-.05a.692.692 0 0 1-.576-.653v-.351c0-.1-.076-.2-.15-.226h-.026l-.677-.301c-.126-.05-.25-.025-.301.025l-.25.25a.683.683 0 0 1-.879.051l-.025-.025-1.053-1.029c-.2-.276-.2-.652.05-.879l.25-.25c.076-.076.076-.201.05-.302l-.3-.727c-.025-.075-.125-.15-.226-.15h-.351a.672.672 0 0 1-.653-.578c0-.025-.05-.402-.05-.803-.025-.377.025-.728.05-.753.05-.326.352-.578.653-.578h.35c.101 0 .201-.075.226-.15v-.025l.301-.728c.05-.1.025-.25-.025-.301l-.25-.251a.682.682 0 0 1-.05-.879l.024-.025 1.029-1.054a.683.683 0 0 1 .878.05l.25.251c.076.076.201.076.301.05l.778-.326c.075-.025.15-.125.15-.226v-.351c0-.326.251-.603.577-.653.025 0 .376-.05.778-.05.376 0 .752.05.752.05.327.05.578.351.578.653v.351c0 .1.075.2.15.226h.025l.727.301c.126.075.251.025.302-.025l.275-.276c.226-.201.627-.226.853-.025l.025.025 1.054 1.054c.2.276.2.653-.05.878l-.251.251c-.075.076-.075.201-.05.302l.3.753c.026.075.126.15.226.15h.352c.326 0 .602.25.652.577 0 .025.05.377.05.753 0 .402-.05.778-.05.803-.05.327-.352.578-.652.578h-.352c-.1 0-.2.1-.225.175l-.301.728c-.05.1-.025.251.025.301l.25.251a.684.684 0 0 1 .026.879l-.025.025-1.054 1.054a.684.684 0 0 1-.878-.05l-.25-.251c-.076-.076-.2-.076-.302-.05l-.727.301c-.075.025-.15.125-.15.226v.35c0 .327-.251.603-.577.654-.075-.025-.452.025-.828.025zm0-8.86a2.832 2.832 0 0 0-2.835 2.836 2.816 2.816 0 0 0 2.835 2.836 2.832 2.832 0 0 0 2.834-2.836A2.832 2.832 0 0 0 16.93 8.14z"/>
</svg>
