<?xml version="1.0" encoding="UTF-8"?>
<svg width="24px" height="24px" viewBox="0 0 24 24" version="1.1" xmlns="http://www.w3.org/2000/svg" xmlns:xlink="http://www.w3.org/1999/xlink">
    <title>icon/300/takeover/normal</title>
    <g id="icon/300/takeover/normal" stroke="none" stroke-width="1" fill="none" fill-rule="evenodd">
        <g>
            <circle id="Oval-3-Copy-6" cx="12" cy="12" r="12"></circle>
            <path d="M7.0031552,16.4842079 L7,16.547619 C7,16.5136268 7.00267126,16.4802584 7.00781532,16.4477125 C7.01096466,16.4281957 7.01491528,16.409043 7.01975524,16.3900703 C7.02313681,16.3766101 7.02700076,16.3633312 7.03127873,16.3502396 C7.03543797,16.3376057 7.03993783,16.3251474 7.04483957,16.3128116 C7.05239339,16.2938189 7.06088159,16.2752066 7.07021495,16.2571011 C7.07548519,16.2467849 7.0810297,16.2367027 7.08686854,16.2267454 C7.0978456,16.2081428 7.1096877,16.190137 7.12238826,16.1727995 C7.12580315,16.1680604 7.1294357,16.1632481 7.13314579,16.1584765 L7.14963748,16.1381779 C7.1560947,16.1305324 7.16272933,16.1230416 7.16953501,16.1157117 L7.18596395,16.0986624 L9.36850363,13.9161227 C9.61645556,13.6681707 10.0184651,13.6681707 10.266417,13.9161227 C10.4952957,14.1450014 10.5129018,14.5051481 10.3192352,14.7542219 L10.266417,14.8140361 L9.167,15.912 L13.7135972,15.9126984 C15.1549097,15.9126984 15.7301587,15.4391882 15.7301587,14.3650794 C15.7301587,13.3280088 15.193898,12.8508303 13.859621,12.8191546 L13.7135972,12.8174603 L9.81746032,12.8174603 C8.01177688,12.8174603 7,11.8056834 7,10 C7,8.24590752 7.954787,7.24100359 9.66463679,7.18501242 L9.81746032,7.18253968 L14.832,7.182 L13.733583,6.08387732 C13.5047043,5.85499862 13.4870982,5.49485191 13.6807648,5.24577813 L13.733583,5.18596395 C13.9624617,4.95708524 14.3226084,4.93947919 14.5716822,5.13314579 L14.6314964,5.18596395 L16.8140361,7.36850363 L16.8272645,7.38213127 C16.8421858,7.39796724 16.8563023,7.41456999 16.8695486,7.43187416 L16.8140361,7.36850363 C16.8423569,7.39682448 16.867443,7.42715517 16.8892943,7.45903657 C16.8984194,7.47246053 16.9069868,7.48604758 16.9150409,7.49996881 C16.9240589,7.51545657 16.9323757,7.53138429 16.9399716,7.54756648 C16.9784934,7.62958123 17,7.72100921 17,7.81746032 C17,7.85145258 16.9973287,7.88482093 16.9921847,7.91736691 C16.9890353,7.93688362 16.9850847,7.95603641 16.9802448,7.97500911 C16.9768632,7.9884693 16.9729992,8.00174818 16.9687213,8.0148398 C16.964562,8.02747362 16.9600622,8.039932 16.9551604,8.05226776 C16.9476066,8.07126051 16.9391184,8.08987274 16.9297851,8.10797823 C16.9245148,8.11829448 16.9189703,8.1283767 16.9131315,8.13833393 C16.9021544,8.1569366 16.8903123,8.17494239 16.8776117,8.19227982 C16.8741969,8.197019 16.8705643,8.20183129 16.8668542,8.20660282 L16.8503625,8.22690143 C16.8439053,8.23454696 16.8372707,8.2420378 16.830465,8.24936762 L16.8140361,8.266417 L14.6314964,10.4489567 C14.3835444,10.6969086 13.9815349,10.6969086 13.733583,10.4489567 C13.5047043,10.220078 13.4870982,9.85993128 13.6807648,9.6108575 L13.733583,9.55104331 L14.831,8.452 L9.81746032,8.45238095 C8.71309085,8.45238095 8.26984127,8.89563053 8.26984127,10 C8.26984127,11.0634669 8.68086557,11.5138789 9.69746219,11.5457839 L9.81746032,11.547619 L13.7135972,11.547619 C15.8075943,11.547619 17,12.5291353 17,14.3650794 C17,16.1514033 15.8711777,17.1288606 13.8813993,17.1803913 L13.7135972,17.1825397 L9.167,17.182 L10.266417,18.281202 C10.4952957,18.5100807 10.5129018,18.8702275 10.3192352,19.1193012 L10.266417,19.1791154 C10.0375383,19.4079941 9.6773916,19.4256002 9.42831781,19.2319336 L9.36850363,19.1791154 L7.18596395,16.9965757 L7.17273553,16.9829481 C7.15724342,16.9665064 7.1426189,16.9492381 7.12893513,16.9312164 L7.18596395,16.9965757 C7.1576431,16.9682549 7.13255703,16.9379242 7.11070575,16.9060428 C7.10050734,16.891051 7.09098901,16.8758058 7.08211684,16.8601462 C7.05903545,16.8194739 7.04084738,16.7767748 7.02750946,16.7329166 C7.01776752,16.7007289 7.01085076,16.6695131 7.00631713,16.6375306 C7.00426864,16.6228911 7.00265944,16.6077919 7.00158988,16.5926617 C7.0005384,16.5780147 7,16.5628797 7,16.547619 L7.00012226,16.5351204 C7.00045482,16.5181241 7.0014658,16.5011386 7.0031552,16.4842079 Z" id="Combined-Shape-Copy-2" fill="#FFFFFF" fill-rule="nonzero"></path>
        </g>
    </g>
</svg>
