<svg xmlns="http://www.w3.org/2000/svg" width="26" height="26" viewBox="0 0 26 26">
    <g fill="none" fill-rule="evenodd" stroke="#0684BD">
        <path stroke-linecap="round" stroke-linejoin="round" d="M15 6v3.358a.42.42 0 0 0 .421.421h3.16"/>
        <path stroke-linecap="round" stroke-linejoin="round" d="M19.26 18.972V9.78L15.679 6H9.422A.422.422 0 0 0 9 6.421v12.593c0 .209.17.379.38.379h9.458a.421.421 0 0 0 .422-.421z"/>
        <path fill="#FFF" d="M16 15.956a4.501 4.501 0 1 1-9.002 0 4.501 4.501 0 0 1 9.002 0z"/>
        <path stroke-linecap="round" stroke-linejoin="round" d="M12 14l1.783 1.783L12 17.566M9 16h4.082"/>
        <circle cx="13" cy="13" r="12.5"/>
    </g>
</svg>
