<svg xmlns="http://www.w3.org/2000/svg" width="36" height="36" viewBox="0 0 36 36">
    <g fill="none" fill-rule="evenodd">
        <rect width="36" height="36" fill="#F44236" rx="18"/>
        <path fill="#FFF" fill-rule="nonzero" d="M18.165 17.963c0-2.19 1.75-3.963 3.912-3.963 2.138 0 3.881 1.776 3.881 3.962 0 2.19-1.75 3.963-3.912 3.963h-8.17C11.721 21.89 10 20.123 10 17.962 10 15.772 11.751 14 13.914 14c2.161 0 3.912 1.774 3.912 3.963 0 .865-.234 1.567-.7 2.2h1.74c-.488-.68-.7-1.286-.7-2.2zm-4.238-2.025c-1.193 0-1.991.813-1.991 2.025 0 1.213.799 2.028 1.991 2.028 1.192 0 1.991-.815 1.991-2.028 0-1.212-.798-2.025-1.991-2.025zm10.15 2.025c0-1.21-.804-2.025-2-2.027-1.195 0-2.004.818-2.004 2.027 0 1.202.832 2.028 2.036 2.028 1.186 0 1.967-.808 1.967-2.028z"/>
    </g>
</svg>
