<?xml version="1.0" encoding="UTF-8"?>
<svg width="16px" height="16px" viewBox="0 0 16 16" version="1.1" xmlns="http://www.w3.org/2000/svg" xmlns:xlink="http://www.w3.org/1999/xlink">
    <title>icon_16</title>
    <g id="icon_16" stroke="none" stroke-width="1" fill="none" fill-rule="evenodd">
        <g id="rc-icon-24" fill-rule="nonzero">
            <path d="M12.4375,0 L3.5625,0 C1.59498558,0 0,1.59498558 0,3.5625 L0,12.4375 C0,14.4050144 1.59498558,16 3.5625,16 L12.4375,16 C14.4050144,16 16,14.4050144 16,12.4375 L16,3.5625 C16,1.59498558 14.4050144,0 12.4375,0 Z M3.5625,1.375 L12.4375,1.375 C13.6456229,1.375 14.625,2.35437711 14.625,3.5625 L14.625,12.4375 C14.625,13.6456229 13.6456229,14.625 12.4375,14.625 L3.5625,14.625 C2.35437711,14.625 1.375,13.6456229 1.375,12.4375 L1.375,3.5625 C1.375,2.35437711 2.35437711,1.375 3.5625,1.375 Z" id="Rectangle" fill="#FF7A00"></path>
            <path d="M3.5625,1.375 L12.4375,1.375 C13.6456229,1.375 14.625,2.35437711 14.625,3.5625 L14.625,12.4375 C14.625,13.6456229 13.6456229,14.625 12.4375,14.625 L3.5625,14.625 C2.35437711,14.625 1.375,13.6456229 1.375,12.4375 L1.375,3.5625 C1.375,2.35437711 2.35437711,1.375 3.5625,1.375 Z" id="Path" fill="#FFFFFF"></path>
            <path d="M5.43626425,12.5294547 C5.46720415,12.5307828 5.49809717,12.5257359 5.52700565,12.5146578 C5.55592977,12.5035797 5.58227555,12.4866891 5.60440227,12.4650172 C5.62615395,12.4429078 5.64317089,12.4165953 5.65442176,12.387689 C5.66567263,12.3587828 5.67092303,12.3278921 5.66984483,12.2968921 L5.66984483,5.74701601 C5.66584452,5.71893789 5.66840722,5.69031288 5.67734541,5.663391 C5.6862836,5.63646912 5.70136289,5.61200037 5.72136444,5.59189099 C5.74138161,5.57178161 5.76577413,5.55660973 5.79265121,5.54753161 C5.81952829,5.53846911 5.84813987,5.53575035 5.87625142,5.53962535 L10.1230175,5.53962535 C10.1507384,5.53659411 10.1787718,5.53993785 10.2049926,5.54939098 C10.231229,5.55882848 10.2549496,5.57414099 10.2743729,5.59414099 C10.2937807,5.61414099 10.3083912,5.63829725 10.3170481,5.66479725 C10.3257207,5.69128163 10.3282365,5.71940663 10.3243925,5.74701601 L10.3243925,7.79171947 C10.3284396,7.81936013 10.3260645,7.84756327 10.3174701,7.8741414 C10.3088756,7.90073513 10.2942963,7.92498513 10.2748261,7.945032 C10.2553559,7.96507887 10.2315415,7.9803758 10.205227,7.9897508 C10.1789125,7.9991258 10.1507853,8.00232893 10.1230175,7.99911013 L8.210057,7.99911013 C8.18166413,7.994532 8.1525838,7.99671953 8.1251754,8.00546953 C8.09776707,8.01423513 8.072812,8.02931327 8.052326,8.0495164 C8.03182447,8.06970393 8.01638573,8.09443827 8.0072288,8.12170393 C7.99807187,8.1489852 7.99547787,8.17803207 7.99963447,8.2064852 L7.99963447,9.11256347 C7.99596227,9.31881353 8.01554193,9.52481353 8.0580296,9.72667293 C8.102283,9.90934487 8.17902333,10.0825793 8.28456273,10.2381105 L9.6045086,12.3089703 C9.65023093,12.3828609 9.71557973,12.4425953 9.7932732,12.4815328 C9.87095113,12.5204547 9.9579266,12.5370484 10.0444958,12.5294547 L11.7661603,12.5294547 C11.8527451,12.5294547 11.9091244,12.5062984 11.9352983,12.4579703 C11.9472524,12.4293141 11.9511277,12.397939 11.9465023,12.3672359 C11.9418926,12.3365484 11.9289697,12.307689 11.9091244,12.283814 L10.6002575,10.1696418 C10.5398466,10.0830637 10.5620046,10.0146105 10.6657001,9.96225113 L11.5839274,9.5484854 C11.8795127,9.4290948 12.1307197,9.22082913 12.3027955,8.95248533 C12.4620109,8.67003213 12.5407045,8.3493446 12.5303443,8.025282 L12.5303443,5.02215651 C12.5303443,4.51275018 12.3987873,4.12648449 12.1356576,3.86339069 C11.8725435,3.6002969 11.4862636,3.46875 10.9768179,3.46875 L5.02246661,3.46875 C4.52375616,3.46875 4.14014835,3.6002969 3.87165883,3.86339069 C3.60316931,4.12648449 3.46894017,4.51275018 3.46894017,5.02215651 L3.46894017,12.2968921 C3.46767445,12.3278297 3.47273734,12.358689 3.48381632,12.3876109 C3.49489531,12.4165171 3.51175599,12.4428609 3.53336703,12.4650172 C3.55554062,12.4866422 3.58188641,12.5035015 3.6107949,12.5145797 C3.63970339,12.5256578 3.67058077,12.5307203 3.70150504,12.5294547 L5.43626425,12.5294547 Z" id="Path" fill="#0684BC"></path>
        </g>
    </g>
</svg>
