<svg xmlns="http://www.w3.org/2000/svg" width="21" height="20" viewBox="0 0 21 20">
    <path fill="#FFF" fill-rule="nonzero" d="M16.801 14.821c.715.597.954 1.551.626 2.356-.209.567-1.162 1.7-1.728 2.148-.506.417-1.191.656-2.055.656-2.741 0-6.256-2.327-9.414-6.233C-.447 7.962-.864 3.13 1.132 1.31 1.668.834 2.979.148 3.664.058 4.528-.09 5.362.327 5.81 1.132c.655 1.372 1.49 2.684 2.115 3.668.477.776.387 1.73-.268 2.386-.298.328-.626.507-.924.656l-.089.06c-.179.06-.298.15-.417.239 0 .387.179 1.223 1.43 2.803 1.37 1.7 2.175 1.939 2.413 1.969.12-.12.208-.24.328-.358l.119-.12c.208-.238.447-.477.774-.715.775-.507 1.788-.388 2.383.238.983.984 2.026 1.909 3.128 2.863zm.06-13.48c2.175 1.55 3.515 4.235 4.022 8.112a.59.59 0 0 1-.507.626h-.06a.555.555 0 0 1-.565-.507c-.418-3.46-1.61-5.905-3.486-7.247-2.204-1.58-4.677-1.074-4.707-1.074a.584.584 0 0 1-.685-.447.545.545 0 0 1 .417-.686c.12-.03 2.95-.626 5.57 1.223zm-5.332 4.145a.573.573 0 0 1-.656-.417.545.545 0 0 1 .417-.686c.06-.03 1.639-.358 3.098.686 1.192.835 1.907 2.296 2.175 4.354a.59.59 0 0 1-.506.626h-.06a.555.555 0 0 1-.566-.507c-.238-1.7-.804-2.892-1.698-3.549-1.013-.745-2.204-.507-2.204-.507z"/>
</svg>
