<svg xmlns="http://www.w3.org/2000/svg" width="21" height="21" viewBox="0 0 21 21">
    <path fill="#FFF" fill-rule="evenodd" d="M10.929 9.368V3.643a.429.429 0 1 0-.858 0v5.725a1.21 1.21 0 0 0-.679 1.626l-2.126 2.273a.429.429 0 0 0 .626.586l2.105-2.25c.27.123.587.158.925.035a1.212 1.212 0 0 0 .007-2.27zM10.499 21C4.71 21 0 16.29 0 10.5S4.71 0 10.5 0 21 4.71 21 10.5 16.29 21 10.5 21zm0-20.143C5.184.857.858 5.183.858 10.5c0 5.318 4.326 9.643 9.643 9.643 5.317 0 9.643-4.325 9.643-9.643 0-5.317-4.326-9.643-9.643-9.643z"/>
</svg>
