<svg xmlns="http://www.w3.org/2000/svg" width="21" height="20" viewBox="0 0 21 20">
    <path fill="#FFF" fill-rule="nonzero" d="M16.801 14.821c-1.102-.954-2.145-1.879-3.128-2.863-.595-.626-1.608-.745-2.383-.238a4.582 4.582 0 0 0-.774.715l-.12.12c-.119.119-.208.238-.327.358-.238-.03-1.043-.269-2.413-1.969-1.251-1.58-1.43-2.416-1.43-2.803.12-.09.238-.18.417-.239l.09-.06c.297-.149.625-.328.923-.656.655-.656.745-1.61.268-2.386-.625-.984-1.46-2.296-2.115-3.668C5.362.327 4.529-.09 3.664.058c-.685.09-1.996.776-2.532 1.253-1.996 1.82-1.579 6.65 3.098 12.437 3.158 3.906 6.673 6.233 9.414 6.233.864 0 1.549-.239 2.055-.656.566-.448 1.52-1.581 1.728-2.148.328-.805.09-1.76-.626-2.356zm-.476 1.88c-.15.387-.924 1.341-1.4 1.729-.298.268-.745.388-1.311.388-2.413 0-5.6-2.177-8.52-5.816C.685 7.514.536 3.399 1.877 2.206c.387-.358 1.49-.895 1.936-.955h.149c.328 0 .626.18.804.478.686 1.401 1.52 2.743 2.175 3.757.209.299.149.686-.12.955-.178.179-.416.298-.655.447l-.06.03c-.267.12-.506.268-.774.507a.859.859 0 0 0-.238.596c-.06.925.506 2.148 1.668 3.639 2.294 2.803 3.575 2.386 3.724 2.326l.12-.03.088-.06c.209-.178.388-.387.566-.596l.12-.119c.178-.209.357-.388.566-.537a.762.762 0 0 1 .953.09c1.013 1.014 2.085 1.968 3.187 2.922.298.299.417.686.239 1.044zm.536-15.36C14.239-.51 11.409.088 11.29.118a.545.545 0 0 0-.418.686c.06.298.358.507.685.447.03 0 2.503-.507 4.707 1.074 1.877 1.342 3.068 3.788 3.486 7.247.03.299.268.507.566.507h.06a.59.59 0 0 0 .506-.626c-.507-3.877-1.847-6.561-4.022-8.112zm-5.332 4.145s1.191-.238 2.204.507c.894.657 1.46 1.85 1.698 3.55.03.298.268.506.566.506h.06a.59.59 0 0 0 .506-.626c-.268-2.058-.983-3.519-2.175-4.354-1.46-1.044-3.038-.716-3.098-.686a.545.545 0 0 0-.417.686c.06.268.358.477.656.417z"/>
</svg>
