<svg xmlns="http://www.w3.org/2000/svg" width="23" height="20" viewBox="0 0 23 20">
    <path fill="#0684BD" fill-rule="nonzero" d="M11.702 7.687c2.564 0 4.642 2.03 4.642 4.536 0 2.505-2.078 4.536-4.642 4.536-2.564 0-4.643-2.03-4.643-4.536 0-2.505 2.079-4.536 4.643-4.536zm0-.984c.762 0 1.502.146 2.199.434a5.638 5.638 0 0 1 1.795 1.183 5.494 5.494 0 0 1 1.21 1.754c.295.681.445 1.404.445 2.149 0 .745-.15 1.468-.444 2.149a5.495 5.495 0 0 1-1.21 1.754A5.638 5.638 0 0 1 13.9 17.31a5.727 5.727 0 0 1-2.2.434 5.727 5.727 0 0 1-2.198-.434 5.638 5.638 0 0 1-1.796-1.183 5.495 5.495 0 0 1-1.21-1.754 5.378 5.378 0 0 1-.444-2.15c0-.744.15-1.467.444-2.148a5.495 5.495 0 0 1 1.21-1.754 5.638 5.638 0 0 1 1.796-1.183 5.728 5.728 0 0 1 2.199-.434zm0-6.703a2.84 2.84 0 0 1 1.997.808 2.71 2.71 0 0 1 .827 1.952 2.71 2.71 0 0 1-.827 1.952 2.84 2.84 0 0 1-1.997.808 2.84 2.84 0 0 1-1.998-.808 2.71 2.71 0 0 1-.827-1.952c0-.737.294-1.43.827-1.952A2.84 2.84 0 0 1 11.702 0zM2.825 13.8a2.84 2.84 0 0 1 1.997.808 2.71 2.71 0 0 1 .827 1.952 2.71 2.71 0 0 1-.827 1.952 2.84 2.84 0 0 1-1.997.808 2.84 2.84 0 0 1-1.998-.808A2.71 2.71 0 0 1 0 16.56c0-.737.294-1.43.827-1.952a2.84 2.84 0 0 1 1.998-.808zm17.35 0a2.84 2.84 0 0 1 1.998.808A2.71 2.71 0 0 1 23 16.56a2.71 2.71 0 0 1-.827 1.952 2.84 2.84 0 0 1-1.998.808 2.84 2.84 0 0 1-1.997-.808 2.71 2.71 0 0 1-.827-1.952c0-.737.294-1.43.827-1.952a2.84 2.84 0 0 1 1.997-.808z"/>
</svg>
