<svg xmlns="http://www.w3.org/2000/svg" width="23" height="17" viewBox="0 0 23 17">
    <path fill="#FFF" fill-rule="evenodd" d="M0 1c0-.552.443-1 .997-1h20.205c.55 0 .997.444.997 1 0 .552-.444 1-.997 1H.997A.996.996 0 0 1 0 1zm0 14a1 1 0 0 1 .99-1h4.02c.546 0 .99.444.99 1a1 1 0 0 1-.99 1H.99A.993.993 0 0 1 0 15zm0-7a1 1 0 0 1 .992-1h8.171c.548 0 .992.444.992 1a1 1 0 0 1-.992 1H.993A.994.994 0 0 1 0 8zm15.632.371c.497 0 .98.096 1.434.284.439.181.833.44 1.17.77.339.331.604.716.79 1.145.192.444.29.916.29 1.401 0 .486-.098.958-.29 1.402a3.584 3.584 0 0 1-.79 1.144c-.337.33-.731.59-1.17.771a3.735 3.735 0 0 1-1.434.283 3.735 3.735 0 0 1-2.606-1.054 3.584 3.584 0 0 1-.789-1.144 3.508 3.508 0 0 1-.29-1.402c0-.485.098-.957.29-1.401.186-.429.451-.814.79-1.144.338-.33.731-.59 1.17-.771a3.736 3.736 0 0 1 1.435-.284zm0-4.371c.492 0 .954.187 1.302.527a1.768 1.768 0 0 1 0 2.546c-.348.34-.81.527-1.302.527s-.955-.187-1.303-.527a1.768 1.768 0 0 1 0-2.546c.348-.34.81-.527 1.303-.527zm-5.79 9c.492 0 .955.187 1.303.527a1.768 1.768 0 0 1 0 2.546c-.348.34-.81.527-1.303.527-.492 0-.955-.187-1.302-.527a1.768 1.768 0 0 1 0-2.546c.347-.34.81-.527 1.302-.527zm11.316 0c.492 0 .955.187 1.303.527a1.768 1.768 0 0 1 0 2.546c-.348.34-.811.527-1.303.527-.492 0-.955-.187-1.303-.527a1.768 1.768 0 0 1 0-2.546c.348-.34.81-.527 1.303-.527z"/>
</svg>
