<?xml version="1.0" encoding="UTF-8" standalone="no"?>
<svg width="16px" height="17px" viewBox="0 0 16 17" version="1.1" xmlns="http://www.w3.org/2000/svg" xmlns:xlink="http://www.w3.org/1999/xlink">
    <!-- Generator: Sketch 44.1 (41455) - http://www.bohemiancoding.com/sketch -->
    <defs></defs>
    <g id="Page-1" stroke="none" stroke-width="1" fill="none" fill-rule="evenodd">
        <g id="Recent-Activities4-Expand" transform="translate(-1242.000000, -467.000000)" fill="#303030">
            <g id="Group-3" transform="translate(1028.000000, 467.000000)">
                <g id="icomoon-(2)-copy" transform="translate(214.000000, 0.746952)">
                    <g id="Group">
                        <path d="M7.99697551,15.9932929 C3.59413908,15.9932929 0.00694221352,12.4058609 0.00694221352,8.00325955 C0.00694221352,3.60042311 3.59437414,0.0132262488 7.99697551,0.0132262488 C12.3995769,0.0132262488 15.9870088,3.60065818 15.9870088,8.00325955 C15.9870088,12.4058766 12.3995769,15.9932929 7.99697551,15.9932929 Z M0.659134182,8.00324388 C0.659134182,12.0473262 3.95312831,15.3410852 7.99697551,15.3410852 C12.0410578,15.3410852 15.3348168,12.0473262 15.3348168,8.00324388 C15.3345818,3.95916161 12.0408227,0.665402547 7.99697551,0.665402547 C3.95312831,0.665402547 0.659134182,3.95939667 0.659134182,8.00324388 Z M7.99697551,5.72021156 C8.35527522,5.72021156 8.616619,6.01364936 8.616619,6.33985504 L8.616619,11.884333 C8.616619,12.2428678 8.32318119,12.503522 7.99697551,12.503522 C7.63820568,12.503522 7.37733203,12.2103193 7.37733203,11.884333 L7.37733203,6.37263859 C7.37733203,6.01364936 7.63820568,5.72021156 7.99697551,5.72021156 L7.99697551,5.72021156 Z M7.99697551,3.46996278 C8.35527522,3.46996278 8.616619,3.76361998 8.616619,4.08960627 C8.616619,4.4483761 8.32318119,4.70924976 7.99697551,4.70924976 C7.63820568,4.70924976 7.37733203,4.41581195 7.37733203,4.08960627 C7.37733203,3.76340059 7.63820568,3.46996278 7.99697551,3.46996278 L7.99697551,3.46996278 Z" id="Combined-Shape"></path>
                    </g>
                </g>
            </g>
        </g>
    </g>
</svg>