<svg xmlns="http://www.w3.org/2000/svg" viewBox="0 0 18 16">
    <path fill="#0684BD" fill-rule="nonzero" d="M17.493 6.702a.384.384 0 0 0-.092-.137.353.353 0 0 0-.132-.09.441.441 0 0 0-.167-.03h-1.75V4.738a.434.434 0 0 0-.026-.149.38.38 0 0 0-.235-.23.473.473 0 0 0-.31.002.44.44 0 0 0-.13.075.405.405 0 0 0-.135.302v1.705h-1.745a.433.433 0 0 0-.3.121.416.416 0 0 0-.114.287c0 .055.009.106.026.154a.391.391 0 0 0 .235.23c.049.016.1.024.153.024h1.746v1.71a.368.368 0 0 0 .135.302c.029.03.076.06.128.08a.472.472 0 0 0 .31.001.354.354 0 0 0 .154-.102.298.298 0 0 0 .083-.128.448.448 0 0 0 .025-.153V7.26h1.75a.473.473 0 0 0 .157-.024.355.355 0 0 0 .153-.103.295.295 0 0 0 .083-.127.447.447 0 0 0-.002-.304M13.5 14.5c.015-.739-.128-1.297-.471-1.772-.255-.349-.797-.805-1.153-.964a15.69 15.69 0 0 0-.771-.324c-.338-.134-.474-.19-.682-.28a1.786 1.786 0 0 0-.18-.069c-.062-.02-.062-.02-.13-.045-.32-.11-.518-.213-.69-.408-.013-.014 0-.005-.085-.053-.27-.155-.393-.389-.392-.73a35.448 35.448 0 0 0-.027-.366 5.464 5.464 0 0 1-.013-.406c0-.07.001-.112.008-.17a.706.706 0 0 1 .1-.303l.06-.104a2.8 2.8 0 0 1 .145-.222c.297-.4.452-.877.472-1.468a.821.821 0 0 1 .242-.487 1.8 1.8 0 0 1 .168-.146c.086-.059.126-.17.17-.529.015-.118.02-.16.032-.237.014-.074.03-.222.03-.285 0-.058-.001-.105-.003-.142H9.96v-.5c0-.075.002-.132.005-.223l.002-.068c.004-.1.003-.17-.006-.296-.016-.497-.114-.835-.353-1.306-.295-.56-.813-.9-1.519-1.024a10.534 10.534 0 0 1-.173-.031 9.683 9.683 0 0 0-.16-.03 2.304 2.304 0 0 0-.496 0 2.53 2.53 0 0 0-.509.093c-.862.217-1.38.742-1.588 1.61-.047.206-.066.378-.088.758a4.02 4.02 0 0 0-.018.477v.29l-.252.144c-.132.075-.146.112-.123.328.018.145.036.258.06.39l.064.324A.6.6 0 0 0 5 6.26c.038.028.078.058.113.091.13.122.2.28.197.412a37.082 37.082 0 0 0 .058.517c.038.325.244.745.607 1.29.108.166.113.252.102.499l-.002.054c0 .168-.003.277-.01.466-.008.185-.01.273-.01.397 0 .388-.212.557-.647.775-.05.025-.266.127-.297.145a6.01 6.01 0 0 1-.597.275l-.229.095a8.438 8.438 0 0 0-.208.09l-.147.065c-.147.065-.211.093-.29.13-.528.235-.846.395-1.06.538-.301.212-.55.43-.604.512-.24.397-.428.994-.475 1.547 0 .15.001.249.005.342H13.5zM7.218.512a3.296 3.296 0 0 1 .708.015l.173.032.16.029c.998.174 1.786.693 2.237 1.55.305.6.444 1.078.463 1.713.007.096.01.175.01.258.28.173.363.528.363 1.023 0 .13-.022.342-.045.453a6.79 6.79 0 0 0-.02.163c-.083.66-.197.983-.527 1.197a1.116 1.116 0 0 1-.058.053c-.04.701-.258 1.338-.659 1.879a1.915 1.915 0 0 0-.091.143l-.027.045c0 .151.003.244.01.354 0-.01.017.211.026.36.1.06.142.098.229.196.025.028.105.07.27.127l.126.043c.124.042.203.072.27.104.18.079.31.131.624.257.384.153.579.234.826.347.518.23 1.195.8 1.55 1.287.49.678.686 1.456.661 2.427-.03.516-.206.761-.643.885l-.041.016c-.054.019-.054.019-.186.032H1.37c-.17 0-.258-.007-.362-.086-.31-.133-.49-.348-.487-.661a5.01 5.01 0 0 1-.022-.595c.062-.787.299-1.532.628-2.078.153-.235.474-.516.885-.805.286-.191.64-.369 1.216-.627l.295-.132.145-.064c.067-.03.14-.061.23-.099l.23-.095a5.27 5.27 0 0 0 .493-.225c.063-.036.318-.156.336-.166a1.95 1.95 0 0 0 .098-.052c.001-.069.004-.14.007-.23.008-.212.01-.31.01-.462l.004-.097c-.406-.623-.645-1.126-.704-1.634a37.013 37.013 0 0 0-.044-.39c-.253-.228-.403-.494-.497-.852l-.072-.362a6.61 6.61 0 0 1-.071-.462c-.052-.48.052-.853.37-1.134.004-.105.01-.19.019-.292.024-.414.048-.634.11-.91C4.484 1.752 5.284.943 6.482.643c.199-.062.341-.086.627-.118.027-.005.063-.009.109-.013z"/>
</svg>
