<svg xmlns="http://www.w3.org/2000/svg" width="17" height="18" viewBox="0 0 17 18">
    <path fill="#0684BD" fill-rule="nonzero" d="M13.906 1.137H12.36V.382a.382.382 0 0 0-.386-.377.382.382 0 0 0-.386.377v.755H5.412V.382a.382.382 0 0 0-.386-.377.381.381 0 0 0-.386.377v.755H3.094C1.39 1.137.008 2.488.008 4.155V14.34c0 1.67 1.38 3.019 3.086 3.019h10.813c1.703 0 3.085-1.352 3.085-3.019V4.155c0-1.67-1.38-3.018-3.086-3.018zM16.22 14.34c0 1.25-1.036 2.264-2.314 2.264H3.094c-1.28 0-2.314-1.011-2.314-2.264v-8.3h15.44v8.3zm0-9.054H.78V4.155c0-1.25 1.036-2.264 2.314-2.264H4.64v.755c0 .208.172.377.386.377a.381.381 0 0 0 .386-.377V1.89h6.176v.755c0 .208.173.377.386.377a.382.382 0 0 0 .386-.377V1.89h1.546c1.28 0 2.314 1.012 2.314 2.264v1.132zM3.868 10.569a.382.382 0 0 1-.386-.378c0-.208.172-.377.386-.377h3.86c.213 0 .386.169.386.377a.381.381 0 0 1-.386.378h-3.86zm0 3.018a.382.382 0 0 1-.386-.377c0-.209.172-.378.386-.378h9.264c.214 0 .386.169.386.378a.381.381 0 0 1-.386.377H3.868z"/>
</svg>
