<?xml version="1.0" encoding="UTF-8"?>
<svg width="15px" height="15px" viewBox="0 0 15 15" version="1.1" xmlns="http://www.w3.org/2000/svg" xmlns:xlink="http://www.w3.org/1999/xlink">
    <g id="Status" stroke="none" stroke-width="1" fill="none" fill-rule="evenodd" transform="translate(-131.000000, -366.000000)">
        <g id="icomoon-(2)" transform="translate(131.000000, 366.000000)" fill="#666666">
            <g id="Group">
                <path d="M7.49716454,14.993712 C3.36950539,14.993712 0.00650832517,11.6304946 0.00650832517,7.50305583 C0.00650832517,3.37539667 3.36972576,0.0123996082 7.49716454,0.0123996082 C11.6246033,0.0123996082 14.9878208,3.37561704 14.9878208,7.50305583 C14.9878208,11.6305093 11.6246033,14.993712 7.49716454,14.993712 Z M7.49716454,0.623814887 C3.70605779,0.623814887 0.617938296,3.71193438 0.617938296,7.50304114 C0.617938296,11.2943683 3.70605779,14.3822674 7.49716454,14.3822674 C11.2884917,14.3822674 14.3763908,11.2943683 14.3763908,7.50304114 C14.3761704,3.71171401 11.2882713,0.623814887 7.49716454,0.623814887 L7.49716454,0.623814887 Z" id="Shape"></path>
                <path d="M7.49716454,5.36269833 C7.83307052,5.36269833 8.07808031,5.63779628 8.07808031,5.9436141 L8.07808031,11.1415622 C8.07808031,11.4776885 7.80298237,11.7220519 7.49716454,11.7220519 C7.16081783,11.7220519 6.91624878,11.4471743 6.91624878,11.1415622 L6.91624878,5.97434868 C6.91624878,5.63779628 7.16081783,5.36269833 7.49716454,5.36269833 L7.49716454,5.36269833 Z" id="Shape"></path>
                <path d="M7.49716454,3.25309011 C7.83307052,3.25309011 8.07808031,3.52839373 8.07808031,3.83400588 C8.07808031,4.1703526 7.80298237,4.41492165 7.49716454,4.41492165 C7.16081783,4.41492165 6.91624878,4.1398237 6.91624878,3.83400588 C6.91624878,3.52818805 7.16081783,3.25309011 7.49716454,3.25309011 L7.49716454,3.25309011 Z" id="Shape"></path>
            </g>
        </g>
    </g>
</svg>
