<svg xmlns="http://www.w3.org/2000/svg" width="15" height="21" viewBox="0 0 15 21">
    <path fill="#FFF" fill-rule="nonzero" d="M12.077 8.271H8.61v.282c0 .902.03-.167-.008.732-.038.917.293 1.661.864 2.347a6.688 6.688 0 0 0 1.647 1.403c.586.367 1.174.748 1.693 1.202.976.85 1.444 1.998 1.714 3.231.278 1.28.349 1.594.343 2.9 0 .021-.012.045-.018.077h-2.317c-.02-.521-.033-1.037-.065-1.55-.064-.987-.181-.975-.548-1.907a2.941 2.941 0 0 0-1.248-1.474c-.495-.299-.99-.598-1.47-.92-.695-.463-1.257-1.063-1.73-1.773-.034.039-.064.062-.084.091-.569.862-1.33 1.515-2.206 2.042-.279.167-.551.343-.835.499-.815.45-1.278 1.16-1.521 2.036-.331 1.183-.401 1.412-.419 2.634-.003.1 0 .199 0 .316H.079c-.038-1.696.058-2.367.594-3.97.431-1.28 1.243-2.259 2.374-2.98.293-.187.586-.372.887-.542.742-.418 1.313-1.02 1.805-1.702a2.72 2.72 0 0 0 .533-1.664c-.014-1.002-.003-.032 0-1.034v-.255H2.821L7.453.267c1.55 2.68 3.074 5.324 4.624 8.004z"/>
</svg>
