<svg xmlns="http://www.w3.org/2000/svg" width="22" height="15" viewBox="0 0 22 15">
    <path fill="#FFF" fill-rule="evenodd" d="M14.667 7.509l6.36 6.119.8.77c.061-.106.11-.225.141-.355.026-.103.032-.213.032-.321L21.999 1.4c0-.32-.05-.573-.163-.775l-.81.766c-2.174 2.054-4.197 4.075-6.36 6.117m5.88 6.583c-2.174-2.055-4.313-3.99-6.467-6.025l-1.023.965c-1.176 1.108-2.926 1.118-4.113.019-.293-.272-.58-.549-.87-.823-.056-.052-.116-.1-.18-.156-2.105 1.989-4.192 3.88-6.317 5.884l-.913.89c.183.098.395.151.627.152C4.285 15 7.28 15 10.275 15h10.387c.26 0 .492-.053.688-.152l-.803-.756zM.917 1.386L.167.676a1.47 1.47 0 0 0-.113.287c-.016.054-.036.107-.054.161v12.799c.018.045.04.09.054.137.028.109.07.21.12.303l.745-.726-.003-.003c2.178-2.058 4.229-4.08 6.394-6.126C5.147 5.465 3.092 3.442.916 1.386M.652.182C.72.143.796.11.877.082.95.056 1.023.028 1.096 0h19.813c.018.011.035.028.055.034.139.04.261.086.37.14l-.958.923a.278.278 0 0 0-.025.02c-2.603 2.455-5.204 4.827-7.806 7.283-.938.884-2.163.897-3.096.016-2.607-2.46-5.21-4.84-7.818-7.3l-.17-.163L.65.182z"/>
</svg>
