<?xml version="1.0" encoding="UTF-8" standalone="no"?>
<svg width="18px" height="21px" viewBox="0 0 18 21" version="1.1" xmlns="http://www.w3.org/2000/svg" xmlns:xlink="http://www.w3.org/1999/xlink">
    <!-- Generator: Sketch 44.1 (41455) - http://www.bohemiancoding.com/sketch -->
    <defs></defs>
    <g id="Page-1" stroke="none" stroke-width="1" fill="none" fill-rule="evenodd">
        <g id="Group-13" fill-rule="nonzero" fill="#000000">
            <g id="Mute">
                <path d="M12.4705479,10.0787671 L12.4705479,3.34315068 C12.4705479,1.50821918 10.9705479,0.00821917808 9.13561644,0.00821917808 L8.86643836,0.00821917808 C7.06643836,0.00821917808 5.5890411,1.45273973 5.53356164,3.24041096 L12.4541096,10.4075342 C12.4664384,10.2986301 12.4705479,10.189726 12.4705479,10.0787671 L12.4705479,10.0787671 Z" id="Shape"></path>
                <path d="M15.5239726,9.96986301 C15.5013699,9.56506849 15.2568493,9.2260274 14.909589,9.11712329 C14.8150685,9.08630137 14.7205479,9.07191781 14.6280822,9.07191781 C14.1616438,9.07191781 13.7753425,9.44589041 13.7527397,9.98219178 C13.7342466,10.4157534 13.7589041,10.8575342 13.6890411,11.2849315 C13.6705479,11.3979452 13.6479452,11.5089041 13.6232877,11.6178082 L15.0164384,13.060274 C15.4068493,12.1294521 15.5876712,11.0835616 15.5239726,9.96986301 L15.5239726,9.96986301 Z" id="Shape"></path>
                <path d="M17.7719178,18.1993151 L1.41780822,1.14246575 C1.10342466,0.815753425 0.581506849,0.805479452 0.254794521,1.11780822 C-0.0719178082,1.43219178 -0.0821917808,1.95410959 0.230136986,2.28082192 L5.53150685,7.81027397 L5.53150685,10.0787671 C5.52945205,11.9136986 7.03150685,13.4136986 8.86643836,13.4136986 L9.13561644,13.4136986 C9.65342466,13.4136986 10.1465753,13.2945205 10.5842466,13.0808219 L11.8191781,14.3691781 C11.1328767,14.8705479 10.3027397,15.1890411 9.39041096,15.2671233 C9.25273973,15.2794521 9.11506849,15.2856164 8.97945205,15.2856164 C7.0109589,15.2856164 5.23767123,14.0671233 4.52671233,12.1869863 C4.26164384,11.4863014 4.22876712,10.7589041 4.23493151,10.0212329 C4.2390411,9.46438356 3.86506849,9.06986301 3.34931507,9.06986301 C2.84794521,9.06986301 2.48630137,9.45410959 2.47191781,10.0068493 C2.46575342,10.2513699 2.45547945,10.4958904 2.46986301,10.740411 C2.58493151,12.6842466 3.34931507,14.3054795 4.84931507,15.5465753 C5.58493151,16.1547945 6.43972603,16.5308219 7.35,16.7917808 C7.89452055,16.9479452 8.10205479,17.2458904 8.09178082,17.8089041 C8.08356164,18.160274 8.08972603,18.5116438 8.08972603,18.8630137 C8.08972603,19.0684932 8.08972603,19.2739726 8.09178082,19.4815068 C8.09178082,19.6869863 8.08767123,19.8945205 8.09178082,20.1 C8.10205479,20.5315068 8.34452055,20.8705479 8.71849315,20.9876712 C8.81917808,21.0184932 8.91780822,21.0328767 9.01232877,21.0328767 C9.50136986,21.0328767 9.89589041,20.6445205 9.90205479,20.0794521 C9.91027397,19.339726 9.90410959,18.5979452 9.90410959,17.8561644 C9.90410959,17.1760274 10.0664384,16.960274 10.7075342,16.7773973 C11.5828767,16.5287671 12.3636986,16.1363014 13.0273973,15.6287671 L16.5842466,19.339726 C16.8986301,19.6664384 17.4205479,19.6767123 17.7472603,19.3643836 C18.0739726,19.05 18.0842466,18.5280822 17.7719178,18.1993151 Z" id="Shape"></path>
            </g>
        </g>
    </g>
</svg>