<?xml version="1.0" encoding="UTF-8"?>
<svg width="20px" height="19px" viewBox="0 0 20 19" version="1.1" xmlns="http://www.w3.org/2000/svg" xmlns:xlink="http://www.w3.org/1999/xlink">
    <g id="Message-List_Or-Other-Contacts" stroke="none" stroke-width="1" fill="none" fill-rule="evenodd" transform="translate(-261.000000, -247.000000)">
        <g id="Group-2" transform="translate(261.000000, 247.000000)" fill="#0684BD" fill-rule="nonzero">
            <path d="M9.5,8.5 L6.5,8.5 C6.22385763,8.5 6,8.72385763 6,9 C6,9.27614237 6.22385763,9.5 6.5,9.5 L9.5,9.5 L9.5,12.5 C9.5,12.7761424 9.72385763,13 10,13 C10.2761424,13 10.5,12.7761424 10.5,12.5 L10.5,9.5 L13.5,9.5 C13.7761424,9.5 14,9.27614237 14,9 C14,8.72385763 13.7761424,8.5 13.5,8.5 L10.5,8.5 L10.5,5.5 C10.5,5.22385763 10.2761424,5 10,5 C9.72385763,5 9.5,5.22385763 9.5,5.5 L9.5,8.5 Z M0.5,8.7066593 C0.5,4.09169933 4.70765812,0.5 9.94193339,0.5 C15.1763607,0.5 19.3844214,4.09206382 19.3836036,8.707158 C19.3836036,13.3542275 15.1355276,17.107918 9.94193339,17.107918 C9.31241812,17.107918 8.68751478,17.0533158 8.07753803,16.9447557 C7.07716444,17.8592001 5.6562565,18.4999997 3.96768018,18.4999952 L1.97687327,18.4912735 L2.40639725,17.7455045 L2.94286189,16.814124 C3.39407919,16.0094382 3.64988572,15.4663894 3.77516579,15.0703104 C1.7147754,13.484958 0.5,11.1445815 0.5,8.7066593 Z" id="Combined-Shape"></path>
        </g>
    </g>
</svg>
