<svg xmlns="http://www.w3.org/2000/svg" width="15" height="15" viewBox="0 0 15 15">
    <path fill="#C7C7C7" fill-rule="nonzero" d="M11.523 11.523c2.538-2.539 2.574-6.619.08-9.113C9.107-.084 5.027-.05 2.49 2.49-.05 5.028-.084 9.108 2.41 11.602c2.494 2.495 6.574 2.459 9.113-.08zm-.695-.695c-2.148 2.148-5.6 2.178-7.711.067-2.11-2.11-2.08-5.563.067-7.71 2.148-2.148 5.6-2.179 7.711-.068 2.11 2.11 2.08 5.563-.067 7.71zm1.007.401a.508.508 0 0 0-.71-.003.503.503 0 0 0 .003.71l2.621 2.622c.198.197.521.192.71.003a.503.503 0 0 0-.002-.71l-2.622-2.622z"/>
</svg>
