<svg xmlns="http://www.w3.org/2000/svg" width="22" height="22" viewBox="0 0 22 22">
    <path fill="#0684BD" fill-rule="evenodd" d="M10.868 22c-.69 0-1.38-.092-1.38-.092-.598-.092-1.057-.644-1.057-1.197v-.644c0-.184-.138-.368-.276-.414h-.046L6.867 19.1c-.23-.092-.46-.046-.552.046l-.46.46c-.414.415-1.15.46-1.61.093l-.046-.046-1.932-1.887c-.368-.506-.368-1.196.092-1.611l.46-.46c.138-.138.138-.368.092-.553l-.552-1.334c-.046-.138-.23-.276-.414-.276h-.644c-.598 0-1.105-.46-1.196-1.06 0-.045-.092-.735-.092-1.472-.046-.69.046-1.334.092-1.38C.197 9.02.749 8.56 1.3 8.56h.643c.185 0 .368-.138.414-.276v-.046l.552-1.335c.092-.184.046-.46-.046-.552l-.46-.46c-.414-.414-.46-1.105-.092-1.611l.046-.046 1.886-1.933c.46-.368 1.196-.323 1.61.092l.46.46c.138.138.368.138.552.092l1.426-.598c.138-.046.276-.23.276-.414v-.645c0-.599.46-1.105 1.057-1.197.047 0 .69-.092 1.427-.092.69 0 1.38.092 1.38.092.598.092 1.058.644 1.058 1.197v.644c0 .184.138.368.276.414h.046l1.334.552c.23.138.46.046.552-.046l.505-.506c.415-.369 1.15-.414 1.565-.046l.046.046 1.932 1.933c.368.506.368 1.197-.092 1.61l-.46.46c-.138.139-.138.37-.092.553l.552 1.381c.046.138.23.276.414.276h.644c.598 0 1.104.46 1.196 1.059 0 .046.092.69.092 1.38 0 .737-.092 1.427-.092 1.473-.092.599-.645 1.059-1.196 1.059h-.644c-.184 0-.368.184-.414.322l-.552 1.335c-.092.184-.046.46.046.552l.46.46c.414.46.414 1.15.046 1.612l-.046.045-1.932 1.934c-.46.367-1.195.322-1.61-.092l-.46-.461c-.138-.138-.367-.138-.552-.092l-1.333.553c-.138.045-.277.23-.277.413v.644c0 .599-.46 1.105-1.057 1.197-.138-.045-.829.047-1.519.047zm0-16.247a5.194 5.194 0 0 0-5.198 5.2c0 2.9 2.3 5.201 5.198 5.201 2.852 0 5.198-2.3 5.198-5.2 0-2.9-2.346-5.2-5.198-5.2z"/>
</svg>
