<?xml version="1.0" encoding="UTF-8" standalone="no"?>
<svg width="20px" height="16px" viewBox="0 0 20 16" version="1.1" xmlns="http://www.w3.org/2000/svg" xmlns:xlink="http://www.w3.org/1999/xlink">
    <!-- Generator: Sketch 44.1 (41455) - http://www.bohemiancoding.com/sketch -->
    <defs></defs>
    <g id="Page-1" stroke="none" stroke-width="1" fill="none" fill-rule="evenodd">
        <g id="call" transform="translate(-1033.000000, -431.000000)" fill-rule="nonzero" fill="#000000">
            <path d="M1043.27317,441.603062 C1043.28488,441.204788 1043.23805,440.814324 1043.0722,440.445335 C1042.86537,439.984587 1042.50439,439.662454 1042.05951,439.445746 C1041.60683,439.225134 1041.13463,439.043568 1040.67415,438.836621 C1040.2878,438.662865 1039.90732,438.475442 1039.52293,438.295828 C1039.46049,438.266543 1039.43902,438.223592 1039.44098,438.155261 C1039.44488,437.952219 1039.43902,437.749178 1039.44488,437.548089 C1039.44488,437.510995 1039.46244,437.458282 1039.48976,437.436806 C1040.2761,436.810111 1040.60585,435.980374 1040.58049,435.002261 C1040.55902,434.158857 1040.28585,433.405261 1039.68098,432.796136 C1038.86341,431.972256 1037.58341,431.937115 1036.71122,432.708282 C1036.2,433.161221 1035.90732,433.737156 1035.77073,434.395088 C1035.61463,435.158446 1035.68878,435.894472 1036.06146,436.589499 C1036.23317,436.909679 1036.46341,437.184957 1036.7522,437.409474 C1036.80878,437.454377 1036.82829,437.499281 1036.82829,437.567612 C1036.82439,437.760892 1036.82244,437.952219 1036.82829,438.145499 C1036.83024,438.22164 1036.81073,438.268496 1036.74049,438.301685 C1036.32098,438.500822 1035.90732,438.711673 1035.4839,438.899096 C1035.01171,439.109947 1034.52195,439.285656 1034.08098,439.560933 C1033.61659,439.849877 1033.26927,440.232532 1033.11707,440.763564 C1033.0722,440.921702 1033.05463,441.087649 1033.02341,441.251644 C1033.01756,441.282881 1033.00976,441.316071 1033.00195,441.347308 L1033.00195,441.825627 C1033.06829,441.878339 1033.12683,441.956432 1033.20098,441.975956 C1033.45268,442.042335 1033.70634,442.106761 1033.9639,442.137998 C1035.50146,442.321517 1037.04683,442.323469 1038.5922,442.298089 C1039.49366,442.28247 1040.39512,442.243424 1041.29463,442.192663 C1041.85854,442.161426 1042.42634,442.120427 1042.97659,441.97986 C1043.31415,441.89591 1043.26537,441.909577 1043.27317,441.603062 L1043.27317,441.603062 Z M1052.77756,444.964961 C1052.57073,444.504213 1052.20976,444.18208 1051.76488,443.965372 C1051.3122,443.74476 1050.84,443.563194 1050.37951,443.356247 C1049.99317,443.182491 1049.61268,442.995068 1049.22829,442.815454 C1049.16585,442.786169 1049.14439,442.743218 1049.14634,442.674887 C1049.15024,442.471845 1049.14439,442.270756 1049.15024,442.067715 C1049.15024,442.030621 1049.1678,441.977908 1049.19512,441.956432 C1049.98146,441.329737 1050.31122,440.5 1050.28585,439.521887 C1050.26439,438.678483 1049.99122,437.924887 1049.38634,437.315762 C1048.56878,436.491882 1047.28878,436.456741 1046.41659,437.227908 C1045.90537,437.680847 1045.61268,438.256782 1045.4761,438.914714 C1045.32,439.678072 1045.39415,440.414098 1045.76683,441.109125 C1045.93854,441.429305 1046.16878,441.704583 1046.45756,441.9291 C1046.51415,441.974003 1046.53366,442.018907 1046.53366,442.087238 C1046.52976,442.280518 1046.52976,442.471845 1046.53366,442.665125 C1046.53561,442.741266 1046.5161,442.788122 1046.44585,442.821311 C1046.02634,443.020448 1045.61268,443.231299 1045.18927,443.418722 C1044.71707,443.629573 1044.22732,443.805282 1043.78634,444.080559 C1043.32195,444.369503 1042.97463,444.752158 1042.82244,445.283189 C1042.77756,445.441328 1042.76,445.607275 1042.72878,445.77127 C1042.72293,445.802507 1042.71512,445.835697 1042.70732,445.866934 L1042.70732,446.345253 C1042.77366,446.397965 1042.8322,446.476058 1042.90634,446.495582 C1043.15805,446.561961 1043.41171,446.626387 1043.66927,446.657624 C1045.20683,446.841143 1046.7522,446.843095 1048.29756,446.817715 C1049.19902,446.802096 1050.10049,446.76305 1051,446.712289 C1051.5639,446.681052 1052.13171,446.640053 1052.68195,446.499486 C1053.02146,446.413584 1052.97268,446.425298 1052.98049,446.120736 C1052.99024,445.724414 1052.94341,445.33395 1052.77756,444.964961 L1052.77756,444.964961 Z M1041.26146,432.405672 C1042.01073,432.173346 1043.11902,432.01716 1044.39512,432.602857 C1044.49073,432.64776 1044.58244,432.69852 1044.67415,432.755138 L1043.27707,433.614159 L1046.79122,435.644575 C1047.0078,435.792951 1047.30634,435.664098 1047.34537,435.402487 L1047.51317,431.009762 L1045.71024,432.116728 C1045.48195,431.919544 1045.23024,431.749692 1044.94732,431.620838 C1043.34341,430.888718 1041.84683,431.099568 1040.94732,431.380703 C1040.64293,431.476367 1040.48878,431.810214 1040.61366,432.105014 C1040.72293,432.354912 1041,432.485717 1041.26146,432.405672 L1041.26146,432.405672 Z" id="Transfer"></path>
        </g>
    </g>
</svg>