<?xml version="1.0" encoding="UTF-8" standalone="no"?>
<svg width="14px" height="21px" viewBox="0 0 14 21" version="1.1" xmlns="http://www.w3.org/2000/svg" xmlns:xlink="http://www.w3.org/1999/xlink">
    <!-- Generator: Sketch 44.1 (41455) - http://www.bohemiancoding.com/sketch -->
    <defs></defs>
    <g id="Page-1" stroke="none" stroke-width="1" fill="none" fill-rule="evenodd">
        <g id="Group-13" transform="translate(-22.000000, 0.000000)" fill-rule="nonzero" fill="#000000">
            <g id="Unmute" transform="translate(22.445205, 0.000000)">
                <path d="M6.42123288,13.4136986 L6.69041096,13.4136986 C8.52534247,13.4136986 10.0253425,11.9136986 10.0253425,10.0787671 L10.0253425,3.34315068 C10.0253425,1.50821918 8.52534247,0.00821917808 6.69041096,0.00821917808 L6.42123288,0.00821917808 C4.58630137,0.00821917808 3.08630137,1.50821918 3.08630137,3.34315068 L3.08630137,10.0787671 C3.08424658,11.9136986 4.58630137,13.4136986 6.42123288,13.4136986 L6.42123288,13.4136986 Z" id="Shape"></path>
                <path d="M13.0787671,9.96986301 C13.0561644,9.56506849 12.8116438,9.2260274 12.4643836,9.11712329 C12.369863,9.08630137 12.2753425,9.07191781 12.1828767,9.07191781 C11.7164384,9.07191781 11.330137,9.44589041 11.3075342,9.98219178 C11.2890411,10.4157534 11.3136986,10.8575342 11.2438356,11.2849315 C10.8863014,13.4835616 9.15205479,15.0760274 6.94520548,15.2671233 C6.80753425,15.2794521 6.66986301,15.2856164 6.53424658,15.2856164 C4.56575342,15.2856164 2.79246575,14.0671233 2.08150685,12.1869863 C1.81643836,11.4863014 1.78356164,10.7589041 1.78972603,10.0212329 C1.79383562,9.46438356 1.41986301,9.06986301 0.904109589,9.06986301 C0.402739726,9.06986301 0.0410958904,9.45410959 0.0267123288,10.0068493 C0.0205479452,10.2513699 0.0102739726,10.4958904 0.0246575342,10.740411 C0.139726027,12.6842466 0.904109589,14.3054795 2.40410959,15.5465753 C3.13972603,16.1547945 3.99452055,16.5308219 4.90479452,16.7917808 C5.44931507,16.9479452 5.65684932,17.2458904 5.64657534,17.8089041 C5.63835616,18.160274 5.64452055,18.5116438 5.64452055,18.8630137 C5.64452055,19.0684932 5.64452055,19.2739726 5.64657534,19.4815068 C5.64657534,19.6869863 5.64246575,19.8945205 5.64657534,20.1 C5.65684932,20.5315068 5.89931507,20.8705479 6.27328767,20.9876712 C6.3739726,21.0184932 6.47260274,21.0328767 6.56712329,21.0328767 C7.05616438,21.0328767 7.45068493,20.6445205 7.45684932,20.0794521 C7.46506849,19.339726 7.45890411,18.5979452 7.45890411,17.8561644 C7.45890411,17.1760274 7.62123288,16.960274 8.26232877,16.7773973 C11.3691781,15.8938356 13.2636986,13.2164384 13.0787671,9.96986301 Z" id="Shape"></path>
            </g>
        </g>
    </g>
</svg>