<?xml version="1.0" encoding="UTF-8" standalone="no"?>
<svg width="16px" height="7px" viewBox="0 0 16 7" version="1.1" xmlns="http://www.w3.org/2000/svg" xmlns:xlink="http://www.w3.org/1999/xlink">
    <!-- Generator: Sketch 44.1 (41455) - http://www.bohemiancoding.com/sketch -->
    <defs></defs>
    <g id="Page-1" stroke="none" stroke-width="1" fill="none" fill-rule="evenodd">
        <g id="multi-call-2" transform="translate(-1204.000000, -248.000000)" fill="#000000">
            <path d="M1207.447,253.89374 C1206.097,253.89374 1205,252.79574 1205,251.44674 C1205,250.09774 1206.097,248.99974 1207.447,248.99974 C1208.796,248.99974 1209.893,250.09774 1209.893,251.44674 C1209.893,252.79574 1208.796,253.89374 1207.447,253.89374 M1216.427,253.89374 C1215.078,253.89374 1213.98,252.79574 1213.98,251.44674 C1213.98,250.09774 1215.078,248.99974 1216.427,248.99974 C1217.777,248.99974 1218.875,250.09774 1218.875,251.44674 C1218.875,252.79574 1217.777,253.89374 1216.427,253.89374 M1216.427,247.99974 C1214.524,247.99974 1212.98,249.54274 1212.98,251.44674 C1212.98,252.40374 1213.372,253.26874 1214.002,253.89374 L1209.873,253.89374 C1210.503,253.26874 1210.893,252.40374 1210.893,251.44674 C1210.893,249.54274 1209.35,247.99974 1207.447,247.99974 C1205.543,247.99974 1204,249.54274 1204,251.44674 C1204,253.35074 1205.543,254.89374 1207.447,254.89374 L1216.427,254.89374 C1218.331,254.89374 1219.875,253.35074 1219.875,251.44674 C1219.875,249.54274 1218.331,247.99974 1216.427,247.99974" id="Page-1"></path>
        </g>
    </g>
</svg>