<svg xmlns="http://www.w3.org/2000/svg" width="24" height="24" viewBox="0 0 24 24">
    <g fill="none" fill-rule="evenodd">
        <rect width="23" height="23" x=".5" y=".5" fill="#4475FD" stroke="#4475FD" rx="11.5"/>
        <g fill="#FFF" fill-rule="nonzero">
            <path d="M2.511 9.62H1.48C.664 9.62 0 8.968 0 8.167V5.873C0 5.072.664 4.42 1.48 4.42H2.51c.371 0 .673.296.673.66v3.88c0 .364-.302.66-.673.66zM6.367 0C3.813 0 1.72 1.96 1.592 4.418h.827C2.546 2.404 4.269.804 6.367.804c2.1 0 3.823 1.601 3.949 3.616l.084-.002h.743C11.015 1.96 8.922 0 6.367 0zM11.52 9.62H10.49c-.371 0-.673-.296-.673-.66V5.08c0-.364.302-.66.673-.66h1.031c.816 0 1.48.652 1.48 1.453v2.294c0 .801-.664 1.453-1.48 1.453z" transform="translate(6 5)"/>
            <path d="M8.857 12.22H7.566c-.222 0-.403-.174-.403-.39 0-.214.18-.389.403-.389h1.291c.816 0 1.48-.642 1.48-1.431v-.52c0-.216.18-.39.403-.39.223 0 .403.174.403.39v.52c0 1.219-1.026 2.21-2.286 2.21z" transform="translate(6 5)"/>
            <path d="M6.5 13c-.805 0-1.46-.525-1.46-1.17 0-.645.655-1.17 1.46-1.17.805 0 1.46.525 1.46 1.17 0 .645-.655 1.17-1.46 1.17z" transform="translate(6 5)"/>
        </g>
    </g>
</svg>
